<svg width="44" height="40" viewBox="0 0 44 40" fill="none" xmlns="http://www.w3.org/2000/svg" xmlns:xlink="http://www.w3.org/1999/xlink">
<path d="M14,16C10.686,16 8,13.314 8,10L4,10C4,15.523 8.477,20 14,20L14,16ZM8,10C8,6.686 10.686,4 14,4L14,0C8.477,0 4,4.477 4,10L8,10ZM14,4C17.314,4 20,6.686 20,10L24,10C24,4.477 19.523,0 14,0L14,4ZM20,10C20,13.314 17.314,16 14,16L14,20C19.523,20 24,15.523 24,10L20,10Z" fill="#AA0404"/>
<path d="M30,36C26.686,36 24,33.314 24,30L20,30C20,35.523 24.477,40 30,40L30,36ZM24,30C24,26.686 26.686,24 30,24L30,20C24.477,20 20,24.477 20,30L24,30ZM30,24C33.314,24 36,26.686 36,30L40,30C40,24.477 35.523,20 30,20L30,24ZM36,30C36,33.314 33.314,36 30,36L30,40C35.523,40 40,35.523 40,30L36,30Z" fill="#AA0404"/>
<path d="M2,8C0.895,8 0,8.895 0,10C0,11.105 0.895,12 2,12L2,8ZM6,12C7.105,12 8,11.105 8,10C8,8.895 7.105,8 6,8L6,12ZM21.994,8C20.889,8 19.994,8.895 19.994,10C19.994,11.105 20.889,12 21.994,12L21.994,8ZM42,12C43.105,12 44,11.105 44,10C44,8.895 43.105,8 42,8L42,12ZM42,32C43.105,32 44,31.105 44,30C44,28.895 43.105,28 42,28L42,32ZM38,28C36.895,28 36,28.895 36,30C36,31.105 36.895,32 38,32L38,28ZM22.006,32C23.111,32 24.006,31.105 24.006,30C24.006,28.895 23.111,28 22.006,28L22.006,32ZM2,28C0.895,28 0,28.895 0,30C0,31.105 0.895,32 2,32L2,28ZM2,12L6,12L6,8L2,8L2,12ZM21.994,12L42,12L42,8L21.994,8L21.994,12ZM42,28L38,28L38,32L42,32L42,28ZM22.006,28L2,28L2,32L22.006,32L22.006,28Z" fill="#AA0404"/>
</svg>
