<svg width="48" height="50" viewBox="0 0 48 50" fill="none" xmlns="http://www.w3.org/2000/svg" xmlns:xlink="http://www.w3.org/1999/xlink">
<path d="M42,24.386C42,34.474 33.92,42.614 24,42.614L24,46.614C36.172,46.614 46,36.641 46,24.386L42,24.386ZM24,42.614C14.08,42.614 6,34.474 6,24.386L2,24.386C2,36.641 11.828,46.614 24,46.614L24,42.614ZM6,24.386C6,14.298 14.08,6.159 24,6.159L24,2.159C11.828,2.159 2,12.132 2,24.386L6,24.386ZM24,6.159C33.92,6.159 42,14.298 42,24.386L46,24.386C46,12.132 36.172,2.159 24,2.159L24,6.159Z" fill="#000000"/>
<path d="M25.422,17.702C26.199,16.916 26.192,15.65 25.406,14.873C24.621,14.097 23.354,14.104 22.578,14.889L25.422,17.702ZM16,24.386L14.578,22.98C13.807,23.759 13.807,25.013 14.578,25.793L16,24.386ZM22.578,33.883C23.354,34.669 24.621,34.676 25.406,33.899C26.192,33.123 26.199,31.857 25.422,31.071L22.578,33.883ZM22.578,14.889L14.578,22.98L17.422,25.793L25.422,17.702L22.578,14.889ZM14.578,25.793L22.578,33.883L25.422,31.071L17.422,22.98L14.578,25.793Z" fill="#000000"/>
<line x1="16" y1="22.386" x2="32" y2="22.386" stroke="#000000" stroke-width="2" stroke-miterlimit="3.999327" stroke-linecap="round" stroke-linejoin="round"/>
</svg>
