<svg width="48" height="50" viewBox="0 0 48 50" fill="none" xmlns="http://www.w3.org/2000/svg" xmlns:xlink="http://www.w3.org/1999/xlink">
<path d="M42,24.386C42,34.474 33.92,42.614 24,42.614L24,46.614C36.172,46.614 46,36.641 46,24.386L42,24.386ZM24,42.614C14.08,42.614 6,34.474 6,24.386L2,24.386C2,36.641 11.828,46.614 24,46.614L24,42.614ZM6,24.386C6,14.298 14.08,6.159 24,6.159L24,2.159C11.828,2.159 2,12.132 2,24.386L6,24.386ZM24,6.159C33.92,6.159 42,14.298 42,24.386L46,24.386C46,12.132 36.172,2.159 24,2.159L24,6.159Z" fill="#000000"/>
<path d="M22.578,31.071C21.801,31.857 21.808,33.123 22.594,33.899C23.379,34.676 24.646,34.669 25.422,33.883L22.578,31.071ZM32,24.386L33.422,25.793C34.193,25.013 34.193,23.759 33.422,22.98L32,24.386ZM25.422,14.889C24.646,14.104 23.379,14.097 22.594,14.873C21.808,15.65 21.801,16.916 22.578,17.702L25.422,14.889ZM25.422,33.883L33.422,25.793L30.578,22.98L22.578,31.071L25.422,33.883ZM33.422,22.98L25.422,14.889L22.578,17.702L30.578,25.793L33.422,22.98Z" fill="#000000"/>
<line x1="16" y1="22.386" x2="32" y2="22.386" stroke="#000000" stroke-width="2" stroke-miterlimit="3.999327" stroke-linecap="round" stroke-linejoin="round"/>
</svg>
