<svg width="72" height="78" viewBox="0 0 72 78" fill="none" xmlns="http://www.w3.org/2000/svg" xmlns:xlink="http://www.w3.org/1999/xlink">
<g filter="url(#filter495_3886)">
<path d="M49.124,0L22.673,0C10.151,0 0,10.977 0,24.517L0,53.12C0,66.66 10.151,77.636 22.673,77.636L49.124,77.636C61.646,77.636 71.797,66.66 71.797,53.12L71.797,24.517C71.797,10.977 61.646,0 49.124,0Z" fill="#FFFFFF" fill-opacity="0.67"/>
</g>
<path d="M65.043,52.993C65.962,52.062 65.952,50.563 65.021,49.644C64.09,48.725 62.591,48.734 61.672,49.665L65.043,52.993ZM53.91,60.899L52.225,59.235C51.335,60.136 51.312,61.577 52.171,62.507L53.91,60.899ZM61.618,72.722C62.506,73.682 64.005,73.741 64.965,72.853C65.926,71.965 65.984,70.466 65.096,69.506L61.618,72.722ZM61.672,49.665L52.225,59.235L55.596,62.563L65.043,52.993L61.672,49.665ZM52.171,62.507L61.618,72.722L65.096,69.506L55.649,59.291L52.171,62.507Z" fill="#0D0D0D"/>
<defs>
<filter id="filter495_3886" x="-23.684212" y="-23.684212" width="83.267017" height="86.186615" filterUnits="userSpaceOnUse" color-interpolation-filters="sRGB">
<feFlood flood-opacity="0" result="BackgroundImageFix"/>
<feColorMatrix in="SourceAlpha" type="matrix" values="0 0 0 0 0 0 0 0 0 0 0 0 0 0 0 0 0 0 127 0" result="hardAlpha"/>
<feMorphology radius="0" operator="dilate" in="SourceAlpha" result="0dropshadow"/>
<feOffset dx="5.921053" dy="11.842106"/>
<feGaussianBlur stdDeviation="11.842106"/>
<feComposite in2="hardAlpha" operator="out"/>
<feColorMatrix type="matrix" values="0 0 0 0 0.827451 0 0 0 0 0.819608 0 0 0 0 0.847059 0 0 0 0.3 0"/>
<feBlend mode="normal" in2="BackgroundImageFix" result="0dropshadow"/>
<feBlend mode="normal" in="SourceGraphic" in2="0dropshadow" result="shape"/>
</filter>
</defs>
</svg>
