<svg width="68" height="66" viewBox="0 0 68 66" fill="none" xmlns="http://www.w3.org/2000/svg" xmlns:xlink="http://www.w3.org/1999/xlink">
<g filter="url(#filter538_687)">
<path d="M45.825,0L21.15,0C9.469,0 0,9.294 0,20.759L0,44.977C0,56.442 9.469,65.736 21.15,65.736L45.825,65.736C57.506,65.736 66.975,56.442 66.975,44.977L66.975,20.759C66.975,9.294 57.506,0 45.825,0Z" fill="#FFFFFF" fill-opacity="0.67"/>
</g>
<path d="M40.183,26.577C41.146,25.691 41.209,24.193 40.324,23.23C39.438,22.267 37.94,22.204 36.977,23.09L40.183,26.577ZM29.768,32.936L28.165,31.192C27.687,31.632 27.41,32.248 27.399,32.897C27.389,33.546 27.645,34.171 28.109,34.626L29.768,32.936ZM36.921,43.276C37.855,44.192 39.354,44.178 40.27,43.244C41.187,42.311 41.173,40.811 40.239,39.895L36.921,43.276ZM36.977,23.09L28.165,31.192L31.371,34.679L40.183,26.577L36.977,23.09ZM28.109,34.626L36.921,43.276L40.239,39.895L31.427,31.246L28.109,34.626Z" fill="#0D0D0D"/>
<defs>
<filter id="filter538_687" x="-23.684212" y="-23.684212" width="80.855919" height="80.236382" filterUnits="userSpaceOnUse" color-interpolation-filters="sRGB">
<feFlood flood-opacity="0" result="BackgroundImageFix"/>
<feColorMatrix in="SourceAlpha" type="matrix" values="0 0 0 0 0 0 0 0 0 0 0 0 0 0 0 0 0 0 127 0" result="hardAlpha"/>
<feMorphology radius="0" operator="dilate" in="SourceAlpha" result="0dropshadow"/>
<feOffset dx="5.921053" dy="11.842106"/>
<feGaussianBlur stdDeviation="11.842106"/>
<feComposite in2="hardAlpha" operator="out"/>
<feColorMatrix type="matrix" values="0 0 0 0 0.827451 0 0 0 0 0.819608 0 0 0 0 0.847059 0 0 0 0.3 0"/>
<feBlend mode="normal" in2="BackgroundImageFix" result="0dropshadow"/>
<feBlend mode="normal" in="SourceGraphic" in2="0dropshadow" result="shape"/>
</filter>
</defs>
</svg>
