<svg width="90" height="90" viewBox="0 0 90 90" fill="none" xmlns="http://www.w3.org/2000/svg" xmlns:xlink="http://www.w3.org/1999/xlink">
<g filter="url(#filter486_1714)">
<path d="M61.579,0L28.421,0C12.725,0 0,12.725 0,28.421L0,61.579C0,77.275 12.725,90 28.421,90L61.579,90C77.275,90 90,77.275 90,61.579L90,28.421C90,12.725 77.275,0 61.579,0Z" fill="#FF0000"/>
</g>
<path d="M53.461,35.728C54.416,34.834 54.465,33.335 53.571,32.38C52.676,31.426 51.177,31.377 50.223,32.271L53.461,35.728ZM40,45.093L38.381,43.365C37.913,43.803 37.642,44.413 37.632,45.055C37.621,45.696 37.872,46.314 38.325,46.768L40,45.093ZM50.167,58.61C51.092,59.535 52.592,59.535 53.517,58.61C54.442,57.685 54.442,56.185 53.517,55.26L50.167,58.61ZM50.223,32.271L38.381,43.365L41.619,46.822L53.461,35.728L50.223,32.271ZM38.325,46.768L50.167,58.61L53.517,55.26L41.675,43.418L38.325,46.768Z" fill="#FFFFFF"/>
<defs>
<filter id="filter486_1714" x="-23.684212" y="-23.684212" width="92.368423" height="92.368423" filterUnits="userSpaceOnUse" color-interpolation-filters="sRGB">
<feFlood flood-opacity="0" result="BackgroundImageFix"/>
<feColorMatrix in="SourceAlpha" type="matrix" values="0 0 0 0 0 0 0 0 0 0 0 0 0 0 0 0 0 0 127 0" result="hardAlpha"/>
<feMorphology radius="0" operator="dilate" in="SourceAlpha" result="0dropshadow"/>
<feOffset dx="5.921053" dy="11.842106"/>
<feGaussianBlur stdDeviation="11.842106"/>
<feComposite in2="hardAlpha" operator="out"/>
<feColorMatrix type="matrix" values="0 0 0 0 0.827451 0 0 0 0 0.819608 0 0 0 0 0.847059 0 0 0 0.3 0"/>
<feBlend mode="normal" in2="BackgroundImageFix" result="0dropshadow"/>
<feBlend mode="normal" in="SourceGraphic" in2="0dropshadow" result="shape"/>
</filter>
</defs>
</svg>
