<svg width="220" height="220" viewBox="0 0 220 220" fill="none" xmlns="http://www.w3.org/2000/svg" xmlns:xlink="http://www.w3.org/1999/xlink">
<g opacity="0.08">
<circle cx="110" cy="110" r="110" fill="#FFFFFF" stroke="#0D0D0D" stroke-width="1" stroke-miterlimit="3.999327"/>
</g>
<g opacity="0.15">
<circle cx="110" cy="110" r="94" fill="#816900"/>
</g>
<g opacity="0.35">
<circle cx="110" cy="110" r="76" fill="#0D0D0D" fill-opacity="0.84"/>
</g>
<g opacity="0.8">
<circle cx="110" cy="110" r="60" fill="#FF3232"/>
</g>
<path d="M109,90.531C116.456,90.531 122.5,96.576 122.5,104.031L122.5,106.121C122.5,109.193 121.593,112.196 119.892,114.754L109.027,131.091C109.014,131.11 108.986,131.11 108.973,131.091L98.108,114.754C96.407,112.196 95.5,109.193 95.5,106.121L95.5,104.031C95.5,96.576 101.544,90.531 109,90.531ZM114.867,103.374C114.494,101.617 113.352,100.119 111.756,99.293C110.027,98.399 107.973,98.399 106.244,99.293C104.648,100.119 103.506,101.617 103.133,103.374L103.022,103.897C102.639,105.699 103.048,107.578 104.147,109.058L104.325,109.298C105.424,110.778 107.158,111.65 109,111.65C110.842,111.65 112.576,110.778 113.675,109.298L113.853,109.058C114.952,107.578 115.361,105.699 114.978,103.897L114.867,103.374Z" clip-rule="evenodd" fill-rule="evenodd" transform="rotate(0 109 110.819)" fill="#FFFFFF" stroke="#0D0D0D" stroke-width="1" stroke-miterlimit="3.999327" stroke-linecap="square"/>
</svg>
