<svg width="412" height="380" viewBox="0 0 412 380" fill="none" xmlns="http://www.w3.org/2000/svg" xmlns:xlink="http://www.w3.org/1999/xlink">
<rect  x="-0.623" y="72" width="330.318" height="212.405" rx="6" fill="#FF7622"/>
<path d="M244.286,292.383L181.755,219.971L144.246,263.376L243.32,378.106L318.312,378.106L244.286,292.383Z" fill="#FECB5F"/>
<path d="M244.285,240.26L318.31,326.107L393.303,326.107L281.794,196.791L244.285,240.26Z" fill="#F8F9FA"/>
<path d="M115.266,42.519L242.515,189.397L354.024,318.106L410.554,318.106L410.554,296.796L152.749,-0.776L115.266,42.519Z" fill="#EB001B"/>
<path d="M282.656,107.812L388.952,230.865L388.952,144.051L320.165,64.391L282.656,107.812Z" fill="#FECB5F"/>
<rect  x="36.988" y="96.627" width="12.605" height="22.809" fill="#FF5F00"/>
<path d="M37.432,108.187C37.432,103.56 39.584,99.438 42.934,96.782C40.398,94.769 37.261,93.676 34.032,93.681C26.076,93.681 19.627,100.175 19.627,108.187C19.627,116.198 26.076,122.693 34.032,122.693C37.261,122.698 40.398,121.605 42.934,119.591C39.584,116.936 37.432,112.814 37.432,108.187Z" fill="#EB001B"/>
<path d="M66.086,108.187C66.086,116.198 59.637,122.693 51.681,122.693C48.451,122.698 45.314,121.605 42.777,119.591C46.129,116.935 48.28,112.814 48.28,108.187C48.28,103.56 46.129,99.438 42.777,96.782C45.314,94.769 48.451,93.676 51.681,93.681C59.637,93.681 66.086,100.175 66.086,108.187Z" fill="#F8F9FA"/>
<g opacity="0.5" style="isolation:isolate">
<rect  x="21.592" y="230" width="98.194" height="18" fill="#FBFBFC"/>
</g>
<g opacity="0.5" style="isolation:isolate">
<rect  x="19.627" y="152" width="257.269" height="38" fill="#FBFBFC"/>
</g>
<g opacity="0.5" style="isolation:isolate">
<rect  x="21.592" y="252" width="74.628" height="18" fill="#FBFBFC"/>
</g>
</svg>
