<svg width="30" height="30" viewBox="0 0 30 30" fill="none" xmlns="http://www.w3.org/2000/svg" xmlns:xlink="http://www.w3.org/1999/xlink">
<path d="M25.556,5.414C26.337,4.633 26.337,3.367 25.556,2.586C24.775,1.805 23.509,1.805 22.728,2.586L25.556,5.414ZM2.728,22.586C1.947,23.367 1.947,24.633 2.728,25.414C3.509,26.195 4.775,26.195 5.556,25.414L2.728,22.586ZM22.728,2.586L2.728,22.586L5.556,25.414L25.556,5.414L22.728,2.586Z" transform="rotate(-90 14.142 14)" fill="#FF0000"/>
<path d="M5.556,2.586C4.775,1.805 3.509,1.805 2.728,2.586C1.947,3.367 1.947,4.633 2.728,5.414L5.556,2.586ZM22.728,25.414C23.509,26.195 24.775,26.195 25.556,25.414C26.337,24.633 26.337,23.367 25.556,22.586L22.728,25.414ZM2.728,5.414L22.728,25.414L25.556,22.586L5.556,2.586L2.728,5.414Z" transform="rotate(-90 14.142 14)" fill="#FF0000"/>
</svg>
