<svg width="90" height="90" viewBox="0 0 90 90" fill="none" xmlns="http://www.w3.org/2000/svg" xmlns:xlink="http://www.w3.org/1999/xlink">
<path d="M90,44.303C90,68.771 69.853,88.606 45,88.606C20.147,88.606 0,68.771 0,44.303C0,19.835 20.147,0 45,0C69.853,0 90,19.835 90,44.303Z" fill="#ECF0F4"/>
<path d="M57.403,38C58.19,37.226 58.2,35.959 57.425,35.172C56.65,34.385 55.384,34.375 54.597,35.15L57.403,38ZM34.597,54.84C33.81,55.615 33.8,56.881 34.575,57.669C35.35,58.456 36.616,58.466 37.403,57.691L34.597,54.84ZM54.597,35.15L34.597,54.84L37.403,57.691L57.403,38L54.597,35.15Z" fill="#181C2E"/>
<path d="M37.403,35.15C36.616,34.375 35.35,34.385 34.575,35.172C33.8,35.959 33.81,37.226 34.597,38L37.403,35.15ZM54.597,57.691C55.384,58.466 56.65,58.456 57.425,57.669C58.2,56.881 58.19,55.615 57.403,54.84L54.597,57.691ZM34.597,38L54.597,57.691L57.403,54.84L37.403,35.15L34.597,38Z" fill="#181C2E"/>
</svg>
