<svg width="74" height="12" viewBox="0 0 74 12" fill="none" xmlns="http://www.w3.org/2000/svg" xmlns:xlink="http://www.w3.org/1999/xlink">
<path d="M14,7.691C17.41,9.228 21.451,10.061 25.613,10.061L68.772,10.061C70.91,10.061 72.643,8.906 72.643,7.48L72.643,6.605C71.61,7.277 70.198,7.691 68.644,7.691L14,7.691Z" fill="#000000"/>
<path d="M0,3.422C0,3.828 0.494,4.157 1.103,4.157L5.59,4.157L5.59,6.482C5.59,6.888 6.084,7.217 6.693,7.217L7.548,7.217C8.157,7.217 8.651,6.888 8.651,6.482L8.651,4.157L24.767,4.157L24.767,6.482C24.767,6.888 25.26,7.217 25.869,7.217L26.724,7.217C27.333,7.217 27.827,6.888 27.827,6.482L27.827,4.157L43.943,4.157L43.943,6.482C43.943,6.888 44.436,7.217 45.045,7.217L45.9,7.217C46.509,7.217 47.003,6.888 47.003,6.482L47.003,4.157L63.119,4.157L63.119,6.482C63.119,6.888 63.612,7.217 64.221,7.217L65.076,7.217C65.685,7.217 66.179,6.888 66.179,6.482L66.179,4.157L69.842,4.157C70.45,4.157 70.944,3.828 70.944,3.422L70.944,1.693C69.937,2.335 68.573,2.729 67.073,2.729L66.175,2.729L63.123,2.729L46.999,2.729L43.947,2.729L27.823,2.729L24.771,2.729L23.914,2.729C20.118,2.729 16.429,2.098 13.132,0.893L1.103,0.893C0.494,0.893 0,1.222 0,1.628L0,3.422Z" fill="#000000"/>
</svg>
