<svg width="406" height="418" viewBox="0 0 406 418" fill="none" xmlns="http://www.w3.org/2000/svg" xmlns:xlink="http://www.w3.org/1999/xlink">
<path d="M148.959,-0.719L148.959,156.083L-0.801,156.083L-0.801,-0.719L148.959,-0.719ZM123.999,25.415L24.159,25.415L24.159,129.949L123.999,129.949L123.999,25.415ZM99.039,312.885L49.119,312.885L49.119,365.153L99.039,365.153L99.039,312.885Z" fill="#000000"/>
<path d="M153.416,260.321L153.416,417.123L-0.801,417.123L-0.801,260.321L153.416,260.321ZM24.902,286.455L24.902,390.989L127.713,390.989L127.713,286.455L24.902,286.455ZM307.633,51.251L359.039,51.251L359.039,103.519L307.633,103.519L307.633,51.251Z" fill="#000000"/>
<path d="M252.699,-0.719L252.699,156.083L404.799,156.083L404.799,-0.719L252.699,-0.719ZM379.449,25.415L379.449,129.949L278.049,129.949L278.049,25.415L379.449,25.415ZM201.999,25.415L201.999,-0.719L227.349,-0.719L227.349,51.548L201.999,51.548L201.999,103.816L176.649,103.816L176.649,25.415L201.999,25.415ZM201.999,156.083L201.999,103.816L227.349,103.816L227.349,156.083L201.999,156.083ZM151.299,208.351L151.299,182.217L176.649,182.217L176.649,156.083L201.999,156.083L201.999,208.351L227.349,208.351L227.349,182.217L354.099,182.217L354.099,208.351L252.699,208.351L252.699,234.485L176.649,234.485L176.649,208.351L151.299,208.351ZM151.299,208.351L151.299,234.485L49.899,234.485L49.899,208.351L24.549,208.351L24.549,234.485L-0.801,234.485L-0.801,182.217L75.249,182.217L75.249,208.351L151.299,208.351ZM404.799,234.485L379.449,234.485L379.449,182.217L404.799,182.217L404.799,234.485ZM379.449,234.485L354.099,234.485L354.099,286.751L404.799,286.751L404.799,260.619L379.449,260.619L379.449,234.485ZM278.049,234.485L328.749,234.485L328.749,260.619L303.399,260.619L303.399,286.751L278.049,286.751L278.049,234.485ZM328.749,312.885L328.749,286.751L303.399,286.751L303.399,312.885L278.049,312.885L278.049,339.019L227.349,339.019L227.349,365.153L303.399,365.153L303.399,312.885L328.749,312.885ZM328.749,312.885L404.799,312.885L404.799,339.019L354.099,339.019L354.099,365.153L328.749,365.153L328.749,312.885ZM227.349,286.751L227.349,312.885L252.699,312.885L252.699,260.619L176.649,260.619L176.649,286.751L227.349,286.751Z" fill="#000000"/>
</svg>
