<svg width="892" height="1428" viewBox="0 0 892 1428" fill="none" xmlns="http://www.w3.org/2000/svg" xmlns:xlink="http://www.w3.org/1999/xlink">
<g opacity="0.26" filter="url(#filter551_588)">
<path d="M60,198C60,141.667 105.667,96 162,96L456.294,96L730,96C786.334,96 832,141.667 832,198L832,1326C832,1382.334 786.334,1428 730,1428L162,1428C105.667,1428 60,1382.334 60,1326L60,198Z" fill="#FFFFFF"/>
</g>
<g filter="url(#filter551_595)">
<rect  x="376" y="26" width="112" height="102" rx="168" fill="#F5F5F5"/>
<path d="M487.668,97.671C488.156,99.322 488.248,101.462 486.959,103.76L487.48,97.111C487.547,97.29 487.61,97.475 487.668,97.671Z" fill="#FFFFFF"/>
<path d="M487.481,97.1L487.481,97.11C487.481,97.105 487.481,97.1 487.477,97.1L487.481,97.1Z" fill="#FFFFFF"/>
<path d="M487.475,97.1C487.479,97.1 487.479,97.106 487.479,97.111L486.958,103.76C486.958,103.76 479.467,104.2 471.48,102.907L471.543,102.261L481.161,96.981C483.88,97.475 486.395,97.692 487.475,97.1Z" fill="#FFFFFF"/>
<path d="M485.906,94.373C485.906,94.373 486.857,95.422 487.475,97.1C486.394,97.692 483.879,97.475 481.16,96.981L485.906,94.373Z" fill="#ED1C24"/>
<path d="M485.908,94.373L481.162,96.981C477.825,96.367 474.184,95.329 472.541,94.84C472.641,94.677 472.741,94.504 472.845,94.308C474.647,90.984 485.908,94.373 485.908,94.373Z" fill="#ED1C24"/>
<path d="M477.299,86.725L485.907,94.373C485.907,94.373 474.646,90.984 472.844,94.308C472.74,94.504 472.64,94.678 472.54,94.84C471.973,94.672 471.643,94.569 471.643,94.569L432.255,76.187L403.477,60.738L453.384,78.305C454.71,79.201 455.628,79.837 455.628,79.837C456.428,80.88 463.235,84.335 463.235,84.335C464.937,85.834 477.299,86.725 477.299,86.725Z" fill="#ED1C24"/>
<path d="M471.481,102.907C479.468,104.2 486.959,103.76 486.959,103.76C484.106,108.844 474.196,107.937 474.196,107.937L454.827,104.216C450.94,101.756 420.965,100.164 421.695,100.305L389.263,100.305L388.262,100.436C380.555,100.305 377.352,87.92 377.352,87.92L390.164,87.92L405.879,88.963L416.69,89.973L432.706,92.222L449.322,96.133L460.233,99.523C463.552,101.234 467.577,102.282 471.481,102.907Z" fill="#ED1C24"/>
<path d="M481.162,96.981L471.544,102.261C470.414,96.367 470.968,97.47 472.541,94.84C474.184,95.329 477.825,96.367 481.162,96.981Z" fill="#FFFFFF"/>
<path d="M473.145,83.031L477.299,86.725L460.725,80.891L460.833,80.359L469.304,80.359L473.145,83.031Z" fill="#000000"/>
<path d="M460.725,80.891L477.3,86.725C477.3,86.725 464.938,85.834 463.236,84.335C463.236,84.335 456.429,80.88 455.629,79.837C455.629,79.837 454.711,79.201 453.385,78.305L460.725,80.891Z" fill="#000000"/>
<path d="M474.197,107.937L457.08,107.937L432.256,107.28C431.338,108.546 403.094,106.883 400.925,106.693C395.069,106.693 386.061,101.218 386.061,101.218L388.263,100.436L389.264,100.305L474.197,107.937Z" fill="#000000"/>
<path d="M474.197,107.937L389.264,100.305L421.695,100.305C420.965,100.164 450.941,101.756 454.828,104.216L474.197,107.937Z" fill="#000000"/>
<path d="M469.303,80.359L460.833,80.359L453.726,76.969C453.726,76.969 447.123,74.22 444.316,70.45C442.79,68.402 444.567,67.745 446.502,67.566L462.668,76.024L462.672,76.007L469.303,80.359Z" fill="#726658"/>
<path d="M469.303,80.359L462.671,76.007L449.9,67.631C452.023,68.69 453.441,69.397 453.475,69.342L469.303,80.359Z" fill="#FFFFFF"/>
<path d="M462.672,76.007L462.668,76.024L446.502,67.566C448.049,67.43 449.697,67.599 449.859,67.615C449.868,67.615 449.876,67.62 449.884,67.626L449.901,67.631L462.672,76.007Z" fill="#C2B59B"/>
<path d="M446.502,67.566C444.567,67.745 442.79,68.402 444.317,70.45C447.124,74.22 453.726,76.969 453.726,76.969L460.833,80.359L460.724,80.891L453.384,78.305C450.143,76.111 444.454,72.352 443.816,72.536C442.915,72.797 428.91,62.748 403.477,60.738L391.315,60.151L379.453,59.956C376.45,59.76 376,58.782 376,58.782L405.429,58L430.503,59.173C433.473,59.407 444.171,64.768 449.86,67.615C449.697,67.599 448.05,67.43 446.502,67.566Z" fill="#000000"/>
<path d="M453.384,78.305L403.477,60.738C428.91,62.748 442.915,72.797 443.816,72.536C444.454,72.352 450.143,76.111 453.384,78.305Z" fill="#ED1C24"/>
<path d="M452.425,94.047L450.873,92.831C451.711,93.227 452.262,93.635 452.425,94.047Z" fill="#FFFFFF"/>
<path d="M442.615,86.356L450.873,92.831C444.617,89.865 422.195,87.398 422.195,87.398L400.574,85.964C400.574,85.964 392.066,86.225 386.961,85.443C381.856,84.661 376,74.622 376,74.622L387.461,74.622L404.578,75.274C404.578,75.274 414.388,76.317 421.394,77.23C428.401,78.142 442.615,86.356 442.615,86.356Z" fill="#000000"/>
<path d="M449.873,67.615L449.886,67.626C449.877,67.62 449.868,67.615 449.859,67.615C449.868,67.615 449.873,67.615 449.873,67.615Z" fill="#FFFFFF"/>
<path d="M471.683,94.327C471.316,94.939 471.024,95.313 470.748,95.7C470.475,96.084 470.201,96.503 470.058,97.088C469.92,97.65 469.921,98.284 470.008,99.091C470.095,99.903 470.279,100.976 470.562,102.449L472.526,102.072C472.244,100.599 472.074,99.599 471.996,98.878C471.918,98.152 471.944,97.792 472,97.565C472.05,97.36 472.14,97.194 472.377,96.861C472.612,96.53 472.979,96.056 473.399,95.354L471.683,94.327Z" fill="#000000"/>
<path d="M430.503,59.173L430.582,58.176L430.566,58.175L430.55,58.174L430.503,59.173ZM405.429,58L405.475,57.001L405.439,56.999L405.402,57L405.429,58ZM376,58.782L375.973,57.783L374.457,57.823L375.092,59.201L376,58.782ZM379.453,59.956L379.388,60.953L379.413,60.955L379.437,60.955L379.453,59.956ZM391.315,60.151L391.363,59.152L391.347,59.152L391.331,59.151L391.315,60.151ZM403.477,60.738L403.95,59.857L403.751,59.75L403.525,59.739L403.477,60.738ZM432.255,76.187L431.782,77.068L431.807,77.081L431.832,77.093L432.255,76.187ZM471.643,94.569L471.221,95.475L471.281,95.503L471.345,95.523L471.643,94.569ZM472.54,94.84L472.825,93.882L472.825,93.882L472.54,94.84ZM481.161,96.981L480.98,97.964L480.982,97.965L481.161,96.981ZM487.476,97.1L487.476,96.1L487.219,96.1L486.995,96.223L487.476,97.1ZM450.307,66.721C447.466,65.299 443.354,63.239 439.579,61.506C437.692,60.639 435.877,59.848 434.339,59.257C432.842,58.682 431.488,58.248 430.582,58.176L430.425,60.17C431.003,60.216 432.101,60.54 433.622,61.124C435.103,61.693 436.874,62.464 438.744,63.323C442.483,65.04 446.565,67.084 449.412,68.509L450.307,66.721ZM430.55,58.174L405.475,57.001L405.382,58.999L430.457,60.172L430.55,58.174ZM405.402,57L375.973,57.783L376.027,59.782L405.455,59L405.402,57ZM376,58.782C375.092,59.201 375.092,59.202 375.093,59.203C375.093,59.203 375.093,59.204 375.094,59.205C375.094,59.207 375.095,59.208 375.096,59.21C375.097,59.213 375.099,59.216 375.1,59.219C375.103,59.225 375.107,59.232 375.11,59.238C375.117,59.252 375.125,59.266 375.133,59.281C375.15,59.312 375.17,59.345 375.195,59.382C375.243,59.454 375.307,59.536 375.389,59.623C375.555,59.799 375.789,59.99 376.118,60.171C376.771,60.531 377.789,60.849 379.388,60.953L379.518,58.958C378.115,58.866 377.406,58.598 377.083,58.42C376.924,58.332 376.858,58.266 376.846,58.253C376.839,58.245 376.844,58.249 376.856,58.268C376.862,58.277 376.87,58.289 376.879,58.305C376.883,58.313 376.888,58.322 376.893,58.332C376.895,58.337 376.898,58.342 376.9,58.347C376.902,58.35 376.903,58.352 376.904,58.355C376.905,58.357 376.906,58.358 376.906,58.359C376.907,58.36 376.907,58.361 376.907,58.362C376.908,58.363 376.908,58.364 376,58.782ZM379.437,60.955L391.298,61.151L391.331,59.151L379.47,58.956L379.437,60.955ZM391.267,61.15L403.429,61.737L403.525,59.739L391.363,59.152L391.267,61.15ZM403.004,61.619L431.782,77.068L432.728,75.306L403.95,59.857L403.004,61.619ZM431.832,77.093L471.221,95.475L472.066,93.663L432.678,75.28L431.832,77.093ZM471.643,94.569C471.345,95.523 471.345,95.523 471.345,95.523C471.345,95.523 471.345,95.523 471.345,95.523C471.345,95.523 471.345,95.523 471.345,95.523C471.345,95.523 471.345,95.523 471.345,95.523C471.345,95.523 471.345,95.523 471.346,95.524C471.347,95.524 471.348,95.524 471.349,95.525C471.352,95.525 471.356,95.527 471.361,95.528C471.372,95.532 471.388,95.537 471.408,95.543C471.449,95.556 471.509,95.574 471.587,95.598C471.742,95.645 471.969,95.714 472.256,95.799L472.825,93.882C472.544,93.798 472.322,93.731 472.171,93.685C472.096,93.662 472.038,93.644 472,93.632C471.98,93.626 471.966,93.622 471.956,93.619C471.951,93.617 471.948,93.616 471.945,93.616C471.944,93.615 471.943,93.615 471.943,93.615C471.943,93.615 471.942,93.615 471.942,93.615C471.942,93.615 471.942,93.615 471.942,93.615C471.942,93.615 471.942,93.615 471.942,93.615C471.942,93.615 471.942,93.615 471.942,93.615C471.942,93.615 471.942,93.615 471.643,94.569ZM472.255,95.799C473.906,96.29 477.589,97.34 480.98,97.964L481.342,95.997C478.06,95.393 474.461,94.369 472.825,93.882L472.255,95.799ZM480.982,97.965C482.363,98.216 483.724,98.402 484.895,98.447C486.009,98.49 487.155,98.416 487.956,97.977L486.995,96.223C486.716,96.376 486.065,96.49 484.971,96.449C483.935,96.409 482.679,96.24 481.34,95.997L480.982,97.965ZM487.476,98.1L487.48,98.1L487.48,96.1L487.476,96.1L487.476,98.1Z" fill="#000000"/>
<path d="M486.959,103.76L487.831,104.249L487.831,104.249L486.959,103.76ZM471.481,102.907L471.641,101.92L471.639,101.92L471.481,102.907ZM460.233,99.523L460.691,98.634L460.613,98.594L460.529,98.568L460.233,99.523ZM449.322,96.133L449.619,95.178L449.585,95.168L449.551,95.16L449.322,96.133ZM432.706,92.222L432.935,91.249L432.89,91.238L432.845,91.232L432.706,92.222ZM416.69,89.973L416.829,88.983L416.806,88.98L416.783,88.978L416.69,89.973ZM405.879,88.963L405.973,87.967L405.946,87.965L405.879,88.963ZM390.164,87.92L390.23,86.922L390.197,86.92L390.164,86.92L390.164,87.92ZM377.352,87.92L377.352,86.92L376.06,86.92L376.383,88.17L377.352,87.92ZM388.262,100.436L388.597,101.378L393.802,99.529L388.279,99.436L388.262,100.436ZM386.06,101.218L385.725,100.276L383.743,100.98L385.541,102.072L386.06,101.218ZM400.925,106.693L401.012,105.697L400.968,105.693L400.925,105.693L400.925,106.693ZM432.255,107.28L432.282,106.28L431.755,106.266L431.446,106.693L432.255,107.28ZM457.079,107.937L457.053,108.937L457.079,108.937L457.079,107.937ZM474.196,107.937L474.287,106.942L474.242,106.937L474.196,106.937L474.196,107.937ZM487.668,97.671L488.627,97.387L488.626,97.385L487.668,97.671ZM487.48,97.111L486.48,97.111L486.48,97.291L486.543,97.46L487.48,97.111ZM487.476,97.1L486.537,97.445L486.778,98.1L487.476,98.1L487.476,97.1ZM485.908,94.373L486.648,93.702L486.612,93.662L486.572,93.626L485.908,94.373ZM477.299,86.725L476.635,87.472L476.635,87.472L477.299,86.725ZM473.145,83.031L473.81,82.284L473.765,82.244L473.716,82.21L473.145,83.031ZM469.304,80.359L468.733,81.179L468.733,81.179L469.304,80.359ZM453.476,69.342L454.047,68.521L453.178,67.917L452.624,68.819L453.476,69.342ZM486.959,103.76C486.9,102.762 486.9,102.762 486.9,102.762C486.9,102.762 486.9,102.762 486.9,102.762C486.9,102.762 486.9,102.762 486.9,102.762C486.899,102.762 486.898,102.762 486.896,102.762C486.893,102.762 486.889,102.762 486.882,102.763C486.869,102.764 486.849,102.765 486.822,102.766C486.767,102.769 486.686,102.773 486.578,102.777C486.363,102.787 486.045,102.799 485.638,102.809C484.823,102.83 483.652,102.844 482.233,102.819C479.391,102.768 475.573,102.556 471.641,101.92L471.321,103.894C475.377,104.551 479.296,104.766 482.197,104.818C483.649,104.844 484.85,104.83 485.689,104.808C486.109,104.798 486.438,104.785 486.664,104.776C486.777,104.771 486.864,104.766 486.924,104.763C486.953,104.762 486.976,104.761 486.992,104.76C487,104.759 487.006,104.759 487.01,104.759C487.012,104.759 487.014,104.759 487.015,104.758C487.016,104.758 487.016,104.758 487.017,104.758C487.017,104.758 487.017,104.758 487.017,104.758C487.017,104.758 487.017,104.758 486.959,103.76ZM471.639,101.92C467.788,101.304 463.879,100.278 460.691,98.634L459.774,100.412C463.226,102.191 467.366,103.261 471.323,103.895L471.639,101.92ZM460.529,98.568L449.619,95.178L449.025,97.088L459.936,100.478L460.529,98.568ZM449.551,95.16L432.935,91.249L432.477,93.196L449.093,97.107L449.551,95.16ZM432.845,91.232L416.829,88.983L416.551,90.964L432.567,93.213L432.845,91.232ZM416.783,88.978L405.973,87.967L405.786,89.959L416.597,90.969L416.783,88.978ZM405.946,87.965L390.23,86.922L390.098,88.918L405.813,89.961L405.946,87.965ZM390.164,86.92L377.352,86.92L377.352,88.92L390.164,88.92L390.164,86.92ZM377.352,87.92C376.383,88.17 376.384,88.171 376.384,88.171C376.384,88.171 376.384,88.172 376.384,88.172C376.384,88.173 376.384,88.174 376.385,88.175C376.385,88.177 376.386,88.18 376.387,88.184C376.389,88.191 376.392,88.202 376.395,88.215C376.402,88.242 376.413,88.28 376.426,88.328C376.453,88.425 376.494,88.566 376.547,88.742C376.654,89.096 376.815,89.597 377.032,90.197C377.465,91.395 378.129,93.002 379.047,94.622C380.839,97.783 383.817,101.361 388.245,101.435L388.279,99.436C385,99.38 382.523,96.7 380.787,93.636C379.94,92.143 379.321,90.646 378.913,89.517C378.709,88.954 378.56,88.487 378.461,88.163C378.412,88.001 378.376,87.874 378.353,87.79C378.341,87.748 378.332,87.717 378.327,87.696C378.324,87.686 378.322,87.679 378.321,87.674C378.32,87.672 378.32,87.67 378.32,87.67C378.32,87.669 378.32,87.669 378.32,87.669C378.32,87.669 378.32,87.669 378.32,87.669C378.32,87.669 378.32,87.67 377.352,87.92ZM387.928,99.493L385.725,100.276L386.395,102.16L388.597,101.378L387.928,99.493ZM386.06,101.218C385.541,102.072 385.541,102.072 385.541,102.073C385.541,102.073 385.541,102.073 385.542,102.073C385.542,102.073 385.543,102.074 385.543,102.074C385.545,102.075 385.547,102.076 385.549,102.078C385.554,102.081 385.561,102.085 385.571,102.09C385.589,102.102 385.616,102.118 385.651,102.139C385.722,102.181 385.824,102.241 385.956,102.318C386.22,102.471 386.602,102.689 387.078,102.95C388.03,103.472 389.36,104.168 390.88,104.865C393.871,106.237 397.761,107.693 400.925,107.693L400.925,105.693C398.233,105.693 394.69,104.412 391.713,103.047C390.248,102.375 388.961,101.702 388.04,101.197C387.58,100.944 387.212,100.734 386.961,100.588C386.835,100.515 386.739,100.458 386.674,100.42C386.642,100.401 386.617,100.386 386.602,100.377C386.594,100.372 386.588,100.368 386.584,100.366C386.582,100.365 386.581,100.364 386.58,100.364C386.58,100.363 386.58,100.363 386.579,100.363C386.579,100.363 386.579,100.363 386.579,100.363C386.579,100.363 386.579,100.363 386.06,101.218ZM400.837,107.69C401.947,107.787 409.57,108.251 417.021,108.532C420.749,108.673 424.451,108.768 427.285,108.749C428.698,108.739 429.917,108.701 430.821,108.622C431.27,108.583 431.672,108.532 431.993,108.46C432.152,108.425 432.322,108.378 432.48,108.311C432.608,108.257 432.872,108.133 433.065,107.867L431.446,106.693C431.521,106.589 431.6,106.53 431.637,106.506C431.658,106.492 431.674,106.483 431.684,106.478C431.694,106.472 431.701,106.47 431.702,106.469C431.703,106.468 431.693,106.473 431.666,106.481C431.641,106.488 431.605,106.498 431.559,106.508C431.364,106.551 431.063,106.594 430.648,106.63C429.824,106.702 428.668,106.74 427.271,106.749C424.483,106.768 420.816,106.674 417.097,106.533C409.655,106.252 402.071,105.79 401.012,105.697L400.837,107.69ZM432.229,108.28L457.053,108.937L457.106,106.938L432.282,106.28L432.229,108.28ZM457.079,108.937L474.196,108.937L474.196,106.937L457.079,106.937L457.079,108.937ZM474.196,107.937C474.105,108.933 474.105,108.933 474.106,108.933C474.106,108.933 474.106,108.933 474.107,108.933C474.107,108.933 474.108,108.933 474.109,108.934C474.111,108.934 474.113,108.934 474.116,108.934C474.123,108.935 474.131,108.935 474.142,108.936C474.164,108.938 474.195,108.941 474.235,108.944C474.314,108.949 474.429,108.957 474.574,108.965C474.864,108.981 475.279,108.997 475.783,109C476.79,109.005 478.17,108.959 479.65,108.745C482.521,108.331 486.156,107.235 487.831,104.249L486.087,103.271C484.909,105.37 482.162,106.362 479.365,106.766C478.011,106.961 476.735,107.005 475.795,107C475.326,106.997 474.944,106.982 474.681,106.968C474.55,106.961 474.449,106.954 474.382,106.949C474.348,106.947 474.323,106.945 474.307,106.943C474.299,106.943 474.294,106.942 474.29,106.942C474.289,106.942 474.288,106.942 474.287,106.941C474.287,106.941 474.287,106.941 474.287,106.941C474.287,106.941 474.287,106.941 474.287,106.941C474.287,106.941 474.287,106.942 474.196,107.937ZM487.831,104.249C489.277,101.672 489.175,99.244 488.627,97.387L486.709,97.954C487.136,99.4 487.218,101.253 486.087,103.271L487.831,104.249ZM488.626,97.385C488.561,97.166 488.491,96.961 488.417,96.762L486.543,97.46C486.602,97.62 486.658,97.784 486.71,97.957L488.626,97.385ZM488.48,97.111C488.48,97.111 488.48,97.109 488.48,97.107C488.48,97.105 488.48,97.101 488.48,97.097C488.48,97.089 488.48,97.074 488.479,97.056C488.477,97.027 488.472,96.95 488.448,96.856C488.426,96.768 488.365,96.576 488.19,96.399C487.986,96.192 487.721,96.1 487.476,96.1L487.476,98.1C487.233,98.1 486.97,98.01 486.766,97.803C486.593,97.628 486.533,97.437 486.511,97.352C486.473,97.205 486.48,97.064 486.48,97.111L488.48,97.111ZM488.414,96.755C488.072,95.825 487.64,95.073 487.292,94.552C487.118,94.291 486.963,94.085 486.849,93.942C486.792,93.87 486.745,93.814 486.711,93.773C486.694,93.753 486.68,93.737 486.669,93.725C486.664,93.719 486.66,93.714 486.656,93.71C486.654,93.708 486.653,93.707 486.652,93.705C486.651,93.704 486.65,93.704 486.65,93.703C486.65,93.703 486.649,93.703 486.649,93.702C486.649,93.702 486.649,93.702 486.649,93.702C486.649,93.702 486.648,93.702 485.908,94.373C485.167,95.045 485.167,95.045 485.167,95.045C485.167,95.045 485.166,95.045 485.166,95.045C485.166,95.044 485.166,95.044 485.166,95.044C485.166,95.044 485.165,95.043 485.165,95.043C485.165,95.043 485.165,95.043 485.165,95.043C485.165,95.043 485.166,95.044 485.168,95.046C485.171,95.05 485.178,95.058 485.188,95.07C485.209,95.094 485.241,95.132 485.283,95.185C485.366,95.291 485.488,95.452 485.628,95.662C485.911,96.085 486.262,96.697 486.537,97.445L488.414,96.755ZM486.572,93.626L477.963,85.977L476.635,87.472L485.243,95.121L486.572,93.626ZM477.964,85.978L473.81,82.284L472.481,83.778L476.635,87.472L477.964,85.978ZM473.716,82.21L469.875,79.538L468.733,81.179L472.574,83.852L473.716,82.21ZM469.875,79.538L454.047,68.521L452.905,70.163L468.733,81.179L469.875,79.538ZM452.624,68.819C452.899,68.371 453.36,68.35 453.409,68.347C453.528,68.34 453.618,68.357 453.642,68.362C453.678,68.368 453.704,68.376 453.714,68.379C453.72,68.38 453.724,68.382 453.727,68.383C453.729,68.384 453.731,68.384 453.731,68.384C453.731,68.384 453.728,68.383 453.721,68.381C453.715,68.378 453.706,68.375 453.695,68.37C453.672,68.36 453.642,68.348 453.605,68.331C453.452,68.264 453.219,68.155 452.908,68.004C452.291,67.705 451.412,67.267 450.348,66.736L449.455,68.526C450.514,69.054 451.406,69.499 452.037,69.804C452.35,69.956 452.611,70.079 452.799,70.162C452.89,70.202 452.985,70.242 453.069,70.271C453.104,70.284 453.178,70.309 453.265,70.326C453.302,70.333 453.402,70.351 453.529,70.343C453.585,70.34 454.051,70.317 454.328,69.866L452.624,68.819Z" fill="#000000"/>
<path d="M421.695,100.305L421.695,101.305L421.885,99.323L421.695,100.305ZM454.828,104.216L454.293,105.061L454.453,105.163L454.639,105.198L454.828,104.216ZM389.264,101.305L421.695,101.305L421.695,99.305L389.264,99.305L389.264,101.305ZM421.885,99.323C421.895,99.325 421.914,99.329 421.94,99.336C421.956,99.34 422.019,99.356 422.094,99.39C422.137,99.411 422.243,99.473 422.304,99.518C422.402,99.607 422.601,99.906 422.667,100.125C422.676,100.41 422.506,100.868 422.371,101.026C422.28,101.102 422.121,101.199 422.058,101.227C421.953,101.269 421.866,101.283 421.85,101.286C421.818,101.291 421.794,101.293 421.783,101.294C421.77,101.295 421.76,101.296 421.755,101.296C421.75,101.296 421.746,101.297 421.745,101.297C421.743,101.297 421.753,101.296 421.78,101.297C421.804,101.297 421.838,101.297 421.879,101.299C422.049,101.303 422.327,101.313 422.704,101.331C423.455,101.365 424.576,101.425 425.957,101.509C428.719,101.676 432.51,101.938 436.443,102.281C440.38,102.624 444.446,103.048 447.762,103.537C449.422,103.781 450.878,104.04 452.03,104.31C453.223,104.589 453.965,104.854 454.293,105.061L455.363,103.371C454.719,102.964 453.673,102.64 452.486,102.362C451.257,102.075 449.74,101.806 448.054,101.558C444.68,101.061 440.569,100.633 436.617,100.289C432.662,99.944 428.853,99.681 426.078,99.513C424.691,99.428 423.559,99.368 422.796,99.333C422.416,99.315 422.121,99.304 421.929,99.299C421.84,99.297 421.751,99.295 421.685,99.297C421.668,99.298 421.639,99.299 421.605,99.302C421.589,99.304 421.56,99.306 421.524,99.312C421.505,99.315 421.415,99.33 421.308,99.373C421.245,99.401 421.085,99.498 420.994,99.575C420.859,99.733 420.688,100.192 420.698,100.477C420.764,100.696 420.963,100.996 421.061,101.085C421.123,101.13 421.23,101.193 421.273,101.214C421.351,101.249 421.416,101.266 421.436,101.271C421.466,101.279 421.49,101.284 421.505,101.287L421.885,99.323ZM454.639,105.198L474.008,108.919L474.385,106.955L455.016,103.234L454.639,105.198Z" fill="#000000"/>
<path d="M450.873,92.831L450.445,93.734L458.542,97.573L451.49,92.044L450.873,92.831ZM442.615,86.356L443.232,85.569L443.177,85.525L443.115,85.49L442.615,86.356ZM404.578,75.274L404.684,74.28L404.65,74.276L404.616,74.275L404.578,75.274ZM387.461,74.622L387.499,73.623L387.48,73.622L387.461,73.622L387.461,74.622ZM376,74.622L376,73.622L374.259,73.622L375.136,75.126L376,74.622ZM400.574,85.964L400.64,84.967L400.592,84.963L400.543,84.965L400.574,85.964ZM422.195,87.398L422.304,86.404L422.283,86.402L422.261,86.401L422.195,87.398ZM451.49,92.044L443.232,85.569L441.998,87.142L450.256,93.618L451.49,92.044ZM442.615,86.356C443.115,85.49 443.115,85.49 443.115,85.489C443.115,85.489 443.115,85.489 443.114,85.489C443.114,85.489 443.113,85.488 443.112,85.488C443.11,85.487 443.108,85.485 443.104,85.483C443.097,85.479 443.086,85.473 443.072,85.465C443.044,85.449 443.003,85.425 442.949,85.394C442.842,85.333 442.684,85.244 442.481,85.129C442.075,84.901 441.488,84.574 440.762,84.179C439.312,83.39 437.303,82.328 435.072,81.237C430.661,79.078 425.214,76.719 421.524,76.238L421.265,78.221C424.582,78.653 429.745,80.857 434.193,83.033C436.391,84.109 438.374,85.157 439.807,85.936C440.523,86.326 441.102,86.648 441.5,86.872C441.7,86.984 441.854,87.072 441.958,87.132C442.01,87.161 442.05,87.184 442.076,87.199C442.089,87.207 442.099,87.212 442.106,87.216C442.109,87.218 442.111,87.219 442.113,87.22C442.114,87.221 442.114,87.221 442.114,87.221C442.115,87.221 442.115,87.221 442.115,87.221C442.115,87.221 442.115,87.221 442.615,86.356ZM421.524,76.238C418.011,75.781 413.8,75.291 410.47,74.916C408.805,74.728 407.358,74.569 406.328,74.457C405.813,74.401 405.402,74.357 405.12,74.326C404.979,74.311 404.87,74.3 404.796,74.292C404.759,74.288 404.731,74.285 404.712,74.283C404.703,74.282 404.696,74.281 404.691,74.28C404.689,74.28 404.687,74.28 404.685,74.28C404.685,74.28 404.684,74.28 404.684,74.28C404.684,74.28 404.684,74.28 404.684,74.28C404.684,74.28 404.684,74.28 404.578,75.274C404.472,76.268 404.472,76.268 404.472,76.268C404.472,76.268 404.472,76.268 404.473,76.268C404.473,76.269 404.473,76.269 404.474,76.269C404.475,76.269 404.477,76.269 404.479,76.269C404.484,76.27 404.491,76.27 404.5,76.271C404.519,76.273 404.547,76.276 404.584,76.28C404.657,76.288 404.765,76.3 404.906,76.315C405.188,76.345 405.598,76.389 406.112,76.445C407.14,76.557 408.584,76.716 410.247,76.903C413.573,77.278 417.771,77.766 421.265,78.221L421.524,76.238ZM404.616,74.275L387.499,73.623L387.423,75.621L404.54,76.273L404.616,74.275ZM387.461,73.622L376,73.622L376,75.622L387.461,75.622L387.461,73.622ZM376,74.622C375.136,75.126 375.136,75.126 375.136,75.126C375.137,75.127 375.137,75.127 375.137,75.127C375.137,75.128 375.138,75.128 375.138,75.129C375.139,75.131 375.14,75.133 375.142,75.136C375.145,75.141 375.15,75.149 375.156,75.16C375.168,75.18 375.186,75.21 375.209,75.249C375.255,75.326 375.323,75.438 375.41,75.58C375.585,75.863 375.839,76.267 376.16,76.753C376.8,77.725 377.711,79.031 378.787,80.367C379.861,81.698 381.119,83.082 382.456,84.192C383.776,85.287 385.269,86.195 386.809,86.431L387.112,84.454C386.1,84.299 384.946,83.659 383.733,82.653C382.537,81.66 381.373,80.387 380.344,79.112C379.319,77.84 378.447,76.588 377.83,75.652C377.521,75.185 377.278,74.799 377.113,74.53C377.03,74.396 376.967,74.292 376.925,74.221C376.904,74.186 376.888,74.16 376.878,74.142C376.873,74.134 376.869,74.127 376.867,74.123C376.865,74.121 376.865,74.12 376.864,74.119C376.864,74.119 376.864,74.118 376.864,74.118C376.864,74.118 376.864,74.118 376.864,74.118C376.864,74.118 376.864,74.118 376,74.622ZM386.809,86.431C389.436,86.834 392.898,86.964 395.67,86.997C397.063,87.013 398.295,87.005 399.179,86.993C399.621,86.987 399.976,86.979 400.222,86.974C400.344,86.971 400.439,86.969 400.504,86.967C400.537,86.966 400.561,86.965 400.578,86.965C400.587,86.964 400.593,86.964 400.598,86.964C400.6,86.964 400.601,86.964 400.603,86.964C400.603,86.964 400.604,86.964 400.604,86.964C400.604,86.964 400.604,86.964 400.604,86.964C400.605,86.964 400.605,86.964 400.574,85.964C400.543,84.965 400.543,84.965 400.543,84.965C400.543,84.965 400.543,84.965 400.543,84.965C400.543,84.965 400.543,84.965 400.542,84.965C400.541,84.965 400.54,84.965 400.538,84.965C400.534,84.965 400.528,84.965 400.521,84.966C400.505,84.966 400.481,84.967 400.45,84.968C400.388,84.969 400.295,84.972 400.175,84.974C399.935,84.98 399.586,84.987 399.151,84.993C398.28,85.005 397.066,85.013 395.694,84.997C392.935,84.965 389.591,84.834 387.112,84.454L386.809,86.431ZM400.508,86.962L422.129,88.396L422.261,86.401L400.64,84.967L400.508,86.962ZM422.195,87.398C422.086,88.392 422.086,88.392 422.086,88.393C422.086,88.393 422.086,88.393 422.087,88.393C422.087,88.393 422.088,88.393 422.09,88.393C422.092,88.393 422.096,88.394 422.101,88.394C422.112,88.395 422.128,88.397 422.149,88.399C422.191,88.404 422.254,88.411 422.336,88.421C422.5,88.439 422.743,88.467 423.054,88.503C423.677,88.576 424.575,88.684 425.671,88.822C427.865,89.099 430.853,89.499 434.035,89.991C437.219,90.483 440.586,91.065 443.54,91.708C446.521,92.356 448.994,93.047 450.445,93.734L451.302,91.927C449.624,91.132 446.949,90.402 443.965,89.753C440.956,89.099 437.544,88.509 434.341,88.014C431.135,87.519 428.127,87.116 425.921,86.838C424.818,86.699 423.915,86.591 423.287,86.517C422.973,86.48 422.728,86.452 422.561,86.433C422.478,86.424 422.414,86.417 422.371,86.412C422.349,86.409 422.333,86.408 422.322,86.406C422.316,86.406 422.312,86.405 422.309,86.405C422.308,86.405 422.306,86.405 422.306,86.405C422.305,86.405 422.305,86.405 422.305,86.405C422.305,86.404 422.304,86.404 422.195,87.398Z" fill="#000000"/>
<path d="M450.873,92.831L451.301,91.927L443.235,88.112L450.256,93.617L450.873,92.831ZM452.425,94.047L451.807,94.834L454.705,97.106L453.355,93.681L452.425,94.047ZM450.445,93.735C450.828,93.916 451.106,94.081 451.291,94.224C451.488,94.377 451.507,94.447 451.494,94.414L453.355,93.681C453.179,93.235 452.842,92.895 452.514,92.642C452.173,92.379 451.756,92.142 451.301,91.927L450.445,93.735ZM453.042,93.261L451.49,92.044L450.256,93.617L451.807,94.834L453.042,93.261Z" fill="#000000"/>
<path d="M463.235,84.335L463.896,83.584L463.801,83.501L463.688,83.443L463.235,84.335ZM455.628,79.837L456.421,79.228L456.325,79.104L456.197,79.015L455.628,79.837ZM453.384,78.305L452.823,79.133L452.824,79.134L453.384,78.305ZM443.816,72.536L444.094,73.497L444.094,73.497L443.816,72.536ZM477.299,86.725C477.371,85.728 477.371,85.728 477.371,85.728C477.37,85.728 477.37,85.728 477.37,85.728C477.37,85.727 477.369,85.727 477.369,85.727C477.367,85.727 477.365,85.727 477.363,85.727C477.357,85.727 477.348,85.726 477.337,85.725C477.314,85.723 477.28,85.721 477.235,85.717C477.145,85.711 477.013,85.7 476.844,85.687C476.505,85.66 476.019,85.619 475.43,85.566C474.252,85.46 472.665,85.303 471.028,85.1C469.387,84.896 467.714,84.648 466.356,84.362C465.676,84.219 465.095,84.07 464.646,83.92C464.16,83.757 463.948,83.63 463.896,83.584L462.574,85.085C462.948,85.414 463.494,85.643 464.01,85.816C464.562,86.001 465.226,86.168 465.944,86.319C467.383,86.622 469.12,86.878 470.782,87.084C472.448,87.291 474.058,87.451 475.251,87.558C475.847,87.612 476.34,87.653 476.685,87.681C476.857,87.694 476.992,87.705 477.084,87.712C477.13,87.715 477.165,87.718 477.19,87.72C477.202,87.721 477.211,87.721 477.217,87.722C477.22,87.722 477.223,87.722 477.224,87.722C477.225,87.722 477.226,87.722 477.226,87.722C477.226,87.722 477.226,87.722 477.227,87.722C477.227,87.722 477.227,87.722 477.299,86.725ZM463.235,84.335C463.688,83.443 463.688,83.443 463.688,83.443C463.688,83.443 463.687,83.443 463.687,83.443C463.687,83.443 463.687,83.443 463.687,83.443C463.686,83.442 463.685,83.442 463.683,83.441C463.68,83.439 463.675,83.437 463.669,83.434C463.657,83.427 463.638,83.418 463.613,83.405C463.564,83.38 463.491,83.343 463.398,83.295C463.212,83.199 462.945,83.061 462.622,82.893C461.976,82.554 461.107,82.094 460.215,81.601C459.32,81.108 458.413,80.589 457.685,80.132C457.321,79.904 457.013,79.699 456.779,79.526C456.662,79.439 456.572,79.367 456.506,79.309C456.434,79.246 456.415,79.22 456.421,79.228L454.834,80.446C455.027,80.697 455.323,80.936 455.59,81.134C455.881,81.349 456.237,81.585 456.623,81.827C457.397,82.312 458.341,82.852 459.248,83.353C460.158,83.854 461.041,84.323 461.696,84.665C462.023,84.836 462.294,84.976 462.484,85.074C462.578,85.122 462.653,85.16 462.704,85.186C462.729,85.199 462.748,85.209 462.762,85.216C462.768,85.219 462.773,85.222 462.777,85.224C462.779,85.225 462.78,85.225 462.781,85.226C462.781,85.226 462.782,85.226 462.782,85.226C462.782,85.226 462.782,85.226 462.782,85.226C462.782,85.226 462.782,85.227 463.235,84.335ZM455.628,79.837C456.197,79.015 456.197,79.015 456.197,79.015C456.197,79.015 456.197,79.015 456.197,79.015C456.197,79.015 456.197,79.015 456.197,79.015C456.197,79.015 456.196,79.015 456.196,79.014C456.196,79.014 456.195,79.014 456.194,79.013C456.192,79.012 456.189,79.01 456.186,79.007C456.179,79.002 456.168,78.995 456.154,78.985C456.126,78.966 456.085,78.937 456.031,78.9C455.924,78.826 455.767,78.718 455.568,78.582C455.172,78.31 454.609,77.926 453.944,77.477L452.824,79.134C453.485,79.58 454.044,79.962 454.438,80.232C454.634,80.367 454.79,80.474 454.896,80.547C454.949,80.584 454.99,80.612 455.017,80.631C455.031,80.64 455.041,80.647 455.048,80.652C455.051,80.654 455.054,80.656 455.056,80.657C455.057,80.658 455.057,80.658 455.058,80.659C455.058,80.659 455.058,80.659 455.058,80.659C455.058,80.659 455.058,80.659 455.058,80.659C455.058,80.659 455.058,80.659 455.058,80.659C455.058,80.659 455.058,80.659 455.628,79.837ZM453.944,77.477C452.321,76.378 450.077,74.881 448.154,73.68C447.194,73.081 446.3,72.546 445.596,72.17C445.248,71.983 444.923,71.823 444.65,71.713C444.514,71.659 444.366,71.606 444.218,71.572C444.11,71.547 443.837,71.489 443.538,71.576L444.094,73.497C443.967,73.534 443.868,73.531 443.831,73.529C443.808,73.527 443.792,73.525 443.782,73.524C443.773,73.522 443.768,73.521 443.768,73.521C443.768,73.521 443.771,73.522 443.778,73.524C443.785,73.525 443.794,73.528 443.806,73.532C443.831,73.541 443.864,73.553 443.905,73.569C444.078,73.638 444.328,73.759 444.652,73.933C445.296,74.278 446.146,74.785 447.094,75.377C448.985,76.558 451.205,78.038 452.823,79.133L453.944,77.477ZM443.538,71.576C443.662,71.54 443.761,71.54 443.808,71.542C443.858,71.544 443.892,71.551 443.901,71.553C443.918,71.556 443.904,71.555 443.847,71.533C443.735,71.491 443.561,71.413 443.307,71.288C442.797,71.039 442.101,70.673 441.164,70.195C439.312,69.25 436.653,67.941 433.219,66.561C426.349,63.799 416.39,60.755 403.555,59.741L403.398,61.735C415.996,62.73 425.756,65.716 432.473,68.416C435.832,69.767 438.432,71.047 440.255,71.976C441.155,72.435 441.9,72.827 442.428,73.085C442.692,73.214 442.936,73.327 443.141,73.404C443.242,73.443 443.361,73.483 443.485,73.509C443.576,73.529 443.82,73.576 444.094,73.497L443.538,71.576Z" fill="#000000"/>
<path d="M449.884,67.626L449.229,68.381L449.382,68.514L449.575,68.576L449.884,67.626ZM449.872,67.615L450.527,66.86L450.245,66.615L449.872,66.615L449.872,67.615ZM449.859,67.615L449.76,68.61L449.809,68.615L449.859,68.615L449.859,67.615ZM446.502,67.566L446.414,66.57L446.41,66.57L446.502,67.566ZM444.316,70.45L445.119,69.853L445.118,69.853L444.316,70.45ZM453.726,76.969L454.156,76.066L454.133,76.055L454.11,76.046L453.726,76.969ZM460.833,80.359L460.402,81.261L460.606,81.359L460.833,81.359L460.833,80.359ZM469.303,80.359L469.303,81.359L472.65,81.359L469.852,79.522L469.303,80.359ZM462.672,76.007L463.22,75.171L463.22,75.171L462.672,76.007ZM449.901,67.631L450.449,66.795L450.338,66.722L450.211,66.68L449.901,67.631ZM450.54,66.87L450.527,66.86L449.216,68.37L449.229,68.381L450.54,66.87ZM449.872,67.615C449.872,66.615 449.872,66.615 449.872,66.615C449.872,66.615 449.872,66.615 449.872,66.615C449.872,66.615 449.872,66.615 449.872,66.615C449.872,66.615 449.872,66.615 449.872,66.615C449.872,66.615 449.872,66.615 449.872,66.615C449.872,66.615 449.872,66.615 449.872,66.615C449.872,66.615 449.872,66.615 449.872,66.615C449.872,66.615 449.872,66.615 449.872,66.615C449.872,66.615 449.872,66.615 449.872,66.615C449.872,66.615 449.872,66.615 449.872,66.615C449.872,66.615 449.872,66.615 449.872,66.615C449.872,66.615 449.872,66.615 449.872,66.615C449.872,66.615 449.872,66.615 449.872,66.615C449.872,66.615 449.872,66.615 449.872,66.615C449.872,66.615 449.872,66.615 449.872,66.615C449.872,66.615 449.872,66.615 449.872,66.615C449.872,66.615 449.872,66.615 449.872,66.615C449.872,66.615 449.872,66.615 449.872,66.615C449.872,66.615 449.872,66.615 449.872,66.615C449.872,66.615 449.872,66.615 449.872,66.615C449.872,66.615 449.872,66.615 449.872,66.615C449.872,66.615 449.872,66.615 449.872,66.615C449.872,66.615 449.872,66.615 449.872,66.615C449.872,66.615 449.872,66.615 449.872,66.615C449.872,66.615 449.872,66.615 449.872,66.615C449.872,66.615 449.872,66.615 449.872,66.615C449.872,66.615 449.872,66.615 449.872,66.615C449.872,66.615 449.872,66.615 449.872,66.615C449.872,66.615 449.872,66.615 449.872,66.615C449.872,66.615 449.872,66.615 449.872,66.615C449.872,66.615 449.872,66.615 449.872,66.615C449.872,66.615 449.872,66.615 449.872,66.615C449.872,66.615 449.872,66.615 449.872,66.615C449.872,66.615 449.872,66.615 449.872,66.615C449.872,66.615 449.872,66.615 449.872,66.615C449.872,66.615 449.872,66.615 449.872,66.615C449.872,66.615 449.872,66.615 449.872,66.615C449.872,66.615 449.872,66.615 449.872,66.615C449.872,66.615 449.872,66.615 449.872,66.615C449.872,66.615 449.872,66.615 449.872,66.615C449.872,66.615 449.872,66.615 449.872,66.615C449.872,66.615 449.872,66.615 449.872,66.615C449.872,66.615 449.872,66.615 449.872,66.615C449.872,66.615 449.872,66.615 449.872,66.615C449.872,66.615 449.872,66.615 449.872,66.615C449.872,66.615 449.872,66.615 449.872,66.615C449.872,66.615 449.872,66.615 449.872,66.615C449.872,66.615 449.872,66.615 449.872,66.615C449.872,66.615 449.872,66.615 449.872,66.615C449.872,66.615 449.872,66.615 449.872,66.615C449.872,66.615 449.872,66.615 449.872,66.615C449.872,66.615 449.872,66.615 449.872,66.615C449.872,66.615 449.872,66.615 449.872,66.615C449.872,66.615 449.872,66.615 449.872,66.615C449.872,66.615 449.872,66.615 449.872,66.615C449.872,66.615 449.872,66.615 449.872,66.615C449.872,66.615 449.872,66.615 449.872,66.615C449.872,66.615 449.872,66.615 449.872,66.615C449.872,66.615 449.872,66.615 449.872,66.615C449.872,66.615 449.872,66.615 449.872,66.615C449.872,66.615 449.872,66.615 449.872,66.615C449.872,66.615 449.872,66.615 449.872,66.615C449.872,66.615 449.872,66.615 449.872,66.615C449.872,66.615 449.872,66.615 449.872,66.615C449.872,66.615 449.872,66.615 449.872,66.615C449.872,66.615 449.872,66.615 449.872,66.615C449.872,66.615 449.872,66.615 449.872,66.615C449.872,66.615 449.872,66.615 449.872,66.615C449.872,66.615 449.872,66.615 449.872,66.615C449.872,66.615 449.872,66.615 449.872,66.615C449.872,66.615 449.872,66.615 449.872,66.615C449.872,66.615 449.872,66.615 449.872,66.615C449.872,66.615 449.872,66.615 449.872,66.615C449.872,66.615 449.872,66.615 449.872,66.615C449.872,66.615 449.872,66.615 449.872,66.615C449.872,66.615 449.872,66.615 449.872,66.615C449.872,66.615 449.872,66.615 449.872,66.615C449.872,66.615 449.872,66.615 449.872,66.615C449.872,66.615 449.872,66.615 449.872,66.615C449.872,66.615 449.872,66.615 449.872,66.615C449.872,66.615 449.872,66.615 449.872,66.615C449.872,66.615 449.872,66.615 449.872,66.615C449.872,66.615 449.872,66.615 449.871,66.615C449.871,66.615 449.871,66.615 449.871,66.615C449.871,66.615 449.871,66.615 449.871,66.615C449.871,66.615 449.871,66.615 449.871,66.615C449.871,66.615 449.871,66.615 449.871,66.615C449.871,66.615 449.871,66.615 449.871,66.615C449.871,66.615 449.871,66.615 449.871,66.615C449.871,66.615 449.871,66.615 449.871,66.615C449.871,66.615 449.871,66.615 449.871,66.615C449.871,66.615 449.871,66.615 449.871,66.615C449.871,66.615 449.871,66.615 449.871,66.615C449.871,66.615 449.871,66.615 449.871,66.615C449.871,66.615 449.871,66.615 449.871,66.615C449.871,66.615 449.871,66.615 449.871,66.615C449.871,66.615 449.871,66.615 449.871,66.615C449.871,66.615 449.871,66.615 449.871,66.615C449.871,66.615 449.871,66.615 449.871,66.615C449.871,66.615 449.871,66.615 449.871,66.615C449.871,66.615 449.871,66.615 449.871,66.615C449.871,66.615 449.871,66.615 449.871,66.615C449.871,66.615 449.871,66.615 449.871,66.615C449.871,66.615 449.871,66.615 449.871,66.615C449.871,66.615 449.871,66.615 449.871,66.615C449.871,66.615 449.871,66.615 449.871,66.615C449.871,66.615 449.871,66.615 449.871,66.615C449.871,66.615 449.871,66.615 449.871,66.615C449.871,66.615 449.871,66.615 449.871,66.615C449.871,66.615 449.871,66.615 449.871,66.615C449.871,66.615 449.871,66.615 449.871,66.615C449.871,66.615 449.871,66.615 449.871,66.615C449.871,66.615 449.871,66.615 449.871,66.615C449.871,66.615 449.871,66.615 449.871,66.615C449.871,66.615 449.871,66.615 449.871,66.615C449.871,66.615 449.871,66.615 449.871,66.615C449.871,66.615 449.871,66.615 449.871,66.615C449.871,66.615 449.871,66.615 449.871,66.615C449.871,66.615 449.871,66.615 449.871,66.615C449.871,66.615 449.871,66.615 449.871,66.615C449.871,66.615 449.871,66.615 449.871,66.615C449.871,66.615 449.871,66.615 449.871,66.615C449.871,66.615 449.871,66.615 449.871,66.615C449.871,66.615 449.871,66.615 449.871,66.615C449.871,66.615 449.871,66.615 449.871,66.615C449.871,66.615 449.871,66.615 449.871,66.615C449.871,66.615 449.871,66.615 449.871,66.615C449.871,66.615 449.871,66.615 449.871,66.615C449.871,66.615 449.871,66.615 449.871,66.615C449.871,66.615 449.871,66.615 449.871,66.615C449.871,66.615 449.871,66.615 449.871,66.615C449.871,66.615 449.871,66.615 449.871,66.615C449.871,66.615 449.871,66.615 449.871,66.615C449.871,66.615 449.871,66.615 449.871,66.615C449.871,66.615 449.871,66.615 449.871,66.615C449.871,66.615 449.871,66.615 449.871,66.615C449.871,66.615 449.871,66.615 449.871,66.615C449.871,66.615 449.871,66.615 449.871,66.615C449.871,66.615 449.871,66.615 449.871,66.615C449.871,66.615 449.871,66.615 449.871,66.615C449.871,66.615 449.871,66.615 449.871,66.615C449.871,66.615 449.871,66.615 449.871,66.615C449.871,66.615 449.871,66.615 449.871,66.615C449.871,66.615 449.871,66.615 449.871,66.615C449.871,66.615 449.871,66.615 449.871,66.615C449.871,66.615 449.871,66.615 449.871,66.615C449.871,66.615 449.871,66.615 449.871,66.615C449.871,66.615 449.871,66.615 449.871,66.615C449.871,66.615 449.871,66.615 449.871,66.615C449.871,66.615 449.871,66.615 449.871,66.615C449.871,66.615 449.871,66.615 449.871,66.615C449.871,66.615 449.871,66.615 449.871,66.615C449.871,66.615 449.871,66.615 449.871,66.615C449.871,66.615 449.871,66.615 449.871,66.615C449.871,66.615 449.871,66.615 449.871,66.615C449.871,66.615 449.871,66.615 449.871,66.615C449.871,66.615 449.871,66.615 449.871,66.615C449.871,66.615 449.871,66.615 449.871,66.615C449.871,66.615 449.871,66.615 449.871,66.615C449.871,66.615 449.871,66.615 449.871,66.615C449.871,66.615 449.871,66.615 449.871,66.615C449.871,66.615 449.871,66.615 449.871,66.615C449.871,66.615 449.871,66.615 449.871,66.615C449.871,66.615 449.871,66.615 449.871,66.615C449.871,66.615 449.871,66.615 449.871,66.615C449.871,66.615 449.871,66.615 449.871,66.615C449.871,66.615 449.871,66.615 449.87,66.615C449.87,66.615 449.87,66.615 449.87,66.615C449.87,66.615 449.87,66.615 449.87,66.615C449.87,66.615 449.87,66.615 449.87,66.615C449.87,66.615 449.87,66.615 449.87,66.615C449.87,66.615 449.87,66.615 449.87,66.615C449.87,66.615 449.87,66.615 449.87,66.615C449.87,66.615 449.87,66.615 449.87,66.615C449.87,66.615 449.87,66.615 449.87,66.615C449.87,66.615 449.87,66.615 449.87,66.615C449.87,66.615 449.87,66.615 449.87,66.615C449.87,66.615 449.87,66.615 449.87,66.615C449.87,66.615 449.87,66.615 449.87,66.615C449.87,66.615 449.87,66.615 449.87,66.615C449.87,66.615 449.87,66.615 449.87,66.615C449.87,66.615 449.87,66.615 449.87,66.615C449.87,66.615 449.87,66.615 449.87,66.615C449.87,66.615 449.87,66.615 449.87,66.615C449.87,66.615 449.87,66.615 449.87,66.615C449.87,66.615 449.87,66.615 449.87,66.615C449.87,66.615 449.87,66.615 449.87,66.615C449.87,66.615 449.87,66.615 449.87,66.615C449.87,66.615 449.87,66.615 449.87,66.615C449.87,66.615 449.87,66.615 449.87,66.615C449.87,66.615 449.87,66.615 449.87,66.615C449.87,66.615 449.87,66.615 449.87,66.615C449.87,66.615 449.87,66.615 449.87,66.615C449.87,66.615 449.87,66.615 449.87,66.615C449.87,66.615 449.87,66.615 449.87,66.615C449.87,66.615 449.87,66.615 449.87,66.615C449.87,66.615 449.87,66.615 449.87,66.615C449.87,66.615 449.87,66.615 449.87,66.615C449.87,66.615 449.87,66.615 449.87,66.615C449.87,66.615 449.87,66.615 449.87,66.615C449.87,66.615 449.87,66.615 449.87,66.615C449.87,66.615 449.87,66.615 449.87,66.615C449.87,66.615 449.87,66.615 449.87,66.615C449.87,66.615 449.87,66.615 449.87,66.615C449.87,66.615 449.87,66.615 449.87,66.615C449.87,66.615 449.87,66.615 449.87,66.615C449.87,66.615 449.87,66.615 449.87,66.615C449.87,66.615 449.87,66.615 449.87,66.615C449.87,66.615 449.87,66.615 449.87,66.615C449.87,66.615 449.87,66.615 449.87,66.615C449.87,66.615 449.87,66.615 449.87,66.615C449.87,66.615 449.87,66.615 449.87,66.615C449.87,66.615 449.87,66.615 449.87,66.615C449.87,66.615 449.87,66.615 449.87,66.615C449.87,66.615 449.87,66.615 449.87,66.615C449.87,66.615 449.87,66.615 449.87,66.615C449.87,66.615 449.87,66.615 449.87,66.615C449.87,66.615 449.87,66.615 449.87,66.615C449.87,66.615 449.87,66.615 449.87,66.615C449.87,66.615 449.87,66.615 449.87,66.615C449.87,66.615 449.87,66.615 449.869,66.615C449.869,66.615 449.869,66.615 449.869,66.615C449.869,66.615 449.869,66.615 449.869,66.615C449.869,66.615 449.869,66.615 449.869,66.615C449.869,66.615 449.869,66.615 449.869,66.615C449.869,66.615 449.869,66.615 449.869,66.615C449.869,66.615 449.869,66.615 449.869,66.615C449.869,66.615 449.869,66.615 449.869,66.615C449.869,66.615 449.869,66.615 449.869,66.615C449.869,66.615 449.869,66.615 449.869,66.615C449.869,66.615 449.869,66.615 449.869,66.615C449.869,66.615 449.869,66.615 449.869,66.615C449.869,66.615 449.869,66.615 449.869,66.615C449.869,66.615 449.869,66.615 449.869,66.615C449.869,66.615 449.869,66.615 449.869,66.615C449.869,66.615 449.869,66.615 449.869,66.615C449.869,66.615 449.869,66.615 449.869,66.615C449.869,66.615 449.869,66.615 449.869,66.615C449.869,66.615 449.869,66.615 449.869,66.615C449.869,66.615 449.869,66.615 449.869,66.615C449.869,66.615 449.869,66.615 449.869,66.615C449.869,66.615 449.869,66.615 449.869,66.615C449.869,66.615 449.869,66.615 449.869,66.615C449.869,66.615 449.869,66.615 449.869,66.615C449.869,66.615 449.869,66.615 449.869,66.615C449.869,66.615 449.869,66.615 449.869,66.615C449.869,66.615 449.869,66.615 449.869,66.615C449.869,66.615 449.869,66.615 449.869,66.615C449.869,66.615 449.869,66.615 449.869,66.615C449.869,66.615 449.869,66.615 449.869,66.615C449.869,66.615 449.869,66.615 449.869,66.615C449.869,66.615 449.869,66.615 449.869,66.615C449.869,66.615 449.869,66.615 449.869,66.615C449.869,66.615 449.869,66.615 449.869,66.615C449.869,66.615 449.869,66.615 449.869,66.615C449.869,66.615 449.869,66.615 449.869,66.615C449.869,66.615 449.869,66.615 449.869,66.615C449.869,66.615 449.869,66.615 449.869,66.615C449.869,66.615 449.869,66.615 449.869,66.615C449.869,66.615 449.869,66.615 449.869,66.615C449.869,66.615 449.869,66.615 449.869,66.615C449.869,66.615 449.869,66.615 449.869,66.615C449.869,66.615 449.869,66.615 449.869,66.615C449.869,66.615 449.869,66.615 449.869,66.615C449.868,66.615 449.868,66.615 449.868,66.615C449.868,66.615 449.868,66.615 449.868,66.615C449.868,66.615 449.868,66.615 449.868,66.615C449.868,66.615 449.868,66.615 449.868,66.615C449.868,66.615 449.868,66.615 449.868,66.615C449.868,66.615 449.868,66.615 449.868,66.615C449.868,66.615 449.868,66.615 449.868,66.615C449.868,66.615 449.868,66.615 449.868,66.615C449.868,66.615 449.868,66.615 449.868,66.615C449.868,66.615 449.868,66.615 449.868,66.615C449.868,66.615 449.868,66.615 449.868,66.615C449.868,66.615 449.868,66.615 449.868,66.615C449.868,66.615 449.868,66.615 449.868,66.615C449.868,66.615 449.868,66.615 449.868,66.615C449.868,66.615 449.868,66.615 449.868,66.615C449.868,66.615 449.868,66.615 449.868,66.615C449.868,66.615 449.868,66.615 449.868,66.615C449.868,66.615 449.868,66.615 449.868,66.615C449.868,66.615 449.868,66.615 449.868,66.615C449.868,66.615 449.868,66.615 449.868,66.615C449.868,66.615 449.868,66.615 449.868,66.615C449.868,66.615 449.868,66.615 449.868,66.615C449.868,66.615 449.868,66.615 449.868,66.615C449.868,66.615 449.868,66.615 449.868,66.615C449.868,66.615 449.868,66.615 449.868,66.615C449.868,66.615 449.868,66.615 449.868,66.615C449.868,66.615 449.868,66.615 449.868,66.615C449.868,66.615 449.868,66.615 449.868,66.615C449.868,66.615 449.868,66.615 449.868,66.615C449.868,66.615 449.868,66.615 449.868,66.615C449.868,66.615 449.868,66.615 449.868,66.615C449.868,66.615 449.868,66.615 449.868,66.615C449.868,66.615 449.868,66.615 449.868,66.615C449.868,66.615 449.868,66.615 449.868,66.615C449.868,66.615 449.868,66.615 449.868,66.615C449.868,66.615 449.868,66.615 449.868,66.615C449.868,66.615 449.868,66.615 449.868,66.615C449.867,66.615 449.867,66.615 449.867,66.615C449.867,66.615 449.867,66.615 449.867,66.615C449.867,66.615 449.867,66.615 449.867,66.615C449.867,66.615 449.867,66.615 449.867,66.615C449.867,66.615 449.867,66.615 449.867,66.615C449.867,66.615 449.867,66.615 449.867,66.615C449.867,66.615 449.867,66.615 449.867,66.615C449.867,66.615 449.867,66.615 449.867,66.615C449.867,66.615 449.867,66.615 449.867,66.615C449.867,66.615 449.867,66.615 449.867,66.615C449.867,66.615 449.867,66.615 449.867,66.615C449.867,66.615 449.867,66.615 449.867,66.615C449.867,66.615 449.867,66.615 449.867,66.615C449.867,66.615 449.867,66.615 449.867,66.615C449.867,66.615 449.867,66.615 449.867,66.615C449.867,66.615 449.867,66.615 449.867,66.615C449.867,66.615 449.867,66.615 449.867,66.615C449.867,66.615 449.867,66.615 449.867,66.615C449.867,66.615 449.867,66.615 449.867,66.615C449.867,66.615 449.867,66.615 449.867,66.615C449.867,66.615 449.867,66.615 449.867,66.615C449.867,66.615 449.867,66.615 449.867,66.615C449.867,66.615 449.867,66.615 449.867,66.615C449.867,66.615 449.867,66.615 449.867,66.615C449.867,66.615 449.867,66.615 449.867,66.615C449.867,66.615 449.867,66.615 449.867,66.615C449.867,66.615 449.867,66.615 449.867,66.615C449.867,66.615 449.867,66.615 449.867,66.615C449.867,66.615 449.867,66.615 449.867,66.615C449.867,66.615 449.867,66.615 449.867,66.615C449.867,66.615 449.867,66.615 449.867,66.615C449.867,66.615 449.867,66.615 449.867,66.615C449.867,66.615 449.867,66.615 449.867,66.615C449.866,66.615 449.866,66.615 449.866,66.615C449.866,66.615 449.866,66.615 449.866,66.615C449.866,66.615 449.866,66.615 449.866,66.615C449.866,66.615 449.866,66.615 449.866,66.615C449.866,66.615 449.866,66.615 449.866,66.615C449.866,66.615 449.866,66.615 449.866,66.615C449.866,66.615 449.866,66.615 449.866,66.615C449.866,66.615 449.866,66.615 449.866,66.615C449.866,66.615 449.866,66.615 449.866,66.615C449.866,66.615 449.866,66.615 449.866,66.615C449.866,66.615 449.866,66.615 449.866,66.615C449.866,66.615 449.866,66.615 449.866,66.615C449.866,66.615 449.866,66.615 449.866,66.615C449.866,66.615 449.866,66.615 449.866,66.615C449.866,66.615 449.866,66.615 449.866,66.615C449.866,66.615 449.866,66.615 449.866,66.615C449.866,66.615 449.866,66.615 449.866,66.615C449.866,66.615 449.866,66.615 449.866,66.615C449.866,66.615 449.866,66.615 449.866,66.615C449.866,66.615 449.866,66.615 449.866,66.615C449.866,66.615 449.866,66.615 449.866,66.615C449.866,66.615 449.866,66.615 449.866,66.615C449.866,66.615 449.866,66.615 449.866,66.615C449.866,66.615 449.866,66.615 449.866,66.615C449.866,66.615 449.866,66.615 449.866,66.615C449.866,66.615 449.866,66.615 449.866,66.615C449.866,66.615 449.866,66.615 449.866,66.615C449.866,66.615 449.866,66.615 449.866,66.615C449.866,66.615 449.866,66.615 449.866,66.615C449.866,66.615 449.866,66.615 449.866,66.615C449.865,66.615 449.865,66.615 449.865,66.615C449.865,66.615 449.865,66.615 449.865,66.615C449.865,66.615 449.865,66.615 449.865,66.615C449.865,66.615 449.865,66.615 449.865,66.615C449.865,66.615 449.865,66.615 449.865,66.615C449.865,66.615 449.865,66.615 449.865,66.615C449.865,66.615 449.865,66.615 449.865,66.615C449.865,66.615 449.865,66.615 449.865,66.615C449.865,66.615 449.865,66.615 449.865,66.615C449.865,66.615 449.865,66.615 449.865,66.615C449.865,66.615 449.865,66.615 449.865,66.615C449.865,66.615 449.865,66.615 449.865,66.615C449.865,66.615 449.865,66.615 449.865,66.615C449.865,66.615 449.865,66.615 449.865,66.615C449.865,66.615 449.865,66.615 449.865,66.615C449.865,66.615 449.865,66.615 449.865,66.615C449.865,66.615 449.865,66.615 449.865,66.615C449.865,66.615 449.865,66.615 449.865,66.615C449.865,66.615 449.865,66.615 449.865,66.615C449.865,66.615 449.865,66.615 449.865,66.615C449.865,66.615 449.865,66.615 449.865,66.615C449.865,66.615 449.865,66.615 449.865,66.615C449.865,66.615 449.865,66.615 449.865,66.615C449.865,66.615 449.865,66.615 449.865,66.615C449.865,66.615 449.865,66.615 449.865,66.615C449.865,66.615 449.865,66.615 449.865,66.615C449.865,66.615 449.865,66.615 449.865,66.615C449.865,66.615 449.865,66.615 449.864,66.615C449.864,66.615 449.864,66.615 449.864,66.615C449.864,66.615 449.864,66.615 449.864,66.615C449.864,66.615 449.864,66.615 449.864,66.615C449.864,66.615 449.864,66.615 449.864,66.615C449.864,66.615 449.864,66.615 449.864,66.615C449.864,66.615 449.864,66.615 449.864,66.615C449.864,66.615 449.864,66.615 449.864,66.615C449.864,66.615 449.864,66.615 449.864,66.615C449.864,66.615 449.864,66.615 449.864,66.615C449.864,66.615 449.864,66.615 449.864,66.615C449.864,66.615 449.864,66.615 449.864,66.615C449.864,66.615 449.864,66.615 449.864,66.615C449.864,66.615 449.864,66.615 449.864,66.615C449.864,66.615 449.864,66.615 449.864,66.615C449.864,66.615 449.864,66.615 449.864,66.615C449.864,66.615 449.864,66.615 449.864,66.615C449.864,66.615 449.864,66.615 449.864,66.615C449.864,66.615 449.864,66.615 449.864,66.615C449.864,66.615 449.864,66.615 449.864,66.615C449.864,66.615 449.864,66.615 449.864,66.615C449.864,66.615 449.864,66.615 449.864,66.615C449.864,66.615 449.864,66.615 449.864,66.615C449.864,66.615 449.864,66.615 449.864,66.615C449.864,66.615 449.864,66.615 449.864,66.615C449.864,66.615 449.864,66.615 449.864,66.615C449.864,66.615 449.864,66.615 449.863,66.615C449.863,66.615 449.863,66.615 449.863,66.615C449.863,66.615 449.863,66.615 449.863,66.615C449.863,66.615 449.863,66.615 449.863,66.615C449.863,66.615 449.863,66.615 449.863,66.615C449.863,66.615 449.863,66.615 449.863,66.615C449.863,66.615 449.863,66.615 449.863,66.615C449.863,66.615 449.863,66.615 449.863,66.615C449.863,66.615 449.863,66.615 449.863,66.615C449.863,66.615 449.863,66.615 449.863,66.615C449.863,66.615 449.863,66.615 449.863,66.615C449.863,66.615 449.863,66.615 449.863,66.615C449.863,66.615 449.863,66.615 449.863,66.615C449.863,66.615 449.863,66.615 449.863,66.615C449.863,66.615 449.863,66.615 449.863,66.615C449.863,66.615 449.863,66.615 449.863,66.615C449.863,66.615 449.863,66.615 449.863,66.615C449.863,66.615 449.863,66.615 449.863,66.615C449.863,66.615 449.863,66.615 449.863,66.615C449.863,66.615 449.863,66.615 449.863,66.615C449.863,66.615 449.863,66.615 449.863,66.615C449.863,66.615 449.863,66.615 449.863,66.615C449.863,66.615 449.863,66.615 449.863,66.615C449.863,66.615 449.863,66.615 449.863,66.615C449.863,66.615 449.863,66.615 449.863,66.615C449.862,66.615 449.862,66.615 449.862,66.615C449.862,66.615 449.862,66.615 449.862,66.615C449.862,66.615 449.862,66.615 449.862,66.615C449.862,66.615 449.862,66.615 449.862,66.615C449.862,66.615 449.862,66.615 449.862,66.615C449.862,66.615 449.862,66.615 449.862,66.615C449.862,66.615 449.862,66.615 449.862,66.615C449.862,66.615 449.862,66.615 449.862,66.615C449.862,66.615 449.862,66.615 449.862,66.615C449.862,66.615 449.862,66.615 449.862,66.615C449.862,66.615 449.862,66.615 449.862,66.615C449.862,66.615 449.862,66.615 449.862,66.615C449.862,66.615 449.862,66.615 449.862,66.615C449.862,66.615 449.862,66.615 449.862,66.615C449.862,66.615 449.862,66.615 449.862,66.615C449.862,66.615 449.862,66.615 449.862,66.615C449.862,66.615 449.862,66.615 449.862,66.615C449.862,66.615 449.862,66.615 449.862,66.615C449.862,66.615 449.862,66.615 449.862,66.615C449.862,66.615 449.862,66.615 449.862,66.615C449.862,66.615 449.862,66.615 449.862,66.615C449.862,66.615 449.862,66.615 449.862,66.615C449.862,66.615 449.862,66.615 449.862,66.615C449.861,66.615 449.861,66.615 449.861,66.615C449.861,66.615 449.861,66.615 449.861,66.615C449.861,66.615 449.861,66.615 449.861,66.615C449.861,66.615 449.861,66.615 449.861,66.615C449.861,66.615 449.861,66.615 449.861,66.615C449.861,66.615 449.861,66.615 449.861,66.615C449.861,66.615 449.861,66.615 449.861,66.615C449.861,66.615 449.861,66.615 449.861,66.615C449.861,66.615 449.861,66.615 449.861,66.615C449.861,66.615 449.861,66.615 449.861,66.615C449.861,66.615 449.861,66.615 449.861,66.615C449.861,66.615 449.861,66.615 449.861,66.615C449.861,66.615 449.861,66.615 449.861,66.615C449.861,66.615 449.861,66.615 449.861,66.615C449.861,66.615 449.861,66.615 449.861,66.615C449.861,66.615 449.861,66.615 449.861,66.615C449.861,66.615 449.861,66.615 449.861,66.615C449.861,66.615 449.861,66.615 449.861,66.615C449.861,66.615 449.861,66.615 449.861,66.615C449.861,66.615 449.861,66.615 449.861,66.615C449.861,66.615 449.861,66.615 449.861,66.615C449.861,66.615 449.861,66.615 449.861,66.615C449.86,66.615 449.86,66.615 449.86,66.615C449.86,66.615 449.86,66.615 449.86,66.615C449.86,66.615 449.86,66.615 449.86,66.615C449.86,66.615 449.86,66.615 449.86,66.615C449.86,66.615 449.86,66.615 449.86,66.615C449.86,66.615 449.86,66.615 449.86,66.615C449.86,66.615 449.86,66.615 449.86,66.615C449.86,66.615 449.86,66.615 449.86,66.615C449.86,66.615 449.86,66.615 449.86,66.615C449.86,66.615 449.86,66.615 449.86,66.615C449.86,66.615 449.86,66.615 449.86,66.615C449.86,66.615 449.86,66.615 449.86,66.615C449.86,66.615 449.86,66.615 449.86,66.615C449.86,66.615 449.86,66.615 449.86,66.615C449.86,66.615 449.86,66.615 449.86,66.615C449.86,66.615 449.86,66.615 449.86,66.615C449.86,66.615 449.86,66.615 449.86,66.615C449.86,66.615 449.86,66.615 449.86,66.615C449.86,66.615 449.86,66.615 449.86,66.615C449.86,66.615 449.86,66.615 449.86,66.615C449.86,66.615 449.86,66.615 449.86,66.615C449.859,66.615 449.859,66.615 449.859,66.615C449.859,66.615 449.859,66.615 449.859,66.615C449.859,66.615 449.859,66.615 449.859,66.615C449.859,66.615 449.859,66.615 449.859,66.615L449.859,68.615C449.859,68.615 449.859,68.615 449.859,68.615C449.859,68.615 449.859,68.615 449.859,68.615C449.859,68.615 449.859,68.615 449.859,68.615C449.859,68.615 449.859,68.615 449.86,68.615C449.86,68.615 449.86,68.615 449.86,68.615C449.86,68.615 449.86,68.615 449.86,68.615C449.86,68.615 449.86,68.615 449.86,68.615C449.86,68.615 449.86,68.615 449.86,68.615C449.86,68.615 449.86,68.615 449.86,68.615C449.86,68.615 449.86,68.615 449.86,68.615C449.86,68.615 449.86,68.615 449.86,68.615C449.86,68.615 449.86,68.615 449.86,68.615C449.86,68.615 449.86,68.615 449.86,68.615C449.86,68.615 449.86,68.615 449.86,68.615C449.86,68.615 449.86,68.615 449.86,68.615C449.86,68.615 449.86,68.615 449.86,68.615C449.86,68.615 449.86,68.615 449.86,68.615C449.86,68.615 449.86,68.615 449.86,68.615C449.86,68.615 449.86,68.615 449.86,68.615C449.86,68.615 449.86,68.615 449.86,68.615C449.86,68.615 449.86,68.615 449.86,68.615C449.86,68.615 449.86,68.615 449.86,68.615C449.86,68.615 449.86,68.615 449.86,68.615C449.86,68.615 449.86,68.615 449.86,68.615C449.86,68.615 449.86,68.615 449.861,68.615C449.861,68.615 449.861,68.615 449.861,68.615C449.861,68.615 449.861,68.615 449.861,68.615C449.861,68.615 449.861,68.615 449.861,68.615C449.861,68.615 449.861,68.615 449.861,68.615C449.861,68.615 449.861,68.615 449.861,68.615C449.861,68.615 449.861,68.615 449.861,68.615C449.861,68.615 449.861,68.615 449.861,68.615C449.861,68.615 449.861,68.615 449.861,68.615C449.861,68.615 449.861,68.615 449.861,68.615C449.861,68.615 449.861,68.615 449.861,68.615C449.861,68.615 449.861,68.615 449.861,68.615C449.861,68.615 449.861,68.615 449.861,68.615C449.861,68.615 449.861,68.615 449.861,68.615C449.861,68.615 449.861,68.615 449.861,68.615C449.861,68.615 449.861,68.615 449.861,68.615C449.861,68.615 449.861,68.615 449.861,68.615C449.861,68.615 449.861,68.615 449.861,68.615C449.861,68.615 449.861,68.615 449.861,68.615C449.861,68.615 449.861,68.615 449.861,68.615C449.861,68.615 449.861,68.615 449.861,68.615C449.861,68.615 449.861,68.615 449.861,68.615C449.861,68.615 449.861,68.615 449.862,68.615C449.862,68.615 449.862,68.615 449.862,68.615C449.862,68.615 449.862,68.615 449.862,68.615C449.862,68.615 449.862,68.615 449.862,68.615C449.862,68.615 449.862,68.615 449.862,68.615C449.862,68.615 449.862,68.615 449.862,68.615C449.862,68.615 449.862,68.615 449.862,68.615C449.862,68.615 449.862,68.615 449.862,68.615C449.862,68.615 449.862,68.615 449.862,68.615C449.862,68.615 449.862,68.615 449.862,68.615C449.862,68.615 449.862,68.615 449.862,68.615C449.862,68.615 449.862,68.615 449.862,68.615C449.862,68.615 449.862,68.615 449.862,68.615C449.862,68.615 449.862,68.615 449.862,68.615C449.862,68.615 449.862,68.615 449.862,68.615C449.862,68.615 449.862,68.615 449.862,68.615C449.862,68.615 449.862,68.615 449.862,68.615C449.862,68.615 449.862,68.615 449.862,68.615C449.862,68.615 449.862,68.615 449.862,68.615C449.862,68.615 449.862,68.615 449.862,68.615C449.862,68.615 449.862,68.615 449.862,68.615C449.862,68.615 449.862,68.615 449.862,68.615C449.862,68.615 449.862,68.615 449.862,68.615C449.862,68.615 449.862,68.615 449.863,68.615C449.863,68.615 449.863,68.615 449.863,68.615C449.863,68.615 449.863,68.615 449.863,68.615C449.863,68.615 449.863,68.615 449.863,68.615C449.863,68.615 449.863,68.615 449.863,68.615C449.863,68.615 449.863,68.615 449.863,68.615C449.863,68.615 449.863,68.615 449.863,68.615C449.863,68.615 449.863,68.615 449.863,68.615C449.863,68.615 449.863,68.615 449.863,68.615C449.863,68.615 449.863,68.615 449.863,68.615C449.863,68.615 449.863,68.615 449.863,68.615C449.863,68.615 449.863,68.615 449.863,68.615C449.863,68.615 449.863,68.615 449.863,68.615C449.863,68.615 449.863,68.615 449.863,68.615C449.863,68.615 449.863,68.615 449.863,68.615C449.863,68.615 449.863,68.615 449.863,68.615C449.863,68.615 449.863,68.615 449.863,68.615C449.863,68.615 449.863,68.615 449.863,68.615C449.863,68.615 449.863,68.615 449.863,68.615C449.863,68.615 449.863,68.615 449.863,68.615C449.863,68.615 449.863,68.615 449.863,68.615C449.863,68.615 449.863,68.615 449.863,68.615C449.863,68.615 449.863,68.615 449.863,68.615C449.863,68.615 449.863,68.615 449.863,68.615C449.863,68.615 449.863,68.615 449.863,68.615C449.864,68.615 449.864,68.615 449.864,68.615C449.864,68.615 449.864,68.615 449.864,68.615C449.864,68.615 449.864,68.615 449.864,68.615C449.864,68.615 449.864,68.615 449.864,68.615C449.864,68.615 449.864,68.615 449.864,68.615C449.864,68.615 449.864,68.615 449.864,68.615C449.864,68.615 449.864,68.615 449.864,68.615C449.864,68.615 449.864,68.615 449.864,68.615C449.864,68.615 449.864,68.615 449.864,68.615C449.864,68.615 449.864,68.615 449.864,68.615C449.864,68.615 449.864,68.615 449.864,68.615C449.864,68.615 449.864,68.615 449.864,68.615C449.864,68.615 449.864,68.615 449.864,68.615C449.864,68.615 449.864,68.615 449.864,68.615C449.864,68.615 449.864,68.615 449.864,68.615C449.864,68.615 449.864,68.615 449.864,68.615C449.864,68.615 449.864,68.615 449.864,68.615C449.864,68.615 449.864,68.615 449.864,68.615C449.864,68.615 449.864,68.615 449.864,68.615C449.864,68.615 449.864,68.615 449.864,68.615C449.864,68.615 449.864,68.615 449.864,68.615C449.864,68.615 449.864,68.615 449.864,68.615C449.864,68.615 449.864,68.615 449.864,68.615C449.864,68.615 449.864,68.615 449.864,68.615C449.864,68.615 449.864,68.615 449.864,68.615C449.864,68.615 449.864,68.615 449.864,68.615C449.865,68.615 449.865,68.615 449.865,68.615C449.865,68.615 449.865,68.615 449.865,68.615C449.865,68.615 449.865,68.615 449.865,68.615C449.865,68.615 449.865,68.615 449.865,68.615C449.865,68.615 449.865,68.615 449.865,68.615C449.865,68.615 449.865,68.615 449.865,68.615C449.865,68.615 449.865,68.615 449.865,68.615C449.865,68.615 449.865,68.615 449.865,68.615C449.865,68.615 449.865,68.615 449.865,68.615C449.865,68.615 449.865,68.615 449.865,68.615C449.865,68.615 449.865,68.615 449.865,68.615C449.865,68.615 449.865,68.615 449.865,68.615C449.865,68.615 449.865,68.615 449.865,68.615C449.865,68.615 449.865,68.615 449.865,68.615C449.865,68.615 449.865,68.615 449.865,68.615C449.865,68.615 449.865,68.615 449.865,68.615C449.865,68.615 449.865,68.615 449.865,68.615C449.865,68.615 449.865,68.615 449.865,68.615C449.865,68.615 449.865,68.615 449.865,68.615C449.865,68.615 449.865,68.615 449.865,68.615C449.865,68.615 449.865,68.615 449.865,68.615C449.865,68.615 449.865,68.615 449.865,68.615C449.865,68.615 449.865,68.615 449.865,68.615C449.865,68.615 449.865,68.615 449.865,68.615C449.865,68.615 449.865,68.615 449.865,68.615C449.865,68.615 449.865,68.615 449.865,68.615C449.865,68.615 449.865,68.615 449.865,68.615C449.865,68.615 449.865,68.615 449.866,68.615C449.866,68.615 449.866,68.615 449.866,68.615C449.866,68.615 449.866,68.615 449.866,68.615C449.866,68.615 449.866,68.615 449.866,68.615C449.866,68.615 449.866,68.615 449.866,68.615C449.866,68.615 449.866,68.615 449.866,68.615C449.866,68.615 449.866,68.615 449.866,68.615C449.866,68.615 449.866,68.615 449.866,68.615C449.866,68.615 449.866,68.615 449.866,68.615C449.866,68.615 449.866,68.615 449.866,68.615C449.866,68.615 449.866,68.615 449.866,68.615C449.866,68.615 449.866,68.615 449.866,68.615C449.866,68.615 449.866,68.615 449.866,68.615C449.866,68.615 449.866,68.615 449.866,68.615C449.866,68.615 449.866,68.615 449.866,68.615C449.866,68.615 449.866,68.615 449.866,68.615C449.866,68.615 449.866,68.615 449.866,68.615C449.866,68.615 449.866,68.615 449.866,68.615C449.866,68.615 449.866,68.615 449.866,68.615C449.866,68.615 449.866,68.615 449.866,68.615C449.866,68.615 449.866,68.615 449.866,68.615C449.866,68.615 449.866,68.615 449.866,68.615C449.866,68.615 449.866,68.615 449.866,68.615C449.866,68.615 449.866,68.615 449.866,68.615C449.866,68.615 449.866,68.615 449.866,68.615C449.866,68.615 449.866,68.615 449.866,68.615C449.866,68.615 449.866,68.615 449.866,68.615C449.866,68.615 449.866,68.615 449.866,68.615C449.866,68.615 449.866,68.615 449.866,68.615C449.866,68.615 449.866,68.615 449.866,68.615C449.866,68.615 449.866,68.615 449.867,68.615C449.867,68.615 449.867,68.615 449.867,68.615C449.867,68.615 449.867,68.615 449.867,68.615C449.867,68.615 449.867,68.615 449.867,68.615C449.867,68.615 449.867,68.615 449.867,68.615C449.867,68.615 449.867,68.615 449.867,68.615C449.867,68.615 449.867,68.615 449.867,68.615C449.867,68.615 449.867,68.615 449.867,68.615C449.867,68.615 449.867,68.615 449.867,68.615C449.867,68.615 449.867,68.615 449.867,68.615C449.867,68.615 449.867,68.615 449.867,68.615C449.867,68.615 449.867,68.615 449.867,68.615C449.867,68.615 449.867,68.615 449.867,68.615C449.867,68.615 449.867,68.615 449.867,68.615C449.867,68.615 449.867,68.615 449.867,68.615C449.867,68.615 449.867,68.615 449.867,68.615C449.867,68.615 449.867,68.615 449.867,68.615C449.867,68.615 449.867,68.615 449.867,68.615C449.867,68.615 449.867,68.615 449.867,68.615C449.867,68.615 449.867,68.615 449.867,68.615C449.867,68.615 449.867,68.615 449.867,68.615C449.867,68.615 449.867,68.615 449.867,68.615C449.867,68.615 449.867,68.615 449.867,68.615C449.867,68.615 449.867,68.615 449.867,68.615C449.867,68.615 449.867,68.615 449.867,68.615C449.867,68.615 449.867,68.615 449.867,68.615C449.867,68.615 449.867,68.615 449.867,68.615C449.867,68.615 449.867,68.615 449.867,68.615C449.867,68.615 449.867,68.615 449.867,68.615C449.867,68.615 449.867,68.615 449.867,68.615C449.867,68.615 449.867,68.615 449.867,68.615C449.867,68.615 449.867,68.615 449.867,68.615C449.867,68.615 449.867,68.615 449.867,68.615C449.867,68.615 449.867,68.615 449.868,68.615C449.868,68.615 449.868,68.615 449.868,68.615C449.868,68.615 449.868,68.615 449.868,68.615C449.868,68.615 449.868,68.615 449.868,68.615C449.868,68.615 449.868,68.615 449.868,68.615C449.868,68.615 449.868,68.615 449.868,68.615C449.868,68.615 449.868,68.615 449.868,68.615C449.868,68.615 449.868,68.615 449.868,68.615C449.868,68.615 449.868,68.615 449.868,68.615C449.868,68.615 449.868,68.615 449.868,68.615C449.868,68.615 449.868,68.615 449.868,68.615C449.868,68.615 449.868,68.615 449.868,68.615C449.868,68.615 449.868,68.615 449.868,68.615C449.868,68.615 449.868,68.615 449.868,68.615C449.868,68.615 449.868,68.615 449.868,68.615C449.868,68.615 449.868,68.615 449.868,68.615C449.868,68.615 449.868,68.615 449.868,68.615C449.868,68.615 449.868,68.615 449.868,68.615C449.868,68.615 449.868,68.615 449.868,68.615C449.868,68.615 449.868,68.615 449.868,68.615C449.868,68.615 449.868,68.615 449.868,68.615C449.868,68.615 449.868,68.615 449.868,68.615C449.868,68.615 449.868,68.615 449.868,68.615C449.868,68.615 449.868,68.615 449.868,68.615C449.868,68.615 449.868,68.615 449.868,68.615C449.868,68.615 449.868,68.615 449.868,68.615C449.868,68.615 449.868,68.615 449.868,68.615C449.868,68.615 449.868,68.615 449.868,68.615C449.868,68.615 449.868,68.615 449.868,68.615C449.868,68.615 449.868,68.615 449.868,68.615C449.868,68.615 449.868,68.615 449.868,68.615C449.868,68.615 449.868,68.615 449.868,68.615C449.868,68.615 449.868,68.615 449.868,68.615C449.868,68.615 449.868,68.615 449.868,68.615C449.868,68.615 449.868,68.615 449.868,68.615C449.868,68.615 449.868,68.615 449.868,68.615C449.868,68.615 449.868,68.615 449.868,68.615C449.868,68.615 449.868,68.615 449.869,68.615C449.869,68.615 449.869,68.615 449.869,68.615C449.869,68.615 449.869,68.615 449.869,68.615C449.869,68.615 449.869,68.615 449.869,68.615C449.869,68.615 449.869,68.615 449.869,68.615C449.869,68.615 449.869,68.615 449.869,68.615C449.869,68.615 449.869,68.615 449.869,68.615C449.869,68.615 449.869,68.615 449.869,68.615C449.869,68.615 449.869,68.615 449.869,68.615C449.869,68.615 449.869,68.615 449.869,68.615C449.869,68.615 449.869,68.615 449.869,68.615C449.869,68.615 449.869,68.615 449.869,68.615C449.869,68.615 449.869,68.615 449.869,68.615C449.869,68.615 449.869,68.615 449.869,68.615C449.869,68.615 449.869,68.615 449.869,68.615C449.869,68.615 449.869,68.615 449.869,68.615C449.869,68.615 449.869,68.615 449.869,68.615C449.869,68.615 449.869,68.615 449.869,68.615C449.869,68.615 449.869,68.615 449.869,68.615C449.869,68.615 449.869,68.615 449.869,68.615C449.869,68.615 449.869,68.615 449.869,68.615C449.869,68.615 449.869,68.615 449.869,68.615C449.869,68.615 449.869,68.615 449.869,68.615C449.869,68.615 449.869,68.615 449.869,68.615C449.869,68.615 449.869,68.615 449.869,68.615C449.869,68.615 449.869,68.615 449.869,68.615C449.869,68.615 449.869,68.615 449.869,68.615C449.869,68.615 449.869,68.615 449.869,68.615C449.869,68.615 449.869,68.615 449.869,68.615C449.869,68.615 449.869,68.615 449.869,68.615C449.869,68.615 449.869,68.615 449.869,68.615C449.869,68.615 449.869,68.615 449.869,68.615C449.869,68.615 449.869,68.615 449.869,68.615C449.869,68.615 449.869,68.615 449.869,68.615C449.869,68.615 449.869,68.615 449.869,68.615C449.869,68.615 449.869,68.615 449.869,68.615C449.869,68.615 449.869,68.615 449.869,68.615C449.869,68.615 449.869,68.615 449.869,68.615C449.869,68.615 449.869,68.615 449.869,68.615C449.869,68.615 449.869,68.615 449.869,68.615C449.869,68.615 449.869,68.615 449.869,68.615C449.869,68.615 449.869,68.615 449.869,68.615C449.869,68.615 449.869,68.615 449.869,68.615C449.869,68.615 449.869,68.615 449.869,68.615C449.87,68.615 449.87,68.615 449.87,68.615C449.87,68.615 449.87,68.615 449.87,68.615C449.87,68.615 449.87,68.615 449.87,68.615C449.87,68.615 449.87,68.615 449.87,68.615C449.87,68.615 449.87,68.615 449.87,68.615C449.87,68.615 449.87,68.615 449.87,68.615C449.87,68.615 449.87,68.615 449.87,68.615C449.87,68.615 449.87,68.615 449.87,68.615C449.87,68.615 449.87,68.615 449.87,68.615C449.87,68.615 449.87,68.615 449.87,68.615C449.87,68.615 449.87,68.615 449.87,68.615C449.87,68.615 449.87,68.615 449.87,68.615C449.87,68.615 449.87,68.615 449.87,68.615C449.87,68.615 449.87,68.615 449.87,68.615C449.87,68.615 449.87,68.615 449.87,68.615C449.87,68.615 449.87,68.615 449.87,68.615C449.87,68.615 449.87,68.615 449.87,68.615C449.87,68.615 449.87,68.615 449.87,68.615C449.87,68.615 449.87,68.615 449.87,68.615C449.87,68.615 449.87,68.615 449.87,68.615C449.87,68.615 449.87,68.615 449.87,68.615C449.87,68.615 449.87,68.615 449.87,68.615C449.87,68.615 449.87,68.615 449.87,68.615C449.87,68.615 449.87,68.615 449.87,68.615C449.87,68.615 449.87,68.615 449.87,68.615C449.87,68.615 449.87,68.615 449.87,68.615C449.87,68.615 449.87,68.615 449.87,68.615C449.87,68.615 449.87,68.615 449.87,68.615C449.87,68.615 449.87,68.615 449.87,68.615C449.87,68.615 449.87,68.615 449.87,68.615C449.87,68.615 449.87,68.615 449.87,68.615C449.87,68.615 449.87,68.615 449.87,68.615C449.87,68.615 449.87,68.615 449.87,68.615C449.87,68.615 449.87,68.615 449.87,68.615C449.87,68.615 449.87,68.615 449.87,68.615C449.87,68.615 449.87,68.615 449.87,68.615C449.87,68.615 449.87,68.615 449.87,68.615C449.87,68.615 449.87,68.615 449.87,68.615C449.87,68.615 449.87,68.615 449.87,68.615C449.87,68.615 449.87,68.615 449.87,68.615C449.87,68.615 449.87,68.615 449.87,68.615C449.87,68.615 449.87,68.615 449.87,68.615C449.87,68.615 449.87,68.615 449.87,68.615C449.87,68.615 449.87,68.615 449.87,68.615C449.87,68.615 449.87,68.615 449.87,68.615C449.87,68.615 449.87,68.615 449.87,68.615C449.87,68.615 449.87,68.615 449.87,68.615C449.87,68.615 449.87,68.615 449.87,68.615C449.87,68.615 449.87,68.615 449.87,68.615C449.87,68.615 449.87,68.615 449.87,68.615C449.87,68.615 449.87,68.615 449.87,68.615C449.87,68.615 449.87,68.615 449.87,68.615C449.87,68.615 449.87,68.615 449.87,68.615C449.87,68.615 449.87,68.615 449.87,68.615C449.871,68.615 449.871,68.615 449.871,68.615C449.871,68.615 449.871,68.615 449.871,68.615C449.871,68.615 449.871,68.615 449.871,68.615C449.871,68.615 449.871,68.615 449.871,68.615C449.871,68.615 449.871,68.615 449.871,68.615C449.871,68.615 449.871,68.615 449.871,68.615C449.871,68.615 449.871,68.615 449.871,68.615C449.871,68.615 449.871,68.615 449.871,68.615C449.871,68.615 449.871,68.615 449.871,68.615C449.871,68.615 449.871,68.615 449.871,68.615C449.871,68.615 449.871,68.615 449.871,68.615C449.871,68.615 449.871,68.615 449.871,68.615C449.871,68.615 449.871,68.615 449.871,68.615C449.871,68.615 449.871,68.615 449.871,68.615C449.871,68.615 449.871,68.615 449.871,68.615C449.871,68.615 449.871,68.615 449.871,68.615C449.871,68.615 449.871,68.615 449.871,68.615C449.871,68.615 449.871,68.615 449.871,68.615C449.871,68.615 449.871,68.615 449.871,68.615C449.871,68.615 449.871,68.615 449.871,68.615C449.871,68.615 449.871,68.615 449.871,68.615C449.871,68.615 449.871,68.615 449.871,68.615C449.871,68.615 449.871,68.615 449.871,68.615C449.871,68.615 449.871,68.615 449.871,68.615C449.871,68.615 449.871,68.615 449.871,68.615C449.871,68.615 449.871,68.615 449.871,68.615C449.871,68.615 449.871,68.615 449.871,68.615C449.871,68.615 449.871,68.615 449.871,68.615C449.871,68.615 449.871,68.615 449.871,68.615C449.871,68.615 449.871,68.615 449.871,68.615C449.871,68.615 449.871,68.615 449.871,68.615C449.871,68.615 449.871,68.615 449.871,68.615C449.871,68.615 449.871,68.615 449.871,68.615C449.871,68.615 449.871,68.615 449.871,68.615C449.871,68.615 449.871,68.615 449.871,68.615C449.871,68.615 449.871,68.615 449.871,68.615C449.871,68.615 449.871,68.615 449.871,68.615C449.871,68.615 449.871,68.615 449.871,68.615C449.871,68.615 449.871,68.615 449.871,68.615C449.871,68.615 449.871,68.615 449.871,68.615C449.871,68.615 449.871,68.615 449.871,68.615C449.871,68.615 449.871,68.615 449.871,68.615C449.871,68.615 449.871,68.615 449.871,68.615C449.871,68.615 449.871,68.615 449.871,68.615C449.871,68.615 449.871,68.615 449.871,68.615C449.871,68.615 449.871,68.615 449.871,68.615C449.871,68.615 449.871,68.615 449.871,68.615C449.871,68.615 449.871,68.615 449.871,68.615C449.871,68.615 449.871,68.615 449.871,68.615C449.871,68.615 449.871,68.615 449.871,68.615C449.871,68.615 449.871,68.615 449.871,68.615C449.871,68.615 449.871,68.615 449.871,68.615C449.871,68.615 449.871,68.615 449.871,68.615C449.871,68.615 449.871,68.615 449.871,68.615C449.871,68.615 449.871,68.615 449.871,68.615C449.871,68.615 449.871,68.615 449.871,68.615C449.871,68.615 449.871,68.615 449.871,68.615C449.871,68.615 449.871,68.615 449.871,68.615C449.871,68.615 449.871,68.615 449.871,68.615C449.871,68.615 449.871,68.615 449.871,68.615C449.871,68.615 449.871,68.615 449.871,68.615C449.871,68.615 449.871,68.615 449.871,68.615C449.871,68.615 449.871,68.615 449.871,68.615C449.871,68.615 449.871,68.615 449.871,68.615C449.871,68.615 449.871,68.615 449.871,68.615C449.871,68.615 449.871,68.615 449.871,68.615C449.871,68.615 449.871,68.615 449.871,68.615C449.871,68.615 449.871,68.615 449.871,68.615C449.871,68.615 449.871,68.615 449.871,68.615C449.871,68.615 449.871,68.615 449.871,68.615C449.871,68.615 449.871,68.615 449.871,68.615C449.871,68.615 449.871,68.615 449.871,68.615C449.871,68.615 449.871,68.615 449.871,68.615C449.871,68.615 449.871,68.615 449.871,68.615C449.871,68.615 449.871,68.615 449.871,68.615C449.871,68.615 449.871,68.615 449.871,68.615C449.871,68.615 449.871,68.615 449.871,68.615C449.871,68.615 449.871,68.615 449.871,68.615C449.871,68.615 449.871,68.615 449.871,68.615C449.871,68.615 449.871,68.615 449.871,68.615C449.871,68.615 449.871,68.615 449.871,68.615C449.871,68.615 449.871,68.615 449.871,68.615C449.871,68.615 449.871,68.615 449.871,68.615C449.871,68.615 449.871,68.615 449.871,68.615C449.872,68.615 449.872,68.615 449.872,68.615C449.872,68.615 449.872,68.615 449.872,68.615C449.872,68.615 449.872,68.615 449.872,68.615C449.872,68.615 449.872,68.615 449.872,68.615C449.872,68.615 449.872,68.615 449.872,68.615C449.872,68.615 449.872,68.615 449.872,68.615C449.872,68.615 449.872,68.615 449.872,68.615C449.872,68.615 449.872,68.615 449.872,68.615C449.872,68.615 449.872,68.615 449.872,68.615C449.872,68.615 449.872,68.615 449.872,68.615C449.872,68.615 449.872,68.615 449.872,68.615C449.872,68.615 449.872,68.615 449.872,68.615C449.872,68.615 449.872,68.615 449.872,68.615C449.872,68.615 449.872,68.615 449.872,68.615C449.872,68.615 449.872,68.615 449.872,68.615C449.872,68.615 449.872,68.615 449.872,68.615C449.872,68.615 449.872,68.615 449.872,68.615C449.872,68.615 449.872,68.615 449.872,68.615C449.872,68.615 449.872,68.615 449.872,68.615C449.872,68.615 449.872,68.615 449.872,68.615C449.872,68.615 449.872,68.615 449.872,68.615C449.872,68.615 449.872,68.615 449.872,68.615C449.872,68.615 449.872,68.615 449.872,68.615C449.872,68.615 449.872,68.615 449.872,68.615C449.872,68.615 449.872,68.615 449.872,68.615C449.872,68.615 449.872,68.615 449.872,68.615C449.872,68.615 449.872,68.615 449.872,68.615C449.872,68.615 449.872,68.615 449.872,68.615C449.872,68.615 449.872,68.615 449.872,68.615C449.872,68.615 449.872,68.615 449.872,68.615C449.872,68.615 449.872,68.615 449.872,68.615C449.872,68.615 449.872,68.615 449.872,68.615C449.872,68.615 449.872,68.615 449.872,68.615C449.872,68.615 449.872,68.615 449.872,68.615C449.872,68.615 449.872,68.615 449.872,68.615C449.872,68.615 449.872,68.615 449.872,68.615C449.872,68.615 449.872,68.615 449.872,68.615C449.872,68.615 449.872,68.615 449.872,68.615C449.872,68.615 449.872,68.615 449.872,68.615C449.872,68.615 449.872,68.615 449.872,68.615C449.872,68.615 449.872,68.615 449.872,68.615C449.872,68.615 449.872,68.615 449.872,68.615C449.872,68.615 449.872,68.615 449.872,68.615C449.872,68.615 449.872,68.615 449.872,68.615C449.872,68.615 449.872,68.615 449.872,68.615C449.872,68.615 449.872,68.615 449.872,68.615C449.872,68.615 449.872,68.615 449.872,68.615C449.872,68.615 449.872,68.615 449.872,68.615C449.872,68.615 449.872,68.615 449.872,68.615C449.872,68.615 449.872,68.615 449.872,68.615C449.872,68.615 449.872,68.615 449.872,68.615C449.872,68.615 449.872,68.615 449.872,68.615C449.872,68.615 449.872,68.615 449.872,68.615C449.872,68.615 449.872,68.615 449.872,68.615C449.872,68.615 449.872,68.615 449.872,68.615C449.872,68.615 449.872,68.615 449.872,68.615C449.872,68.615 449.872,68.615 449.872,68.615C449.872,68.615 449.872,68.615 449.872,68.615C449.872,68.615 449.872,68.615 449.872,68.615C449.872,68.615 449.872,68.615 449.872,68.615C449.872,68.615 449.872,68.615 449.872,68.615C449.872,68.615 449.872,68.615 449.872,68.615C449.872,68.615 449.872,68.615 449.872,68.615C449.872,68.615 449.872,68.615 449.872,68.615C449.872,68.615 449.872,68.615 449.872,68.615C449.872,68.615 449.872,68.615 449.872,68.615C449.872,68.615 449.872,68.615 449.872,68.615C449.872,68.615 449.872,68.615 449.872,68.615C449.872,68.615 449.872,68.615 449.872,68.615C449.872,68.615 449.872,68.615 449.872,68.615C449.872,68.615 449.872,68.615 449.872,68.615C449.872,68.615 449.872,68.615 449.872,68.615C449.872,68.615 449.872,68.615 449.872,68.615C449.872,68.615 449.872,68.615 449.872,68.615C449.872,68.615 449.872,68.615 449.872,68.615C449.872,68.615 449.872,68.615 449.872,68.615C449.872,68.615 449.872,68.615 449.872,68.615C449.872,68.615 449.872,68.615 449.872,68.615C449.872,68.615 449.872,68.615 449.872,68.615C449.872,68.615 449.872,68.615 449.872,68.615C449.872,68.615 449.872,68.615 449.872,68.615C449.872,68.615 449.872,68.615 449.872,68.615C449.872,68.615 449.872,68.615 449.872,67.615ZM449.959,66.62C449.794,66.603 448.064,66.425 446.414,66.57L446.589,68.562C448.035,68.435 449.6,68.594 449.76,68.61L449.959,66.62ZM446.41,66.57C445.89,66.618 445.349,66.701 444.854,66.843C444.372,66.981 443.852,67.197 443.445,67.562C443.002,67.958 442.708,68.519 442.743,69.212C442.775,69.844 443.076,70.46 443.515,71.048L445.118,69.853C444.793,69.417 444.744,69.182 444.74,69.11C444.74,69.098 444.725,69.1 444.777,69.053C444.865,68.975 445.057,68.865 445.405,68.766C445.739,68.67 446.146,68.603 446.594,68.562L446.41,66.57ZM443.514,71.048C445.045,73.103 447.545,74.816 449.573,75.989C450.601,76.584 451.539,77.058 452.219,77.383C452.56,77.546 452.837,77.672 453.031,77.757C453.128,77.8 453.204,77.833 453.256,77.856C453.283,77.867 453.303,77.876 453.317,77.882C453.324,77.885 453.33,77.887 453.334,77.889C453.336,77.89 453.338,77.891 453.339,77.891C453.339,77.891 453.34,77.892 453.34,77.892C453.341,77.892 453.341,77.892 453.341,77.892C453.341,77.892 453.341,77.892 453.726,76.969C454.11,76.046 454.11,76.046 454.11,76.046C454.11,76.046 454.11,76.046 454.11,76.046C454.11,76.046 454.11,76.046 454.11,76.046C454.11,76.046 454.109,76.045 454.108,76.045C454.105,76.044 454.101,76.042 454.096,76.04C454.085,76.035 454.068,76.028 454.045,76.018C454,75.999 453.931,75.969 453.842,75.929C453.664,75.85 453.403,75.732 453.081,75.578C452.436,75.27 451.547,74.821 450.575,74.258C448.599,73.114 446.395,71.568 445.119,69.853L443.514,71.048ZM453.295,77.871L460.402,81.261L461.263,79.456L454.156,76.066L453.295,77.871ZM460.833,81.359L469.303,81.359L469.303,79.359L460.833,79.359L460.833,81.359ZM469.852,79.522L463.22,75.171L462.123,76.843L468.755,81.195L469.852,79.522ZM463.22,75.171L450.449,66.795L449.353,68.467L462.123,76.844L463.22,75.171ZM450.211,66.68L450.194,66.675L449.575,68.576L449.591,68.582L450.211,66.68Z" fill="#000000"/>
<path d="M446.503,67.566L446.966,66.68L446.965,66.679L446.503,67.566ZM445.936,68.399L446.041,68.453L446.965,66.679L446.86,66.625L445.936,68.399ZM446.039,68.452L462.205,76.91L463.132,75.138L446.966,66.68L446.039,68.452Z" fill="#000000"/>
</g>
<path d="M417.92,595.261L443.573,595.261L443.573,671.658L546.187,671.658L546.187,697.123L417.92,697.123L417.92,595.261ZM648.8,646.192L648.8,697.123L571.84,697.123L571.84,671.658L623.146,671.658L623.146,646.192L648.8,646.192Z" fill="#000000"/>
<path d="M99.218,710.407C104.967,703.202 108.496,694.734 109.442,685.875C110.387,677.016 108.714,668.088 104.595,660.014C100.477,651.939 94.062,645.01 86.014,639.943C77.965,634.875 68.574,631.853 58.811,631.187C49.048,630.522 39.267,632.237 30.477,636.157C21.687,640.077 14.207,646.058 8.81,653.484C3.413,660.91 0.294,669.511 -0.224,678.399C-0.743,687.287 1.358,696.139 5.86,704.043L54.699,681.047L99.218,710.407Z" transform="rotate(170.258 54.699 681.047)" fill="#F78282"/>
<line x1="224" y1="739" x2="654" y2="739" stroke="#000000" stroke-width="1" stroke-miterlimit="3.999327"/>
<path d="M880.057,711.554C885.806,704.35 889.335,695.881 890.28,687.022C891.226,678.164 889.553,669.236 885.434,661.161C881.316,653.087 874.901,646.158 866.852,641.091C858.804,636.023 849.413,633 839.65,632.335C829.887,631.669 820.106,633.385 811.316,637.305C802.526,641.224 795.046,647.206 789.649,654.632C784.252,662.058 781.133,670.658 780.615,679.546C780.096,688.434 782.196,697.287 786.699,705.19L835.537,682.195L880.057,711.554Z" transform="rotate(-187.605 835.537 682.195)" fill="#F77272"/>
<defs>
<filter id="filter551_588" x="28.700001" y="64.700001" width="448.599998" height="728.599998" filterUnits="userSpaceOnUse" color-interpolation-filters="sRGB">
<feFlood flood-opacity="0" result="BackgroundImageFix"/>
<feColorMatrix in="SourceAlpha" type="matrix" values="0 0 0 0 0 0 0 0 0 0 0 0 0 0 0 0 0 0 127 0" result="hardAlpha"/>
<feMorphology radius="0" operator="dilate" in="SourceAlpha" result="0dropshadow"/>
<feOffset dx="0" dy="4"/>
<feGaussianBlur stdDeviation="15.65"/>
<feComposite in2="hardAlpha" operator="out"/>
<feColorMatrix type="matrix" values="0 0 0 0 0.666667 0 0 0 0 0.015686 0 0 0 0 0.015686 0 0 0 1 0"/>
<feBlend mode="normal" in2="BackgroundImageFix" result="0dropshadow"/>
<feBlend mode="normal" in="SourceGraphic" in2="0dropshadow" result="shape"/>
</filter>
<filter id="filter551_595" x="342.4" y="-1.6" width="91.2" height="76.6" filterUnits="userSpaceOnUse" color-interpolation-filters="sRGB">
<feFlood flood-opacity="0" result="BackgroundImageFix"/>
<feColorMatrix in="SourceAlpha" type="matrix" values="0 0 0 0 0 0 0 0 0 0 0 0 0 0 0 0 0 0 127 0" result="hardAlpha"/>
<feMorphology radius="0" operator="dilate" in="SourceAlpha" result="0dropshadow"/>
<feOffset dx="0" dy="4"/>
<feGaussianBlur stdDeviation="0.8"/>
<feComposite in2="hardAlpha" operator="out"/>
<feColorMatrix type="matrix" values="0 0 0 0 0.968627 0 0 0 0 0.678431 0 0 0 0 0.678431 0 0 0 1 0"/>
<feBlend mode="normal" in2="BackgroundImageFix" result="0dropshadow"/>
<feBlend mode="normal" in="SourceGraphic" in2="0dropshadow" result="shape"/>
</filter>
</defs>
</svg>
