<svg width="202" height="68" viewBox="0 0 202 68" fill="none" xmlns="http://www.w3.org/2000/svg" xmlns:xlink="http://www.w3.org/1999/xlink">
<path d="M199.411,51.793C200.274,53.908 200.436,56.65 198.158,59.593L199.079,51.076C199.197,51.306 199.308,51.543 199.411,51.793Z" fill="#EEEEEE" fill-opacity="0.9"/>
<path d="M199.082,51.062L199.082,51.073C199.082,51.067 199.082,51.062 199.073,51.062L199.082,51.062Z" fill="#EEEEEE" fill-opacity="0.9"/>
<path d="M199.072,51.061C199.079,51.061 199.079,51.068 199.079,51.075L198.158,59.592C198.158,59.592 184.915,60.156 170.795,58.5L170.906,57.672L187.909,50.908C192.716,51.541 197.162,51.82 199.072,51.061Z" fill="#EEEEEE" fill-opacity="0.9"/>
<path d="M196.299,47.567C196.299,47.567 197.981,48.91 199.072,51.06C197.162,51.819 192.716,51.54 187.909,50.907L196.299,47.567Z" fill="#ED1C24"/>
<path d="M196.3,47.569L187.909,50.909C182.01,50.123 175.574,48.794 172.668,48.167C172.845,47.959 173.022,47.736 173.207,47.485C176.392,43.227 196.3,47.569 196.3,47.569Z" fill="#ED1C24"/>
<path d="M181.082,37.771L196.3,47.568C196.3,47.568 176.392,43.226 173.207,47.485C173.023,47.735 172.846,47.958 172.669,48.167C171.666,47.951 171.084,47.819 171.084,47.819L101.451,24.272L50.575,4.482L138.803,26.986C141.148,28.134 142.77,28.948 142.77,28.948C144.186,30.284 156.219,34.709 156.219,34.709C159.227,36.63 181.082,37.771 181.082,37.771Z" fill="#ED1C24"/>
<path d="M170.796,58.499C184.916,60.155 198.159,59.592 198.159,59.592C193.115,66.105 175.596,64.943 175.596,64.943L141.355,60.176C134.483,57.024 81.492,54.985 82.782,55.166L25.448,55.166L23.678,55.333C10.052,55.166 4.39,39.301 4.39,39.301L27.04,39.301L54.823,40.637L73.934,41.931L102.247,44.812L131.622,49.822L150.911,54.164C156.78,56.356 163.895,57.699 170.796,58.499Z" fill="#ED1C24"/>
<path d="M187.909,50.908L170.906,57.672C168.908,50.122 169.889,51.535 172.669,48.167C175.574,48.793 182.011,50.122 187.909,50.908Z" fill="#EEEEEE" fill-opacity="0.9"/>
<path d="M173.738,33.039L181.081,37.771L151.78,30.298L151.972,29.616L166.947,29.616L173.738,33.039Z" fill="#000000"/>
<path d="M151.78,30.298L181.081,37.771C181.081,37.771 159.227,36.63 156.219,34.709C156.219,34.709 144.186,30.284 142.77,28.948C142.77,28.948 141.148,28.134 138.803,26.985L151.78,30.298Z" fill="#000000"/>
<path d="M175.596,64.943L145.336,64.943L101.45,64.101C99.828,65.723 49.897,63.593 46.062,63.35C35.71,63.35 19.784,56.336 19.784,56.336L23.677,55.334L25.447,55.167L175.596,64.943Z" fill="#000000"/>
<path d="M175.597,64.945L25.448,55.168L82.782,55.168C81.492,54.987 134.483,57.026 141.355,60.178L175.597,64.945Z" fill="#000000"/>
<path d="M166.948,29.616L151.972,29.616L139.408,25.274C139.408,25.274 127.737,21.753 122.774,16.924C120.076,14.301 123.217,13.459 126.638,13.229L155.217,24.063L155.224,24.043L166.948,29.616Z" fill="#726658"/>
<path d="M166.946,29.617L155.223,24.043L132.646,13.313C136.399,14.67 138.906,15.575 138.965,15.505L166.946,29.617Z" fill="#EEEEEE" fill-opacity="0.9"/>
<path d="M155.224,24.042L155.216,24.063L126.638,13.229C129.373,13.055 132.286,13.27 132.573,13.291C132.588,13.291 132.603,13.298 132.617,13.305L132.647,13.312L155.224,24.042Z" fill="#C2B59B"/>
<path d="M126.637,13.229C123.216,13.458 120.075,14.3 122.774,16.924C127.736,21.753 139.408,25.274 139.408,25.274L151.972,29.616L151.78,30.298L138.803,26.986C133.074,24.174 123.017,19.359 121.889,19.596C120.296,19.93 95.537,7.057 50.575,4.482L29.075,3.731L8.105,3.48C2.796,3.23 2,1.977 2,1.977L54.026,0.975L98.354,2.478C103.603,2.777 122.516,9.645 132.573,13.291C132.285,13.271 129.373,13.055 126.637,13.229Z" fill="#000000"/>
<path d="M138.803,26.986L50.575,4.482C95.537,7.057 120.297,19.93 121.889,19.596C123.017,19.359 133.074,24.174 138.803,26.986Z" fill="#ED1C24"/>
<path d="M137.108,47.151L134.365,45.593C135.847,46.101 136.82,46.622 137.108,47.151Z" fill="#EEEEEE" fill-opacity="0.9"/>
<path d="M119.765,37.298L134.365,45.592C123.305,41.793 83.666,38.634 83.666,38.634L45.443,36.797C45.443,36.797 30.402,37.131 21.377,36.129C12.352,35.127 2,22.267 2,22.267L22.262,22.267L52.521,23.102C52.521,23.102 69.863,24.438 82.25,25.607C94.637,26.776 119.765,37.298 119.765,37.298Z" fill="#000000"/>
<path d="M132.6,13.292L132.626,13.302C132.609,13.297 132.591,13.292 132.573,13.292C132.591,13.292 132.6,13.292 132.6,13.292Z" fill="#EEEEEE" fill-opacity="0.9"/>
<path d="M171.897,47.53C171.239,48.328 170.705,48.824 170.227,49.31C169.764,49.781 169.299,50.293 169.049,51.03C168.802,51.759 168.805,52.582 168.959,53.622C169.113,54.665 169.44,56.041 169.94,57.928L171.873,57.416C171.374,55.528 171.074,54.249 170.937,53.329C170.8,52.405 170.847,51.955 170.943,51.672C171.036,51.397 171.212,51.16 171.653,50.712C172.078,50.28 172.709,49.689 173.44,48.803L171.897,47.53Z" fill="#000000"/>
<path d="M98.354,2.478L98.41,1.479L98.387,1.479L98.354,2.478ZM54.026,0.975L54.06,-0.024L54.033,-0.025L54.006,-0.025L54.026,0.975ZM2,1.977L1.981,0.977L0.201,1.011L1.156,2.514L2,1.977ZM8.105,3.48L8.058,4.479L8.075,4.48L8.093,4.48L8.105,3.48ZM29.075,3.731L29.11,2.731L29.087,2.731L29.075,3.731ZM50.575,4.482L50.937,3.55L50.779,3.489L50.61,3.483L50.575,4.482ZM101.45,24.272L101.088,25.204L101.109,25.212L101.13,25.219L101.45,24.272ZM171.083,47.819L170.763,48.766L170.812,48.783L170.862,48.794L171.083,47.819ZM172.669,48.167L172.879,47.189L172.879,47.189L172.669,48.167ZM187.909,50.909L187.777,51.9L187.778,51.9L187.909,50.909ZM199.072,51.062L199.072,50.062L198.881,50.062L198.703,50.132L199.072,51.062ZM132.914,12.351C127.887,10.529 120.632,7.896 113.976,5.681C110.649,4.573 107.46,3.567 104.769,2.818C102.107,2.077 99.844,1.561 98.41,1.48L98.297,3.476C99.488,3.544 101.558,4 104.233,4.744C106.878,5.481 110.031,6.476 113.345,7.578C119.971,9.784 127.201,12.408 132.232,14.232L132.914,12.351ZM98.387,1.479L54.06,-0.024L53.992,1.974L98.32,3.477L98.387,1.479ZM54.006,-0.025L1.981,0.977L2.019,2.977L54.045,1.975L54.006,-0.025ZM2,1.977C1.156,2.514 1.157,2.515 1.158,2.516C1.158,2.516 1.159,2.518 1.159,2.518C1.16,2.52 1.161,2.522 1.162,2.523C1.165,2.527 1.167,2.53 1.169,2.534C1.174,2.541 1.179,2.548 1.184,2.555C1.194,2.57 1.206,2.586 1.219,2.602C1.244,2.635 1.275,2.672 1.311,2.71C1.383,2.788 1.476,2.876 1.597,2.969C1.839,3.155 2.188,3.362 2.691,3.563C3.691,3.963 5.336,4.351 8.058,4.479L8.152,2.481C5.565,2.359 4.158,1.996 3.433,1.706C3.073,1.562 2.891,1.441 2.817,1.384C2.781,1.356 2.771,1.344 2.779,1.352C2.782,1.356 2.791,1.365 2.802,1.38C2.807,1.387 2.814,1.396 2.821,1.406C2.824,1.411 2.828,1.417 2.832,1.422C2.834,1.425 2.836,1.428 2.838,1.431C2.839,1.433 2.84,1.434 2.841,1.436C2.841,1.437 2.842,1.438 2.842,1.438C2.843,1.439 2.844,1.441 2,1.977ZM8.093,4.48L29.063,4.73L29.087,2.731L8.117,2.48L8.093,4.48ZM29.04,4.73L50.54,5.481L50.61,3.483L29.109,2.731L29.04,4.73ZM50.212,5.414L101.088,25.204L101.813,23.34L50.937,3.55L50.212,5.414ZM101.13,25.219L170.763,48.766L171.404,46.872L101.771,23.324L101.13,25.219ZM171.083,47.819C170.862,48.794 170.862,48.794 170.862,48.794C170.862,48.794 170.862,48.794 170.862,48.794C170.862,48.794 170.862,48.794 170.862,48.794C170.862,48.794 170.862,48.794 170.863,48.794C170.863,48.794 170.863,48.795 170.864,48.795C170.865,48.795 170.867,48.795 170.869,48.796C170.874,48.797 170.881,48.799 170.89,48.801C170.908,48.805 170.936,48.811 170.971,48.819C171.042,48.835 171.147,48.858 171.284,48.888C171.556,48.949 171.955,49.036 172.458,49.145L172.879,47.189C172.38,47.082 171.985,46.995 171.716,46.936C171.582,46.906 171.478,46.883 171.409,46.867C171.374,46.859 171.348,46.854 171.33,46.85C171.322,46.848 171.315,46.846 171.311,46.845C171.309,46.845 171.307,46.844 171.306,46.844C171.305,46.844 171.305,46.844 171.305,46.844C171.305,46.844 171.305,46.844 171.305,46.844C171.305,46.844 171.305,46.844 171.305,46.844C171.305,46.844 171.305,46.844 171.305,46.844C171.305,46.844 171.305,46.844 171.083,47.819ZM172.458,49.144C175.369,49.772 181.837,51.108 187.777,51.9L188.041,49.917C182.184,49.136 175.778,47.814 172.879,47.189L172.458,49.144ZM187.778,51.9C190.198,52.219 192.549,52.451 194.55,52.507C196.502,52.561 198.277,52.453 199.441,51.991L198.703,50.132C197.958,50.428 196.555,50.561 194.605,50.507C192.703,50.455 190.428,50.232 188.04,49.917L187.778,51.9ZM199.072,52.062L199.08,52.062L199.08,50.062L199.072,50.062L199.072,52.062Z" fill="#000000"/>
<path d="M198.159,59.594L198.949,60.206L198.949,60.206L198.159,59.594ZM170.796,58.501L170.913,57.508L170.912,57.508L170.796,58.501ZM150.911,54.166L151.261,53.229L151.197,53.205L151.13,53.19L150.911,54.166ZM131.622,49.824L131.842,48.848L131.816,48.843L131.791,48.838L131.622,49.824ZM102.247,44.814L102.415,43.828L102.382,43.822L102.349,43.819L102.247,44.814ZM73.934,41.933L74.035,40.938L74.018,40.937L74.002,40.935L73.934,41.933ZM54.823,40.639L54.89,39.641L54.871,39.64L54.823,40.639ZM27.04,39.303L27.088,38.304L27.064,38.303L27.04,38.303L27.04,39.303ZM4.39,39.303L4.39,38.303L2.971,38.303L3.448,39.639L4.39,39.303ZM23.678,55.335L23.927,56.303L31.216,54.427L23.69,54.335L23.678,55.335ZM19.785,56.337L19.536,55.369L16.739,56.088L19.382,57.252L19.785,56.337ZM46.063,63.351L46.127,62.353L46.095,62.351L46.063,62.351L46.063,63.351ZM101.451,64.103L101.47,63.103L101.045,63.095L100.744,63.395L101.451,64.103ZM145.337,64.945L145.317,65.945L145.337,65.945L145.337,64.945ZM175.596,64.945L175.663,63.947L175.63,63.945L175.596,63.945L175.596,64.945ZM199.412,51.793L200.338,51.416L200.337,51.412L199.412,51.793ZM199.08,51.076L198.08,51.076L198.08,51.318L198.191,51.533L199.08,51.076ZM199.073,51.063L198.181,51.515L198.459,52.063L199.073,52.063L199.073,51.063ZM196.3,47.569L196.925,46.788L196.885,46.756L196.842,46.729L196.3,47.569ZM181.082,37.772L180.54,38.613L180.541,38.613L181.082,37.772ZM173.738,33.04L174.28,32.2L174.236,32.171L174.189,32.147L173.738,33.04ZM166.948,29.617L166.497,30.51L166.497,30.51L166.948,29.617ZM138.966,15.505L139.416,14.612L138.713,14.257L138.203,14.858L138.966,15.505ZM198.159,59.594C198.116,58.594 198.116,58.594 198.116,58.594C198.116,58.594 198.116,58.594 198.116,58.595C198.115,58.595 198.115,58.595 198.114,58.595C198.113,58.595 198.111,58.595 198.108,58.595C198.102,58.595 198.093,58.595 198.08,58.596C198.056,58.597 198.019,58.598 197.969,58.6C197.871,58.604 197.724,58.609 197.531,58.615C197.145,58.627 196.577,58.643 195.85,58.656C194.397,58.683 192.311,58.701 189.785,58.668C184.731,58.603 177.927,58.331 170.913,57.508L170.68,59.494C177.785,60.328 184.663,60.602 189.759,60.668C192.309,60.702 194.416,60.683 195.887,60.656C196.623,60.642 197.2,60.626 197.593,60.614C197.79,60.608 197.941,60.603 198.043,60.599C198.095,60.597 198.134,60.595 198.16,60.594C198.173,60.594 198.183,60.593 198.19,60.593C198.194,60.593 198.196,60.593 198.198,60.593C198.199,60.593 198.2,60.593 198.2,60.593C198.2,60.593 198.201,60.593 198.201,60.593C198.201,60.593 198.201,60.593 198.159,59.594ZM170.912,57.508C164.047,56.712 157.022,55.381 151.261,53.229L150.561,55.103C156.538,57.335 163.743,58.69 170.681,59.494L170.912,57.508ZM151.13,53.19L131.842,48.848L131.403,50.8L150.691,55.142L151.13,53.19ZM131.791,48.838L102.415,43.828L102.079,45.8L131.454,50.81L131.791,48.838ZM102.349,43.819L74.035,40.938L73.833,42.928L102.146,45.809L102.349,43.819ZM74.002,40.935L54.89,39.641L54.755,41.637L73.867,42.931L74.002,40.935ZM54.871,39.64L27.088,38.304L26.992,40.302L54.775,41.638L54.871,39.64ZM27.04,38.303L4.39,38.303L4.39,40.303L27.04,40.303L27.04,38.303ZM4.39,39.303C3.448,39.639 3.448,39.639 3.448,39.64C3.448,39.64 3.448,39.641 3.449,39.641C3.449,39.642 3.449,39.643 3.45,39.645C3.451,39.648 3.452,39.651 3.454,39.656C3.458,39.666 3.462,39.679 3.469,39.696C3.481,39.73 3.499,39.778 3.523,39.841C3.571,39.965 3.642,40.144 3.737,40.371C3.926,40.823 4.21,41.464 4.593,42.231C5.358,43.763 6.525,45.813 8.137,47.872C11.349,51.979 16.425,56.246 23.666,56.335L23.69,54.335C17.305,54.257 12.737,50.508 9.712,46.64C8.204,44.713 7.105,42.785 6.382,41.338C6.021,40.615 5.756,40.015 5.582,39.599C5.495,39.391 5.431,39.229 5.39,39.121C5.369,39.067 5.354,39.027 5.344,39.001C5.339,38.988 5.336,38.978 5.334,38.973C5.333,38.97 5.332,38.968 5.331,38.967C5.331,38.966 5.331,38.966 5.331,38.966C5.331,38.966 5.331,38.966 5.331,38.966C5.331,38.966 5.331,38.967 4.39,39.303ZM23.429,54.367L19.536,55.369L20.034,57.305L23.927,56.303L23.429,54.367ZM19.785,56.337C19.382,57.252 19.382,57.252 19.382,57.252C19.382,57.252 19.383,57.253 19.383,57.253C19.384,57.253 19.385,57.253 19.386,57.254C19.388,57.255 19.391,57.256 19.395,57.258C19.404,57.262 19.416,57.267 19.431,57.274C19.463,57.288 19.51,57.308 19.571,57.334C19.692,57.387 19.871,57.463 20.102,57.56C20.563,57.754 21.232,58.031 22.066,58.362C23.734,59.025 26.067,59.909 28.727,60.793C34.015,62.551 40.715,64.351 46.063,64.351L46.063,62.351C41.059,62.351 34.621,60.645 29.357,58.895C26.742,58.026 24.446,57.156 22.804,56.504C21.984,56.178 21.328,55.906 20.877,55.717C20.652,55.622 20.479,55.548 20.362,55.498C20.304,55.472 20.26,55.453 20.231,55.44C20.216,55.434 20.205,55.429 20.198,55.426C20.194,55.425 20.192,55.423 20.19,55.423C20.189,55.422 20.189,55.422 20.188,55.422C20.188,55.422 20.188,55.422 20.188,55.422C20.188,55.422 20.188,55.422 19.785,56.337ZM46,64.349C47.935,64.472 61.391,65.066 74.559,65.426C81.145,65.606 87.671,65.728 92.656,65.703C95.147,65.691 97.268,65.642 98.826,65.544C99.601,65.495 100.26,65.432 100.763,65.351C101.013,65.311 101.249,65.262 101.453,65.2C101.612,65.151 101.92,65.048 102.158,64.81L100.744,63.395C100.881,63.259 100.993,63.249 100.868,63.288C100.787,63.312 100.651,63.344 100.445,63.377C100.036,63.443 99.452,63.5 98.7,63.548C97.201,63.642 95.125,63.691 92.647,63.703C87.694,63.728 81.193,63.607 74.614,63.427C61.452,63.067 48.025,62.474 46.127,62.353L46,64.349ZM101.432,65.102L145.317,65.944L145.356,63.945L101.47,63.103L101.432,65.102ZM145.337,65.945L175.596,65.945L175.596,63.945L145.337,63.945L145.337,65.945ZM175.596,64.945C175.53,65.942 175.531,65.942 175.531,65.942C175.531,65.942 175.531,65.942 175.532,65.943C175.533,65.943 175.534,65.943 175.535,65.943C175.538,65.943 175.541,65.943 175.546,65.943C175.556,65.944 175.569,65.945 175.587,65.946C175.622,65.948 175.674,65.951 175.741,65.955C175.875,65.962 176.071,65.971 176.32,65.981C176.819,66.001 177.535,66.021 178.408,66.024C180.154,66.032 182.539,65.973 185.09,65.706C187.636,65.44 190.38,64.964 192.83,64.123C195.264,63.288 197.516,62.056 198.949,60.206L197.368,58.981C196.279,60.388 194.451,61.453 192.181,62.232C189.928,63.005 187.347,63.459 184.882,63.717C182.423,63.974 180.114,64.031 178.417,64.024C177.569,64.021 176.877,64.001 176.398,63.983C176.159,63.973 175.973,63.964 175.848,63.957C175.785,63.954 175.738,63.951 175.707,63.95C175.691,63.949 175.68,63.948 175.672,63.947C175.669,63.947 175.666,63.947 175.664,63.947C175.663,63.947 175.663,63.947 175.663,63.947C175.663,63.947 175.663,63.947 175.662,63.947C175.663,63.947 175.663,63.947 175.596,64.945ZM198.949,60.206C201.476,56.942 201.316,53.814 200.338,51.416L198.486,52.171C199.233,54.004 199.398,56.359 197.368,58.981L198.949,60.206ZM200.337,51.412C200.222,51.134 200.099,50.872 199.97,50.62L198.191,51.533C198.297,51.74 198.396,51.952 198.487,52.174L200.337,51.412ZM200.08,51.076C200.08,51.076 200.08,51.074 200.08,51.071C200.08,51.068 200.08,51.063 200.08,51.057C200.08,51.045 200.079,51.025 200.078,51.001C200.075,50.96 200.066,50.857 200.022,50.734C199.976,50.602 199.876,50.41 199.669,50.258C199.459,50.103 199.236,50.063 199.073,50.063L199.073,52.063C198.914,52.063 198.693,52.023 198.485,51.87C198.28,51.719 198.182,51.529 198.136,51.4C198.094,51.28 198.085,51.18 198.083,51.142C198.08,51.102 198.08,51.067 198.08,51.076L200.08,51.076ZM199.965,50.61C199.366,49.43 198.611,48.482 198.013,47.832C197.713,47.506 197.447,47.251 197.255,47.074C197.158,46.986 197.079,46.918 197.023,46.87C196.995,46.846 196.972,46.827 196.955,46.813C196.947,46.806 196.94,46.801 196.935,46.797C196.933,46.795 196.93,46.793 196.929,46.791C196.928,46.791 196.927,46.79 196.926,46.79C196.926,46.789 196.926,46.789 196.925,46.789C196.925,46.789 196.925,46.789 196.925,46.788C196.925,46.788 196.925,46.788 196.3,47.569C195.676,48.351 195.676,48.351 195.676,48.35C195.676,48.35 195.676,48.35 195.676,48.35C195.676,48.35 195.675,48.35 195.675,48.35C195.675,48.35 195.675,48.35 195.675,48.349C195.675,48.349 195.675,48.35 195.675,48.35C195.677,48.351 195.68,48.353 195.684,48.357C195.692,48.364 195.707,48.376 195.727,48.393C195.767,48.427 195.828,48.48 195.906,48.551C196.062,48.694 196.286,48.909 196.542,49.187C197.057,49.747 197.689,50.545 198.181,51.515L199.965,50.61ZM196.842,46.729L181.623,36.931L180.541,38.613L195.759,48.41L196.842,46.729ZM181.624,36.931L174.28,32.2L173.197,33.881L180.54,38.613L181.624,36.931ZM174.189,32.147L167.398,28.724L166.497,30.51L173.288,33.933L174.189,32.147ZM167.398,28.724L139.416,14.612L138.516,16.398L166.497,30.51L167.398,28.724ZM138.203,14.858C138.381,14.648 138.592,14.574 138.683,14.547C138.785,14.518 138.869,14.512 138.91,14.51C138.992,14.506 139.053,14.515 139.065,14.516C139.098,14.521 139.108,14.525 139.078,14.517C139.026,14.504 138.932,14.477 138.785,14.43C138.498,14.338 138.073,14.194 137.523,14C136.425,13.615 134.866,13.052 132.987,12.373L132.307,14.254C134.182,14.931 135.752,15.499 136.861,15.888C137.414,16.082 137.861,16.235 138.178,16.336C138.334,16.385 138.474,16.427 138.585,16.456C138.636,16.469 138.711,16.486 138.789,16.497C138.823,16.502 138.901,16.512 138.997,16.508C139.044,16.506 139.134,16.499 139.241,16.468C139.335,16.44 139.549,16.364 139.729,16.152L138.203,14.858Z" fill="#000000"/>
<path d="M82.782,55.168L82.782,56.168L82.921,54.178L82.782,55.168ZM141.355,60.178L140.938,61.087L141.072,61.148L141.217,61.169L141.355,60.178ZM25.448,56.168L82.782,56.168L82.782,54.168L25.448,54.168L25.448,56.168ZM82.921,54.178C82.925,54.178 82.937,54.18 82.955,54.183C82.964,54.185 83.012,54.194 83.072,54.214C83.107,54.226 83.201,54.266 83.258,54.296C83.364,54.367 83.628,54.668 83.73,54.923C83.749,55.302 83.494,55.841 83.326,55.986C83.238,56.04 83.094,56.104 83.042,56.121C82.961,56.145 82.895,56.152 82.887,56.153C82.865,56.156 82.849,56.157 82.844,56.157C82.833,56.158 82.829,56.158 82.839,56.157C82.879,56.157 82.973,56.157 83.134,56.16C83.445,56.165 83.945,56.179 84.613,56.202C85.948,56.246 87.935,56.323 90.38,56.43C95.269,56.645 101.98,56.981 108.945,57.421C115.912,57.862 123.123,58.405 129.016,59.035C131.964,59.349 134.57,59.684 136.645,60.036C138.757,60.395 140.214,60.755 140.938,61.087L141.772,59.269C140.778,58.813 139.076,58.42 136.98,58.065C134.847,57.703 132.195,57.363 129.229,57.046C123.294,56.412 116.049,55.866 109.071,55.425C102.09,54.984 95.366,54.648 90.467,54.432C88.018,54.325 86.023,54.248 84.68,54.203C84.009,54.18 83.497,54.166 83.17,54.16C83.011,54.157 82.88,54.156 82.796,54.158C82.774,54.158 82.745,54.159 82.715,54.161C82.7,54.162 82.677,54.164 82.649,54.167C82.635,54.169 82.564,54.177 82.48,54.202C82.427,54.219 82.282,54.284 82.193,54.338C82.024,54.484 81.769,55.023 81.788,55.403C81.89,55.658 82.155,55.96 82.262,56.031C82.319,56.061 82.415,56.102 82.452,56.115C82.551,56.147 82.642,56.158 82.643,56.159L82.921,54.178ZM141.217,61.169L175.459,65.935L175.735,63.954L141.493,59.188L141.217,61.169Z" fill="#000000"/>
<path d="M134.365,45.592L134.04,46.538L134.859,44.723L134.365,45.592ZM119.765,37.298L120.259,36.428L120.207,36.398L120.152,36.375L119.765,37.298ZM52.521,23.102L52.598,22.105L52.574,22.103L52.549,22.103L52.521,23.102ZM22.262,22.267L22.289,21.267L22.262,21.267L22.262,22.267ZM2,22.267L2,21.267L-0.089,21.267L1.221,22.894L2,22.267ZM45.443,36.797L45.491,35.798L45.456,35.796L45.421,35.797L45.443,36.797ZM83.666,38.634L83.746,37.637L83.73,37.635L83.714,37.635L83.666,38.634ZM134.859,44.723L120.259,36.428L119.272,38.167L133.871,46.461L134.859,44.723ZM119.765,37.298C120.152,36.375 120.152,36.375 120.151,36.375C120.151,36.375 120.151,36.375 120.15,36.375C120.149,36.374 120.148,36.374 120.147,36.373C120.143,36.372 120.139,36.37 120.132,36.367C120.12,36.362 120.102,36.354 120.077,36.344C120.029,36.324 119.957,36.294 119.862,36.255C119.674,36.177 119.396,36.063 119.039,35.917C118.325,35.626 117.291,35.209 116.012,34.705C113.455,33.697 109.916,32.341 105.987,30.948C98.167,28.175 88.678,25.21 82.344,24.612L82.156,26.603C88.21,27.174 97.479,30.053 105.319,32.833C109.22,34.217 112.737,35.564 115.279,36.566C116.55,37.066 117.576,37.481 118.284,37.769C118.638,37.914 118.913,38.026 119.098,38.103C119.191,38.142 119.262,38.171 119.309,38.191C119.332,38.2 119.35,38.208 119.362,38.213C119.368,38.215 119.372,38.217 119.375,38.218C119.377,38.219 119.378,38.219 119.378,38.22C119.379,38.22 119.379,38.22 119.379,38.22C119.379,38.22 119.379,38.22 119.765,37.298ZM82.344,24.612C76.144,24.027 68.707,23.4 62.822,22.92C59.879,22.68 57.323,22.476 55.503,22.332C54.593,22.261 53.867,22.204 53.368,22.165C53.119,22.146 52.927,22.131 52.796,22.121C52.731,22.116 52.682,22.112 52.649,22.109C52.632,22.108 52.619,22.107 52.611,22.106C52.607,22.106 52.604,22.106 52.602,22.106C52.6,22.105 52.6,22.105 52.599,22.105C52.599,22.105 52.599,22.105 52.598,22.105C52.598,22.105 52.598,22.105 52.521,23.102C52.445,24.099 52.445,24.099 52.445,24.099C52.445,24.099 52.445,24.099 52.445,24.099C52.446,24.1 52.447,24.1 52.448,24.1C52.45,24.1 52.453,24.1 52.457,24.1C52.466,24.101 52.478,24.102 52.495,24.103C52.528,24.106 52.577,24.11 52.642,24.115C52.772,24.125 52.964,24.14 53.213,24.159C53.711,24.198 54.437,24.255 55.346,24.326C57.165,24.47 59.719,24.673 62.659,24.913C68.542,25.393 75.969,26.019 82.156,26.603L82.344,24.612ZM52.549,22.103L22.289,21.268L22.234,23.267L52.494,24.102L52.549,22.103ZM22.262,21.267L2,21.267L2,23.267L22.262,23.267L22.262,21.267ZM2,22.267C1.221,22.894 1.221,22.895 1.221,22.895C1.222,22.895 1.222,22.895 1.222,22.896C1.222,22.896 1.223,22.897 1.224,22.898C1.225,22.9 1.228,22.903 1.231,22.906C1.236,22.913 1.244,22.923 1.255,22.936C1.276,22.962 1.307,23 1.348,23.049C1.428,23.147 1.547,23.289 1.701,23.47C2.008,23.831 2.455,24.346 3.019,24.965C4.146,26.204 5.746,27.868 7.636,29.566C9.523,31.262 11.715,33.007 14.027,34.397C16.33,35.782 18.811,36.85 21.267,37.122L21.487,35.135C19.43,34.906 17.233,33.991 15.057,32.683C12.89,31.38 10.802,29.723 8.973,28.078C7.146,26.437 5.594,24.823 4.498,23.619C3.951,23.018 3.519,22.52 3.224,22.174C3.077,22.001 2.965,21.866 2.889,21.775C2.852,21.73 2.824,21.695 2.805,21.672C2.796,21.661 2.789,21.653 2.785,21.647C2.782,21.645 2.781,21.643 2.78,21.641C2.779,21.641 2.779,21.64 2.779,21.64C2.779,21.64 2.779,21.64 2.779,21.64C2.779,21.64 2.779,21.64 2,22.267ZM21.267,37.122C25.833,37.629 31.893,37.796 36.786,37.838C39.238,37.859 41.406,37.849 42.962,37.833C43.74,37.825 44.365,37.816 44.796,37.809C45.011,37.805 45.178,37.802 45.292,37.8C45.348,37.799 45.392,37.798 45.421,37.797C45.435,37.797 45.446,37.797 45.454,37.797C45.458,37.796 45.46,37.796 45.462,37.796C45.463,37.796 45.464,37.796 45.465,37.796C45.465,37.796 45.465,37.796 45.465,37.796C45.465,37.796 45.465,37.796 45.443,36.797C45.421,35.797 45.421,35.797 45.421,35.797C45.421,35.797 45.421,35.797 45.42,35.797C45.42,35.797 45.419,35.797 45.419,35.797C45.417,35.797 45.414,35.797 45.411,35.797C45.404,35.797 45.393,35.797 45.379,35.798C45.351,35.798 45.308,35.799 45.252,35.8C45.141,35.802 44.976,35.805 44.763,35.809C44.336,35.816 43.715,35.825 42.942,35.833C41.395,35.849 39.24,35.859 36.803,35.838C31.919,35.797 25.946,35.63 21.487,35.135L21.267,37.122ZM45.395,37.795L83.618,39.632L83.714,37.635L45.491,35.798L45.395,37.795ZM83.666,38.634C83.587,39.63 83.587,39.63 83.587,39.63C83.587,39.63 83.588,39.63 83.588,39.631C83.589,39.631 83.591,39.631 83.594,39.631C83.598,39.631 83.605,39.632 83.615,39.633C83.634,39.634 83.662,39.636 83.7,39.639C83.774,39.646 83.886,39.655 84.032,39.667C84.324,39.691 84.755,39.726 85.306,39.773C86.41,39.867 87.999,40.005 89.941,40.182C93.826,40.537 99.119,41.05 104.757,41.682C110.395,42.313 116.371,43.063 121.621,43.89C126.894,44.72 131.366,45.619 134.04,46.538L134.689,44.646C131.833,43.665 127.203,42.744 121.933,41.914C116.64,41.08 110.632,40.327 104.979,39.694C99.324,39.061 94.017,38.547 90.123,38.191C88.177,38.013 86.583,37.874 85.475,37.78C84.922,37.733 84.49,37.697 84.196,37.673C84.049,37.661 83.936,37.652 83.861,37.646C83.823,37.643 83.794,37.641 83.775,37.639C83.765,37.638 83.758,37.638 83.753,37.637C83.751,37.637 83.749,37.637 83.747,37.637C83.747,37.637 83.746,37.637 83.746,37.637C83.746,37.637 83.746,37.637 83.666,38.634Z" fill="#000000"/>
<path d="M134.365,45.593L134.689,44.647L133.871,46.462L134.365,45.593ZM137.108,47.151L136.614,48.021L139.66,49.752L137.986,46.674L137.108,47.151ZM134.041,46.539C134.753,46.783 135.304,47.018 135.696,47.237C135.89,47.346 136.028,47.441 136.12,47.519C136.214,47.599 136.234,47.639 136.229,47.629L137.986,46.674C137.703,46.152 137.178,45.775 136.673,45.492C136.135,45.19 135.458,44.91 134.689,44.647L134.041,46.539ZM137.602,46.282L134.859,44.723L133.871,46.462L136.614,48.021L137.602,46.282Z" fill="#000000"/>
<path d="M156.219,34.709L156.757,33.866L156.666,33.808L156.564,33.771L156.219,34.709ZM142.77,28.948L143.457,28.22L143.35,28.12L143.219,28.054L142.77,28.948ZM138.803,26.986L138.363,27.883L138.364,27.884L138.803,26.986ZM121.889,19.596L122.095,20.574L121.889,19.596ZM181.082,37.771C181.134,36.772 181.134,36.772 181.134,36.772C181.133,36.772 181.133,36.772 181.133,36.772C181.132,36.772 181.131,36.772 181.13,36.772C181.128,36.772 181.124,36.772 181.119,36.772C181.108,36.771 181.093,36.77 181.072,36.769C181.031,36.767 180.97,36.764 180.89,36.759C180.73,36.75 180.495,36.737 180.195,36.72C179.593,36.685 178.73,36.633 177.685,36.565C175.594,36.428 172.777,36.226 169.868,35.964C166.956,35.702 163.966,35.382 161.524,35.009C160.302,34.823 159.233,34.626 158.387,34.421C157.504,34.206 156.98,34.009 156.757,33.866L155.681,35.552C156.211,35.89 157.027,36.148 157.915,36.364C158.84,36.589 159.972,36.796 161.222,36.987C163.724,37.368 166.761,37.693 169.689,37.956C172.619,38.22 175.454,38.423 177.555,38.561C178.605,38.629 179.473,38.682 180.079,38.717C180.382,38.734 180.619,38.747 180.781,38.756C180.862,38.761 180.924,38.764 180.965,38.766C180.986,38.767 181.002,38.768 181.013,38.769C181.018,38.769 181.022,38.769 181.025,38.769C181.027,38.77 181.028,38.77 181.028,38.77C181.029,38.77 181.029,38.77 181.029,38.77C181.029,38.77 181.029,38.77 181.082,37.771ZM156.219,34.709C156.564,33.771 156.564,33.771 156.564,33.771C156.564,33.771 156.564,33.771 156.564,33.771C156.563,33.771 156.563,33.77 156.562,33.77C156.561,33.77 156.559,33.769 156.556,33.768C156.55,33.766 156.542,33.763 156.531,33.758C156.508,33.75 156.475,33.738 156.431,33.721C156.343,33.689 156.214,33.641 156.048,33.579C155.718,33.456 155.244,33.279 154.671,33.062C153.524,32.627 151.982,32.035 150.397,31.401C148.809,30.766 147.189,30.095 145.882,29.501C145.228,29.204 144.664,28.932 144.227,28.697C143.759,28.447 143.526,28.286 143.457,28.22L142.084,29.675C142.369,29.944 142.821,30.213 143.282,30.46C143.774,30.724 144.382,31.016 145.055,31.322C146.403,31.934 148.056,32.619 149.654,33.258C151.254,33.898 152.809,34.495 153.963,34.932C154.54,35.151 155.017,35.329 155.35,35.454C155.517,35.516 155.647,35.564 155.737,35.597C155.781,35.614 155.815,35.626 155.838,35.635C155.85,35.639 155.859,35.642 155.865,35.644C155.868,35.646 155.87,35.646 155.871,35.647C155.872,35.647 155.873,35.647 155.873,35.648C155.873,35.648 155.874,35.648 155.874,35.648C155.874,35.648 155.874,35.648 156.219,34.709ZM142.77,28.948C143.219,28.054 143.219,28.054 143.219,28.054C143.219,28.054 143.219,28.054 143.219,28.054C143.219,28.054 143.219,28.054 143.219,28.054C143.218,28.054 143.218,28.054 143.218,28.053C143.217,28.053 143.216,28.052 143.214,28.052C143.211,28.05 143.206,28.048 143.2,28.044C143.187,28.038 143.168,28.029 143.144,28.016C143.095,27.992 143.022,27.955 142.927,27.908C142.738,27.813 142.461,27.675 142.111,27.502C141.411,27.154 140.418,26.662 139.243,26.087L138.364,27.884C139.534,28.457 140.524,28.946 141.221,29.293C141.57,29.466 141.845,29.603 142.033,29.697C142.127,29.744 142.2,29.78 142.248,29.805C142.273,29.817 142.291,29.826 142.303,29.832C142.309,29.835 142.314,29.838 142.317,29.839C142.319,29.84 142.32,29.841 142.321,29.841C142.321,29.841 142.321,29.841 142.321,29.841C142.322,29.841 142.322,29.841 142.322,29.841C142.322,29.842 142.322,29.842 142.322,29.842C142.322,29.842 142.322,29.842 142.77,28.948ZM139.244,26.088C136.377,24.681 132.419,22.769 129.033,21.237C127.342,20.471 125.781,19.795 124.564,19.323C123.958,19.088 123.419,18.896 122.984,18.77C122.767,18.707 122.558,18.654 122.367,18.623C122.207,18.596 121.947,18.562 121.684,18.617L122.095,20.574C121.973,20.6 121.924,20.576 122.037,20.595C122.121,20.609 122.248,20.639 122.426,20.69C122.779,20.793 123.256,20.961 123.841,21.188C125.006,21.64 126.528,22.298 128.209,23.059C131.566,24.578 135.501,26.479 138.363,27.883L139.244,26.088ZM121.684,18.617C121.817,18.589 121.891,18.611 121.825,18.601C121.782,18.594 121.706,18.578 121.584,18.545C121.341,18.478 121,18.366 120.546,18.205C119.636,17.883 118.384,17.405 116.744,16.799C113.484,15.594 108.811,13.928 102.775,12.17C90.705,8.653 73.199,4.776 50.632,3.484L50.518,5.48C72.913,6.763 90.269,10.609 102.216,14.09C108.19,15.83 112.815,17.48 116.051,18.675C117.659,19.269 118.953,19.763 119.878,20.09C120.341,20.254 120.739,20.387 121.056,20.474C121.214,20.517 121.372,20.555 121.52,20.577C121.643,20.596 121.862,20.623 122.095,20.574L121.684,18.617Z" fill="#000000"/>
<path d="M132.618,13.305L132.085,14.152L132.226,14.24L132.388,14.278L132.618,13.305ZM132.596,13.291L133.128,12.445L132.884,12.291L132.596,12.291L132.596,13.291ZM132.573,13.291L132.501,14.289L132.537,14.291L132.573,14.291L132.573,13.291ZM126.638,13.229L126.575,12.231L126.571,12.231L126.638,13.229ZM122.774,16.923L123.472,16.207L123.471,16.206L122.774,16.923ZM139.408,25.274L139.735,24.328L139.716,24.322L139.697,24.316L139.408,25.274ZM151.972,29.616L151.646,30.561L151.805,30.616L151.972,30.616L151.972,29.616ZM166.948,29.616L166.948,30.616L171.38,30.616L167.377,28.712L166.948,29.616ZM155.224,24.042L155.653,23.139L155.653,23.139L155.224,24.042ZM132.647,13.312L133.076,12.409L132.98,12.363L132.877,12.339L132.647,13.312ZM133.15,12.459L133.128,12.445L132.063,14.138L132.085,14.152L133.15,12.459ZM132.596,13.291C132.596,12.291 132.596,12.291 132.596,12.291C132.596,12.291 132.596,12.291 132.596,12.291C132.596,12.291 132.596,12.291 132.596,12.291C132.596,12.291 132.596,12.291 132.596,12.291C132.596,12.291 132.596,12.291 132.596,12.291C132.596,12.291 132.596,12.291 132.596,12.291C132.596,12.291 132.596,12.291 132.596,12.291C132.596,12.291 132.596,12.291 132.596,12.291C132.596,12.291 132.596,12.291 132.596,12.291C132.596,12.291 132.596,12.291 132.596,12.291C132.596,12.291 132.596,12.291 132.596,12.291C132.596,12.291 132.596,12.291 132.596,12.291C132.596,12.291 132.596,12.291 132.596,12.291C132.596,12.291 132.596,12.291 132.596,12.291C132.596,12.291 132.596,12.291 132.596,12.291C132.596,12.291 132.596,12.291 132.596,12.291C132.596,12.291 132.596,12.291 132.596,12.291C132.596,12.291 132.596,12.291 132.596,12.291C132.596,12.291 132.596,12.291 132.596,12.291C132.596,12.291 132.596,12.291 132.596,12.291C132.596,12.291 132.596,12.291 132.596,12.291C132.596,12.291 132.596,12.291 132.596,12.291C132.596,12.291 132.596,12.291 132.596,12.291C132.596,12.291 132.596,12.291 132.596,12.291C132.596,12.291 132.596,12.291 132.596,12.291C132.596,12.291 132.596,12.291 132.596,12.291C132.596,12.291 132.596,12.291 132.596,12.291C132.596,12.291 132.596,12.291 132.596,12.291C132.596,12.291 132.596,12.291 132.596,12.291C132.596,12.291 132.596,12.291 132.596,12.291C132.596,12.291 132.596,12.291 132.596,12.291C132.596,12.291 132.596,12.291 132.596,12.291C132.596,12.291 132.596,12.291 132.596,12.291C132.596,12.291 132.596,12.291 132.596,12.291C132.595,12.291 132.595,12.291 132.595,12.291C132.595,12.291 132.595,12.291 132.595,12.291C132.595,12.291 132.595,12.291 132.595,12.291C132.595,12.291 132.595,12.291 132.595,12.291C132.595,12.291 132.595,12.291 132.595,12.291C132.595,12.291 132.595,12.291 132.595,12.291C132.595,12.291 132.595,12.291 132.595,12.291C132.595,12.291 132.595,12.291 132.595,12.291C132.595,12.291 132.595,12.291 132.595,12.291C132.595,12.291 132.595,12.291 132.595,12.291C132.595,12.291 132.595,12.291 132.595,12.291C132.595,12.291 132.595,12.291 132.595,12.291C132.595,12.291 132.595,12.291 132.595,12.291C132.595,12.291 132.595,12.291 132.595,12.291C132.595,12.291 132.595,12.291 132.595,12.291C132.595,12.291 132.595,12.291 132.595,12.291C132.595,12.291 132.595,12.291 132.595,12.291C132.595,12.291 132.595,12.291 132.595,12.291C132.595,12.291 132.595,12.291 132.595,12.291C132.595,12.291 132.595,12.291 132.595,12.291C132.595,12.291 132.595,12.291 132.595,12.291C132.595,12.291 132.595,12.291 132.595,12.291C132.595,12.291 132.595,12.291 132.595,12.291C132.595,12.291 132.595,12.291 132.595,12.291C132.595,12.291 132.595,12.291 132.595,12.291C132.595,12.291 132.595,12.291 132.595,12.291C132.595,12.291 132.595,12.291 132.595,12.291C132.595,12.291 132.595,12.291 132.595,12.291C132.595,12.291 132.595,12.291 132.595,12.291C132.595,12.291 132.595,12.291 132.595,12.291C132.595,12.291 132.595,12.291 132.595,12.291C132.595,12.291 132.595,12.291 132.595,12.291C132.595,12.291 132.595,12.291 132.595,12.291C132.595,12.291 132.595,12.291 132.595,12.291C132.595,12.291 132.595,12.291 132.595,12.291C132.595,12.291 132.595,12.291 132.595,12.291C132.595,12.291 132.595,12.291 132.595,12.291C132.595,12.291 132.595,12.291 132.595,12.291C132.595,12.291 132.595,12.291 132.595,12.291C132.595,12.291 132.595,12.291 132.595,12.291C132.595,12.291 132.595,12.291 132.595,12.291C132.595,12.291 132.595,12.291 132.595,12.291C132.595,12.291 132.595,12.291 132.595,12.291C132.595,12.291 132.595,12.291 132.595,12.291C132.595,12.291 132.595,12.291 132.595,12.291C132.595,12.291 132.595,12.291 132.595,12.291C132.595,12.291 132.595,12.291 132.595,12.291C132.595,12.291 132.595,12.291 132.595,12.291C132.595,12.291 132.595,12.291 132.595,12.291C132.595,12.291 132.595,12.291 132.595,12.291C132.595,12.291 132.595,12.291 132.595,12.291C132.595,12.291 132.595,12.291 132.595,12.291C132.595,12.291 132.595,12.291 132.595,12.291C132.595,12.291 132.595,12.291 132.595,12.291C132.595,12.291 132.595,12.291 132.595,12.291C132.595,12.291 132.595,12.291 132.595,12.291C132.595,12.291 132.595,12.291 132.595,12.291C132.595,12.291 132.595,12.291 132.595,12.291C132.595,12.291 132.595,12.291 132.595,12.291C132.595,12.291 132.595,12.291 132.595,12.291C132.595,12.291 132.595,12.291 132.595,12.291C132.595,12.291 132.595,12.291 132.595,12.291C132.595,12.291 132.595,12.291 132.595,12.291C132.595,12.291 132.595,12.291 132.595,12.291C132.595,12.291 132.595,12.291 132.595,12.291C132.595,12.291 132.595,12.291 132.595,12.291C132.595,12.291 132.595,12.291 132.595,12.291C132.595,12.291 132.595,12.291 132.595,12.291C132.595,12.291 132.595,12.291 132.595,12.291C132.595,12.291 132.595,12.291 132.595,12.291C132.595,12.291 132.595,12.291 132.595,12.291C132.595,12.291 132.595,12.291 132.595,12.291C132.595,12.291 132.595,12.291 132.595,12.291C132.595,12.291 132.595,12.291 132.595,12.291C132.595,12.291 132.595,12.291 132.595,12.291C132.595,12.291 132.595,12.291 132.595,12.291C132.595,12.291 132.595,12.291 132.595,12.291C132.595,12.291 132.595,12.291 132.595,12.291C132.595,12.291 132.595,12.291 132.595,12.291C132.595,12.291 132.595,12.291 132.595,12.291C132.594,12.291 132.594,12.291 132.594,12.291C132.594,12.291 132.594,12.291 132.594,12.291C132.594,12.291 132.594,12.291 132.594,12.291C132.594,12.291 132.594,12.291 132.594,12.291C132.594,12.291 132.594,12.291 132.594,12.291C132.594,12.291 132.594,12.291 132.594,12.291C132.594,12.291 132.594,12.291 132.594,12.291C132.594,12.291 132.594,12.291 132.594,12.291C132.594,12.291 132.594,12.291 132.594,12.291C132.594,12.291 132.594,12.291 132.594,12.291C132.594,12.291 132.594,12.291 132.594,12.291C132.594,12.291 132.594,12.291 132.594,12.291C132.594,12.291 132.594,12.291 132.594,12.291C132.594,12.291 132.594,12.291 132.594,12.291C132.594,12.291 132.594,12.291 132.594,12.291C132.594,12.291 132.594,12.291 132.594,12.291C132.594,12.291 132.594,12.291 132.594,12.291C132.594,12.291 132.594,12.291 132.594,12.291C132.594,12.291 132.594,12.291 132.594,12.291C132.594,12.291 132.594,12.291 132.594,12.291C132.594,12.291 132.594,12.291 132.594,12.291C132.594,12.291 132.594,12.291 132.594,12.291C132.594,12.291 132.594,12.291 132.594,12.291C132.594,12.291 132.594,12.291 132.594,12.291C132.594,12.291 132.594,12.291 132.594,12.291C132.594,12.291 132.594,12.291 132.594,12.291C132.594,12.291 132.594,12.291 132.594,12.291C132.594,12.291 132.594,12.291 132.594,12.291C132.594,12.291 132.594,12.291 132.594,12.291C132.594,12.291 132.594,12.291 132.594,12.291C132.594,12.291 132.594,12.291 132.594,12.291C132.594,12.291 132.594,12.291 132.594,12.291C132.594,12.291 132.594,12.291 132.594,12.291C132.594,12.291 132.594,12.291 132.594,12.291C132.594,12.291 132.594,12.291 132.594,12.291C132.594,12.291 132.594,12.291 132.594,12.291C132.594,12.291 132.594,12.291 132.594,12.291C132.594,12.291 132.594,12.291 132.594,12.291C132.594,12.291 132.594,12.291 132.594,12.291C132.594,12.291 132.594,12.291 132.594,12.291C132.594,12.291 132.594,12.291 132.594,12.291C132.594,12.291 132.594,12.291 132.594,12.291C132.594,12.291 132.594,12.291 132.594,12.291C132.594,12.291 132.594,12.291 132.593,12.291C132.593,12.291 132.593,12.291 132.593,12.291C132.593,12.291 132.593,12.291 132.593,12.291C132.593,12.291 132.593,12.291 132.593,12.291C132.593,12.291 132.593,12.291 132.593,12.291C132.593,12.291 132.593,12.291 132.593,12.291C132.593,12.291 132.593,12.291 132.593,12.291C132.593,12.291 132.593,12.291 132.593,12.291C132.593,12.291 132.593,12.291 132.593,12.291C132.593,12.291 132.593,12.291 132.593,12.291C132.593,12.291 132.593,12.291 132.593,12.291C132.593,12.291 132.593,12.291 132.593,12.291C132.593,12.291 132.593,12.291 132.593,12.291C132.593,12.291 132.593,12.291 132.593,12.291C132.593,12.291 132.593,12.291 132.593,12.291C132.593,12.291 132.593,12.291 132.593,12.291C132.593,12.291 132.593,12.291 132.593,12.291C132.593,12.291 132.593,12.291 132.593,12.291C132.593,12.291 132.593,12.291 132.593,12.291C132.593,12.291 132.593,12.291 132.593,12.291C132.593,12.291 132.593,12.291 132.593,12.291C132.593,12.291 132.593,12.291 132.593,12.291C132.593,12.291 132.593,12.291 132.593,12.291C132.593,12.291 132.593,12.291 132.593,12.291C132.593,12.291 132.593,12.291 132.593,12.291C132.593,12.291 132.593,12.291 132.593,12.291C132.593,12.291 132.593,12.291 132.593,12.291C132.593,12.291 132.593,12.291 132.593,12.291C132.593,12.291 132.593,12.291 132.593,12.291C132.593,12.291 132.593,12.291 132.593,12.291C132.593,12.291 132.593,12.291 132.593,12.291C132.593,12.291 132.593,12.291 132.593,12.291C132.593,12.291 132.593,12.291 132.593,12.291C132.593,12.291 132.593,12.291 132.593,12.291C132.593,12.291 132.592,12.291 132.592,12.291C132.592,12.291 132.592,12.291 132.592,12.291C132.592,12.291 132.592,12.291 132.592,12.291C132.592,12.291 132.592,12.291 132.592,12.291C132.592,12.291 132.592,12.291 132.592,12.291C132.592,12.291 132.592,12.291 132.592,12.291C132.592,12.291 132.592,12.291 132.592,12.291C132.592,12.291 132.592,12.291 132.592,12.291C132.592,12.291 132.592,12.291 132.592,12.291C132.592,12.291 132.592,12.291 132.592,12.291C132.592,12.291 132.592,12.291 132.592,12.291C132.592,12.291 132.592,12.291 132.592,12.291C132.592,12.291 132.592,12.291 132.592,12.291C132.592,12.291 132.592,12.291 132.592,12.291C132.592,12.291 132.592,12.291 132.592,12.291C132.592,12.291 132.592,12.291 132.592,12.291C132.592,12.291 132.592,12.291 132.592,12.291C132.592,12.291 132.592,12.291 132.592,12.291C132.592,12.291 132.592,12.291 132.592,12.291C132.592,12.291 132.592,12.291 132.592,12.291C132.592,12.291 132.592,12.291 132.592,12.291C132.592,12.291 132.592,12.291 132.592,12.291C132.592,12.291 132.592,12.291 132.592,12.291C132.592,12.291 132.592,12.291 132.592,12.291C132.592,12.291 132.592,12.291 132.592,12.291C132.592,12.291 132.592,12.291 132.592,12.291C132.592,12.291 132.592,12.291 132.592,12.291C132.592,12.291 132.592,12.291 132.592,12.291C132.592,12.291 132.592,12.291 132.592,12.291C132.592,12.291 132.591,12.291 132.591,12.291C132.591,12.291 132.591,12.291 132.591,12.291C132.591,12.291 132.591,12.291 132.591,12.291C132.591,12.291 132.591,12.291 132.591,12.291C132.591,12.291 132.591,12.291 132.591,12.291C132.591,12.291 132.591,12.291 132.591,12.291C132.591,12.291 132.591,12.291 132.591,12.291C132.591,12.291 132.591,12.291 132.591,12.291C132.591,12.291 132.591,12.291 132.591,12.291C132.591,12.291 132.591,12.291 132.591,12.291C132.591,12.291 132.591,12.291 132.591,12.291C132.591,12.291 132.591,12.291 132.591,12.291C132.591,12.291 132.591,12.291 132.591,12.291C132.591,12.291 132.591,12.291 132.591,12.291C132.591,12.291 132.591,12.291 132.591,12.291C132.591,12.291 132.591,12.291 132.591,12.291C132.591,12.291 132.591,12.291 132.591,12.291C132.591,12.291 132.591,12.291 132.591,12.291C132.591,12.291 132.591,12.291 132.591,12.291C132.591,12.291 132.591,12.291 132.591,12.291C132.591,12.291 132.591,12.291 132.591,12.291C132.591,12.291 132.591,12.291 132.591,12.291C132.591,12.291 132.591,12.291 132.591,12.291C132.591,12.291 132.591,12.291 132.591,12.291C132.591,12.291 132.591,12.291 132.591,12.291C132.591,12.291 132.591,12.291 132.59,12.291C132.59,12.291 132.59,12.291 132.59,12.291C132.59,12.291 132.59,12.291 132.59,12.291C132.59,12.291 132.59,12.291 132.59,12.291C132.59,12.291 132.59,12.291 132.59,12.291C132.59,12.291 132.59,12.291 132.59,12.291C132.59,12.291 132.59,12.291 132.59,12.291C132.59,12.291 132.59,12.291 132.59,12.291C132.59,12.291 132.59,12.291 132.59,12.291C132.59,12.291 132.59,12.291 132.59,12.291C132.59,12.291 132.59,12.291 132.59,12.291C132.59,12.291 132.59,12.291 132.59,12.291C132.59,12.291 132.59,12.291 132.59,12.291C132.59,12.291 132.59,12.291 132.59,12.291C132.59,12.291 132.59,12.291 132.59,12.291C132.59,12.291 132.59,12.291 132.59,12.291C132.59,12.291 132.59,12.291 132.59,12.291C132.59,12.291 132.59,12.291 132.59,12.291C132.59,12.291 132.59,12.291 132.59,12.291C132.59,12.291 132.59,12.291 132.59,12.291C132.59,12.291 132.59,12.291 132.59,12.291C132.59,12.291 132.59,12.291 132.59,12.291C132.59,12.291 132.59,12.291 132.59,12.291C132.59,12.291 132.59,12.291 132.589,12.291C132.589,12.291 132.589,12.291 132.589,12.291C132.589,12.291 132.589,12.291 132.589,12.291C132.589,12.291 132.589,12.291 132.589,12.291C132.589,12.291 132.589,12.291 132.589,12.291C132.589,12.291 132.589,12.291 132.589,12.291C132.589,12.291 132.589,12.291 132.589,12.291C132.589,12.291 132.589,12.291 132.589,12.291C132.589,12.291 132.589,12.291 132.589,12.291C132.589,12.291 132.589,12.291 132.589,12.291C132.589,12.291 132.589,12.291 132.589,12.291C132.589,12.291 132.589,12.291 132.589,12.291C132.589,12.291 132.589,12.291 132.589,12.291C132.589,12.291 132.589,12.291 132.589,12.291C132.589,12.291 132.589,12.291 132.589,12.291C132.589,12.291 132.589,12.291 132.589,12.291C132.589,12.291 132.589,12.291 132.589,12.291C132.589,12.291 132.589,12.291 132.589,12.291C132.589,12.291 132.589,12.291 132.589,12.291C132.589,12.291 132.589,12.291 132.589,12.291C132.589,12.291 132.589,12.291 132.589,12.291C132.589,12.291 132.589,12.291 132.589,12.291C132.588,12.291 132.588,12.291 132.588,12.291C132.588,12.291 132.588,12.291 132.588,12.291C132.588,12.291 132.588,12.291 132.588,12.291C132.588,12.291 132.588,12.291 132.588,12.291C132.588,12.291 132.588,12.291 132.588,12.291C132.588,12.291 132.588,12.291 132.588,12.291C132.588,12.291 132.588,12.291 132.588,12.291C132.588,12.291 132.588,12.291 132.588,12.291C132.588,12.291 132.588,12.291 132.588,12.291C132.588,12.291 132.588,12.291 132.588,12.291C132.588,12.291 132.588,12.291 132.588,12.291C132.588,12.291 132.588,12.291 132.588,12.291C132.588,12.291 132.588,12.291 132.588,12.291C132.588,12.291 132.588,12.291 132.588,12.291C132.588,12.291 132.588,12.291 132.588,12.291C132.588,12.291 132.588,12.291 132.588,12.291C132.588,12.291 132.588,12.291 132.588,12.291C132.588,12.291 132.588,12.291 132.588,12.291C132.588,12.291 132.588,12.291 132.588,12.291C132.588,12.291 132.588,12.291 132.587,12.291C132.587,12.291 132.587,12.291 132.587,12.291C132.587,12.291 132.587,12.291 132.587,12.291C132.587,12.291 132.587,12.291 132.587,12.291C132.587,12.291 132.587,12.291 132.587,12.291C132.587,12.291 132.587,12.291 132.587,12.291C132.587,12.291 132.587,12.291 132.587,12.291C132.587,12.291 132.587,12.291 132.587,12.291C132.587,12.291 132.587,12.291 132.587,12.291C132.587,12.291 132.587,12.291 132.587,12.291C132.587,12.291 132.587,12.291 132.587,12.291C132.587,12.291 132.587,12.291 132.587,12.291C132.587,12.291 132.587,12.291 132.587,12.291C132.587,12.291 132.587,12.291 132.587,12.291C132.587,12.291 132.587,12.291 132.587,12.291C132.587,12.291 132.587,12.291 132.587,12.291C132.587,12.291 132.587,12.291 132.587,12.291C132.587,12.291 132.587,12.291 132.587,12.291C132.587,12.291 132.587,12.291 132.587,12.291C132.587,12.291 132.586,12.291 132.586,12.291C132.586,12.291 132.586,12.291 132.586,12.291C132.586,12.291 132.586,12.291 132.586,12.291C132.586,12.291 132.586,12.291 132.586,12.291C132.586,12.291 132.586,12.291 132.586,12.291C132.586,12.291 132.586,12.291 132.586,12.291C132.586,12.291 132.586,12.291 132.586,12.291C132.586,12.291 132.586,12.291 132.586,12.291C132.586,12.291 132.586,12.291 132.586,12.291C132.586,12.291 132.586,12.291 132.586,12.291C132.586,12.291 132.586,12.291 132.586,12.291C132.586,12.291 132.586,12.291 132.586,12.291C132.586,12.291 132.586,12.291 132.586,12.291C132.586,12.291 132.586,12.291 132.586,12.291C132.586,12.291 132.586,12.291 132.586,12.291C132.586,12.291 132.586,12.291 132.586,12.291C132.586,12.291 132.586,12.291 132.586,12.291C132.586,12.291 132.586,12.291 132.585,12.291C132.585,12.291 132.585,12.291 132.585,12.291C132.585,12.291 132.585,12.291 132.585,12.291C132.585,12.291 132.585,12.291 132.585,12.291C132.585,12.291 132.585,12.291 132.585,12.291C132.585,12.291 132.585,12.291 132.585,12.291C132.585,12.291 132.585,12.291 132.585,12.291C132.585,12.291 132.585,12.291 132.585,12.291C132.585,12.291 132.585,12.291 132.585,12.291C132.585,12.291 132.585,12.291 132.585,12.291C132.585,12.291 132.585,12.291 132.585,12.291C132.585,12.291 132.585,12.291 132.585,12.291C132.585,12.291 132.585,12.291 132.585,12.291C132.585,12.291 132.585,12.291 132.585,12.291C132.585,12.291 132.585,12.291 132.585,12.291C132.585,12.291 132.585,12.291 132.585,12.291C132.585,12.291 132.585,12.291 132.585,12.291C132.585,12.291 132.585,12.291 132.584,12.291C132.584,12.291 132.584,12.291 132.584,12.291C132.584,12.291 132.584,12.291 132.584,12.291C132.584,12.291 132.584,12.291 132.584,12.291C132.584,12.291 132.584,12.291 132.584,12.291C132.584,12.291 132.584,12.291 132.584,12.291C132.584,12.291 132.584,12.291 132.584,12.291C132.584,12.291 132.584,12.291 132.584,12.291C132.584,12.291 132.584,12.291 132.584,12.291C132.584,12.291 132.584,12.291 132.584,12.291C132.584,12.291 132.584,12.291 132.584,12.291C132.584,12.291 132.584,12.291 132.584,12.291C132.584,12.291 132.584,12.291 132.584,12.291C132.584,12.291 132.584,12.291 132.584,12.291C132.584,12.291 132.584,12.291 132.584,12.291C132.584,12.291 132.584,12.291 132.584,12.291C132.584,12.291 132.583,12.291 132.583,12.291C132.583,12.291 132.583,12.291 132.583,12.291C132.583,12.291 132.583,12.291 132.583,12.291C132.583,12.291 132.583,12.291 132.583,12.291C132.583,12.291 132.583,12.291 132.583,12.291C132.583,12.291 132.583,12.291 132.583,12.291C132.583,12.291 132.583,12.291 132.583,12.291C132.583,12.291 132.583,12.291 132.583,12.291C132.583,12.291 132.583,12.291 132.583,12.291C132.583,12.291 132.583,12.291 132.583,12.291C132.583,12.291 132.583,12.291 132.583,12.291C132.583,12.291 132.583,12.291 132.583,12.291C132.583,12.291 132.583,12.291 132.583,12.291C132.583,12.291 132.583,12.291 132.583,12.291C132.583,12.291 132.583,12.291 132.583,12.291C132.583,12.291 132.583,12.291 132.582,12.291C132.582,12.291 132.582,12.291 132.582,12.291C132.582,12.291 132.582,12.291 132.582,12.291C132.582,12.291 132.582,12.291 132.582,12.291C132.582,12.291 132.582,12.291 132.582,12.291C132.582,12.291 132.582,12.291 132.582,12.291C132.582,12.291 132.582,12.291 132.582,12.291C132.582,12.291 132.582,12.291 132.582,12.291C132.582,12.291 132.582,12.291 132.582,12.291C132.582,12.291 132.582,12.291 132.582,12.291C132.582,12.291 132.582,12.291 132.582,12.291C132.582,12.291 132.582,12.291 132.582,12.291C132.582,12.291 132.582,12.291 132.582,12.291C132.582,12.291 132.582,12.291 132.582,12.291C132.582,12.291 132.582,12.291 132.582,12.291C132.582,12.291 132.582,12.291 132.581,12.291C132.581,12.291 132.581,12.291 132.581,12.291C132.581,12.291 132.581,12.291 132.581,12.291C132.581,12.291 132.581,12.291 132.581,12.291C132.581,12.291 132.581,12.291 132.581,12.291C132.581,12.291 132.581,12.291 132.581,12.291C132.581,12.291 132.581,12.291 132.581,12.291C132.581,12.291 132.581,12.291 132.581,12.291C132.581,12.291 132.581,12.291 132.581,12.291C132.581,12.291 132.581,12.291 132.581,12.291C132.581,12.291 132.581,12.291 132.581,12.291C132.581,12.291 132.581,12.291 132.581,12.291C132.581,12.291 132.581,12.291 132.581,12.291C132.581,12.291 132.581,12.291 132.581,12.291C132.581,12.291 132.581,12.291 132.581,12.291C132.58,12.291 132.58,12.291 132.58,12.291C132.58,12.291 132.58,12.291 132.58,12.291C132.58,12.291 132.58,12.291 132.58,12.291C132.58,12.291 132.58,12.291 132.58,12.291C132.58,12.291 132.58,12.291 132.58,12.291C132.58,12.291 132.58,12.291 132.58,12.291C132.58,12.291 132.58,12.291 132.58,12.291C132.58,12.291 132.58,12.291 132.58,12.291C132.58,12.291 132.58,12.291 132.58,12.291C132.58,12.291 132.58,12.291 132.58,12.291C132.58,12.291 132.58,12.291 132.58,12.291C132.58,12.291 132.58,12.291 132.58,12.291C132.58,12.291 132.58,12.291 132.58,12.291C132.58,12.291 132.58,12.291 132.579,12.291C132.579,12.291 132.579,12.291 132.579,12.291C132.579,12.291 132.579,12.291 132.579,12.291C132.579,12.291 132.579,12.291 132.579,12.291C132.579,12.291 132.579,12.291 132.579,12.291C132.579,12.291 132.579,12.291 132.579,12.291C132.579,12.291 132.579,12.291 132.579,12.291C132.579,12.291 132.579,12.291 132.579,12.291C132.579,12.291 132.579,12.291 132.579,12.291C132.579,12.291 132.579,12.291 132.579,12.291C132.579,12.291 132.579,12.291 132.579,12.291C132.579,12.291 132.579,12.291 132.579,12.291C132.579,12.291 132.579,12.291 132.579,12.291C132.579,12.291 132.579,12.291 132.579,12.291C132.578,12.291 132.578,12.291 132.578,12.291C132.578,12.291 132.578,12.291 132.578,12.291C132.578,12.291 132.578,12.291 132.578,12.291C132.578,12.291 132.578,12.291 132.578,12.291C132.578,12.291 132.578,12.291 132.578,12.291C132.578,12.291 132.578,12.291 132.578,12.291C132.578,12.291 132.578,12.291 132.578,12.291C132.578,12.291 132.578,12.291 132.578,12.291C132.578,12.291 132.578,12.291 132.578,12.291C132.578,12.291 132.578,12.291 132.578,12.291C132.578,12.291 132.578,12.291 132.578,12.291C132.578,12.291 132.578,12.291 132.578,12.291C132.578,12.291 132.578,12.291 132.578,12.291C132.577,12.291 132.577,12.291 132.577,12.291C132.577,12.291 132.577,12.291 132.577,12.291C132.577,12.291 132.577,12.291 132.577,12.291C132.577,12.291 132.577,12.291 132.577,12.291C132.577,12.291 132.577,12.291 132.577,12.291C132.577,12.291 132.577,12.291 132.577,12.291C132.577,12.291 132.577,12.291 132.577,12.291C132.577,12.291 132.577,12.291 132.577,12.291C132.577,12.291 132.577,12.291 132.577,12.291C132.577,12.291 132.577,12.291 132.577,12.291C132.577,12.291 132.577,12.291 132.577,12.291C132.577,12.291 132.577,12.291 132.577,12.291C132.577,12.291 132.577,12.291 132.576,12.291C132.576,12.291 132.576,12.291 132.576,12.291C132.576,12.291 132.576,12.291 132.576,12.291C132.576,12.291 132.576,12.291 132.576,12.291C132.576,12.291 132.576,12.291 132.576,12.291C132.576,12.291 132.576,12.291 132.576,12.291C132.576,12.291 132.576,12.291 132.576,12.291C132.576,12.291 132.576,12.291 132.576,12.291C132.576,12.291 132.576,12.291 132.576,12.291C132.576,12.291 132.576,12.291 132.576,12.291C132.576,12.291 132.576,12.291 132.576,12.291C132.576,12.291 132.576,12.291 132.576,12.291C132.576,12.291 132.576,12.291 132.576,12.291C132.575,12.291 132.575,12.291 132.575,12.291C132.575,12.291 132.575,12.291 132.575,12.291C132.575,12.291 132.575,12.291 132.575,12.291C132.575,12.291 132.575,12.291 132.575,12.291C132.575,12.291 132.575,12.291 132.575,12.291C132.575,12.291 132.575,12.291 132.575,12.291C132.575,12.291 132.575,12.291 132.575,12.291C132.575,12.291 132.575,12.291 132.575,12.291C132.575,12.291 132.575,12.291 132.575,12.291C132.575,12.291 132.575,12.291 132.575,12.291C132.575,12.291 132.575,12.291 132.575,12.291C132.575,12.291 132.575,12.291 132.575,12.291C132.574,12.291 132.574,12.291 132.574,12.291C132.574,12.291 132.574,12.291 132.574,12.291C132.574,12.291 132.574,12.291 132.574,12.291C132.574,12.291 132.574,12.291 132.574,12.291C132.574,12.291 132.574,12.291 132.574,12.291C132.574,12.291 132.574,12.291 132.574,12.291C132.574,12.291 132.574,12.291 132.574,12.291C132.574,12.291 132.574,12.291 132.574,12.291C132.574,12.291 132.574,12.291 132.574,12.291C132.574,12.291 132.574,12.291 132.574,12.291C132.574,12.291 132.574,12.291 132.574,12.291C132.574,12.291 132.574,12.291 132.573,12.291L132.573,14.291C132.574,14.291 132.574,14.291 132.574,14.291C132.574,14.291 132.574,14.291 132.574,14.291C132.574,14.291 132.574,14.291 132.574,14.291C132.574,14.291 132.574,14.291 132.574,14.291C132.574,14.291 132.574,14.291 132.574,14.291C132.574,14.291 132.574,14.291 132.574,14.291C132.574,14.291 132.574,14.291 132.574,14.291C132.574,14.291 132.574,14.291 132.574,14.291C132.574,14.291 132.574,14.291 132.574,14.291C132.574,14.291 132.574,14.291 132.574,14.291C132.574,14.291 132.574,14.291 132.574,14.291C132.574,14.291 132.574,14.291 132.575,14.291C132.575,14.291 132.575,14.291 132.575,14.291C132.575,14.291 132.575,14.291 132.575,14.291C132.575,14.291 132.575,14.291 132.575,14.291C132.575,14.291 132.575,14.291 132.575,14.291C132.575,14.291 132.575,14.291 132.575,14.291C132.575,14.291 132.575,14.291 132.575,14.291C132.575,14.291 132.575,14.291 132.575,14.291C132.575,14.291 132.575,14.291 132.575,14.291C132.575,14.291 132.575,14.291 132.575,14.291C132.575,14.291 132.575,14.291 132.575,14.291C132.575,14.291 132.575,14.291 132.575,14.291C132.575,14.291 132.575,14.291 132.576,14.291C132.576,14.291 132.576,14.291 132.576,14.291C132.576,14.291 132.576,14.291 132.576,14.291C132.576,14.291 132.576,14.291 132.576,14.291C132.576,14.291 132.576,14.291 132.576,14.291C132.576,14.291 132.576,14.291 132.576,14.291C132.576,14.291 132.576,14.291 132.576,14.291C132.576,14.291 132.576,14.291 132.576,14.291C132.576,14.291 132.576,14.291 132.576,14.291C132.576,14.291 132.576,14.291 132.576,14.291C132.576,14.291 132.576,14.291 132.576,14.291C132.576,14.291 132.576,14.291 132.576,14.291C132.576,14.291 132.576,14.291 132.576,14.291C132.577,14.291 132.577,14.291 132.577,14.291C132.577,14.291 132.577,14.291 132.577,14.291C132.577,14.291 132.577,14.291 132.577,14.291C132.577,14.291 132.577,14.291 132.577,14.291C132.577,14.291 132.577,14.291 132.577,14.291C132.577,14.291 132.577,14.291 132.577,14.291C132.577,14.291 132.577,14.291 132.577,14.291C132.577,14.291 132.577,14.291 132.577,14.291C132.577,14.291 132.577,14.291 132.577,14.291C132.577,14.291 132.577,14.291 132.577,14.291C132.577,14.291 132.577,14.291 132.577,14.291C132.577,14.291 132.577,14.291 132.577,14.291C132.577,14.291 132.577,14.291 132.578,14.291C132.578,14.291 132.578,14.291 132.578,14.291C132.578,14.291 132.578,14.291 132.578,14.291C132.578,14.291 132.578,14.291 132.578,14.291C132.578,14.291 132.578,14.291 132.578,14.291C132.578,14.291 132.578,14.291 132.578,14.291C132.578,14.291 132.578,14.291 132.578,14.291C132.578,14.291 132.578,14.291 132.578,14.291C132.578,14.291 132.578,14.291 132.578,14.291C132.578,14.291 132.578,14.291 132.578,14.291C132.578,14.291 132.578,14.291 132.578,14.291C132.578,14.291 132.578,14.291 132.578,14.291C132.578,14.291 132.578,14.291 132.578,14.291C132.578,14.291 132.578,14.291 132.579,14.291C132.579,14.291 132.579,14.291 132.579,14.291C132.579,14.291 132.579,14.291 132.579,14.291C132.579,14.291 132.579,14.291 132.579,14.291C132.579,14.291 132.579,14.291 132.579,14.291C132.579,14.291 132.579,14.291 132.579,14.291C132.579,14.291 132.579,14.291 132.579,14.291C132.579,14.291 132.579,14.291 132.579,14.291C132.579,14.291 132.579,14.291 132.579,14.291C132.579,14.291 132.579,14.291 132.579,14.291C132.579,14.291 132.579,14.291 132.579,14.291C132.579,14.291 132.579,14.291 132.579,14.291C132.579,14.291 132.579,14.291 132.579,14.291C132.579,14.291 132.579,14.291 132.579,14.291C132.58,14.291 132.58,14.291 132.58,14.291C132.58,14.291 132.58,14.291 132.58,14.291C132.58,14.291 132.58,14.291 132.58,14.291C132.58,14.291 132.58,14.291 132.58,14.291C132.58,14.291 132.58,14.291 132.58,14.291C132.58,14.291 132.58,14.291 132.58,14.291C132.58,14.291 132.58,14.291 132.58,14.291C132.58,14.291 132.58,14.291 132.58,14.291C132.58,14.291 132.58,14.291 132.58,14.291C132.58,14.291 132.58,14.291 132.58,14.291C132.58,14.291 132.58,14.291 132.58,14.291C132.58,14.291 132.58,14.291 132.58,14.291C132.58,14.291 132.58,14.291 132.58,14.291C132.58,14.291 132.58,14.291 132.581,14.291C132.581,14.291 132.581,14.291 132.581,14.291C132.581,14.291 132.581,14.291 132.581,14.291C132.581,14.291 132.581,14.291 132.581,14.291C132.581,14.291 132.581,14.291 132.581,14.291C132.581,14.291 132.581,14.291 132.581,14.291C132.581,14.291 132.581,14.291 132.581,14.291C132.581,14.291 132.581,14.291 132.581,14.291C132.581,14.291 132.581,14.291 132.581,14.291C132.581,14.291 132.581,14.291 132.581,14.291C132.581,14.291 132.581,14.291 132.581,14.291C132.581,14.291 132.581,14.291 132.581,14.291C132.581,14.291 132.581,14.291 132.581,14.291C132.581,14.291 132.581,14.291 132.581,14.291C132.581,14.291 132.581,14.291 132.581,14.291C132.582,14.291 132.582,14.291 132.582,14.291C132.582,14.291 132.582,14.291 132.582,14.291C132.582,14.291 132.582,14.291 132.582,14.291C132.582,14.291 132.582,14.291 132.582,14.291C132.582,14.291 132.582,14.291 132.582,14.291C132.582,14.291 132.582,14.291 132.582,14.291C132.582,14.291 132.582,14.291 132.582,14.291C132.582,14.291 132.582,14.291 132.582,14.291C132.582,14.291 132.582,14.291 132.582,14.291C132.582,14.291 132.582,14.291 132.582,14.291C132.582,14.291 132.582,14.291 132.582,14.291C132.582,14.291 132.582,14.291 132.582,14.291C132.582,14.291 132.582,14.291 132.582,14.291C132.582,14.291 132.582,14.291 132.582,14.291C132.582,14.291 132.582,14.291 132.582,14.291C132.583,14.291 132.583,14.291 132.583,14.291C132.583,14.291 132.583,14.291 132.583,14.291C132.583,14.291 132.583,14.291 132.583,14.291C132.583,14.291 132.583,14.291 132.583,14.291C132.583,14.291 132.583,14.291 132.583,14.291C132.583,14.291 132.583,14.291 132.583,14.291C132.583,14.291 132.583,14.291 132.583,14.291C132.583,14.291 132.583,14.291 132.583,14.291C132.583,14.291 132.583,14.291 132.583,14.291C132.583,14.291 132.583,14.291 132.583,14.291C132.583,14.291 132.583,14.291 132.583,14.291C132.583,14.291 132.583,14.291 132.583,14.291C132.583,14.291 132.583,14.291 132.583,14.291C132.583,14.291 132.583,14.291 132.583,14.291C132.583,14.291 132.583,14.291 132.583,14.291C132.583,14.291 132.584,14.291 132.584,14.291C132.584,14.291 132.584,14.291 132.584,14.291C132.584,14.291 132.584,14.291 132.584,14.291C132.584,14.291 132.584,14.291 132.584,14.291C132.584,14.291 132.584,14.291 132.584,14.291C132.584,14.291 132.584,14.291 132.584,14.291C132.584,14.291 132.584,14.291 132.584,14.291C132.584,14.291 132.584,14.291 132.584,14.291C132.584,14.291 132.584,14.291 132.584,14.291C132.584,14.291 132.584,14.291 132.584,14.291C132.584,14.291 132.584,14.291 132.584,14.291C132.584,14.291 132.584,14.291 132.584,14.291C132.584,14.291 132.584,14.291 132.584,14.291C132.584,14.291 132.584,14.291 132.584,14.291C132.584,14.291 132.584,14.291 132.584,14.291C132.584,14.291 132.584,14.291 132.584,14.291C132.585,14.291 132.585,14.291 132.585,14.291C132.585,14.291 132.585,14.291 132.585,14.291C132.585,14.291 132.585,14.291 132.585,14.291C132.585,14.291 132.585,14.291 132.585,14.291C132.585,14.291 132.585,14.291 132.585,14.291C132.585,14.291 132.585,14.291 132.585,14.291C132.585,14.291 132.585,14.291 132.585,14.291C132.585,14.291 132.585,14.291 132.585,14.291C132.585,14.291 132.585,14.291 132.585,14.291C132.585,14.291 132.585,14.291 132.585,14.291C132.585,14.291 132.585,14.291 132.585,14.291C132.585,14.291 132.585,14.291 132.585,14.291C132.585,14.291 132.585,14.291 132.585,14.291C132.585,14.291 132.585,14.291 132.585,14.291C132.585,14.291 132.585,14.291 132.585,14.291C132.585,14.291 132.585,14.291 132.585,14.291C132.585,14.291 132.585,14.291 132.585,14.291C132.586,14.291 132.586,14.291 132.586,14.291C132.586,14.291 132.586,14.291 132.586,14.291C132.586,14.291 132.586,14.291 132.586,14.291C132.586,14.291 132.586,14.291 132.586,14.291C132.586,14.291 132.586,14.291 132.586,14.291C132.586,14.291 132.586,14.291 132.586,14.291C132.586,14.291 132.586,14.291 132.586,14.291C132.586,14.291 132.586,14.291 132.586,14.291C132.586,14.291 132.586,14.291 132.586,14.291C132.586,14.291 132.586,14.291 132.586,14.291C132.586,14.291 132.586,14.291 132.586,14.291C132.586,14.291 132.586,14.291 132.586,14.291C132.586,14.291 132.586,14.291 132.586,14.291C132.586,14.291 132.586,14.291 132.586,14.291C132.586,14.291 132.586,14.291 132.586,14.291C132.586,14.291 132.586,14.291 132.586,14.291C132.586,14.291 132.586,14.291 132.586,14.291C132.586,14.291 132.587,14.291 132.587,14.291C132.587,14.291 132.587,14.291 132.587,14.291C132.587,14.291 132.587,14.291 132.587,14.291C132.587,14.291 132.587,14.291 132.587,14.291C132.587,14.291 132.587,14.291 132.587,14.291C132.587,14.291 132.587,14.291 132.587,14.291C132.587,14.291 132.587,14.291 132.587,14.291C132.587,14.291 132.587,14.291 132.587,14.291C132.587,14.291 132.587,14.291 132.587,14.291C132.587,14.291 132.587,14.291 132.587,14.291C132.587,14.291 132.587,14.291 132.587,14.291C132.587,14.291 132.587,14.291 132.587,14.291C132.587,14.291 132.587,14.291 132.587,14.291C132.587,14.291 132.587,14.291 132.587,14.291C132.587,14.291 132.587,14.291 132.587,14.291C132.587,14.291 132.587,14.291 132.587,14.291C132.587,14.291 132.587,14.291 132.587,14.291C132.587,14.291 132.587,14.291 132.587,14.291C132.587,14.291 132.587,14.291 132.587,14.291C132.588,14.291 132.588,14.291 132.588,14.291C132.588,14.291 132.588,14.291 132.588,14.291C132.588,14.291 132.588,14.291 132.588,14.291C132.588,14.291 132.588,14.291 132.588,14.291C132.588,14.291 132.588,14.291 132.588,14.291C132.588,14.291 132.588,14.291 132.588,14.291C132.588,14.291 132.588,14.291 132.588,14.291C132.588,14.291 132.588,14.291 132.588,14.291C132.588,14.291 132.588,14.291 132.588,14.291C132.588,14.291 132.588,14.291 132.588,14.291C132.588,14.291 132.588,14.291 132.588,14.291C132.588,14.291 132.588,14.291 132.588,14.291C132.588,14.291 132.588,14.291 132.588,14.291C132.588,14.291 132.588,14.291 132.588,14.291C132.588,14.291 132.588,14.291 132.588,14.291C132.588,14.291 132.588,14.291 132.588,14.291C132.588,14.291 132.588,14.291 132.588,14.291C132.588,14.291 132.588,14.291 132.588,14.291C132.588,14.291 132.588,14.291 132.588,14.291C132.588,14.291 132.588,14.291 132.589,14.291C132.589,14.291 132.589,14.291 132.589,14.291C132.589,14.291 132.589,14.291 132.589,14.291C132.589,14.291 132.589,14.291 132.589,14.291C132.589,14.291 132.589,14.291 132.589,14.291C132.589,14.291 132.589,14.291 132.589,14.291C132.589,14.291 132.589,14.291 132.589,14.291C132.589,14.291 132.589,14.291 132.589,14.291C132.589,14.291 132.589,14.291 132.589,14.291C132.589,14.291 132.589,14.291 132.589,14.291C132.589,14.291 132.589,14.291 132.589,14.291C132.589,14.291 132.589,14.291 132.589,14.291C132.589,14.291 132.589,14.291 132.589,14.291C132.589,14.291 132.589,14.291 132.589,14.291C132.589,14.291 132.589,14.291 132.589,14.291C132.589,14.291 132.589,14.291 132.589,14.291C132.589,14.291 132.589,14.291 132.589,14.291C132.589,14.291 132.589,14.291 132.589,14.291C132.589,14.291 132.589,14.291 132.589,14.291C132.589,14.291 132.589,14.291 132.589,14.291C132.589,14.291 132.589,14.291 132.589,14.291C132.589,14.291 132.589,14.291 132.589,14.291C132.59,14.291 132.59,14.291 132.59,14.291C132.59,14.291 132.59,14.291 132.59,14.291C132.59,14.291 132.59,14.291 132.59,14.291C132.59,14.291 132.59,14.291 132.59,14.291C132.59,14.291 132.59,14.291 132.59,14.291C132.59,14.291 132.59,14.291 132.59,14.291C132.59,14.291 132.59,14.291 132.59,14.291C132.59,14.291 132.59,14.291 132.59,14.291C132.59,14.291 132.59,14.291 132.59,14.291C132.59,14.291 132.59,14.291 132.59,14.291C132.59,14.291 132.59,14.291 132.59,14.291C132.59,14.291 132.59,14.291 132.59,14.291C132.59,14.291 132.59,14.291 132.59,14.291C132.59,14.291 132.59,14.291 132.59,14.291C132.59,14.291 132.59,14.291 132.59,14.291C132.59,14.291 132.59,14.291 132.59,14.291C132.59,14.291 132.59,14.291 132.59,14.291C132.59,14.291 132.59,14.291 132.59,14.291C132.59,14.291 132.59,14.291 132.59,14.291C132.59,14.291 132.59,14.291 132.59,14.291C132.59,14.291 132.59,14.291 132.59,14.291C132.59,14.291 132.59,14.291 132.59,14.291C132.59,14.291 132.59,14.291 132.59,14.291C132.591,14.291 132.591,14.291 132.591,14.291C132.591,14.291 132.591,14.291 132.591,14.291C132.591,14.291 132.591,14.291 132.591,14.291C132.591,14.291 132.591,14.291 132.591,14.291C132.591,14.291 132.591,14.291 132.591,14.291C132.591,14.291 132.591,14.291 132.591,14.291C132.591,14.291 132.591,14.291 132.591,14.291C132.591,14.291 132.591,14.291 132.591,14.291C132.591,14.291 132.591,14.291 132.591,14.291C132.591,14.291 132.591,14.291 132.591,14.291C132.591,14.291 132.591,14.291 132.591,14.291C132.591,14.291 132.591,14.291 132.591,14.291C132.591,14.291 132.591,14.291 132.591,14.291C132.591,14.291 132.591,14.291 132.591,14.291C132.591,14.291 132.591,14.291 132.591,14.291C132.591,14.291 132.591,14.291 132.591,14.291C132.591,14.291 132.591,14.291 132.591,14.291C132.591,14.291 132.591,14.291 132.591,14.291C132.591,14.291 132.591,14.291 132.591,14.291C132.591,14.291 132.591,14.291 132.591,14.291C132.591,14.291 132.591,14.291 132.591,14.291C132.591,14.291 132.591,14.291 132.591,14.291C132.591,14.291 132.591,14.291 132.591,14.291C132.591,14.291 132.591,14.291 132.591,14.291C132.591,14.291 132.591,14.291 132.591,14.291C132.591,14.291 132.592,14.291 132.592,14.291C132.592,14.291 132.592,14.291 132.592,14.291C132.592,14.291 132.592,14.291 132.592,14.291C132.592,14.291 132.592,14.291 132.592,14.291C132.592,14.291 132.592,14.291 132.592,14.291C132.592,14.291 132.592,14.291 132.592,14.291C132.592,14.291 132.592,14.291 132.592,14.291C132.592,14.291 132.592,14.291 132.592,14.291C132.592,14.291 132.592,14.291 132.592,14.291C132.592,14.291 132.592,14.291 132.592,14.291C132.592,14.291 132.592,14.291 132.592,14.291C132.592,14.291 132.592,14.291 132.592,14.291C132.592,14.291 132.592,14.291 132.592,14.291C132.592,14.291 132.592,14.291 132.592,14.291C132.592,14.291 132.592,14.291 132.592,14.291C132.592,14.291 132.592,14.291 132.592,14.291C132.592,14.291 132.592,14.291 132.592,14.291C132.592,14.291 132.592,14.291 132.592,14.291C132.592,14.291 132.592,14.291 132.592,14.291C132.592,14.291 132.592,14.291 132.592,14.291C132.592,14.291 132.592,14.291 132.592,14.291C132.592,14.291 132.592,14.291 132.592,14.291C132.592,14.291 132.592,14.291 132.592,14.291C132.592,14.291 132.592,14.291 132.592,14.291C132.592,14.291 132.592,14.291 132.592,14.291C132.592,14.291 132.592,14.291 132.592,14.291C132.592,14.291 132.592,14.291 132.592,14.291C132.592,14.291 132.592,14.291 132.592,14.291C132.592,14.291 132.592,14.291 132.592,14.291C132.592,14.291 132.593,14.291 132.593,14.291C132.593,14.291 132.593,14.291 132.593,14.291C132.593,14.291 132.593,14.291 132.593,14.291C132.593,14.291 132.593,14.291 132.593,14.291C132.593,14.291 132.593,14.291 132.593,14.291C132.593,14.291 132.593,14.291 132.593,14.291C132.593,14.291 132.593,14.291 132.593,14.291C132.593,14.291 132.593,14.291 132.593,14.291C132.593,14.291 132.593,14.291 132.593,14.291C132.593,14.291 132.593,14.291 132.593,14.291C132.593,14.291 132.593,14.291 132.593,14.291C132.593,14.291 132.593,14.291 132.593,14.291C132.593,14.291 132.593,14.291 132.593,14.291C132.593,14.291 132.593,14.291 132.593,14.291C132.593,14.291 132.593,14.291 132.593,14.291C132.593,14.291 132.593,14.291 132.593,14.291C132.593,14.291 132.593,14.291 132.593,14.291C132.593,14.291 132.593,14.291 132.593,14.291C132.593,14.291 132.593,14.291 132.593,14.291C132.593,14.291 132.593,14.291 132.593,14.291C132.593,14.291 132.593,14.291 132.593,14.291C132.593,14.291 132.593,14.291 132.593,14.291C132.593,14.291 132.593,14.291 132.593,14.291C132.593,14.291 132.593,14.291 132.593,14.291C132.593,14.291 132.593,14.291 132.593,14.291C132.593,14.291 132.593,14.291 132.593,14.291C132.593,14.291 132.593,14.291 132.593,14.291C132.593,14.291 132.593,14.291 132.593,14.291C132.593,14.291 132.593,14.291 132.593,14.291C132.593,14.291 132.593,14.291 132.593,14.291C132.593,14.291 132.593,14.291 132.593,14.291C132.593,14.291 132.593,14.291 132.593,14.291C132.593,14.291 132.593,14.291 132.593,14.291C132.593,14.291 132.593,14.291 132.593,14.291C132.594,14.291 132.594,14.291 132.594,14.291C132.594,14.291 132.594,14.291 132.594,14.291C132.594,14.291 132.594,14.291 132.594,14.291C132.594,14.291 132.594,14.291 132.594,14.291C132.594,14.291 132.594,14.291 132.594,14.291C132.594,14.291 132.594,14.291 132.594,14.291C132.594,14.291 132.594,14.291 132.594,14.291C132.594,14.291 132.594,14.291 132.594,14.291C132.594,14.291 132.594,14.291 132.594,14.291C132.594,14.291 132.594,14.291 132.594,14.291C132.594,14.291 132.594,14.291 132.594,14.291C132.594,14.291 132.594,14.291 132.594,14.291C132.594,14.291 132.594,14.291 132.594,14.291C132.594,14.291 132.594,14.291 132.594,14.291C132.594,14.291 132.594,14.291 132.594,14.291C132.594,14.291 132.594,14.291 132.594,14.291C132.594,14.291 132.594,14.291 132.594,14.291C132.594,14.291 132.594,14.291 132.594,14.291C132.594,14.291 132.594,14.291 132.594,14.291C132.594,14.291 132.594,14.291 132.594,14.291C132.594,14.291 132.594,14.291 132.594,14.291C132.594,14.291 132.594,14.291 132.594,14.291C132.594,14.291 132.594,14.291 132.594,14.291C132.594,14.291 132.594,14.291 132.594,14.291C132.594,14.291 132.594,14.291 132.594,14.291C132.594,14.291 132.594,14.291 132.594,14.291C132.594,14.291 132.594,14.291 132.594,14.291C132.594,14.291 132.594,14.291 132.594,14.291C132.594,14.291 132.594,14.291 132.594,14.291C132.594,14.291 132.594,14.291 132.594,14.291C132.594,14.291 132.594,14.291 132.594,14.291C132.594,14.291 132.594,14.291 132.594,14.291C132.594,14.291 132.594,14.291 132.594,14.291C132.594,14.291 132.594,14.291 132.594,14.291C132.594,14.291 132.594,14.291 132.594,14.291C132.594,14.291 132.594,14.291 132.594,14.291C132.594,14.291 132.594,14.291 132.594,14.291C132.594,14.291 132.594,14.291 132.594,14.291C132.594,14.291 132.594,14.291 132.594,14.291C132.594,14.291 132.594,14.291 132.594,14.291C132.594,14.291 132.594,14.291 132.594,14.291C132.594,14.291 132.594,14.291 132.594,14.291C132.594,14.291 132.594,14.291 132.594,14.291C132.594,14.291 132.594,14.291 132.595,14.291C132.595,14.291 132.595,14.291 132.595,14.291C132.595,14.291 132.595,14.291 132.595,14.291C132.595,14.291 132.595,14.291 132.595,14.291C132.595,14.291 132.595,14.291 132.595,14.291C132.595,14.291 132.595,14.291 132.595,14.291C132.595,14.291 132.595,14.291 132.595,14.291C132.595,14.291 132.595,14.291 132.595,14.291C132.595,14.291 132.595,14.291 132.595,14.291C132.595,14.291 132.595,14.291 132.595,14.291C132.595,14.291 132.595,14.291 132.595,14.291C132.595,14.291 132.595,14.291 132.595,14.291C132.595,14.291 132.595,14.291 132.595,14.291C132.595,14.291 132.595,14.291 132.595,14.291C132.595,14.291 132.595,14.291 132.595,14.291C132.595,14.291 132.595,14.291 132.595,14.291C132.595,14.291 132.595,14.291 132.595,14.291C132.595,14.291 132.595,14.291 132.595,14.291C132.595,14.291 132.595,14.291 132.595,14.291C132.595,14.291 132.595,14.291 132.595,14.291C132.595,14.291 132.595,14.291 132.595,14.291C132.595,14.291 132.595,14.291 132.595,14.291C132.595,14.291 132.595,14.291 132.595,14.291C132.595,14.291 132.595,14.291 132.595,14.291C132.595,14.291 132.595,14.291 132.595,14.291C132.595,14.291 132.595,14.291 132.595,14.291C132.595,14.291 132.595,14.291 132.595,14.291C132.595,14.291 132.595,14.291 132.595,14.291C132.595,14.291 132.595,14.291 132.595,14.291C132.595,14.291 132.595,14.291 132.595,14.291C132.595,14.291 132.595,14.291 132.595,14.291C132.595,14.291 132.595,14.291 132.595,14.291C132.595,14.291 132.595,14.291 132.595,14.291C132.595,14.291 132.595,14.291 132.595,14.291C132.595,14.291 132.595,14.291 132.595,14.291C132.595,14.291 132.595,14.291 132.595,14.291C132.595,14.291 132.595,14.291 132.595,14.291C132.595,14.291 132.595,14.291 132.595,14.291C132.595,14.291 132.595,14.291 132.595,14.291C132.595,14.291 132.595,14.291 132.595,14.291C132.595,14.291 132.595,14.291 132.595,14.291C132.595,14.291 132.595,14.291 132.595,14.291C132.595,14.291 132.595,14.291 132.595,14.291C132.595,14.291 132.595,14.291 132.595,14.291C132.595,14.291 132.595,14.291 132.595,14.291C132.595,14.291 132.595,14.291 132.595,14.291C132.595,14.291 132.595,14.291 132.595,14.291C132.595,14.291 132.595,14.291 132.595,14.291C132.595,14.291 132.595,14.291 132.595,14.291C132.595,14.291 132.595,14.291 132.595,14.291C132.595,14.291 132.595,14.291 132.595,14.291C132.595,14.291 132.595,14.291 132.595,14.291C132.595,14.291 132.595,14.291 132.595,14.291C132.595,14.291 132.595,14.291 132.595,14.291C132.595,14.291 132.595,14.291 132.595,14.291C132.595,14.291 132.595,14.291 132.595,14.291C132.595,14.291 132.595,14.291 132.595,14.291C132.595,14.291 132.595,14.291 132.595,14.291C132.595,14.291 132.595,14.291 132.595,14.291C132.595,14.291 132.595,14.291 132.595,14.291C132.595,14.291 132.595,14.291 132.595,14.291C132.595,14.291 132.595,14.291 132.595,14.291C132.595,14.291 132.595,14.291 132.595,14.291C132.595,14.291 132.595,14.291 132.595,14.291C132.595,14.291 132.595,14.291 132.595,14.291C132.595,14.291 132.595,14.291 132.595,14.291C132.595,14.291 132.595,14.291 132.595,14.291C132.595,14.291 132.595,14.291 132.595,14.291C132.595,14.291 132.595,14.291 132.595,14.291C132.595,14.291 132.595,14.291 132.595,14.291C132.595,14.291 132.595,14.291 132.595,14.291C132.595,14.291 132.595,14.291 132.595,14.291C132.595,14.291 132.595,14.291 132.595,14.291C132.595,14.291 132.595,14.291 132.595,14.291C132.595,14.291 132.595,14.291 132.595,14.291C132.595,14.291 132.595,14.291 132.595,14.291C132.595,14.291 132.595,14.291 132.595,14.291C132.595,14.291 132.595,14.291 132.595,14.291C132.595,14.291 132.595,14.291 132.595,14.291C132.595,14.291 132.595,14.291 132.595,14.291C132.595,14.291 132.595,14.291 132.596,14.291C132.596,14.291 132.596,14.291 132.596,14.291C132.596,14.291 132.596,14.291 132.596,14.291C132.596,14.291 132.596,14.291 132.596,14.291C132.596,14.291 132.596,14.291 132.596,14.291C132.596,14.291 132.596,14.291 132.596,14.291C132.596,14.291 132.596,14.291 132.596,14.291C132.596,14.291 132.596,14.291 132.596,14.291C132.596,14.291 132.596,14.291 132.596,14.291C132.596,14.291 132.596,14.291 132.596,14.291C132.596,14.291 132.596,14.291 132.596,14.291C132.596,14.291 132.596,14.291 132.596,14.291C132.596,14.291 132.596,14.291 132.596,14.291C132.596,14.291 132.596,14.291 132.596,14.291C132.596,14.291 132.596,14.291 132.596,14.291C132.596,14.291 132.596,14.291 132.596,14.291C132.596,14.291 132.596,14.291 132.596,14.291C132.596,14.291 132.596,14.291 132.596,14.291C132.596,14.291 132.596,14.291 132.596,14.291C132.596,14.291 132.596,14.291 132.596,14.291C132.596,14.291 132.596,14.291 132.596,14.291C132.596,14.291 132.596,14.291 132.596,14.291C132.596,14.291 132.596,14.291 132.596,14.291C132.596,14.291 132.596,14.291 132.596,14.291C132.596,14.291 132.596,14.291 132.596,14.291C132.596,14.291 132.596,14.291 132.596,14.291C132.596,14.291 132.596,14.291 132.596,14.291C132.596,14.291 132.596,14.291 132.596,14.291C132.596,14.291 132.596,14.291 132.596,14.291C132.596,14.291 132.596,14.291 132.596,14.291C132.596,14.291 132.596,14.291 132.596,14.291C132.596,14.291 132.596,14.291 132.596,14.291C132.596,14.291 132.596,14.291 132.596,14.291C132.596,14.291 132.596,14.291 132.596,14.291C132.596,14.291 132.596,14.291 132.596,13.291ZM132.646,12.294C132.356,12.273 129.384,12.052 126.575,12.231L126.701,14.226C129.363,14.057 132.216,14.268 132.501,14.289L132.646,12.294ZM126.571,12.231C125.69,12.29 124.803,12.39 124.008,12.555C123.232,12.716 122.46,12.955 121.868,13.339C121.252,13.738 120.695,14.397 120.761,15.341C120.819,16.17 121.353,16.936 122.077,17.64L123.471,16.206C122.847,15.599 122.761,15.276 122.756,15.202C122.755,15.191 122.754,15.196 122.759,15.189C122.772,15.168 122.82,15.105 122.955,15.018C123.238,14.834 123.724,14.656 124.415,14.513C125.087,14.373 125.876,14.282 126.705,14.226L126.571,12.231ZM122.077,17.64C124.704,20.197 129.018,22.344 132.566,23.832C134.359,24.584 135.994,25.182 137.18,25.593C137.774,25.798 138.256,25.957 138.591,26.065C138.759,26.119 138.89,26.16 138.979,26.188C139.024,26.202 139.058,26.212 139.082,26.219C139.094,26.223 139.103,26.226 139.109,26.228C139.112,26.229 139.115,26.229 139.117,26.23C139.117,26.23 139.118,26.23 139.119,26.231C139.119,26.231 139.119,26.231 139.119,26.231C139.12,26.231 139.12,26.231 139.408,25.274C139.697,24.316 139.697,24.316 139.697,24.316C139.697,24.316 139.697,24.316 139.697,24.316C139.697,24.316 139.697,24.316 139.696,24.316C139.695,24.315 139.693,24.315 139.691,24.314C139.686,24.313 139.678,24.31 139.668,24.307C139.647,24.301 139.615,24.291 139.573,24.278C139.489,24.252 139.365,24.213 139.203,24.161C138.881,24.057 138.412,23.903 137.834,23.703C136.677,23.302 135.084,22.719 133.339,21.987C129.81,20.507 125.807,18.479 123.472,16.207L122.077,17.64ZM139.082,26.219L151.646,30.561L152.299,28.67L139.735,24.328L139.082,26.219ZM151.972,30.616L166.948,30.616L166.948,28.616L151.972,28.616L151.972,30.616ZM167.377,28.712L155.653,23.139L154.795,24.945L166.518,30.519L167.377,28.712ZM155.653,23.139L133.076,12.409L132.218,14.215L154.795,24.945L155.653,23.139ZM132.877,12.339L132.848,12.332L132.388,14.278L132.417,14.285L132.877,12.339Z" fill="#000000"/>
<path d="M126.636,13.228L126.991,12.292L126.99,12.292L126.636,13.228ZM126.099,14.093L126.283,14.163L126.99,12.292L126.805,12.222L126.099,14.093ZM126.282,14.163L154.861,24.997L155.57,23.127L126.991,12.292L126.282,14.163Z" fill="#000000"/>
</svg>
