<svg width="38" height="38" viewBox="0 0 38 38" fill="none" xmlns="http://www.w3.org/2000/svg" xmlns:xlink="http://www.w3.org/1999/xlink">
<path d="M23.219,31.265C24.021,31.058 24.504,30.241 24.297,29.438C24.091,28.636 23.273,28.153 22.471,28.36L23.219,31.265ZM3.331,23.229L4.484,22.27L4.483,22.269L3.331,23.229ZM3.331,12.414L4.481,13.378C4.487,13.37 4.493,13.362 4.5,13.354L3.331,12.414ZM5.363,12.4C5.935,11.8 5.912,10.851 5.313,10.279C4.713,9.707 3.764,9.73 3.192,10.33L5.363,12.4ZM22.471,28.36C21.129,28.706 19.726,28.873 18.258,28.873L18.258,31.873C19.956,31.873 21.612,31.679 23.219,31.265L22.471,28.36ZM18.258,28.873C12.787,28.873 7.864,26.333 4.484,22.27L2.178,24.188C6.08,28.879 11.824,31.873 18.258,31.873L18.258,28.873ZM4.483,22.269C2.397,19.767 2.401,15.857 4.481,13.378L2.182,11.45C-0.835,15.047 -0.832,20.579 2.179,24.19L4.483,22.269ZM4.5,13.354C4.745,13.05 5.028,12.752 5.363,12.4L3.192,10.33C2.872,10.665 2.5,11.054 2.163,11.473L4.5,13.354Z" fill="#C2C3CB"/>
<path d="M33.184,23.229L34.334,24.193L33.184,23.229ZM28.087,27.606L27.03,28.67C27.518,29.156 28.275,29.246 28.865,28.889L28.087,27.606ZM8.41,8.037L7.627,6.758C7.234,6.998 6.974,7.405 6.92,7.862C6.867,8.32 7.026,8.776 7.352,9.1L8.41,8.037ZM33.184,12.414L32.031,13.373L32.035,13.378L33.184,12.414ZM32.035,22.265C30.684,23.877 29.08,25.251 27.31,26.323L28.865,28.889C30.918,27.646 32.773,26.054 34.334,24.193L32.035,22.265ZM29.145,26.543L9.468,6.973L7.352,9.1L27.03,28.67L29.145,26.543ZM9.194,9.316C11.857,7.685 14.936,6.77 18.258,6.77L18.258,3.77C14.371,3.77 10.752,4.844 7.627,6.758L9.194,9.316ZM18.258,6.77C23.729,6.77 28.652,9.31 32.031,13.373L34.338,11.455C30.436,6.764 24.692,3.77 18.258,3.77L18.258,6.77ZM32.035,13.378C34.116,15.859 34.116,19.784 32.035,22.265L34.334,24.193C37.35,20.597 37.35,15.046 34.334,11.45L32.035,13.378Z" fill="#C2C3CB"/>
<path d="M22.226,21.764L21.169,22.828C21.451,23.109 21.834,23.266 22.233,23.264C22.631,23.262 23.013,23.102 23.293,22.819L22.226,21.764ZM14.29,13.879L13.223,12.824C12.641,13.412 12.646,14.36 13.232,14.943L14.29,13.879ZM22.364,17.821C22.364,18.936 21.903,19.957 21.159,20.71L23.293,22.819C24.551,21.546 25.364,19.782 25.364,17.821L22.364,17.821ZM23.283,20.7L15.347,12.815L13.232,14.943L21.169,22.828L23.283,20.7ZM15.356,14.933C16.074,14.207 17.109,13.751 18.258,13.751L18.258,10.751C16.312,10.751 14.508,11.524 13.223,12.824L15.356,14.933ZM18.258,13.751C20.551,13.751 22.364,15.566 22.364,17.821L25.364,17.821C25.364,13.891 22.19,10.751 18.258,10.751L18.258,13.751Z" fill="#C2C3CB"/>
<path d="M2.477,0.028C1.889,-0.556 0.94,-0.553 0.356,0.035C-0.228,0.622 -0.225,1.572 0.363,2.156L2.477,0.028ZM8.41,8.037L9.467,6.973L9.467,6.973L8.41,8.037ZM14.289,13.879L13.232,14.943L13.232,14.943L14.289,13.879ZM22.226,21.764L23.283,20.7L23.283,20.7L22.226,21.764ZM28.105,27.606L27.048,28.67L27.048,28.67L28.105,27.606ZM34.038,35.615C34.626,36.199 35.576,36.196 36.159,35.608C36.743,35.021 36.74,34.071 36.153,33.487L34.038,35.615ZM0.363,2.156L7.353,9.101L9.467,6.973L2.477,0.028L0.363,2.156ZM7.353,9.101L13.232,14.943L15.347,12.815L9.467,6.973L7.353,9.101ZM13.232,14.943L21.169,22.828L23.283,20.7L15.347,12.815L13.232,14.943ZM21.169,22.828L27.048,28.67L29.163,26.542L23.283,20.7L21.169,22.828ZM27.048,28.67L34.038,35.615L36.153,33.487L29.163,26.542L27.048,28.67Z" fill="#C2C3CB"/>
</svg>
