<svg width="38" height="36" viewBox="0 0 38 36" fill="none" xmlns="http://www.w3.org/2000/svg" xmlns:xlink="http://www.w3.org/1999/xlink">
<path d="M23.399,30.891C24.201,30.685 24.684,29.867 24.477,29.065C24.271,28.262 23.453,27.78 22.651,27.986L23.399,30.891ZM3.511,22.855L4.665,21.896L4.663,21.895L3.511,22.855ZM3.511,12.04L4.661,13.004C4.667,12.996 4.673,12.989 4.68,12.981L3.511,12.04ZM5.544,12.026C6.115,11.427 6.093,10.477 5.493,9.905C4.893,9.334 3.944,9.356 3.372,9.956L5.544,12.026ZM22.651,27.986C21.309,28.332 19.906,28.499 18.438,28.499L18.438,31.499C20.137,31.499 21.792,31.305 23.399,30.891L22.651,27.986ZM18.438,28.499C12.967,28.499 8.044,25.959 4.665,21.896L2.358,23.815C6.26,28.506 12.004,31.499 18.438,31.499L18.438,28.499ZM4.663,21.895C2.578,19.393 2.581,15.483 4.661,13.004L2.362,11.076C-0.655,14.674 -0.652,20.205 2.359,23.816L4.663,21.895ZM4.68,12.981C4.925,12.676 5.208,12.378 5.544,12.026L3.372,9.956C3.053,10.291 2.68,10.68 2.343,11.099L4.68,12.981Z" fill="#C2C3CB"/>
<path d="M33.364,22.855L34.513,23.819L33.364,22.855ZM28.267,27.232L27.209,28.296C27.698,28.782 28.455,28.872 29.044,28.515L28.267,27.232ZM8.59,7.663L7.806,6.384C7.414,6.624 7.154,7.032 7.1,7.489C7.046,7.946 7.206,8.402 7.532,8.727L8.59,7.663ZM33.364,12.04L32.211,12.999L32.215,13.004L33.364,12.04ZM32.215,21.892C30.863,23.503 29.259,24.878 27.49,25.949L29.044,28.515C31.097,27.272 32.952,25.681 34.513,23.819L32.215,21.892ZM29.325,26.169L9.648,6.6L7.532,8.727L27.209,28.296L29.325,26.169ZM9.373,8.942C12.037,7.311 15.116,6.396 18.438,6.396L18.438,3.396C14.551,3.396 10.931,4.47 7.806,6.384L9.373,8.942ZM18.438,6.396C23.909,6.396 28.831,8.937 32.211,12.999L34.517,11.081C30.615,6.39 24.871,3.396 18.438,3.396L18.438,6.396ZM32.215,13.004C34.295,15.485 34.295,19.411 32.215,21.892L34.513,23.819C37.529,20.223 37.529,14.672 34.513,11.076L32.215,13.004Z" fill="#C2C3CB"/>
<path d="M22.406,21.391L21.349,22.455C21.632,22.735 22.014,22.892 22.413,22.89C22.811,22.889 23.193,22.728 23.473,22.445L22.406,21.391ZM14.47,13.505L13.403,12.45C12.822,13.039 12.826,13.986 13.412,14.569L14.47,13.505ZM22.544,17.448C22.544,18.562 22.084,19.583 21.339,20.336L23.473,22.445C24.731,21.172 25.544,19.408 25.544,17.448L22.544,17.448ZM23.463,20.326L15.527,12.441L13.412,14.569L21.349,22.455L23.463,20.326ZM15.537,14.559C16.254,13.834 17.289,13.377 18.438,13.377L18.438,10.377C16.492,10.377 14.688,11.151 13.403,12.45L15.537,14.559ZM18.438,13.377C20.731,13.377 22.544,15.193 22.544,17.448L25.544,17.448C25.544,13.518 22.37,10.377 18.438,10.377L18.438,13.377Z" fill="#C2C3CB"/>
<path d="M2.657,-0.346C2.07,-0.93 1.12,-0.927 0.536,-0.339C-0.048,0.248 -0.045,1.198 0.543,1.782L2.657,-0.346ZM8.59,7.663L9.647,6.599L9.647,6.599L8.59,7.663ZM14.47,13.505L13.412,14.569L13.412,14.569L14.47,13.505ZM22.406,21.39L23.463,20.326L23.463,20.326L22.406,21.39ZM28.285,27.232L27.228,28.296L27.228,28.296L28.285,27.232ZM34.218,35.241C34.806,35.825 35.756,35.822 36.339,35.234C36.923,34.647 36.92,33.697 36.333,33.113L34.218,35.241ZM0.543,1.782L7.533,8.727L9.647,6.599L2.657,-0.346L0.543,1.782ZM7.533,8.727L13.412,14.569L15.527,12.441L9.647,6.599L7.533,8.727ZM13.412,14.569L21.349,22.454L23.463,20.326L15.527,12.441L13.412,14.569ZM21.349,22.454L27.228,28.296L29.343,26.168L23.463,20.326L21.349,22.454ZM27.228,28.296L34.218,35.241L36.333,33.113L29.343,26.168L27.228,28.296Z" fill="#C2C3CB"/>
</svg>
