<svg width="44" height="40" viewBox="0 0 44 40" fill="none" xmlns="http://www.w3.org/2000/svg" xmlns:xlink="http://www.w3.org/1999/xlink">
<path d="M2.56,20L0.788,19.074C0.485,19.654 0.485,20.346 0.788,20.926L2.56,20ZM40.846,20L42.619,20.926C42.922,20.346 42.922,19.654 42.619,19.074L40.846,20ZM2.56,20C4.333,20.926 4.333,20.926 4.333,20.927C4.333,20.927 4.333,20.927 4.332,20.927C4.332,20.928 4.332,20.928 4.332,20.928C4.332,20.928 4.332,20.927 4.333,20.926C4.335,20.923 4.338,20.917 4.343,20.908C4.353,20.889 4.369,20.859 4.392,20.817C4.438,20.734 4.51,20.606 4.608,20.44C4.803,20.107 5.101,19.622 5.497,19.035C6.29,17.858 7.466,16.292 8.993,14.732C12.076,11.582 16.378,8.667 21.703,8.667L21.703,4.667C14.847,4.667 9.577,8.417 6.135,11.934C4.398,13.708 3.072,15.476 2.18,16.798C1.733,17.462 1.391,18.018 1.159,18.414C1.042,18.612 0.953,18.771 0.891,18.883C0.86,18.939 0.836,18.984 0.819,19.016C0.81,19.032 0.803,19.045 0.798,19.055C0.795,19.06 0.793,19.064 0.791,19.067C0.791,19.069 0.79,19.07 0.789,19.071C0.789,19.072 0.788,19.073 0.788,19.073C0.788,19.074 0.788,19.074 2.56,20ZM21.703,8.667C27.029,8.667 31.33,11.582 34.414,14.732C35.94,16.292 37.116,17.858 37.91,19.035C38.306,19.622 38.603,20.107 38.799,20.44C38.897,20.606 38.969,20.734 39.015,20.817C39.038,20.859 39.054,20.889 39.064,20.908C39.069,20.917 39.072,20.923 39.074,20.926C39.074,20.927 39.075,20.928 39.075,20.928C39.075,20.928 39.075,20.928 39.074,20.927C39.074,20.927 39.074,20.927 39.074,20.927C39.074,20.926 39.073,20.926 40.846,20C42.619,19.074 42.619,19.074 42.619,19.073C42.618,19.073 42.618,19.072 42.618,19.071C42.617,19.07 42.616,19.069 42.615,19.067C42.614,19.064 42.612,19.06 42.609,19.055C42.604,19.045 42.597,19.032 42.588,19.016C42.571,18.984 42.547,18.939 42.516,18.883C42.454,18.771 42.364,18.612 42.248,18.414C42.015,18.018 41.674,17.462 41.227,16.798C40.334,15.476 39.009,13.708 37.272,11.934C33.83,8.417 28.56,4.667 21.703,4.667L21.703,8.667ZM40.846,20C39.073,19.074 39.074,19.074 39.074,19.073C39.074,19.073 39.074,19.073 39.074,19.072C39.075,19.072 39.075,19.072 39.075,19.072C39.075,19.072 39.074,19.072 39.074,19.074C39.072,19.077 39.069,19.083 39.064,19.092C39.054,19.111 39.038,19.141 39.015,19.182C38.969,19.266 38.897,19.394 38.799,19.56C38.603,19.893 38.306,20.378 37.91,20.965C37.116,22.142 35.94,23.708 34.414,25.268C31.33,28.417 27.029,31.333 21.703,31.333L21.703,35.333C28.56,35.333 33.83,31.582 37.272,28.066C39.009,26.292 40.334,24.524 41.227,23.202C41.674,22.538 42.015,21.982 42.248,21.586C42.364,21.388 42.454,21.229 42.516,21.117C42.547,21.061 42.571,21.016 42.588,20.984C42.597,20.968 42.604,20.955 42.609,20.945C42.612,20.94 42.614,20.936 42.615,20.933C42.616,20.931 42.617,20.93 42.618,20.929C42.618,20.928 42.618,20.927 42.619,20.927C42.619,20.926 42.619,20.926 40.846,20ZM21.703,31.333C16.378,31.333 12.076,28.417 8.993,25.268C7.466,23.708 6.29,22.142 5.497,20.965C5.101,20.378 4.803,19.893 4.608,19.56C4.51,19.394 4.438,19.266 4.392,19.182C4.369,19.141 4.353,19.111 4.343,19.092C4.338,19.083 4.335,19.077 4.333,19.074C4.332,19.072 4.332,19.072 4.332,19.072C4.332,19.072 4.332,19.072 4.332,19.072C4.333,19.073 4.333,19.073 4.333,19.073C4.333,19.074 4.333,19.074 2.56,20C0.788,20.926 0.788,20.926 0.788,20.927C0.788,20.927 0.789,20.928 0.789,20.929C0.79,20.93 0.791,20.931 0.791,20.933C0.793,20.936 0.795,20.94 0.798,20.945C0.803,20.955 0.81,20.968 0.819,20.984C0.836,21.016 0.86,21.061 0.891,21.117C0.953,21.229 1.042,21.388 1.159,21.586C1.391,21.982 1.733,22.538 2.18,23.202C3.072,24.524 4.398,26.292 6.135,28.066C9.577,31.582 14.847,35.333 21.703,35.333L21.703,31.333Z" fill="#626262"/>
<path d="M24.924,20C24.924,21.576 23.565,23 21.703,23L21.703,27C25.609,27 28.924,23.947 28.924,20L24.924,20ZM21.703,23C19.842,23 18.483,21.576 18.483,20L14.483,20C14.483,23.947 17.798,27 21.703,27L21.703,23ZM18.483,20C18.483,18.424 19.842,17 21.703,17L21.703,13C17.798,13 14.483,16.053 14.483,20L18.483,20ZM21.703,17C23.565,17 24.924,18.424 24.924,20L28.924,20C28.924,16.053 25.609,13 21.703,13L21.703,17Z" fill="#626262"/>
</svg>
