<svg width="84" height="66" viewBox="0 0 84 66" fill="none" xmlns="http://www.w3.org/2000/svg" xmlns:xlink="http://www.w3.org/1999/xlink">
<path d="M0,32.168C0,13.864 14.839,-0.975 33.143,-0.975L50.857,-0.975C69.161,-0.975 84,13.864 84,32.168L84,32.168C84,50.472 69.161,65.311 50.857,65.311L33.143,65.311C14.839,65.311 0,50.472 0,32.168L0,32.168Z" transform="rotate(0 42 32.168)" fill="#FF0000"/>
<path d="M26,48.09L24,48.09L26,48.09ZM26,29.406L26,27.406C24.895,27.406 24,28.302 24,29.406L26,29.406ZM62,29.406L64,29.406C64,28.302 63.105,27.406 62,27.406L62,29.406ZM26,21.933L24,21.933L26,21.933ZM26,29.406L24,29.406C24,30.511 24.895,31.406 26,31.406L26,29.406ZM62,29.406L62,31.406C63.105,31.406 64,30.511 64,29.406L62,29.406ZM54,16.328C54,15.223 53.105,14.328 52,14.328C50.895,14.328 50,15.223 50,16.328L54,16.328ZM50,23.801C50,24.906 50.895,25.801 52,25.801C53.105,25.801 54,24.906 54,23.801L50,23.801ZM38,16.328C38,15.223 37.105,14.328 36,14.328C34.895,14.328 34,15.223 34,16.328L38,16.328ZM34,23.801C34,24.906 34.895,25.801 36,25.801C37.105,25.801 38,24.906 38,23.801L34,23.801ZM60,47.958L28,47.958L28,51.958L60,51.958L60,47.958ZM28,47.958C27.982,47.958 27.967,47.955 27.956,47.951C27.946,47.947 27.946,47.944 27.951,47.949L25.22,50.872C25.979,51.581 26.981,51.958 28,51.958L28,47.958ZM27.951,47.949C27.964,47.962 28,48.009 28,48.09L24,48.09C24,49.161 24.457,50.159 25.22,50.872L27.951,47.949ZM28,48.09L28,29.406L24,29.406L24,48.09L28,48.09ZM26,31.406L62,31.406L62,27.406L26,27.406L26,31.406ZM60,29.406L60,48.09L64,48.09L64,29.406L60,29.406ZM60,48.09C60,48.009 60.035,47.962 60.049,47.949L62.78,50.872C63.543,50.159 64,49.161 64,48.09L60,48.09ZM60.049,47.949C60.054,47.944 60.054,47.947 60.044,47.951C60.033,47.955 60.018,47.958 60,47.958L60,51.958C61.019,51.958 62.021,51.581 62.78,50.872L60.049,47.949ZM64,21.933C64,20.861 63.543,19.863 62.78,19.15L60.049,22.073C60.036,22.061 60,22.013 60,21.933L64,21.933ZM62.78,19.15C62.021,18.441 61.019,18.064 60,18.064L60,22.064C60.018,22.064 60.033,22.068 60.044,22.072C60.054,22.076 60.054,22.078 60.049,22.073L62.78,19.15ZM60,18.064L28,18.064L28,22.064L60,22.064L60,18.064ZM28,18.064C26.981,18.064 25.979,18.441 25.22,19.15L27.951,22.073C27.946,22.078 27.946,22.076 27.956,22.072C27.967,22.068 27.982,22.064 28,22.064L28,18.064ZM25.22,19.15C24.457,19.863 24,20.861 24,21.933L28,21.933C28,22.013 27.964,22.061 27.951,22.073L25.22,19.15ZM24,21.933L24,29.406L28,29.406L28,21.933L24,21.933ZM26,31.406L62,31.406L62,27.406L26,27.406L26,31.406ZM64,29.406L64,21.933L60,21.933L60,29.406L64,29.406ZM50,16.328L50,23.801L54,23.801L54,16.328L50,16.328ZM54,23.801L54,16.328L50,16.328L50,23.801L54,23.801ZM34,16.328L34,23.801L38,23.801L38,16.328L34,16.328Z" transform="rotate(0 44 33.143)" fill="#FFFFFF"/>
</svg>
