<svg width="696" height="712" viewBox="0 0 696 712" fill="none" xmlns="http://www.w3.org/2000/svg" xmlns:xlink="http://www.w3.org/1999/xlink">
<path d="M273.136,616.634C273.136,645.513 251.566,668.925 224.957,668.925C198.348,668.925 176.779,645.514 176.779,616.634C176.779,587.755 198.348,564.342 224.957,564.342C251.566,564.342 273.136,587.755 273.136,616.634ZM352.99,564.342C326.382,564.342 304.811,587.753 304.811,616.634C304.811,645.513 326.381,668.925 352.99,668.925C379.599,668.925 401.169,645.514 401.169,616.634C401.169,587.755 379.599,564.342 352.99,564.342Z" fill="#FFFFFF"/>
<path d="M255.902,616.634C255.902,635.182 242.048,650.219 224.959,650.219C207.869,650.219 194.015,635.182 194.015,616.634C194.015,598.086 207.869,583.049 224.959,583.049C242.048,583.049 255.902,598.086 255.902,616.634ZM352.99,583.049C335.901,583.049 322.047,598.086 322.047,616.634C322.047,635.182 335.901,650.219 352.99,650.219C370.079,650.219 383.934,635.182 383.934,616.634C383.934,598.086 370.079,583.049 352.99,583.049Z" fill="#D7E4EC"/>
<path d="M695.999,616.634L111.28,616.634C92.859,616.634 77.927,600.426 77.927,580.434L77.927,371.767C77.927,336.252 104.453,307.462 137.175,307.462L695.999,307.462L695.999,616.634Z" fill="#FF1A1A"/>
<rect  x="77.927" y="371.187" width="618.072" height="181.721" fill="#FFFFFF"/>
<path d="M201.55,425.476L201.55,511.549C201.55,514.204 200.578,516.751 198.848,518.629C197.118,520.506 194.772,521.561 192.325,521.561L77.72,521.561L77.72,415.462L192.325,415.462C193.537,415.462 194.736,415.721 195.856,416.224C196.975,416.728 197.992,417.465 198.849,418.395C199.705,419.325 200.385,420.429 200.848,421.644C201.312,422.859 201.55,424.161 201.55,425.476L201.55,425.476ZM300.586,477.075L300.586,425.475C300.586,422.819 299.614,420.272 297.884,418.395C296.154,416.517 293.808,415.462 291.36,415.462L243.819,415.462C241.372,415.462 239.026,416.517 237.296,418.395C235.566,420.272 234.594,422.819 234.594,425.475L234.594,477.075C234.594,479.731 235.566,482.277 237.296,484.155C239.026,486.033 241.372,487.088 243.819,487.088L291.36,487.088C293.808,487.088 296.154,486.033 297.884,484.155C299.614,482.277 300.586,479.731 300.586,477.075L300.586,477.075ZM387.54,477.075L387.54,425.475C387.54,422.819 386.568,420.272 384.838,418.395C383.108,416.517 380.76,415.462 378.314,415.462L330.772,415.462C328.326,415.462 325.978,416.517 324.248,418.395C322.518,420.272 321.546,422.819 321.546,425.475L321.546,477.075C321.546,479.731 322.518,482.277 324.248,484.155C325.978,486.033 328.326,487.088 330.772,487.088L378.314,487.088C380.76,487.088 383.108,486.033 384.838,484.155C386.568,482.277 387.54,479.731 387.54,477.075L387.54,477.075ZM540.798,477.075L540.798,425.475C540.798,422.819 539.826,420.272 538.096,418.395C536.366,416.517 534.018,415.462 531.572,415.462L484.03,415.462C481.584,415.462 479.236,416.517 477.506,418.395C475.776,420.272 474.804,422.819 474.804,425.475L474.804,477.075C474.804,479.731 475.776,482.277 477.506,484.155C479.236,486.033 481.584,487.088 484.03,487.088L531.572,487.088C534.018,487.088 536.366,486.033 538.096,484.155C539.826,482.277 540.798,479.731 540.798,477.075L540.798,477.075ZM673.084,477.075L673.084,425.475C673.084,422.819 672.112,420.272 670.382,418.395C668.652,416.517 666.306,415.462 663.858,415.462L616.316,415.462C613.87,415.462 611.524,416.517 609.794,418.395C608.064,420.272 607.092,422.819 607.092,425.475L607.092,477.075C607.092,479.731 608.064,482.277 609.794,484.155C611.524,486.033 613.87,487.088 616.316,487.088L663.858,487.088C666.306,487.088 668.652,486.033 670.382,484.155C672.112,482.277 673.084,479.731 673.084,477.075L673.084,477.075Z" fill="#000000"/>
<path d="M540.244,522.662L475.776,522.662C463.356,522.662 453.252,511.696 453.252,498.216L453.252,404.085C453.252,390.606 463.356,379.639 475.776,379.639L540.244,379.639C552.663,379.639 562.767,390.606 562.767,404.085L562.767,498.216C562.767,511.696 552.663,522.662 540.244,522.662L540.244,522.662ZM475.775,388.481C467.848,388.481 461.398,395.48 461.398,404.084L461.398,498.215C461.398,506.819 467.848,513.818 475.775,513.818L540.242,513.818C548.169,513.818 554.618,506.819 554.618,498.215L554.618,404.084C554.618,395.48 548.169,388.481 540.242,388.481L475.775,388.481L475.775,388.481Z" fill="#A7A7A7" fill-opacity="0.29"/>
<path d="M342.396,704.228C342.396,704.322 265.856,704.403 171.447,704.403C77.039,704.403 0.482,704.322 0.482,704.228C0.482,704.134 77.008,704.053 171.447,704.053C265.886,704.053 342.396,704.134 342.396,704.228Z" transform="rotate(360 171.439 704.228)" fill="#2F373A" stroke="#000000" stroke-width="1" stroke-miterlimit="3.999327"/>
<path d="M110.963,591.867C110.909,591.392 110.658,590.953 110.262,590.635C109.865,590.317 109.35,590.142 108.817,590.144L92.626,590.144C92.31,590.145 91.998,590.208 91.713,590.329C91.428,590.45 91.176,590.626 90.976,590.845C90.776,591.063 90.632,591.319 90.556,591.593C90.479,591.867 90.471,592.153 90.533,592.43L90.533,592.43C90.628,592.872 90.896,593.27 91.289,593.552C91.683,593.834 92.175,593.982 92.679,593.969L108.825,593.969C109.123,593.968 109.419,593.912 109.692,593.803C109.965,593.695 110.21,593.537 110.412,593.339C110.613,593.141 110.766,592.908 110.861,592.655C110.956,592.401 110.99,592.133 110.963,591.867L110.963,591.867Z" transform="rotate(360 100.732 592.057)" fill="#2F373A"/>
<path d="M44.965,706.711C44.817,707.615 44.971,708.538 45.41,709.364C45.848,710.189 46.55,710.879 47.427,711.348C48.305,711.816 49.318,712.041 50.338,711.994C51.358,711.948 52.34,711.632 53.159,711.086C53.979,710.54 54.599,709.789 54.941,708.928C55.283,708.067 55.332,707.135 55.081,706.249C54.831,705.364 54.292,704.564 53.534,703.952C52.775,703.34 51.83,702.943 50.819,702.812C49.465,702.635 48.087,702.947 46.99,703.678C45.892,704.409 45.164,705.5 44.965,706.711L44.965,706.711Z" transform="rotate(360 50.075 707.382)" fill="#2F373A"/>
<path d="M52.743,707.41L49.596,701.591L51.249,700.648L54.298,706.725L52.743,707.41Z" transform="rotate(360 51.947 704.029)" fill="#455A64"/>
<path d="M103.59,635.773L84.032,590.138L80.316,591.806L99.268,637.028L103.59,635.773Z" transform="rotate(360 91.953 613.583)" fill="#2F373A"/>
<path d="M51.076,621.983L81.741,621.983C82.289,621.983 82.814,622.183 83.201,622.54C83.588,622.897 83.805,623.381 83.805,623.886L83.805,694.667C83.805,697.341 82.653,699.906 80.603,701.797C78.552,703.687 75.771,704.75 72.871,704.75L59.946,704.75C57.046,704.75 54.265,703.687 52.214,701.797C50.163,699.906 49.011,697.341 49.011,694.667L49.011,623.886C49.011,623.381 49.229,622.897 49.616,622.54C50.003,622.183 50.528,621.983 51.076,621.983L51.076,621.983Z" transform="rotate(39.124 66.408 663.366)" fill="#B7B7B7"/>
<path d="M79.643,705.565C79.643,705.565 79.598,705.429 79.492,705.172L79.014,704.025L77.133,699.624L70.133,683.476C67.153,676.66 63.619,668.556 59.691,659.543L53.51,645.416C52.979,644.196 52.433,642.961 51.895,641.713C51.324,640.493 51.115,639.162 51.288,637.848C51.475,636.509 52.062,635.24 52.987,634.174C53.913,633.109 55.142,632.286 56.547,631.793C57.951,631.3 59.478,631.155 60.967,631.373C62.456,631.591 63.852,632.165 65.007,633.033C66.128,633.894 66.986,634.995 67.502,636.234L69.125,639.943C71.279,644.84 73.356,649.56 75.328,654.063L85.862,677.963C88.895,684.744 91.299,690.245 92.998,694.063L94.955,698.437C95.182,698.919 95.349,699.298 95.478,699.57C95.607,699.841 95.667,699.949 95.667,699.949C95.667,699.949 95.622,699.814 95.516,699.549L95.038,698.403C94.606,697.386 93.969,695.907 93.157,694.009L86.158,677.861L75.715,653.928C73.751,649.424 71.68,644.697 69.534,639.801C69.003,638.573 68.457,637.339 67.911,636.091C67.381,634.778 66.48,633.61 65.295,632.7C64.078,631.785 62.608,631.181 61.039,630.95C59.47,630.72 57.861,630.873 56.381,631.392C54.901,631.912 53.605,632.778 52.63,633.902C51.655,635.025 51.037,636.362 50.841,637.773C50.657,639.156 50.877,640.558 51.478,641.842L53.101,645.579C55.254,650.469 57.332,655.196 59.304,659.692C63.263,668.671 66.835,676.776 69.83,683.558L76.966,699.665L78.93,704.032C79.15,704.52 79.325,704.893 79.454,705.165C79.508,705.301 79.571,705.435 79.643,705.565L79.643,705.565Z" transform="rotate(360 73.223 668.205)" fill="#2F373A"/>
<path d="M52.007,659.597C52.068,659.774 55.844,658.438 60.448,656.627C65.051,654.816 68.729,653.195 68.668,653.026C68.608,652.856 64.823,654.179 60.228,655.996C55.632,657.814 51.946,659.421 52.007,659.597Z" transform="rotate(360 60.338 656.312)" fill="#2F373A"/>
<path d="M120.343,590.137L116.968,584.169C116.59,583.502 115.958,582.978 115.186,582.691L109.877,580.71L95.574,563.362L94.225,576.648L103.325,585.051C103.325,585.051 109.035,595.807 113.699,595.257C113.584,594.288 113.265,593.347 112.759,592.484C111.242,590.137 112.857,590.137 113.07,590.151L116.975,590.151L120.343,590.137Z" transform="rotate(360 107.284 579.32)" fill="#FFBE9D"/>
<path d="M103.59,580.962C104.023,581.538 107.557,585.824 107.557,585.824L117.574,579.307L113.934,576.126L103.59,580.962Z" transform="rotate(360 110.582 580.975)" fill="#FFFFFF"/>
<path d="M99.032,592.484C99.032,592.484 101.641,593.84 101.967,594.939L101.967,595.617L98.843,595.21L99.032,592.484Z" transform="rotate(360 100.405 594.05)" fill="#FFBE9D"/>
<path d="M96.165,593.758C95.702,593.435 95.341,593.01 95.118,592.524C95.017,592.279 95.022,592.01 95.132,591.768C95.241,591.526 95.447,591.329 95.71,591.215C96.248,591.053 96.802,591.398 97.226,591.744C97.759,592.171 98.266,592.624 98.743,593.101C98.969,593.274 99.146,593.493 99.259,593.739C99.373,593.986 99.419,594.253 99.395,594.518C99.325,594.724 99.185,594.906 98.995,595.038C98.805,595.17 98.574,595.247 98.334,595.257C98.091,595.262 97.851,595.222 97.626,595.141C97.402,595.059 97.199,594.937 97.029,594.783C96.691,594.478 96.421,594.119 96.233,593.725Z" transform="rotate(360 97.224 593.216)" fill="#FFBE9D"/>
<path d="M93.518,593.556C93.055,593.232 92.695,592.807 92.471,592.321C92.37,592.076 92.375,591.807 92.485,591.565C92.594,591.323 92.8,591.126 93.063,591.012C93.601,590.85 94.155,591.196 94.579,591.541C95.112,591.968 95.619,592.421 96.096,592.898C96.322,593.071 96.499,593.29 96.612,593.536C96.726,593.783 96.772,594.05 96.748,594.315C96.678,594.521 96.538,594.703 96.348,594.835C96.158,594.968 95.927,595.044 95.687,595.054C95.444,595.059 95.204,595.019 94.98,594.937C94.755,594.856 94.552,594.734 94.382,594.58C94.044,594.275 93.774,593.916 93.586,593.522Z" transform="rotate(360 94.577 593.013)" fill="#FFBE9D"/>
<path d="M100.715,583.369C100.715,583.288 101.39,583.315 102.171,583.918C102.535,584.315 102.838,584.753 103.074,585.22C103.427,585.788 103.605,586.429 103.589,587.079C103.481,587.717 103.2,588.322 102.77,588.842C102.48,589.26 102.27,589.718 102.149,590.198C102.039,590.643 102.003,591.1 102.042,591.555C101.911,591.343 101.828,591.109 101.8,590.868C101.771,590.627 101.797,590.383 101.876,590.151C101.967,589.636 102.165,589.142 102.459,588.693C102.845,588.208 103.104,587.651 103.218,587.065C103.226,586.476 103.073,585.893 102.77,585.37C102.571,584.919 102.316,584.489 102.012,584.088C101.751,583.857 101.455,583.661 101.132,583.505C100.996,583.452 100.857,583.407 100.715,583.369Z" transform="rotate(360 102.153 587.445)" fill="#192817"/>
<path d="M172.844,522.156L162.212,552.552L193.487,581.762L222.145,575.102L172.844,522.156Z" transform="rotate(360 192.178 551.959)" fill="#F5F5F5"/>
<path d="M172.654,522.149L172.897,522.4L173.617,523.159L176.408,526.13L186.805,537.218L222.122,574.993L222.319,575.204L222.024,575.271L205.871,579.029L193.365,581.931L193.251,581.931L193.176,581.857L161.916,552.667L161.855,552.606L161.855,552.532C165.146,543.22 167.846,535.618 169.719,530.328C170.645,527.71 171.373,525.669 171.873,524.272L172.434,522.698C172.563,522.352 172.624,522.176 172.624,522.176C172.26,523.241 168.521,534.112 162.151,552.613L162.113,552.478L193.411,581.64L193.221,581.592L205.726,578.683L221.88,574.926L221.781,575.21L186.783,537.449L176.423,526.259L173.633,523.227L172.874,522.441L172.654,522.149Z" transform="rotate(360 192.087 552.04)" fill="#2F373A"/>
<path d="M187.714,542.203C188.111,541.651 188.629,541.177 189.236,540.808C189.843,540.439 190.527,540.184 191.247,540.057C191.967,539.93 192.709,539.935 193.427,540.071C194.145,540.206 194.825,540.47 195.426,540.847C197.383,542.203 198.285,544.76 200.636,545.438C202.335,545.926 204.208,545.214 205.945,545.492C208,545.825 209.532,547.527 210.123,549.29C210.715,551.054 210.556,553 210.389,554.865L200.219,554.987L187.714,542.203Z" transform="rotate(360 199.128 547.476)" fill="#E0E0E0"/>
<path d="M163.448,524.93L229.35,585.662L202.496,583.227L164.935,547.765L163.448,524.93Z" transform="rotate(360 196.399 555.296)" fill="#F5F5F5"/>
<path d="M162.894,524.93C162.954,525.818 163.5,533.631 164.501,547.758L164.501,547.683C174.11,556.73 187.252,569.094 202.108,583.112L201.987,583.057L222.592,584.916L228.841,585.485L228.681,585.784C192.037,551.874 164.38,526.28 162.932,524.93L228.962,585.54L229.341,585.886L228.803,585.838L222.546,585.268L201.949,583.397L201.881,583.397L201.828,583.356C186.994,569.311 173.89,556.907 164.312,547.853L164.312,547.812C163.402,533.638 162.939,525.818 162.894,524.93Z" transform="rotate(360 196.117 555.408)" fill="#2F373A"/>
<path d="M190.3,549.066C188.267,551.162 188.563,554.492 190.3,556.804C192.036,559.117 194.903,560.514 197.8,561.511C200.143,562.318 203.032,562.827 204.974,561.402Z" transform="rotate(360 196.929 555.683)" fill="#E0E0E0"/>
<path d="M229.207,545.764C229.328,546.272 228.615,546.652 228.039,546.605C227.463,546.557 226.932,546.265 226.348,546.238C224.763,546.157 223.898,547.839 222.609,548.659C221.832,549.114 220.887,549.279 219.975,549.121C219.063,548.963 218.256,548.493 217.725,547.812C216.861,546.611 216.883,544.834 215.518,544.095C214.714,543.744 213.794,543.669 212.932,543.885C212.079,544.097 211.192,544.18 210.308,544.129C209.868,544.093 209.455,543.922 209.139,543.645C208.822,543.369 208.622,543.003 208.572,542.61L208.094,541.932L206.972,525.167L229.207,545.764Z" transform="rotate(360 218.096 537.173)" fill="#E0E0E0"/>
<path d="M197.951,584.434C198.289,584.511 198.641,584.525 198.985,584.475C199.33,584.425 199.659,584.313 199.953,584.146C200.247,583.978 200.5,583.758 200.695,583.5C200.891,583.241 201.025,582.95 201.09,582.644C201.174,581.971 200.968,581.294 200.512,580.753C200.057,580.212 199.387,579.848 198.641,579.734C197.298,579.578 195.911,580.277 194.621,579.917C193.15,579.503 192.543,577.978 192.172,576.642C191.8,575.306 191.277,573.78 189.851,573.251C187.493,572.396 185.005,575.102 182.541,574.505C180.713,574.064 180.008,572.098 178.574,570.992C177.994,570.553 177.298,570.253 176.552,570.123C175.806,569.992 175.035,570.035 174.312,570.246C173.656,570.39 173.061,570.701 172.599,571.141C172.137,571.582 171.829,572.134 171.711,572.728L182.594,582.989L197.951,584.434Z" transform="rotate(360 186.41 577.276)" fill="#E0E0E0"/>
<path d="M198.12,687.071L195.413,701.028C195.413,701.028 178.638,703.252 177.857,705.775L207.934,711.445L213.151,689.851L198.12,687.071Z" transform="rotate(360 195.504 699.258)" fill="#FFFFFF"/>
<g opacity="0.6">
<g opacity="0.6">
<path d="M187.059,701.618C187.33,701.751 187.536,701.968 187.638,702.229C187.74,702.489 187.731,702.774 187.613,703.029C187.474,703.275 187.234,703.465 186.943,703.558C186.653,703.652 186.333,703.642 186.05,703.531C185.763,703.389 185.546,703.158 185.439,702.881C185.332,702.604 185.345,702.301 185.474,702.032C185.649,701.788 185.923,701.614 186.238,701.547C186.554,701.48 186.886,701.525 187.165,701.672Z" transform="rotate(360 186.538 702.569)" fill="#FFFFFF"/>
</g>
</g>
<g opacity="0.6">
<path d="M212.589,711.458L213.135,709.329L184.045,704.677C184.045,704.677 182.588,704.948 182.528,705.816L212.589,711.458Z" transform="rotate(360 197.832 708.067)" fill="#FFFFFF"/>
</g>
<path d="M193.641,700.797C193.641,700.933 194.338,701.13 194.96,701.686C195.582,702.242 195.84,702.873 195.984,702.846C196.128,702.818 196.09,702.018 195.324,701.353C194.558,700.689 193.641,700.675 193.641,700.797Z" transform="rotate(360 194.846 701.792)" fill="#2F373A"/>
<path d="M197.86,701.374C197.8,701.496 198.384,701.835 198.748,702.486C199.112,703.137 199.119,703.747 199.271,703.774C199.423,703.802 199.688,703.096 199.21,702.269C198.732,701.442 197.891,701.245 197.86,701.374Z" transform="rotate(360 198.669 702.556)" fill="#2F373A"/>
<path d="M202.373,704.412C202.502,704.466 202.859,703.849 202.654,703.056C202.449,702.262 201.827,701.849 201.736,701.95C201.645,702.052 201.979,702.513 202.146,703.164C202.313,703.815 202.229,704.371 202.373,704.412Z" transform="rotate(360 202.218 703.175)" fill="#2F373A"/>
<path d="M191.935,697.678C191.935,697.813 192.693,697.759 193.505,697.962C194.316,698.166 194.908,698.525 195.021,698.43C195.135,698.336 194.612,697.752 193.649,697.515C192.686,697.278 191.882,697.562 191.935,697.678Z" transform="rotate(360 193.485 697.935)" fill="#2F373A"/>
<g opacity="0.3">
<path d="M179.032,689.838L178.547,692.32L193.357,694.985L193.903,692.768L179.032,689.838Z" transform="rotate(360 186.225 692.412)" fill="#000000"/>
</g>
<path d="M189.475,694.87C189.944,695.082 190.468,695.178 190.992,695.148C191.557,695.168 192.123,695.122 192.675,695.012C192.999,694.948 193.318,694.866 193.631,694.768C193.82,694.717 194,694.639 194.162,694.537C194.278,694.463 194.364,694.356 194.406,694.234C194.449,694.111 194.445,693.98 194.397,693.859C194.343,693.754 194.263,693.662 194.163,693.589C194.064,693.516 193.946,693.465 193.821,693.439C193.631,693.402 193.437,693.391 193.244,693.405C192.331,693.428 191.441,693.662 190.658,694.083C189.824,694.531 189.468,694.972 189.513,695.012C189.559,695.053 190.006,694.721 190.825,694.375C191.587,694.06 192.413,693.889 193.252,693.873C193.585,693.873 193.858,693.907 193.912,694.049C193.965,694.192 193.912,694.124 193.843,694.198C193.722,694.268 193.592,694.325 193.457,694.368C193.163,694.465 192.865,694.549 192.562,694.619C192.045,694.74 191.517,694.817 190.984,694.849C190.481,694.826 189.977,694.832 189.475,694.87L189.475,694.87Z" transform="rotate(360 191.955 694.276)" fill="#2F373A"/>
<path d="M194.779,695.087C194.825,695.121 195.227,694.707 195.484,693.866C195.623,693.372 195.67,692.861 195.621,692.354C195.597,692.05 195.533,691.749 195.431,691.458C195.392,691.266 195.298,691.086 195.159,690.935C195.019,690.784 194.839,690.668 194.635,690.597C194.5,690.578 194.362,690.592 194.235,690.637C194.108,690.683 193.998,690.758 193.915,690.855C193.8,690.999 193.708,691.157 193.642,691.323C193.518,691.612 193.447,691.916 193.429,692.225C193.394,692.746 193.5,693.268 193.74,693.744C194.165,694.551 194.741,694.822 194.764,694.782C194.787,694.741 194.377,694.375 194.089,693.615C193.918,693.18 193.856,692.717 193.907,692.259C193.939,691.994 194.01,691.734 194.119,691.486C194.233,691.214 194.408,691.004 194.521,691.058C194.635,691.113 194.878,691.343 194.946,691.594C195.043,691.848 195.114,692.109 195.158,692.374C195.232,692.84 195.232,693.312 195.158,693.778C194.976,694.598 194.703,695.087 194.779,695.087Z" transform="rotate(360 194.531 692.839)" fill="#2F373A"/>
<path d="M103.962,687.918L97.463,680.323L97.122,679.929L86.02,687.301L96.28,697.379L95.909,707.586C90.191,708.901 89.334,711.458 89.334,711.458L101.209,711.458L112.001,692.876L103.962,687.918Z" transform="rotate(360 99.01 695.694)" fill="#FFFFFF"/>
<g opacity="0.6">
<path d="M108.664,692.863L97.872,711.445L85.996,711.459L87.331,709.858L96.992,709.377L106.95,691.811L108.664,692.863Z" transform="rotate(360 97.33 701.635)" fill="#FFFFFF"/>
</g>
<path d="M98.651,702.906C98.742,703.015 99.409,702.669 100.342,702.689C101.275,702.71 101.935,703.056 102.026,702.947C102.117,702.839 101.472,702.269 100.35,702.222C99.227,702.174 98.53,702.825 98.651,702.906Z" transform="rotate(360 100.336 702.594)" fill="#2F373A"/>
<path d="M98.462,700.376C98.583,700.451 99.107,699.827 100.055,699.658C101.002,699.488 101.761,699.881 101.837,699.773C101.912,699.664 101.746,699.542 101.412,699.38C100.962,699.181 100.45,699.121 99.958,699.209C99.465,699.298 99.019,699.529 98.689,699.868C98.454,700.139 98.401,700.349 98.462,700.376Z" transform="rotate(360 100.147 699.776)" fill="#2F373A"/>
<path d="M98.944,697.121C99.073,697.183 99.475,696.565 100.302,696.308C101.128,696.05 101.872,696.308 101.932,696.172C101.993,696.036 101.818,695.975 101.485,695.867C101.046,695.726 100.566,695.726 100.127,695.867C99.692,696.009 99.321,696.276 99.073,696.626C98.891,696.904 98.876,697.121 98.944,697.121Z" transform="rotate(360 100.425 696.443)" fill="#2F373A"/>
<path d="M102.402,694.612C102.546,694.653 102.88,694.049 103.615,693.622C104.351,693.195 105.086,693.134 105.132,692.998C105.177,692.862 104.245,692.693 103.357,693.235C102.47,693.778 102.258,694.599 102.402,694.612Z" transform="rotate(360 103.747 693.738)" fill="#2F373A"/>
<path d="M104.749,692.429C104.81,692.462 105.196,692.035 105.78,691.316L106.789,690.041C107.016,689.779 107.2,689.489 107.335,689.18C107.376,689.069 107.391,688.951 107.379,688.835C107.367,688.718 107.329,688.605 107.267,688.502C107.194,688.391 107.088,688.301 106.96,688.242C106.833,688.184 106.689,688.158 106.546,688.17C106.129,688.241 105.744,688.42 105.439,688.685C105.147,688.894 104.892,689.141 104.681,689.417C104.343,689.881 104.13,690.408 104.059,690.957C103.935,691.451 104.03,691.969 104.324,692.401C104.327,691.934 104.36,691.468 104.423,691.004C104.536,690.517 104.757,690.056 105.075,689.648C105.262,689.414 105.481,689.202 105.727,689.017C105.96,688.827 106.241,688.69 106.546,688.617C106.591,688.612 106.637,688.619 106.677,688.637C106.718,688.655 106.751,688.684 106.774,688.719C106.813,688.815 106.813,688.921 106.774,689.017C106.651,689.278 106.496,689.526 106.311,689.756C106.008,690.211 105.704,690.652 105.401,691.113C105.107,691.517 104.886,691.962 104.749,692.429Z" transform="rotate(360 105.694 690.299)" fill="#2F373A"/>
<path d="M111.31,692.747C111.363,692.747 111.31,692.184 110.673,691.547C110.235,691.123 109.655,690.839 109.02,690.736C108.386,690.633 107.731,690.718 107.155,690.977C107.094,691.024 107.046,691.083 107.013,691.148C106.98,691.214 106.964,691.285 106.965,691.357C106.972,691.481 107.023,691.599 107.109,691.696C107.232,691.824 107.375,691.936 107.534,692.028C107.797,692.196 108.079,692.339 108.375,692.456C108.87,692.659 109.397,692.791 109.938,692.849C110.431,692.943 110.944,692.901 111.409,692.727C111.409,692.652 110.848,692.686 109.998,692.523C109.508,692.427 109.034,692.274 108.588,692.069C108.323,691.95 108.069,691.812 107.829,691.655C107.714,691.59 107.609,691.51 107.519,691.418C107.465,691.323 107.519,691.35 107.519,691.323C107.625,691.264 107.744,691.225 107.867,691.208C108.013,691.18 108.159,691.16 108.307,691.147C108.589,691.13 108.873,691.148 109.149,691.201C109.624,691.297 110.064,691.497 110.431,691.784C111.052,692.286 111.227,692.774 111.31,692.747Z" transform="rotate(360 109.187 691.796)" fill="#2F373A"/>
<g opacity="0.6">
<path d="M92.655,692.544C92.655,692.793 92.737,693.037 92.892,693.244C93.047,693.452 93.268,693.614 93.525,693.709C93.783,693.805 94.067,693.83 94.34,693.781C94.614,693.732 94.865,693.612 95.063,693.436C95.26,693.259 95.394,693.034 95.449,692.79C95.503,692.545 95.475,692.291 95.368,692.061C95.262,691.83 95.081,691.633 94.849,691.495C94.617,691.356 94.344,691.282 94.065,691.282C93.691,691.282 93.332,691.415 93.068,691.652C92.803,691.888 92.655,692.209 92.655,692.544Z" transform="rotate(360 94.065 692.544)" fill="#FFFFFF"/>
</g>
<g opacity="0.3">
<path d="M99.07,688.312L101.353,690.557L110.946,682.059L109.611,680.506L99.07,688.312Z" transform="rotate(360 105.008 685.531)" fill="#000000"/>
</g>
<path d="M112.042,511.44C118.389,509.468 125.24,509.19 131.76,510.64C134.649,511.284 137.584,512.356 139.435,514.445C141.626,516.913 141.899,520.277 142.24,523.417C142.926,529.804 144.24,536.125 146.169,542.305C147.776,547.445 149.809,552.478 150.681,557.788C151.553,563.098 151.151,568.72 148.14,573.332C143.499,580.439 133.633,583.579 124.434,583.722C119.596,583.79 114.636,583.159 110.344,581.151C106.051,579.144 102.48,575.638 101.433,571.413Z" transform="rotate(360 126.259 546.726)" fill="#FFFFFF"/>
<g opacity="0.5">
<g opacity="0.5">
<path d="M112.042,511.44C118.389,509.468 125.24,509.19 131.76,510.64C134.649,511.284 137.584,512.356 139.435,514.445C141.626,516.913 141.899,520.277 142.24,523.417C142.926,529.804 144.24,536.125 146.169,542.305C147.776,547.445 149.809,552.478 150.681,557.788C151.553,563.098 151.151,568.72 148.14,573.332C143.499,580.439 133.633,583.579 124.434,583.722C119.596,583.79 114.636,583.159 110.344,581.151C106.051,579.144 102.48,575.638 101.433,571.413Z" transform="rotate(360 126.259 546.726)" fill="#000000"/>
</g>
</g>
<path d="M109.237,517.951C110.233,518.729 111.117,519.615 111.868,520.589C112.649,521.67 113.334,522.803 113.916,523.98C114.629,525.441 115.447,526.859 116.365,528.225C117.309,529.61 118.609,530.772 120.157,531.616C121.451,532.308 122.975,532.574 124.465,532.369C125.463,532.241 126.398,531.857 127.157,531.264C127.359,531.101 127.537,530.916 127.688,530.714C127.794,530.579 127.839,530.504 127.824,530.497C127.809,530.49 127.566,530.755 127.066,531.128C126.304,531.645 125.4,531.968 124.45,532.064C123.042,532.213 121.62,531.931 120.415,531.264C118.941,530.432 117.703,529.306 116.798,527.974C115.892,526.623 115.074,525.226 114.348,523.79C113.736,522.604 113.008,521.469 112.172,520.399C111.603,519.674 110.927,519.021 110.162,518.459C109.889,518.244 109.576,518.072 109.237,517.951L109.237,517.951Z" transform="rotate(360 118.532 525.194)" fill="#E0E0E0"/>
<path d="M119.064,581.477C119.083,581.299 119.083,581.12 119.064,580.941C119.064,580.548 119.064,580.046 119.064,579.422C119.064,578.107 118.958,576.194 118.844,573.841C118.609,569.093 118.199,562.61 117.562,555.435C116.925,548.259 116.205,541.762 115.613,537.076C115.31,534.73 115.052,532.831 114.855,531.528C114.764,530.911 114.68,530.409 114.62,530.023C114.601,529.846 114.563,529.671 114.506,529.501C114.483,529.676 114.483,529.854 114.506,530.03C114.544,530.423 114.597,530.925 114.65,531.542C114.802,532.898 115.007,534.797 115.249,537.103C115.757,541.803 116.432,548.293 117.062,555.469C117.691,562.644 118.161,569.148 118.48,573.854C118.639,576.167 118.768,578.059 118.859,579.429L118.98,580.948C118.991,581.126 119.019,581.303 119.064,581.477Z" transform="rotate(360 116.783 555.489)" fill="#E0E0E0"/>
<path d="M103.591,552.668C103.591,552.783 106.495,552.756 110.044,552.356C113.593,551.956 116.414,551.359 116.392,551.25C116.369,551.142 113.518,551.535 109.984,551.928C106.45,552.322 103.583,552.518 103.591,552.668Z" transform="rotate(360 109.991 551.979)" fill="#E0E0E0"/>
<path d="M113.173,552.579C112.943,552.96 112.808,553.381 112.779,553.813C112.691,554.273 112.638,554.737 112.62,555.204C112.594,555.507 112.651,555.812 112.786,556.092C112.871,556.262 113.008,556.407 113.181,556.51C113.354,556.614 113.557,556.671 113.765,556.675C113.883,556.68 114.001,556.659 114.109,556.616C114.217,556.572 114.312,556.507 114.387,556.424C114.518,556.277 114.595,556.097 114.607,555.909C114.617,555.615 114.571,555.321 114.47,555.041C114.343,554.576 114.17,554.122 113.954,553.684C113.583,552.959 113.234,552.572 113.196,552.599C113.303,553.012 113.455,553.414 113.651,553.8C113.811,554.227 113.945,554.662 114.053,555.102C114.123,555.343 114.154,555.592 114.144,555.841C114.144,556.072 113.992,556.214 113.78,556.214C113.272,556.214 113.067,555.665 113.09,555.176C113.113,554.688 113.09,554.207 113.135,553.82C113.206,553.409 113.219,552.992 113.173,552.579L113.173,552.579Z" transform="rotate(360 113.611 554.627)" fill="#E0E0E0"/>
<path d="M147.99,494.249L117.356,494.249C113.344,494.249 110.093,497.166 110.093,500.764L110.093,505.866C110.093,509.464 113.344,512.381 117.356,512.381L147.99,512.381C152.001,512.381 155.253,509.464 155.253,505.866L155.253,500.764C155.253,497.166 152.001,494.249 147.99,494.249Z" transform="rotate(11.923 132.673 503.315)" fill="#455A64"/>
<path d="M125.311,493.17C125.311,493.17 125.22,493.116 125.023,493.061C124.732,492.987 124.431,492.946 124.128,492.939C122.995,492.943 121.896,493.285 121.004,493.909C119.638,494.769 118.554,495.94 117.864,497.3C117.093,498.982 116.796,500.808 116.999,502.617C117.109,504.442 117.825,506.196 119.055,507.656C120.064,508.848 121.452,509.741 123.036,510.22C124.09,510.544 125.212,510.656 126.32,510.545C126.62,510.515 126.917,510.461 127.207,510.382C127.404,510.328 127.503,510.294 127.495,510.281C127.488,510.267 127.071,510.335 126.305,510.376C125.23,510.417 124.157,510.265 123.15,509.928C121.655,509.434 120.355,508.56 119.411,507.412C118.262,506.003 117.595,504.325 117.492,502.583C117.284,500.847 117.544,499.091 118.251,497.463C118.898,496.16 119.909,495.027 121.186,494.174C122.011,493.563 123.029,493.198 124.098,493.129C124.886,493.082 125.304,493.211 125.311,493.17Z" transform="rotate(360 122.216 501.763)" fill="#2F373A"/>
<path d="M132.222,494.547L136.924,494.133C135.667,494.477 134.591,495.213 133.891,496.208C133.209,497.198 132.77,498.305 132.602,499.457C131.76,504.292 134.634,509.487 139.252,512.105L135.461,512.553C135.461,512.553 124.616,503.892 132.192,494.547Z" transform="rotate(360 134.378 503.343)" fill="#2F373A"/>
<path d="M129.678,503.445C130.89,503.745 132.164,503.787 133.397,503.567C134.63,503.348 135.789,502.874 136.78,502.183C137.771,501.491 138.568,500.602 139.106,499.585C139.644,498.569 139.908,497.454 139.878,496.33C139.825,494.248 138.764,492.119 139.492,490.132C139.992,488.775 141.266,487.704 141.698,486.327C142.335,484.259 140.94,482.177 139.613,480.4C138.823,479.219 137.838,478.151 136.693,477.233C136.117,476.775 135.435,476.436 134.696,476.24C133.956,476.045 133.178,475.997 132.416,476.1Z" transform="rotate(360 135.768 489.876)" fill="#2F373A"/>
<path d="M149.858,476.283C149.987,477.857 148.827,479.267 147.651,480.447C146.476,481.627 145.179,482.868 144.921,484.428C144.474,487.202 147.507,489.772 146.885,492.519C146.544,493.991 145.202,495.171 144.959,496.656C144.717,498.141 145.589,499.504 146.658,500.596C147.727,501.688 149.024,502.631 149.972,503.784C150.872,505.087 151.634,506.463 152.247,507.894C152.859,509.335 153.973,510.561 155.425,511.393C157.7,512.492 160.855,511.976 162.584,513.678C164.313,515.381 166.315,515.577 168.377,516.818Z" transform="rotate(360 156.627 496.551)" fill="#2F373A"/>
<path d="M162.888,478.691C162.933,477.267 161.454,476.161 159.968,475.639C158.481,475.117 156.821,474.913 155.494,474.113C154.318,473.435 153.529,472.309 152.536,471.4C151.307,470.292 149.772,469.496 148.087,469.092C146.401,468.688 144.626,468.692 142.943,469.102C141.26,469.512 139.728,470.315 138.505,471.427C137.282,472.54 136.411,473.923 135.981,475.435C135.412,477.47 135.799,479.878 137.596,481.234C139.682,482.801 142.768,482.455 145.438,481.966C148.107,481.478 151.125,480.997 153.355,482.4C154.697,483.241 155.463,484.618 156.29,485.893C157.116,487.168 158.14,488.463 159.695,488.938C161.249,489.413 163.358,488.592 163.418,487.127Z" transform="rotate(360 149.578 478.932)" fill="#2F373A"/>
<path d="M162.609,478.989C163.275,479.052 163.889,479.337 164.33,479.787C164.772,480.237 165.007,480.819 164.99,481.417L163.398,513.726C163.329,517.544 157.096,519.687 152.523,519.592C147.912,519.497 147.76,517.47 147.707,513.841C147.609,507.778 147.616,505.499 147.616,505.533C147.616,505.567 141.784,504.659 140.594,497.856C140.002,494.465 140.207,488.925 140.541,484.394C140.837,480.325 143.87,475.313 148.42,475.747L162.609,478.989Z" transform="rotate(360 152.605 497.658)" fill="#FFBE9D"/>
<path d="M161.295,488.28C161.291,488.508 161.387,488.728 161.563,488.893C161.739,489.058 161.98,489.155 162.235,489.162C162.358,489.169 162.482,489.155 162.599,489.119C162.715,489.083 162.823,489.027 162.916,488.954C163.008,488.881 163.083,488.792 163.137,488.693C163.191,488.593 163.222,488.485 163.229,488.375C163.233,488.148 163.138,487.929 162.963,487.764C162.789,487.599 162.549,487.502 162.296,487.493C162.172,487.485 162.048,487.499 161.93,487.534C161.812,487.57 161.704,487.625 161.61,487.699C161.517,487.772 161.441,487.861 161.387,487.961C161.333,488.061 161.302,488.169 161.295,488.28L161.295,488.28Z" transform="rotate(360 162.262 488.327)" fill="#2F373A"/>
<path d="M159.471,487.276C159.593,487.392 160.336,486.903 161.382,486.91C162.429,486.917 163.202,487.385 163.316,487.27C163.43,487.154 163.248,487.012 162.914,486.795C162.468,486.52 161.939,486.372 161.398,486.368C160.854,486.367 160.323,486.518 159.881,486.802C159.524,487.025 159.411,487.229 159.471,487.276Z" transform="rotate(360 161.403 486.831)" fill="#2F373A"/>
<path d="M150.837,488.518C150.833,488.746 150.929,488.966 151.105,489.131C151.281,489.296 151.522,489.393 151.777,489.4C151.901,489.409 152.025,489.396 152.142,489.361C152.26,489.327 152.369,489.272 152.462,489.199C152.555,489.126 152.632,489.037 152.686,488.938C152.74,488.838 152.772,488.73 152.778,488.62C152.782,488.392 152.687,488.172 152.513,488.006C152.339,487.84 152.1,487.742 151.845,487.731C151.721,487.723 151.596,487.737 151.478,487.772C151.36,487.807 151.251,487.863 151.157,487.936C151.063,488.009 150.987,488.098 150.932,488.198C150.877,488.298 150.844,488.407 150.837,488.518L150.837,488.518Z" transform="rotate(360 151.807 488.566)" fill="#2F373A"/>
<path d="M149.156,487.473C149.277,487.589 150.013,487.1 151.067,487.107C152.121,487.114 152.879,487.582 152.993,487.467C153.107,487.351 152.932,487.209 152.591,486.992C152.147,486.712 151.617,486.563 151.075,486.565C150.53,486.559 149.998,486.711 149.558,486.999C149.217,487.216 149.095,487.426 149.156,487.473Z" transform="rotate(360 151.084 487.028)" fill="#2F373A"/>
<path d="M158.994,494.431C158.441,494.273 157.868,494.177 157.288,494.146C157.022,494.146 156.772,494.079 156.727,493.916C156.699,493.668 156.76,493.419 156.901,493.204L157.705,491.379C158.44,489.841 159.038,488.254 159.495,486.632C159.373,486.591 158.38,488.667 157.28,491.257C157.007,491.936 156.757,492.512 156.522,493.095C156.35,493.382 156.299,493.714 156.378,494.031C156.417,494.116 156.477,494.191 156.553,494.252C156.629,494.313 156.719,494.358 156.818,494.384C156.966,494.421 157.119,494.442 157.273,494.445C157.845,494.501 158.423,494.497 158.994,494.431L158.994,494.431Z" transform="rotate(360 157.918 490.558)" fill="#2F373A"/>
<path d="M147.402,505.534C150.979,505.599 154.507,504.778 157.594,503.16C157.594,503.16 155.076,507.792 147.493,507.141L147.402,505.534Z" transform="rotate(360 152.498 505.182)" fill="#192817"/>
<path d="M153.385,496.69C153.587,496.467 153.848,496.293 154.145,496.184C154.442,496.075 154.765,496.034 155.084,496.066C155.315,496.087 155.54,496.148 155.744,496.247C155.948,496.346 156.129,496.481 156.275,496.643C156.414,496.8 156.496,496.991 156.51,497.191C156.524,497.392 156.468,497.591 156.35,497.762C156.182,497.929 155.961,498.047 155.716,498.102C155.472,498.156 155.215,498.144 154.978,498.067C154.481,497.91 154.025,497.666 153.636,497.348C153.517,497.275 153.416,497.18 153.34,497.07C153.298,497.02 153.276,496.959 153.276,496.897C153.276,496.835 153.298,496.774 153.34,496.724Z" transform="rotate(360 154.894 497.095)" fill="#192817"/>
<path d="M156.956,495.082C156.789,495.082 156.781,496.093 155.803,496.812C154.825,497.531 153.611,497.422 153.604,497.565C153.596,497.707 153.877,497.761 154.362,497.775C155.03,497.787 155.681,497.585 156.197,497.205C156.697,496.845 157.019,496.324 157.092,495.754C157.16,495.333 157.001,495.076 156.956,495.082Z" transform="rotate(360 155.356 496.429)" fill="#2F373A"/>
<path d="M148.702,485.832C148.8,486.083 149.855,485.968 151.083,486.103C152.312,486.239 153.313,486.537 153.472,486.314C153.548,486.198 153.373,485.961 152.971,485.71C152.44,485.403 151.834,485.212 151.204,485.154C150.575,485.086 149.936,485.151 149.339,485.344C148.884,485.527 148.656,485.71 148.702,485.832Z" transform="rotate(360 151.093 485.761)" fill="#2F373A"/>
<path d="M159.396,484.564C159.578,484.774 160.306,484.564 161.171,484.564C162.035,484.564 162.778,484.706 162.945,484.482C163.021,484.381 162.907,484.164 162.589,483.96C162.157,483.717 161.653,483.593 161.143,483.607C160.632,483.62 160.138,483.769 159.722,484.035C159.419,484.238 159.313,484.462 159.396,484.564Z" transform="rotate(360 161.168 484.131)" fill="#2F373A"/>
<path d="M158.549,501.363C157.498,501.552 156.412,501.515 155.38,501.255C154.348,500.995 153.4,500.518 152.615,499.866C151.83,499.213 151.229,498.403 150.863,497.501C150.497,496.6 150.376,495.634 150.511,494.683C150.753,493.014 151.754,491.292 151.11,489.732C150.253,487.643 146.977,487.019 146.105,484.917C145.604,483.703 146.059,482.285 145.483,481.099C144.906,479.912 143.632,479.335 142.351,478.922C141.033,478.617 139.776,478.13 138.627,477.477C137.55,476.731 136.883,475.32 137.573,474.276C143.255,474.881 148.836,476.093 154.196,477.884C155.432,478.298 156.737,478.799 157.472,479.783C158.208,480.766 158.231,482.177 158.147,483.432L157.192,501.743Z" transform="rotate(360 147.921 488.009)" fill="#2F373A"/>
<path d="M159.369,507.019C159.366,506.435 159.232,505.859 158.975,505.323C158.66,504.703 158.221,504.139 157.678,503.662C156.949,503.039 156.121,502.515 155.221,502.108C154.227,501.627 153.082,501.186 151.914,500.589C150.628,499.978 149.543,499.075 148.767,497.972C148.361,497.354 148.141,496.653 148.13,495.937C148.164,495.21 148.278,494.487 148.472,493.78C148.683,493.085 148.737,492.358 148.631,491.644C148.548,491.293 148.38,490.962 148.137,490.676C147.895,490.389 147.584,490.155 147.228,489.989C146.469,489.609 145.711,489.372 144.915,489.046C144.1,488.751 143.412,488.231 142.951,487.561C142.567,486.897 142.369,486.159 142.374,485.411C142.374,484.699 142.374,484.014 142.374,483.377C142.392,482.74 142.29,482.105 142.071,481.498C141.85,480.943 141.449,480.458 140.918,480.108C139.891,479.518 138.745,479.115 137.544,478.921C136.527,478.74 135.556,478.395 134.677,477.904C134.014,477.501 133.529,476.904 133.304,476.215C133.15,475.788 133.15,475.327 133.304,474.899C133.363,474.756 133.451,474.623 133.562,474.506C133.562,474.506 133.479,474.649 133.38,474.927C133.252,475.339 133.268,475.777 133.426,476.181C133.663,476.822 134.137,477.371 134.768,477.741C135.637,478.199 136.589,478.518 137.581,478.684C138.825,478.869 140.016,479.273 141.085,479.871C141.671,480.253 142.117,480.781 142.367,481.39C142.602,482.029 142.717,482.698 142.708,483.37C142.708,484.048 142.708,484.726 142.708,485.405C142.706,486.097 142.888,486.781 143.239,487.398C143.662,488.01 144.291,488.485 145.036,488.755C145.795,489.074 146.606,489.304 147.387,489.711C147.779,489.918 148.128,490.184 148.418,490.498C148.696,490.82 148.886,491.197 148.972,491.596C149.086,492.358 149.03,493.133 148.805,493.875C148.613,494.557 148.499,495.255 148.464,495.957C148.467,496.62 148.666,497.271 149.04,497.843C149.778,498.903 150.81,499.775 152.036,500.372C153.173,500.969 154.311,501.423 155.312,501.925C156.227,502.354 157.063,502.905 157.792,503.56C158.341,504.061 158.776,504.653 159.073,505.303C159.26,505.712 159.36,506.149 159.369,506.591C159.379,506.706 159.379,506.822 159.369,506.937C159.384,506.978 159.377,507.019 159.369,507.019Z" transform="rotate(360 146.283 490.762)" fill="#2F373A"/>
<path d="M169.343,511.684C169.226,511.736 169.101,511.77 168.972,511.786C168.817,511.819 168.66,511.842 168.501,511.854C168.288,511.882 168.073,511.896 167.857,511.894C166.457,511.896 165.091,511.512 163.944,510.796C163.142,510.311 162.469,509.674 161.972,508.931C161.443,508.064 161.098,507.116 160.956,506.137C160.819,505.093 160.486,504.077 159.97,503.132C159.378,502.19 158.279,501.566 157.285,500.759C156.27,499.972 155.608,498.883 155.42,497.693C155.243,496.588 155.492,495.461 156.125,494.499C156.742,493.715 157.273,492.879 157.71,492.003C158.007,491.221 158.118,490.391 158.036,489.568C157.886,488.363 157.562,487.18 157.073,486.049C156.882,485.634 156.718,485.211 156.58,484.78C156.659,484.874 156.723,484.976 156.77,485.086C156.876,485.296 157.035,485.601 157.217,486.001C157.77,487.131 158.14,488.325 158.317,489.548C158.419,490.409 158.319,491.281 158.021,492.105C157.592,493.002 157.063,493.859 156.444,494.662C155.856,495.562 155.632,496.615 155.807,497.646C155.981,498.755 156.601,499.77 157.551,500.501C158.499,501.274 159.651,501.925 160.304,502.956C160.841,503.935 161.182,504.991 161.312,506.076C161.438,507.024 161.757,507.943 162.253,508.788C162.716,509.504 163.347,510.122 164.103,510.599C165.198,511.31 166.505,511.713 167.857,511.759C168.812,511.779 169.336,511.643 169.343,511.684Z" transform="rotate(360 162.354 498.337)" fill="#2F373A"/>
<path d="M158.452,479.267C158.526,479.346 158.571,479.443 158.581,479.546C158.598,479.692 158.58,479.84 158.529,479.98C158.478,480.12 158.395,480.249 158.286,480.359C158.117,480.54 157.909,480.688 157.675,480.794C157.44,480.9 157.183,480.962 156.921,480.977C156.243,480.94 155.583,480.763 154.994,480.461C154.314,480.121 153.557,479.922 152.78,479.878C151.876,479.857 150.973,479.929 150.088,480.095C149.09,480.288 148.075,480.404 147.054,480.441C145.906,480.481 144.786,480.116 143.937,479.423C143.175,478.701 142.569,477.86 142.148,476.941C141.76,476.118 141.271,475.336 140.692,474.608C140.197,474.013 139.518,473.56 138.74,473.305C137.961,473.05 137.116,473.003 136.308,473.171C135.208,473.432 134.261,474.061 133.662,474.927C133.451,475.251 133.264,475.586 133.1,475.931C133.1,475.931 133.1,475.829 133.161,475.639C133.244,475.364 133.367,475.1 133.525,474.852C134.008,474.054 134.786,473.429 135.727,473.087C136.668,472.744 137.712,472.704 138.682,472.974C139.589,473.227 140.384,473.727 140.957,474.405C141.56,475.148 142.069,475.949 142.474,476.792C142.88,477.669 143.461,478.473 144.188,479.166C144.96,479.8 145.983,480.134 147.031,480.095C148.031,480.06 149.025,479.952 150.004,479.769C150.918,479.607 151.849,479.544 152.78,479.579C153.597,479.652 154.387,479.883 155.093,480.258C155.642,480.556 156.259,480.741 156.898,480.8C157.134,480.794 157.366,480.745 157.58,480.658C157.795,480.571 157.989,480.446 158.149,480.292C158.254,480.197 158.338,480.085 158.394,479.962C158.45,479.838 158.477,479.706 158.475,479.573C158.452,479.362 158.392,479.274 158.452,479.267Z" transform="rotate(360 145.844 476.887)" fill="#455A64"/>
<path d="M130.101,477.307C128.846,477.049 127.73,476.412 126.941,475.503C126.152,474.593 125.738,473.468 125.77,472.317C125.802,471.167 126.278,470.061 127.117,469.188C127.956,468.315 129.107,467.729 130.374,467.527C130.973,467.396 131.6,467.414 132.189,467.579C132.777,467.744 133.303,468.05 133.711,468.463C134.408,469.311 134.363,470.579 135.228,471.271C136.092,471.963 137.639,471.692 138.868,471.949C139.809,472.189 140.625,472.721 141.169,473.449C141.714,474.176 141.952,475.053 141.84,475.923C141.686,476.788 141.28,477.602 140.664,478.282C140.048,478.963 139.243,479.487 138.329,479.803C136.479,480.407 134.455,480.44 132.581,479.898C130.722,479.359 128.956,478.592 127.333,477.619Z" transform="rotate(360 133.818 473.861)" fill="#2F373A"/>
<path d="M136.466,472.39C136.393,472.839 136.204,473.267 135.912,473.638C135.281,474.58 134.407,475.372 133.364,475.951C132.321,476.533 131.138,476.886 129.913,476.982C129.406,477.052 128.887,477.017 128.397,476.88C128.397,476.819 128.973,476.88 129.86,476.731C131.02,476.573 132.132,476.206 133.129,475.652C134.123,475.094 134.981,474.363 135.654,473.503C136.177,472.845 136.405,472.37 136.466,472.39Z" transform="rotate(360 132.431 474.703)" fill="#455A64"/>
<path d="M140.576,479.911C139.599,478.76 138.373,477.795 136.971,477.076C135.57,476.356 134.021,475.895 132.416,475.72C132.894,475.637 133.386,475.637 133.864,475.72C136.213,476.028 138.343,477.121 139.825,478.779C140.161,479.106 140.416,479.491 140.576,479.911L140.576,479.911Z" transform="rotate(360 136.496 477.785)" fill="#FFFFFF"/>
<path d="M207.327,553.773L195.034,551.643L197.248,554.458L192,556.804L187.609,554.966C187.951,555.769 188.38,556.539 188.891,557.265C189.854,558.696 191.166,559.849 191.97,559.904C192.24,560.894 192.8,561.803 193.593,562.535C194.306,563.171 195.192,563.631 196.164,563.868C197.136,564.106 198.16,564.114 199.136,563.891L207.395,561.219L207.327,553.773Z" transform="rotate(360 197.502 557.848)" fill="#FFBE9D"/>
<path d="M203.611,559.287C203.408,559.514 203.151,559.699 202.858,559.826C202.566,559.954 202.245,560.022 201.92,560.026C201.601,560.086 201.271,560.083 200.953,560.019C200.635,559.954 200.336,559.83 200.077,559.653C200.123,559.551 200.904,559.782 201.874,559.653C202.845,559.524 203.55,559.199 203.611,559.287Z" transform="rotate(360 201.844 559.67)" fill="#192817"/>
<path d="M201.442,561.626C201.518,561.694 200.987,562.223 200.077,562.433C199.813,562.525 199.53,562.562 199.248,562.544C198.966,562.525 198.692,562.45 198.446,562.325C198.446,562.223 199.205,562.284 199.963,562.094C200.721,561.904 201.351,561.552 201.442,561.626Z" transform="rotate(360 199.948 562.082)" fill="#192817"/>
<path d="M202.891,553.346C202.555,553.563 202.197,553.751 201.822,553.909C201.162,554.241 200.305,554.797 199.342,555.394C198.517,555.929 197.6,556.339 196.627,556.608C196.225,556.743 195.79,556.778 195.368,556.71C195.368,556.655 195.838,556.608 196.543,556.371C197.454,556.037 198.319,555.611 199.122,555.102C199.937,554.572 200.797,554.098 201.693,553.685C202.058,553.491 202.468,553.375 202.891,553.346L202.891,553.346Z" transform="rotate(360 199.129 555.045)" fill="#192817"/>
<path d="M193.334,572.023C193.334,572.023 193.751,572.26 194.797,573.922C198.005,579.042 199.302,591.31 187.214,602.263C171.576,616.41 153.262,639.563 153.262,639.563L138.853,693.927L117.133,689.715L128.327,633.215L159.018,582.297L193.334,572.023Z" transform="rotate(360 157.066 632.975)" fill="#2F373A"/>
<path d="M166.292,677.237L132.833,631.446L122.687,591.921L96.842,603.281L109.802,643.396L151.155,689.458L166.292,677.237Z" transform="rotate(360 131.567 640.69)" fill="#2F373A"/>
<path d="M126.061,693.927C126.066,693.835 126.084,693.744 126.114,693.656C126.159,693.466 126.22,693.209 126.296,692.876C126.478,692.198 126.728,691.174 127.054,689.885L129.898,678.912C132.332,669.635 135.692,656.851 139.408,642.731C139.696,641.632 139.984,640.54 140.257,639.523L140.257,639.476C149.737,628.625 158.374,619.028 164.729,612.212C167.915,608.822 170.516,606.109 172.359,604.251C173.261,603.321 174.004,602.63 174.497,602.155L175.058,601.619C175.187,601.497 175.256,601.436 175.263,601.443C175.211,601.513 175.153,601.578 175.089,601.64L174.55,602.196C174.08,602.691 173.36,603.396 172.465,604.339C170.66,606.204 168.097,608.944 164.942,612.368C158.64,619.225 150.04,628.848 140.568,639.693L140.568,639.625C140.303,640.642 140.015,641.734 139.719,642.833L130.171,678.973C128.92,683.578 127.896,687.315 127.206,689.919C126.849,691.194 126.576,692.198 126.379,692.89C126.288,693.222 126.212,693.473 126.159,693.663C126.136,693.754 126.103,693.842 126.061,693.927L126.061,693.927Z" transform="rotate(360 150.662 647.685)" fill="#455A64"/>
<path d="M149.421,586.475C149.267,586.59 149.089,586.677 148.898,586.733C148.397,586.927 147.876,587.079 147.343,587.187C145.57,587.549 143.723,587.5 141.977,587.046C140.23,586.591 138.643,585.746 137.363,584.59C136.979,584.243 136.628,583.866 136.317,583.464C136.105,583.172 136.006,583.003 136.029,582.989C136.051,582.976 136.56,583.586 137.545,584.407C138.834,585.478 140.385,586.265 142.074,586.706C143.764,587.146 145.545,587.227 147.275,586.943C148.618,586.726 149.399,586.421 149.421,586.475Z" transform="rotate(360 142.723 585.208)" fill="#455A64"/>
<path d="M168.279,574.369C155.19,580.534 133.948,584.217 127.153,581.714L126.918,559.164C126.918,559.164 117.613,545.445 117.575,540.256C117.522,532.796 127.934,515.726 127.934,515.726L143.564,511.976C146.711,511.916 149.825,512.564 152.619,513.861C155.542,515.31 157.921,517.5 159.455,520.155C160.989,522.81 161.611,525.811 161.242,528.782L157.306,551.216L168.279,574.369Z" transform="rotate(360 142.927 547.24)" fill="#FFFFFF"/>
<g opacity="0.3">
<g opacity="0.3">
<path d="M151.724,513.841C152.634,513.719 152.967,515.042 152.323,515.625C151.678,516.208 150.654,516.235 149.752,516.357C145.68,516.927 142.532,520.047 141.054,523.485C139.575,526.923 139.431,530.681 139.188,534.336C138.945,537.991 138.543,541.796 136.61,545.058C134.804,542.195 133.734,539.009 133.477,535.731C133.22,532.452 133.782,529.164 135.123,526.104C136.464,523.044 138.551,520.29 141.231,518.041C143.91,515.792 147.117,514.105 150.617,513.102Z" transform="rotate(360 143.037 529.08)" fill="#000000"/>
</g>
</g>
<path d="M156.541,513.861C156.541,513.861 154.266,510.545 146.743,511.983C141.707,512.946 130.696,522.407 133.767,537.605C136.839,552.803 145.074,558.188 145.074,558.188C145.074,558.188 137.491,534.919 141.707,524.767C142.811,521.9 144.782,519.364 147.4,517.439C150.019,515.514 153.183,514.275 156.541,513.861Z" transform="rotate(360 144.888 534.905)" fill="#2F373A"/>
<g opacity="0.3">
<g opacity="0.3">
<path d="M129.223,563.953C132.34,564.848 135.328,565.987 138.574,566.353C141.822,566.83 145.153,566.519 148.22,565.451C152.384,563.865 155.478,560.474 157.07,556.682C158.663,552.891 158.883,548.741 158.458,544.706C155.614,547.852 155.956,552.512 153.536,555.936C152.02,558.073 149.555,559.531 147.022,560.684C141.48,563.067 135.368,564.196 129.223,563.973Z" transform="rotate(360 143.935 555.638)" fill="#000000"/>
</g>
</g>
<path d="M127.964,540.915C127.964,540.915 126.948,558.032 150.298,554.628L152.649,559.578C152.649,559.578 128.101,564.217 124.589,546.015L127.964,540.915Z" transform="rotate(360 138.619 550.511)" fill="#2F373A"/>
<path d="M185.479,519.639C186.462,520.945 187.124,522.422 187.422,523.974C187.72,525.525 187.647,527.115 187.208,528.639L181.392,551.921C178.897,558.473 171.776,562.454 167.347,562.982L125.872,566.909L125.872,553.067L164.374,547.954L166.179,529.1C166.338,526.564 167.734,522.006 169.539,520.04C171.556,517.849 174.658,514.865 179.723,515.625C182.825,516.086 184.145,517.937 185.479,519.639Z" transform="rotate(360 156.737 541.206)" fill="#FFFFFF"/>
<path d="M158.631,529.548C158.637,529.723 158.624,529.897 158.593,530.07C158.547,530.416 158.479,530.918 158.38,531.569C158.183,532.871 157.88,534.743 157.417,537.049C156.955,539.354 156.363,542.101 155.582,545.119C155.195,546.625 154.778,548.212 154.27,549.866C153.774,551.561 153.093,553.207 152.238,554.783C151.374,556.368 150.185,557.794 148.734,558.988C147.381,560.095 145.846,561.009 144.184,561.701C141.364,562.831 138.352,563.53 135.273,563.769C132.657,564.007 130.533,564.02 129.07,564.034L127.378,564.034C127.184,564.05 126.989,564.05 126.795,564.034C126.987,564.003 127.183,563.989 127.378,563.993L129.062,563.932C130.526,563.878 132.649,563.823 135.243,563.552C138.28,563.284 141.247,562.569 144.025,561.436C145.655,560.762 147.161,559.87 148.491,558.791C149.901,557.618 151.058,556.222 151.904,554.675C152.745,553.119 153.418,551.496 153.914,549.826C154.422,548.212 154.846,546.631 155.248,545.126C156.007,542.115 156.674,539.388 157.159,537.089C157.645,534.79 158.001,532.925 158.244,531.664C158.365,531.047 158.456,530.551 158.524,530.178C158.542,529.966 158.577,529.755 158.631,529.548L158.631,529.548Z" transform="rotate(360 142.713 546.797)" fill="#2F373A"/>
<path d="M149.456,551.921C149.025,551.293 148.71,550.606 148.524,549.887C148.208,549.211 148.019,548.494 147.963,547.764C148.712,549.06 149.224,550.454 149.479,551.894L149.456,551.921Z" transform="rotate(360 148.721 549.843)" fill="#2F373A"/>
<path d="M149.26,551.393C148.441,551.049 147.718,550.546 147.144,549.921C146.478,549.377 145.959,548.704 145.628,547.954C146.276,548.495 146.884,549.072 147.448,549.683C148.095,550.215 148.701,550.786 149.26,551.393L149.26,551.393Z" transform="rotate(360 147.444 549.673)" fill="#2F373A"/>
<path d="M133.273,552.593L133.448,552.552L133.964,552.464L135.95,552.172L143.329,551.135L168.105,547.785L167.938,547.941C168.075,546.652 168.219,545.296 168.37,543.912C168.863,539.022 169.387,534.363 169.644,530.111C169.824,528.089 170.256,526.092 170.934,524.157C171.478,522.443 172.401,520.845 173.649,519.457C176.106,517.063 178.859,515.794 180.883,515.564C181.657,515.465 182.443,515.479 183.212,515.605C183.469,515.652 183.667,515.706 183.795,515.74L183.993,515.801C182.98,515.593 181.933,515.559 180.906,515.7C178.934,515.964 176.25,517.246 173.861,519.626C172.652,520.993 171.765,522.564 171.252,524.245C170.591,526.161 170.174,528.138 170.008,530.138C169.773,534.39 169.25,539.056 168.757,543.946C168.613,545.302 168.469,546.659 168.325,547.974L168.325,548.11L168.173,548.11L143.345,551.352L135.95,552.274L133.948,552.512L133.433,552.566L133.273,552.593Z" transform="rotate(360 158.633 534.046)" fill="#2F373A"/>
<path d="M161.848,563.871C161.742,563.871 161.302,560.745 160.87,556.872C160.438,553 160.172,549.839 160.279,549.826C160.743,552.144 161.072,554.482 161.264,556.831C161.594,559.167 161.789,561.517 161.848,563.871L161.848,563.871Z" transform="rotate(360 161.052 556.848)" fill="#FAFAFA"/>
<path d="M147.872,542.854C146.994,542.922 146.112,542.933 145.232,542.888C143.602,542.888 141.357,542.807 138.87,542.725C136.382,542.644 134.138,542.549 132.515,542.461C131.636,542.448 130.759,542.378 129.891,542.251C130.768,542.174 131.65,542.16 132.53,542.21C134.153,542.21 136.405,542.291 138.885,542.373C141.365,542.454 143.61,542.549 145.24,542.637C146.122,542.647 147.002,542.719 147.872,542.854L147.872,542.854Z" transform="rotate(360 138.881 542.548)" fill="#FAFAFA"/>
<path d="M167.991,538.425C167.428,538.555 166.85,538.623 166.269,538.629C165.208,538.697 163.729,538.744 162.099,538.717C160.468,538.69 158.989,538.588 157.928,538.48C157.348,538.457 156.775,538.368 156.221,538.215C156.796,538.164 157.375,538.164 157.95,538.215C159.012,538.263 160.483,538.317 162.106,538.344C163.729,538.371 165.2,538.344 166.262,538.344C166.84,538.314 167.42,538.341 167.991,538.425L167.991,538.425Z" transform="rotate(360 162.106 538.451)" fill="#FAFAFA"/>
<path d="M160.301,522.339C160.241,522.427 158.648,521.661 156.585,520.982C154.523,520.304 152.793,519.891 152.793,519.789C155.49,520.083 158.066,520.958 160.301,522.339L160.301,522.339Z" transform="rotate(360 156.547 521.067)" fill="#FAFAFA"/>
<path d="M158.693,564.651C158.589,564.718 158.474,564.771 158.352,564.807L157.351,565.174C156.486,565.492 155.212,565.913 153.627,566.408C149.491,567.681 145.281,568.755 141.016,569.622C136.75,570.511 132.434,571.19 128.086,571.657C126.417,571.827 125.052,571.942 124.127,571.996L123.05,572.05C122.925,572.068 122.797,572.068 122.671,572.05C122.791,572.013 122.916,571.99 123.043,571.983L124.112,571.86C125.045,571.765 126.387,571.616 128.055,571.413C131.369,571.006 135.942,570.335 140.947,569.317C145.953,568.3 150.374,567.12 153.559,566.191C155.152,565.73 156.441,565.343 157.351,565.065L158.375,564.76C158.477,564.715 158.584,564.679 158.693,564.651L158.693,564.651Z" transform="rotate(360 140.682 568.358)" fill="#FAFAFA"/>
<path d="M145.104,524.096C145.104,524.191 140.629,524.143 135.116,523.98C129.603,523.818 125.143,523.614 125.143,523.519C125.143,523.424 129.618,523.472 135.131,523.628C140.644,523.784 145.104,523.994 145.104,524.096Z" transform="rotate(360 135.123 523.807)" fill="#FAFAFA"/>
<path d="M179.161,565.885C178.869,563.634 178.707,561.37 178.676,559.104C178.511,556.846 178.481,554.582 178.585,552.322C178.877,554.573 179.039,556.837 179.07,559.104C179.235,561.361 179.265,563.625 179.161,565.885Z" transform="rotate(360 178.873 559.104)" fill="#FAFAFA"/>
<path d="M272.166,489.604C278.918,488.483 285.889,489.138 292.233,491.489C295.046,492.541 297.837,494.026 299.354,496.393C301.159,499.187 300.87,502.632 300.666,505.853C300.269,512.416 300.523,518.998 301.424,525.521C302.182,530.946 303.373,536.372 303.35,541.797C303.327,547.223 301.962,552.933 298.133,557.192C292.225,563.75 281.707,565.595 272.348,564.476C267.434,563.893 262.528,562.577 258.516,559.959C254.504,557.341 251.501,553.306 251.16,548.884Z" transform="rotate(360 277.255 526.926)" fill="#455A64"/>
<path d="M253.956,497.919C254.831,498.844 255.574,499.862 256.17,500.95C256.786,502.149 257.293,503.389 257.687,504.66C258.161,506.236 258.746,507.783 259.439,509.292C260.161,510.827 261.285,512.186 262.715,513.253C263.907,514.129 265.403,514.609 266.947,514.609C267.972,514.618 268.978,514.361 269.844,513.87C270.075,513.733 270.286,513.572 270.473,513.388C270.602,513.266 270.663,513.192 270.647,513.185C270.632,513.178 270.344,513.409 269.737,513.721C268.879,514.14 267.909,514.342 266.931,514.304C265.481,514.264 264.088,513.786 262.98,512.947C261.632,511.907 260.572,510.6 259.886,509.129C259.197,507.637 258.604,506.111 258.112,504.558C257.693,503.275 257.15,502.027 256.489,500.828C256.034,500.02 255.46,499.269 254.782,498.597C254.552,498.33 254.273,498.101 253.956,497.919L253.956,497.919Z" transform="rotate(360 262.303 506.264)" fill="#2F373A"/>
<path d="M263.687,564.056C263.745,563.883 263.783,563.706 263.801,563.527C263.861,563.129 263.937,562.613 264.028,561.98C264.218,560.624 264.468,558.698 264.786,556.297C265.355,551.489 266.038,544.842 266.629,537.491C267.221,530.139 267.577,523.466 267.774,518.631C267.873,516.216 267.934,514.263 267.956,512.913C267.956,512.276 267.956,511.761 267.956,511.36C267.98,511.18 267.98,510.998 267.956,510.818C267.914,510.994 267.891,511.173 267.888,511.354C267.888,511.761 267.82,512.269 267.774,512.907C267.691,514.311 267.577,516.25 267.433,518.617C267.145,523.446 266.72,530.106 266.144,537.457C265.568,544.809 264.923,551.455 264.445,556.263C264.21,558.63 264.021,560.563 263.884,561.96C263.823,562.597 263.778,563.113 263.748,563.513C263.704,563.691 263.683,563.873 263.687,564.056L263.687,564.056Z" transform="rotate(360 265.83 537.437)" fill="#2F373A"/>
<path d="M251.774,534.602C251.774,534.717 254.701,535.083 258.364,535.165C262.027,535.246 264.985,535.029 264.977,534.907C264.97,534.785 262.02,534.805 258.38,534.717C254.739,534.629 251.789,534.473 251.774,534.602Z" transform="rotate(360 258.376 534.868)" fill="#2F373A"/>
<path d="M262.747,534.894C262.451,535.248 262.244,535.655 262.141,536.087C261.976,536.531 261.845,536.984 261.746,537.444C261.663,537.747 261.663,538.063 261.746,538.366C261.804,538.551 261.918,538.717 262.076,538.847C262.235,538.976 262.43,539.064 262.641,539.098C262.76,539.115 262.881,539.107 262.997,539.077C263.112,539.046 263.219,538.993 263.309,538.922C263.471,538.793 263.58,538.618 263.619,538.427C263.672,538.13 263.672,537.828 263.619,537.532C263.566,537.054 263.465,536.582 263.316,536.121C263.227,535.683 263.024,535.27 262.725,534.914C262.754,535.348 262.838,535.778 262.975,536.196C263.066,536.644 263.127,537.097 263.157,537.552C263.199,537.804 263.199,538.06 263.157,538.312C263.096,538.542 262.937,538.671 262.732,538.644C262.209,538.563 262.095,537.966 262.201,537.498C262.307,537.03 262.391,536.515 262.482,536.142C262.629,535.737 262.718,535.318 262.747,534.894L262.747,534.894Z" transform="rotate(360 262.671 537)" fill="#2F373A"/>
<path d="M288.941,473.195L257.192,473.195C253.176,473.195 249.92,476.107 249.92,479.699L249.92,485.221C249.92,488.813 253.176,491.725 257.192,491.725L288.941,491.725C292.957,491.725 296.213,488.813 296.213,485.221L296.213,479.699C296.213,476.107 292.957,473.195 288.941,473.195Z" transform="rotate(-3.381 273.067 482.46)" fill="#2F373A"/>
<path d="M267.679,474.019C267.679,474.019 267.596,473.952 267.406,473.87C267.125,473.752 266.826,473.67 266.519,473.626C265.374,473.473 264.203,473.668 263.198,474.182C261.671,474.859 260.374,475.89 259.444,477.166C258.374,478.762 257.762,480.57 257.661,482.429C257.462,484.292 257.887,486.167 258.882,487.814C259.701,489.159 260.954,490.253 262.477,490.954C263.489,491.424 264.606,491.688 265.746,491.727C266.055,491.738 266.364,491.725 266.671,491.686C266.779,491.684 266.885,491.661 266.982,491.618C266.982,491.578 266.542,491.618 265.761,491.551C264.665,491.45 263.605,491.15 262.644,490.669C261.215,489.967 260.047,488.906 259.284,487.617C258.358,486.033 257.968,484.242 258.162,482.463C258.259,480.675 258.831,478.934 259.83,477.383C260.709,476.154 261.926,475.148 263.364,474.46C264.303,473.946 265.399,473.709 266.496,473.782C267.27,473.857 267.664,474.06 267.679,474.019Z" transform="rotate(360 262.646 482.653)" fill="#455A64"/>
<path d="M274.74,473.043L279.563,473.26C278.237,473.441 277.029,474.043 276.158,474.955C275.298,475.863 274.665,476.924 274.3,478.068C272.624,482.815 274.649,488.499 278.85,491.774L274.945,491.72C274.945,491.72 265.442,481.466 274.709,473.043Z" transform="rotate(360 275.107 482.408)" fill="#455A64"/>
<path d="M269.821,464.918C267.849,460.652 267.743,453.246 270.753,449.32C273.764,445.393 279.406,442.85 284.586,441.86C285.438,441.625 286.35,441.625 287.202,441.86C287.617,441.999 287.959,442.274 288.158,442.628C288.358,442.982 288.401,443.391 288.279,443.772C289.286,443.154 290.401,442.691 291.578,442.402C292.17,442.253 292.794,442.236 293.395,442.355C293.995,442.473 294.554,442.722 295.021,443.08C295.246,443.265 295.427,443.487 295.554,443.735C295.681,443.984 295.751,444.252 295.759,444.525C295.768,444.797 295.715,445.069 295.604,445.323C295.492,445.577 295.325,445.808 295.112,446.003C295.842,445.761 296.635,445.717 297.393,445.875C298.151,446.033 298.84,446.388 299.375,446.894C299.909,447.4 300.265,448.036 300.399,448.721C300.532,449.407 300.437,450.113 300.125,450.751C299.415,452.057 298.432,453.229 297.228,454.203C296.143,455.098 295.961,456.02 296.143,457.329Z" transform="rotate(360 284.431 453.301)" fill="#2F373A"/>
<path d="M273.764,457.099L272.399,483.195C272.343,484.247 272.526,485.298 272.938,486.285C273.35,487.271 273.982,488.173 274.795,488.934C275.609,489.695 276.587,490.3 277.671,490.713C278.754,491.125 279.92,491.337 281.098,491.334C283.327,491.323 285.466,490.548 287.074,489.167C288.681,487.786 289.634,485.905 289.735,483.914C289.834,481.947 289.925,480.306 289.948,480.11C289.948,480.11 297.41,479.798 298.29,473.246C298.714,470.079 299.003,463.494 299.177,457.533C299.269,454.445 298.058,451.44 295.784,449.115C293.51,446.79 290.341,445.316 286.907,444.986L286.201,444.918C278.542,444.579 273.931,450.222 273.764,457.099Z" transform="rotate(360 285.786 468.119)" fill="#FFBE9D"/>
<path d="M290.845,480.015C287.452,479.747 284.226,478.58 281.578,476.665C281.578,476.665 283.041,480.768 290.428,480.883L290.845,480.015Z" transform="rotate(360 286.211 478.774)" fill="#192817"/>
<path d="M277.112,461.717C277.085,461.962 276.952,462.189 276.741,462.347C276.529,462.506 276.257,462.584 275.982,462.565C275.848,462.561 275.716,462.534 275.594,462.484C275.472,462.434 275.363,462.363 275.272,462.274C275.181,462.185 275.112,462.082 275.067,461.968C275.022,461.855 275.003,461.735 275.012,461.615C275.039,461.371 275.171,461.146 275.38,460.988C275.59,460.83 275.86,460.751 276.134,460.768C276.268,460.772 276.4,460.8 276.522,460.85C276.644,460.9 276.753,460.972 276.844,461.06C276.935,461.148 277.006,461.252 277.052,461.365C277.098,461.477 277.118,461.597 277.112,461.717L277.112,461.717Z" transform="rotate(360 276.061 461.666)" fill="#2F373A"/>
<path d="M278.453,460.598C278.309,460.707 277.581,460.11 276.451,460.002C275.321,459.893 274.441,460.32 274.335,460.185C274.229,460.049 274.434,459.913 274.828,459.717C275.352,459.463 275.95,459.359 276.542,459.418C277.129,459.474 277.682,459.694 278.12,460.049C278.438,460.293 278.537,460.551 278.453,460.598Z" transform="rotate(360 276.394 460.007)" fill="#2F373A"/>
<path d="M288.235,460.971C288.208,461.216 288.076,461.441 287.867,461.599C287.657,461.757 287.387,461.836 287.113,461.819C286.979,461.815 286.847,461.787 286.725,461.737C286.603,461.686 286.494,461.615 286.403,461.527C286.312,461.438 286.241,461.335 286.195,461.222C286.149,461.109 286.129,460.99 286.135,460.87C286.16,460.625 286.292,460.399 286.502,460.24C286.712,460.081 286.983,460.003 287.257,460.022C287.392,460.024 287.525,460.051 287.648,460.101C287.771,460.15 287.881,460.222 287.972,460.31C288.064,460.399 288.134,460.503 288.179,460.617C288.225,460.73 288.244,460.851 288.235,460.971Z" transform="rotate(360 287.186 460.92)" fill="#2F373A"/>
<path d="M289.569,459.716C289.425,459.825 288.697,459.228 287.567,459.119C286.437,459.011 285.55,459.438 285.444,459.303C285.338,459.167 285.55,459.038 285.937,458.835C286.464,458.581 287.064,458.477 287.658,458.536C288.245,458.595 288.796,458.815 289.236,459.167C289.547,459.438 289.638,459.669 289.569,459.716Z" transform="rotate(360 287.504 459.125)" fill="#2F373A"/>
<path d="M279.302,467.59C279.915,467.477 280.542,467.436 281.167,467.468C281.456,467.468 281.736,467.468 281.804,467.279C281.864,467.016 281.829,466.743 281.706,466.499L281.092,464.464C280.242,461.561 279.666,459.181 279.795,459.154C279.924,459.127 280.72,461.453 281.569,464.362C281.767,465.04 281.964,465.759 282.146,466.397C282.28,466.728 282.28,467.09 282.146,467.421C282.095,467.509 282.022,467.584 281.932,467.642C281.843,467.7 281.739,467.738 281.63,467.753C281.466,467.773 281.301,467.773 281.137,467.753C280.52,467.771 279.903,467.716 279.302,467.59L279.302,467.59Z" transform="rotate(360 280.774 463.461)" fill="#2F373A"/>
<path d="M282.584,467.97C282.766,467.97 282.638,469.069 283.593,469.95C284.549,470.832 285.868,470.832 285.868,470.988C285.868,471.144 285.557,471.171 285.004,471.13C284.284,471.072 283.612,470.786 283.108,470.323C282.624,469.884 282.352,469.292 282.349,468.675C282.311,468.214 282.478,467.957 282.584,467.97Z" transform="rotate(360 284.106 469.559)" fill="#2F373A"/>
<path d="M289.857,455.797C289.713,456.061 288.606,455.797 287.263,455.837C285.921,455.878 284.814,456.068 284.67,455.837C284.609,455.708 284.821,455.471 285.284,455.247C285.897,454.97 286.576,454.828 287.263,454.833C287.949,454.828 288.627,454.965 289.243,455.234C289.705,455.43 289.925,455.668 289.857,455.797Z" transform="rotate(360 287.264 455.391)" fill="#2F373A"/>
<path d="M278.172,457.641C277.945,457.852 277.201,457.54 276.269,457.438C275.336,457.336 274.524,457.438 274.373,457.167C274.304,457.045 274.456,456.828 274.828,456.644C275.32,456.436 275.869,456.361 276.408,456.429C276.947,456.496 277.452,456.703 277.861,457.024C278.195,457.289 278.271,457.54 278.172,457.641Z" transform="rotate(360 276.284 457.059)" fill="#2F373A"/>
<path d="M303.046,462.015C302.925,461.954 298.17,460.198 297.783,464.694C297.397,469.191 302.538,468.614 302.553,468.485C302.569,468.356 303.046,462.015 303.046,462.015Z" transform="rotate(360 300.404 465.103)" fill="#FFBE9D"/>
<path d="M301.799,466.675C301.799,466.675 301.708,466.722 301.549,466.776C301.339,466.849 301.107,466.849 300.897,466.776C300.587,466.57 300.344,466.293 300.194,465.975C300.043,465.657 299.99,465.308 300.04,464.966C300.061,464.579 300.178,464.202 300.381,463.86C300.44,463.724 300.535,463.602 300.658,463.505C300.781,463.409 300.928,463.34 301.086,463.304C301.189,463.287 301.296,463.302 301.387,463.348C301.479,463.394 301.55,463.467 301.587,463.555C301.648,463.684 301.587,463.772 301.632,463.779C301.678,463.786 301.746,463.711 301.723,463.528C301.703,463.414 301.641,463.31 301.549,463.229C301.418,463.126 301.246,463.072 301.071,463.08C300.862,463.103 300.662,463.174 300.492,463.285C300.322,463.397 300.187,463.546 300.1,463.718C299.851,464.092 299.71,464.516 299.691,464.952C299.63,465.351 299.702,465.757 299.899,466.12C300.096,466.482 300.409,466.784 300.798,466.987C300.931,467.032 301.074,467.049 301.215,467.039C301.357,467.028 301.494,466.99 301.617,466.926C301.776,466.783 301.814,466.681 301.799,466.675Z" transform="rotate(360 300.736 465.061)" fill="#192817"/>
<path d="M298.67,449.259C298.761,455.132 290.517,457.017 287.294,453.518C285.778,451.897 284.526,449.91 282.365,449.082C281.625,448.825 280.836,448.703 280.043,448.723C279.25,448.743 278.469,448.904 277.746,449.198L277.701,449.198C275.547,450.018 274.137,452.08 273.636,454.128C272.946,456.983 273.242,459.553 272.18,462.151C272.071,462.54 271.82,462.886 271.467,463.134C270.83,463.48 269.951,463.08 269.518,462.544C268.855,461.635 268.505,460.571 268.51,459.486C268.276,457.031 268.59,454.56 269.435,452.215C270.292,449.865 271.9,447.79 274.061,446.247C276.846,444.409 280.321,443.609 283.753,444.016C287.173,444.444 290.357,445.822 292.853,447.956C294.059,448.896 294.985,450.089 295.545,451.429Z" transform="rotate(360 283.553 453.588)" fill="#2F373A"/>
<path d="M276.262,445.685C276.498,445.657 276.738,445.682 276.96,445.759C277.577,445.944 278.123,446.28 278.537,446.729C279.176,447.382 279.551,448.209 279.599,449.076C279.608,450.145 279.172,451.179 278.378,451.978C277.614,452.777 276.616,453.369 275.496,453.687C274.595,453.946 273.651,454.067 272.705,454.047C272.074,454.037 271.445,453.978 270.825,453.871C270.591,453.851 270.365,453.791 270.157,453.694C270.157,453.633 271.135,453.83 272.698,453.803C273.611,453.787 274.516,453.648 275.382,453.389C276.429,453.069 277.361,452.504 278.082,451.755C278.814,451.02 279.223,450.073 279.235,449.089C279.211,448.286 278.894,447.512 278.332,446.885C277.957,446.456 277.463,446.122 276.899,445.915C276.512,445.739 276.262,445.719 276.262,445.685Z" transform="rotate(360 274.878 449.861)" fill="#455A64"/>
<path d="M281.927,443.393C281.927,443.393 282.116,443.352 282.404,443.501C282.597,443.615 282.76,443.764 282.88,443.94C283.001,444.116 283.077,444.314 283.102,444.518C283.151,445.122 282.964,445.721 282.571,446.214C282.157,446.819 281.646,447.368 281.055,447.842C279.977,448.711 278.673,449.326 277.263,449.632C276.692,449.791 276.09,449.842 275.496,449.781C275.496,449.713 276.163,449.686 277.187,449.395C278.516,449.032 279.74,448.414 280.774,447.584C281.343,447.132 281.845,446.617 282.268,446.051C282.633,445.62 282.83,445.093 282.829,444.552C282.817,444.374 282.764,444.199 282.676,444.038C282.587,443.878 282.464,443.734 282.313,443.617C282.078,443.454 281.919,443.42 281.927,443.393Z" transform="rotate(360 279.303 446.597)" fill="#455A64"/>
<path d="M366.356,507.474L368.714,492.052L334.823,498.156L303.98,488.573L295.646,496.237L328.468,511.354C331.395,512.604 334.694,512.982 337.879,512.432L366.356,507.474Z" transform="rotate(360 332.18 500.626)" fill="#FFBE9D"/>
<path d="M387.759,488.574C387.759,488.574 375.967,483.528 375.208,483.352C374.624,483.216 365.721,482.795 361.664,482.606C361.346,482.603 361.039,482.707 360.802,482.897C360.565,483.087 360.417,483.35 360.385,483.633C360.354,483.916 360.442,484.199 360.632,484.427C360.823,484.655 361.101,484.81 361.414,484.864L361.565,484.864C363.841,485.033 368.815,486.051 368.815,486.051L366.54,490.798C366.43,491.033 366.411,491.295 366.487,491.541C366.562,491.787 366.728,492.003 366.957,492.154L373.821,496.692C374.719,497.057 375.71,497.204 376.692,497.118C377.675,497.033 378.615,496.717 379.417,496.203L382.451,496.759L387.759,488.574Z" transform="rotate(360 374.069 489.874)" fill="#FFBE9D"/>
<path d="M375.846,491.096C376.058,491.985 378.425,493.809 380.222,493.809C380.618,493.815 381.004,493.692 381.306,493.463C381.45,493.343 381.551,493.187 381.595,493.016C381.64,492.844 381.626,492.665 381.557,492.5C381.43,492.297 381.25,492.125 381.033,491.998L377.044,489.197Z" transform="rotate(360 378.733 491.503)" fill="#FFBE9D"/>
<path d="M376.807,489.197C377.401,489.481 377.963,489.818 378.483,490.201L380.235,491.374C380.568,491.605 380.902,491.801 381.266,492.1C381.371,492.187 381.455,492.292 381.514,492.408C381.572,492.525 381.604,492.65 381.607,492.778C381.608,493.025 381.515,493.264 381.342,493.456C381.168,493.632 380.95,493.769 380.707,493.857C380.464,493.946 380.201,493.982 379.939,493.965C379.486,493.944 379.041,493.848 378.627,493.68C377.94,493.416 377.307,493.051 376.754,492.602C376.376,492.304 376.052,491.956 375.791,491.571C375.616,491.286 375.609,491.096 375.632,491.096C375.654,491.096 375.715,491.252 375.92,491.496C376.216,491.837 376.557,492.144 376.936,492.412C377.489,492.813 378.105,493.14 378.764,493.382C379.142,493.523 379.545,493.604 379.954,493.619C380.154,493.633 380.355,493.605 380.541,493.54C380.728,493.474 380.895,493.371 381.031,493.239C381.153,493.115 381.22,492.956 381.22,492.792C381.22,492.627 381.153,492.468 381.031,492.344C380.743,492.1 380.356,491.862 380.053,491.666L378.324,490.398C377.771,490.047 377.263,489.645 376.807,489.197L376.807,489.197Z" transform="rotate(360 378.615 491.583)" fill="#192817"/>
<path d="M373.109,493.836C373.109,493.836 372.844,493.714 372.601,493.375C372.284,492.925 372.106,492.408 372.086,491.876C372.055,491.349 372.178,490.823 372.442,490.35C372.654,489.991 372.867,489.821 372.905,489.848C372.649,490.503 372.505,491.189 372.48,491.883C372.576,492.559 372.788,493.218 373.109,493.836L373.109,493.836Z" transform="rotate(360 372.595 491.841)" fill="#192817"/>
<path d="M375.39,491.402C375.554,491.677 375.819,491.894 376.14,492.015C376.462,492.137 376.821,492.155 377.156,492.068C377.491,491.98 377.782,491.792 377.98,491.534C378.177,491.277 378.27,490.967 378.242,490.656C378.174,490.278 378.021,489.916 377.791,489.593C377.562,489.27 377.261,488.992 376.907,488.777L373.957,486.39Z" transform="rotate(360 376.102 489.256)" fill="#FFBE9D"/>
<path d="M373.751,486.362C374.199,486.596 374.614,486.876 374.988,487.197L376.254,488.166C376.806,488.557 377.314,488.996 377.771,489.475C378.005,489.749 378.162,490.071 378.226,490.411C378.286,490.741 378.216,491.079 378.029,491.368C377.883,491.612 377.664,491.815 377.396,491.954C377.128,492.093 376.822,492.163 376.512,492.154C376.106,492.137 375.722,491.984 375.435,491.727C375.238,491.544 375.192,491.408 375.207,491.401C375.223,491.395 375.329,491.49 375.534,491.625C375.82,491.81 376.166,491.908 376.519,491.903C376.768,491.896 377.009,491.829 377.218,491.71C377.428,491.59 377.598,491.423 377.71,491.225C377.838,490.975 377.882,490.697 377.836,490.424C377.79,490.152 377.657,489.898 377.452,489.692C377.016,489.238 376.542,488.814 376.034,488.424L374.821,487.393C374.414,487.095 374.054,486.748 373.751,486.362L373.751,486.362Z" transform="rotate(360 375.999 489.259)" fill="#192817"/>
<path d="M373.323,485.963C370.944,486.471 368.672,487.321 366.597,488.479C366.464,488.537 366.359,488.635 366.301,488.757C366.24,488.933 366.392,489.103 366.551,489.218C367.205,489.613 368,489.776 368.781,489.672C369.549,489.563 370.324,489.49 371.101,489.455C372.451,489.455 373.695,490.059 374.999,490.384C376.304,490.71 377.881,490.696 378.791,489.788Z" transform="rotate(360 372.539 488.271)" fill="#FFBE9D"/>
<path d="M379.003,489.788C379.003,489.788 379.003,489.855 378.881,489.95C378.738,490.089 378.571,490.208 378.388,490.303C377.694,490.641 376.895,490.767 376.113,490.663C375,490.491 373.908,490.223 372.852,489.862C372.242,489.692 371.603,489.614 370.964,489.632C370.297,489.666 369.607,489.815 368.848,489.855C368.092,489.935 367.329,489.771 366.694,489.394C366.51,489.289 366.375,489.128 366.315,488.94C366.286,488.822 366.307,488.698 366.376,488.594C366.436,488.513 366.513,488.444 366.603,488.391C366.899,488.221 367.172,488.085 367.453,487.943C368.423,487.447 369.438,487.022 370.486,486.675C371.197,486.438 371.924,486.241 372.663,486.085C372.931,486.011 373.209,485.97 373.489,485.963C373.489,486.024 372.344,486.261 370.585,486.905C369.557,487.284 368.559,487.723 367.597,488.221C367.332,488.363 367.043,488.519 366.785,488.669C366.664,488.75 366.626,488.797 366.649,488.865C366.693,488.97 366.776,489.059 366.884,489.116C367.449,489.438 368.122,489.575 368.788,489.503C369.493,489.462 370.198,489.32 370.903,489.293C371.587,489.275 372.27,489.362 372.921,489.55C373.953,489.919 375.019,490.209 376.106,490.418C376.831,490.529 377.577,490.449 378.252,490.188C378.51,490.067 378.761,489.934 379.003,489.788Z" transform="rotate(360 372.652 488.331)" fill="#192817"/>
<path d="M329.531,503.473C328.87,501.721 328.81,499.832 329.357,498.048C329.47,498.048 329.357,499.282 329.357,500.761C329.357,502.239 329.645,503.453 329.531,503.473Z" transform="rotate(360 329.272 500.761)" fill="#192817"/>
<path d="M288.904,484.898L279.288,494.589C279.288,494.589 274.146,528.058 273.782,530.689C273.418,533.32 272.44,541.716 272.44,544.015C272.44,546.314 270.309,562.747 270.309,562.747C270.309,562.747 311.116,570.329 317.949,562.747L315.818,548.674L317.668,513.768C317.668,513.768 320.702,489.536 306.445,483.928C306.422,483.914 297.413,488.777 288.904,484.898Z" transform="rotate(360 294.129 525.022)" fill="#FFFFFF"/>
<path d="M298.732,487.346C298.732,487.346 295.919,484.864 286.925,486.946C277.453,489.137 272.455,497.065 274.791,519.499C276.732,538.014 284.915,540.672 284.915,540.672C284.915,540.672 280.433,512.751 281.207,501.073C282.177,486.322 298.717,489.991 298.717,489.991C301.083,489.327 298.732,487.346 298.732,487.346Z" transform="rotate(360 286.997 513.393)" fill="#2F373A"/>
<path d="M326.366,484.898L318.055,486.946L299.353,497.186L304.677,512.31L315.658,511.232L326.366,484.898Z" transform="rotate(360 312.86 498.604)" fill="#FFFFFF"/>
<path d="M312.676,495.396C312.79,495.396 312.312,500.821 311.622,507.468C310.932,514.114 310.28,519.526 310.174,519.512C310.068,519.499 310.538,514.087 311.228,507.441C311.918,500.794 312.57,495.389 312.676,495.396Z" transform="rotate(360 311.426 507.454)" fill="#2F373A"/>
<path d="M294.128,542.401C294.128,542.401 291.474,550.031 282.093,537.43C272.712,524.83 274.024,530.465 274.024,530.465L272.106,532.5C272.106,532.5 282.427,553.286 294.007,550.031L294.128,542.401Z" transform="rotate(360 283.117 539.793)" fill="#2F373A"/>
<g opacity="0.3">
<path d="M317.949,499.031L310.555,512.005L316.667,511.408L317.949,499.031Z" transform="rotate(360 314.252 505.518)" fill="#000000"/>
</g>
<g opacity="0.3">
<g opacity="0.3">
<path d="M271.583,533.476C277.024,538.772 283.452,543.185 290.579,546.518C293.56,547.915 296.859,549.142 300.196,548.756C303.866,548.335 307.021,545.961 308.742,543.038C310.464,540.116 310.259,538.705 310.646,535.422C311.101,531.801 311.101,526.965 311.313,523.663C311.313,523.079 311.359,522.401 311.359,521.757C311.359,521.059 311.61,520.38 312.076,519.821C312.542,519.261 313.197,518.851 313.945,518.651L313.945,518.651C313.945,518.651 311.67,517.708 310.206,517.898C308.742,518.088 307.574,519.207 306.793,520.36C302.63,526.497 304.442,535.497 296.502,539.349C293.878,540.549 290.885,540.942 287.986,540.468C281.487,539.519 276.512,535.721 271.719,531.977Z" transform="rotate(360 292.764 533.35)" fill="#000000"/>
</g>
</g>
<path d="M304.966,520.774C306.956,520.774 308.568,516.438 308.568,511.089C308.568,505.741 306.956,501.405 304.966,501.405C302.977,501.405 301.364,505.741 301.364,511.089C301.364,516.438 302.977,520.774 304.966,520.774Z" transform="rotate(360 304.966 511.089)" fill="#FAFAFA"/>
<path d="M302.827,679.524L303.654,695.468C303.654,695.468 285.81,701.572 285.635,704.536L320.262,704.217L320.118,679.327L302.827,679.524Z" transform="rotate(360 302.949 691.931)" fill="#FFFFFF"/>
<g opacity="0.6">
<g opacity="0.6">
<path d="M292.166,694.031C292.498,694.119 292.783,694.314 292.966,694.577C293.149,694.841 293.218,695.156 293.159,695.462C293.073,695.764 292.86,696.025 292.566,696.191C292.271,696.357 291.916,696.417 291.574,696.357C291.222,696.259 290.922,696.051 290.729,695.77C290.537,695.489 290.465,695.156 290.528,694.831C290.656,694.525 290.911,694.275 291.24,694.132C291.569,693.99 291.946,693.965 292.295,694.065Z" transform="rotate(360 291.843 695.192)" fill="#FFFFFF"/>
</g>
</g>
<g opacity="0.6">
<path d="M320.252,704.217L320.252,701.735L286.99,702.955C286.99,702.955 285.474,703.566 285.641,704.536L320.252,704.217Z" transform="rotate(360 302.94 703.135)" fill="#FFFFFF"/>
</g>
<path d="M299.601,695.319C299.601,695.468 300.458,695.529 301.292,695.997C302.126,696.465 302.581,697.103 302.74,697.042C302.9,696.981 302.634,696.113 301.603,695.55C300.572,694.987 299.563,695.177 299.601,695.319Z" transform="rotate(360 301.191 696.108)" fill="#2F373A"/>
<path d="M304.075,696.696C304.037,696.845 304.773,697.096 305.349,697.726C305.925,698.357 306.107,699.035 306.274,699.029C306.441,699.022 306.54,698.161 305.804,697.387C305.068,696.614 304.075,696.553 304.075,696.696Z" transform="rotate(360 305.233 697.832)" fill="#2F373A"/>
<path d="M309.563,700.602C309.714,700.602 309.942,699.876 309.495,699.049C309.047,698.222 308.258,697.903 308.19,698.032C308.122,698.161 308.615,698.595 308.948,699.28C309.282,699.965 309.358,700.588 309.563,700.602Z" transform="rotate(360 308.97 699.303)" fill="#2F373A"/>
<path d="M298.92,691.664C298.996,691.806 299.769,691.589 300.725,691.664C301.68,691.738 302.424,691.976 302.515,691.847C302.606,691.718 301.878,691.169 300.748,691.135C299.618,691.101 298.837,691.555 298.92,691.664Z" transform="rotate(360 300.718 691.509)" fill="#2F373A"/>
<g opacity="0.3">
<path d="M285.711,682.684L285.855,685.526L302.873,685.227L302.865,682.664L285.711,682.684Z" transform="rotate(360 294.292 684.095)" fill="#000000"/>
</g>
<path d="M297.378,688.449C297.947,688.589 298.547,688.589 299.115,688.449C299.737,688.341 300.343,688.168 300.92,687.934C301.263,687.793 301.594,687.632 301.913,687.452C302.102,687.351 302.276,687.228 302.429,687.086C302.536,686.976 302.6,686.838 302.613,686.692C302.625,686.547 302.584,686.402 302.497,686.279C302.411,686.172 302.297,686.085 302.165,686.026C302.033,685.967 301.887,685.938 301.739,685.94C301.518,685.938 301.298,685.968 301.087,686.028C300.718,686.108 300.36,686.222 300.018,686.367C299.433,686.605 298.895,686.926 298.425,687.316C297.629,687.995 297.363,688.558 297.424,688.591C297.485,688.625 297.886,688.157 298.698,687.601C299.165,687.282 299.675,687.016 300.215,686.808C300.538,686.693 300.87,686.597 301.208,686.523C301.572,686.435 301.891,686.435 301.966,686.577C302.042,686.72 301.966,686.652 301.929,686.754C301.819,686.859 301.691,686.948 301.549,687.018C301.256,687.193 300.952,687.354 300.639,687.5C300.105,687.741 299.546,687.939 298.971,688.09C298.431,688.176 297.899,688.296 297.378,688.449L297.378,688.449Z" transform="rotate(360 299.997 687.266)" fill="#2F373A"/>
<path d="M304.269,688.659C304.596,688.217 304.751,687.69 304.709,687.161C304.734,686.586 304.647,686.013 304.451,685.465C304.339,685.14 304.189,684.826 304.004,684.529C303.908,684.325 303.755,684.147 303.56,684.012C303.365,683.876 303.134,683.788 302.889,683.756C302.734,683.754 302.581,683.794 302.452,683.872C302.324,683.949 302.224,684.061 302.169,684.19C302.08,684.371 302.021,684.563 301.994,684.76C301.933,685.106 301.933,685.458 301.994,685.804C302.096,686.385 302.357,686.935 302.752,687.405C303.435,688.198 304.148,688.375 304.155,688.32C304.163,688.266 303.625,687.961 303.094,687.195C302.791,686.753 302.6,686.258 302.533,685.743C302.488,685.444 302.488,685.141 302.533,684.841C302.586,684.516 302.722,684.244 302.859,684.278C302.995,684.312 303.329,684.522 303.473,684.78C303.647,685.048 303.794,685.33 303.913,685.621C304.108,686.117 304.225,686.635 304.262,687.161C304.353,688.069 304.178,688.639 304.269,688.659Z" transform="rotate(360 303.332 686.208)" fill="#2F373A"/>
<path d="M237.214,669.853L251.213,679.748C251.213,679.748 244.669,695.801 247.057,697.855L269.49,674.268L248.377,658.039L237.214,669.853Z" transform="rotate(360 253.352 677.947)" fill="#FFFFFF"/>
<g opacity="0.6">
<g opacity="0.6">
<path d="M248.153,671.582C248.446,671.414 248.798,671.348 249.142,671.397C249.486,671.445 249.798,671.606 250.018,671.847C250.216,672.103 250.297,672.417 250.245,672.724C250.193,673.032 250.011,673.31 249.738,673.502C249.425,673.675 249.053,673.741 248.691,673.687C248.328,673.634 247.999,673.464 247.766,673.21C247.588,672.924 247.541,672.587 247.636,672.27C247.731,671.954 247.96,671.683 248.274,671.515Z" transform="rotate(360 248.924 672.543)" fill="#FFFFFF"/>
</g>
</g>
<g opacity="0.6">
<path d="M260.227,674.261L258.126,672.64L237.339,695.902C237.339,695.902 236.854,697.34 237.794,697.849L260.227,674.261Z" transform="rotate(360 248.721 685.245)" fill="#FFFFFF"/>
</g>
<path d="M252.484,680.026C252.62,680.121 253.242,679.585 254.183,679.348C255.123,679.11 255.965,679.205 256.01,679.063C256.056,678.92 255.153,678.52 254.008,678.846C252.863,679.171 252.347,679.958 252.484,680.026Z" transform="rotate(360 254.237 679.379)" fill="#2F373A"/>
<path d="M253.788,683.369C253.886,683.491 254.546,683.159 255.502,683.179C256.457,683.2 257.102,683.532 257.2,683.41C257.299,683.288 256.647,682.664 255.509,682.657C254.372,682.65 253.666,683.274 253.788,683.369Z" transform="rotate(360 255.492 683.047)" fill="#2F373A"/>
<path d="M258.272,687.289C258.401,687.208 257.908,686.557 256.922,686.319C255.936,686.082 255.147,686.401 255.208,686.53C255.269,686.658 255.966,686.618 256.77,686.828C257.574,687.038 258.15,687.398 258.272,687.289Z" transform="rotate(360 256.748 686.771)" fill="#2F373A"/>
<path d="M256.488,677.449C256.647,677.489 256.973,676.831 257.64,676.214C258.308,675.597 259.02,675.272 258.967,675.122C258.914,674.973 257.989,675.122 257.216,675.855C256.442,676.587 256.298,677.428 256.488,677.449Z" transform="rotate(360 257.691 676.26)" fill="#2F373A"/>
<g opacity="0.3">
<path d="M253.314,671.799L255.809,673.57L266.715,661.884L264.546,660.209L253.314,671.799Z" transform="rotate(360 260.014 666.889)" fill="#000000"/>
</g>
<path d="M259.833,675.408C259.879,675.448 260.394,675.055 260.948,674.221C261.27,673.73 261.525,673.206 261.706,672.661C261.81,672.338 261.891,672.01 261.949,671.678C261.981,671.482 261.981,671.283 261.949,671.088C261.926,670.943 261.852,670.809 261.737,670.705C261.623,670.601 261.474,670.533 261.312,670.511C261.17,670.503 261.028,670.523 260.897,670.572C260.765,670.62 260.648,670.694 260.554,670.789C260.409,670.938 260.289,671.105 260.197,671.284C260.03,671.59 259.891,671.908 259.78,672.234C259.603,672.787 259.523,673.361 259.545,673.936C259.506,674.463 259.649,674.989 259.955,675.442C260.053,675.442 259.902,674.852 259.955,673.936C260.013,673.092 260.272,672.269 260.713,671.522C260.88,671.216 261.077,671.006 261.259,671.033C261.441,671.06 261.35,671.033 261.388,671.169C261.409,671.315 261.409,671.463 261.388,671.61C261.34,671.92 261.274,672.228 261.191,672.532C261.045,673.054 260.844,673.563 260.592,674.051C260.298,674.484 260.045,674.938 259.833,675.408L259.833,675.408Z" transform="rotate(360 260.756 672.975)" fill="#2F373A"/>
<path d="M266.587,675.401C266.64,675.401 266.397,674.79 265.609,674.119C265.139,673.726 264.598,673.407 264.009,673.176C263.657,673.04 263.291,672.935 262.917,672.864C262.682,672.796 262.431,672.784 262.19,672.828C261.948,672.871 261.723,672.971 261.536,673.115C261.439,673.222 261.378,673.351 261.359,673.488C261.34,673.625 261.365,673.763 261.43,673.888C261.528,674.066 261.653,674.23 261.802,674.376C262.058,674.641 262.357,674.869 262.689,675.055C263.246,675.363 263.878,675.547 264.532,675.59C265.654,675.645 266.269,675.285 266.231,675.238C265.683,675.272 265.133,675.272 264.585,675.238C264.012,675.152 263.467,674.957 262.985,674.668C262.702,674.499 262.447,674.296 262.226,674.065C261.984,673.814 261.847,673.549 261.961,673.474C262.085,673.41 262.222,673.369 262.365,673.355C262.507,673.341 262.651,673.354 262.788,673.393C263.126,673.452 263.458,673.535 263.781,673.644C264.323,673.839 264.834,674.099 265.298,674.417C266.147,674.953 266.511,675.448 266.587,675.401Z" transform="rotate(360 263.973 674.199)" fill="#2F373A"/>
<path d="M270.249,612.071C270.249,612.071 271.174,573.984 270.249,573.984C269.324,573.984 262.756,570.634 262.756,570.634L254.551,627.229C254.551,627.229 253.793,633.584 262.605,638.08C271.417,642.576 310.708,673.814 310.708,673.814L324.024,659.307C324.024,659.307 298.157,635.198 287.623,627.229C279.281,621.024 270.249,612.071 270.249,612.071Z" transform="rotate(360 289.279 622.224)" fill="#2F373A"/>
<path d="M307.69,603.194L308.592,597.165C308.592,597.165 315.068,584.957 315.994,579.762C316.919,574.567 316.312,563.31 316.312,563.31L275.399,563.31C275.399,563.31 275.573,604.618 280.51,616.208C280.51,616.208 283.013,638.385 283.384,640.243C284.143,644.19 286.895,684.57 286.895,684.57L307.523,683.891C307.523,683.891 309.313,646.767 307.879,636.228C307.174,631.006 306.84,625.445 306.681,620.847C306.486,614.948 306.824,609.044 307.69,603.194L307.69,603.194Z" transform="rotate(360 295.953 623.94)" fill="#2F373A"/>
<path d="M308.053,575.361C308.061,575.42 308.061,575.479 308.053,575.537C308.053,575.68 308.053,575.856 308.091,576.073C308.091,576.568 308.152,577.26 308.197,578.108C308.273,579.891 308.425,582.475 308.629,585.663C309.039,592.038 309.805,600.834 310.904,610.525C312.004,620.216 313.24,628.972 314.112,635.313C314.545,638.46 314.871,641.016 315.136,642.82C315.25,643.688 315.341,644.367 315.402,644.855C315.402,645.072 315.447,645.248 315.462,645.391C315.477,645.533 315.462,645.574 315.462,645.574C315.437,645.517 315.42,645.458 315.409,645.397L315.318,644.868L314.977,642.834C314.704,641.037 314.31,638.48 313.824,635.34C312.884,629.006 311.633,620.25 310.503,610.552C309.373,600.854 308.66,592.051 308.318,585.669C308.144,582.475 308.045,579.891 308.015,578.108C308.015,577.233 308.015,576.548 307.977,576.073L307.977,575.544C307.995,575.481 308.021,575.419 308.053,575.361Z" transform="rotate(360 311.723 610.467)" fill="#455A64"/>
<path d="M283.149,624.252C283.207,624.447 283.248,624.647 283.27,624.849C283.331,625.269 283.422,625.845 283.536,626.571C283.74,628.077 283.998,630.254 284.233,632.946C284.719,638.338 285.083,645.832 285.219,654.051C285.356,662.271 285.219,669.779 284.855,675.177C284.703,677.89 284.506,680.06 284.347,681.565C284.256,682.291 284.18,682.868 284.127,683.295C284.111,683.498 284.078,683.7 284.028,683.898C284.008,683.695 284.008,683.491 284.028,683.288C284.066,682.861 284.112,682.284 284.173,681.552C284.286,680.046 284.438,677.863 284.559,675.163C284.81,669.772 284.916,662.278 284.802,654.058C284.688,645.839 284.347,638.351 283.93,632.966C283.733,630.254 283.52,628.09 283.361,626.585C283.278,625.859 283.209,625.283 283.164,624.855C283.14,624.655 283.135,624.453 283.149,624.252L283.149,624.252Z" transform="rotate(360 284.206 654.075)" fill="#455A64"/>
<path d="M268.999,486.498C268.999,486.498 275.695,488.092 277.121,497.017C278.546,505.942 275.907,508.492 275.907,508.492C275.907,508.492 276.992,491.876 268.672,489.611L268.999,486.824Z" transform="rotate(360 273.108 497.495)" fill="#2F373A"/>
<path d="M357.407,515.647L322.841,515.043L323.243,516.542L357.24,516.989L357.407,515.647Z" transform="rotate(360 340.124 516.016)" fill="#2F373A"/>
<path d="M284.227,489.299C282.931,489.016 281.566,489.123 280.344,489.604C277.546,490.655 272.42,493.673 272.055,502.245L271.464,516.06L293.57,518.651C293.57,518.651 295.451,491.971 284.227,489.299Z" transform="rotate(360 282.576 503.897)" fill="#FFFFFF"/>
<path d="M279.652,518.57L307.712,526.111L308.129,516.02L324.919,518.203L323.978,534.616C323.883,536.958 322.93,539.207 321.265,541.017C319.6,542.827 317.316,544.097 314.764,544.633L314.764,544.633C311.83,545.246 308.745,544.846 306.127,543.514L276.346,528.37L279.652,518.57Z" transform="rotate(360 300.632 530.467)" fill="#FFBE9D"/>
<path d="M293.841,518.651C293.841,518.651 293.841,518.563 293.841,518.414C293.841,518.264 293.841,518.02 293.803,517.735C293.803,517.132 293.75,516.284 293.705,515.199C293.629,512.995 293.515,509.848 293.379,505.962C293.31,504.023 293.242,501.893 293.174,499.614C293.174,499.045 293.136,498.461 293.113,497.871C293.113,497.587 293.053,497.295 293.015,496.996C292.977,496.698 292.901,496.413 292.81,496.122C292.251,494.23 291.03,492.547 289.326,491.32C287.622,490.093 285.524,489.385 283.338,489.299C281.768,489.286 280.227,489.679 278.902,490.432C277.533,491.212 276.364,492.243 275.474,493.456C274.202,495.202 273.343,497.161 272.948,499.214C272.561,501.182 272.33,503.172 272.258,505.169C272.137,509.061 272.023,512.724 271.917,516.054L271.773,515.898L287.752,517.851L292.241,518.414L293.447,518.617L293.864,518.685L293.447,518.617L292.287,518.502L287.82,518.014L271.705,516.21L271.561,516.21L271.561,516.074C271.652,512.737 271.72,509.082 271.864,505.182C271.925,503.167 272.15,501.159 272.539,499.173C272.94,497.073 273.821,495.07 275.125,493.287C276.046,492.031 277.256,490.965 278.674,490.16C280.062,489.371 281.678,488.96 283.323,488.98C284.864,489.039 286.371,489.398 287.74,490.033C289.109,490.668 290.306,491.564 291.248,492.656C292.128,493.659 292.768,494.813 293.128,496.047C293.212,496.345 293.265,496.651 293.333,496.956C293.401,497.261 293.401,497.559 293.432,497.865C293.432,498.455 293.432,499.045 293.477,499.621C293.53,501.927 293.576,504.077 293.621,506.037C293.697,509.93 293.758,513.083 293.803,515.287C293.803,516.352 293.803,517.193 293.841,517.783L293.841,518.461C293.848,518.524 293.848,518.588 293.841,518.651Z" transform="rotate(360 282.712 503.832)" fill="#2F373A"/>
<path d="M351.673,518.868L344.939,514.412C343.711,513.599 341.8,513.734 340.275,513.646C337.242,513.402 332.29,515.002 332.1,515.314L334.132,516.766L321.043,516.406C321.492,517.203 322.174,517.876 323.017,518.353C323.86,518.831 324.831,519.096 325.828,519.119C325.828,519.119 326.245,521.764 330.045,522.266C330.045,522.266 331.031,524.409 333.147,525.033C333.147,525.033 333.564,527.427 336.938,527.298L348.412,528.444L351.673,518.868Z" transform="rotate(360 336.358 521.032)" fill="#FFBE9D"/>
<path d="M346.98,519.533C345.599,519.64 344.209,519.627 342.831,519.492C341.448,519.483 340.068,519.352 338.714,519.099C340.092,518.999 341.478,519.013 342.854,519.139C344.24,519.157 345.621,519.288 346.98,519.533Z" transform="rotate(360 342.847 519.319)" fill="#192817"/>
<path d="M342.642,522.354C341.444,522.528 340.229,522.587 339.017,522.53C337.805,522.587 336.59,522.528 335.392,522.354C336.589,522.176 337.805,522.117 339.017,522.178C340.229,522.117 341.444,522.176 342.642,522.354L342.642,522.354Z" transform="rotate(360 339.017 522.353)" fill="#192817"/>
<path d="M339.077,525.013C337.88,525.191 336.664,525.25 335.452,525.189C334.243,525.25 333.03,525.191 331.835,525.013C333.03,524.838 334.243,524.779 335.452,524.836C336.664,524.779 337.879,524.839 339.077,525.013L339.077,525.013Z" transform="rotate(360 335.456 525.014)" fill="#192817"/>
<path d="M293.697,531.231C293.143,530.473 292.724,529.642 292.453,528.77C292.046,527.939 291.79,527.055 291.695,526.152C292.157,526.95 292.526,527.788 292.794,528.654C293.197,529.482 293.499,530.346 293.697,531.231L293.697,531.231Z" transform="rotate(360 292.696 528.692)" fill="#192817"/>
<path d="M293.764,530.255C292.985,529.609 292.277,528.898 291.649,528.132C290.918,527.445 290.265,526.695 289.7,525.894C290.57,526.464 291.337,527.15 291.975,527.929C292.695,528.622 293.298,529.405 293.764,530.255L293.764,530.255Z" transform="rotate(360 291.732 528.074)" fill="#192817"/>
</svg>
