<svg width="22" height="28" viewBox="0 0 22 28" fill="none" xmlns="http://www.w3.org/2000/svg" xmlns:xlink="http://www.w3.org/1999/xlink">
<line x1="0.461" y1="11.604" x2="19.551" y2="11.604" stroke="#FFFFFF" stroke-width="2" stroke-miterlimit="3.999327" stroke-linecap="round" stroke-linejoin="round"/>
<path d="M11.5,1.54C10.767,0.715 9.502,0.641 8.677,1.375C7.851,2.109 7.777,3.373 8.511,4.198L11.5,1.54ZM19.551,13.604L21.045,14.933C21.719,14.175 21.719,13.033 21.045,12.275L19.551,13.604ZM8.511,23.01C7.777,23.835 7.851,25.099 8.677,25.833C9.502,26.567 10.767,26.493 11.5,25.668L8.511,23.01ZM8.511,4.198L18.056,14.933L21.045,12.275L11.5,1.54L8.511,4.198ZM18.056,12.275L8.511,23.01L11.5,25.668L21.045,14.933L18.056,12.275Z" fill="#FFFFFF"/>
</svg>
