<svg width="36" height="36" viewBox="0 0 36 36" fill="none" xmlns="http://www.w3.org/2000/svg" xmlns:xlink="http://www.w3.org/1999/xlink">
<path d="M29.667,6.333L28.748,7.252L28.748,7.252L29.667,6.333ZM29.667,29.667L28.748,28.748L28.748,28.748L29.667,29.667ZM6.333,29.667L7.252,28.748L7.252,28.748L6.333,29.667ZM6.333,6.333L7.252,7.252L7.252,7.252L6.333,6.333ZM28.748,7.252C34.684,13.188 34.684,22.812 28.748,28.748L30.586,30.586C37.538,23.635 37.538,12.365 30.586,5.413L28.748,7.252ZM28.748,28.748C22.812,34.684 13.188,34.684 7.252,28.748L5.413,30.586C12.365,37.538 23.635,37.538 30.586,30.586L28.748,28.748ZM7.252,28.748C1.316,22.812 1.316,13.188 7.252,7.252L5.413,5.413C-1.538,12.365 -1.538,23.635 5.413,30.586L7.252,28.748ZM7.252,7.252C13.188,1.316 22.812,1.316 28.748,7.252L30.586,5.413C23.635,-1.538 12.365,-1.538 5.413,5.413L7.252,7.252Z" fill="#A2A2A7"/>
<path d="M21.647,11.26L20.727,12.18L20.727,12.18L21.647,11.26ZM21.647,18.554L20.727,17.635L20.727,17.635L21.647,18.554ZM14.353,18.554L15.273,17.635L15.273,17.635L14.353,18.554ZM14.353,11.26L15.273,12.18L15.273,12.18L14.353,11.26ZM20.727,12.18C22.234,13.686 22.234,16.128 20.727,17.635L22.566,19.473C25.087,16.951 25.087,12.863 22.566,10.341L20.727,12.18ZM20.727,17.635C19.221,19.141 16.779,19.141 15.273,17.635L13.434,19.473C15.956,21.995 20.044,21.995 22.566,19.473L20.727,17.635ZM15.273,17.635C13.766,16.128 13.766,13.686 15.273,12.18L13.434,10.341C10.912,12.863 10.912,16.951 13.434,19.473L15.273,17.635ZM15.273,12.18C16.779,10.673 19.221,10.673 20.727,12.18L22.566,10.341C20.044,7.82 15.956,7.82 13.434,10.341L15.273,12.18Z" fill="#A2A2A7"/>
<path d="M27.52,31.652C28.015,32.172 28.837,32.193 29.358,31.699C29.879,31.205 29.9,30.382 29.406,29.861L27.52,31.652ZM6.594,29.863C6.1,30.384 6.121,31.207 6.642,31.701C7.163,32.195 7.986,32.174 8.48,31.653L6.594,29.863ZM29.406,29.861C26.541,26.845 22.495,24.95 18,24.95L18,27.55C21.748,27.55 25.123,29.127 27.52,31.652L29.406,29.861ZM18,24.95C13.505,24.95 9.458,26.845 6.594,29.863L8.48,31.653C10.878,29.127 14.252,27.55 18,27.55L18,24.95Z" fill="#A2A2A7"/>
</svg>
