<svg width="32" height="26" viewBox="0 0 32 26" fill="none" xmlns="http://www.w3.org/2000/svg" xmlns:xlink="http://www.w3.org/1999/xlink">
<path d="M12.67,15.337L13.59,14.418L13.589,14.418L12.67,15.337ZM12.67,8.663L11.751,7.744L11.75,7.745L12.67,8.663ZM19.344,8.663L20.264,7.744L20.263,7.743L19.344,8.663ZM19.344,15.337L20.264,16.256L20.265,16.255L19.344,15.337ZM13.589,14.418C12.256,13.085 12.255,10.919 13.59,9.581L11.75,7.745C9.403,10.097 9.401,13.907 11.751,16.256L13.589,14.418ZM13.589,9.582C14.923,8.249 17.088,8.248 18.426,9.583L20.263,7.743C17.911,5.395 14.101,5.394 11.751,7.744L13.589,9.582ZM18.425,9.582C19.758,10.915 19.76,13.081 18.424,14.419L20.265,16.255C22.612,13.903 22.613,10.093 20.264,7.744L18.425,9.582ZM18.425,14.418C17.088,15.756 14.925,15.755 13.59,14.418L11.75,16.256C14.102,18.61 17.911,18.609 20.264,16.256L18.425,14.418Z" fill="#A2A2A7"/>
<path d="M29.953,15.011L31.112,15.599L31.113,15.598L29.953,15.011ZM2.06,15.011L0.901,15.598L0.901,15.599L2.06,15.011ZM2.06,8.998L0.901,8.41L0.901,8.411L2.06,8.998ZM29.953,8.998L31.113,8.411L31.112,8.41L29.953,8.998ZM29.38,12.005C29.38,12.832 29.182,13.657 28.794,14.423L31.113,15.598C31.682,14.476 31.98,13.249 31.98,12.005L29.38,12.005ZM28.794,14.422C26.572,18.801 21.597,21.709 16.007,21.709L16.007,24.309C22.452,24.309 28.394,20.956 31.112,15.599L28.794,14.422ZM16.007,21.709C10.417,21.709 5.442,18.801 3.22,14.422L0.901,15.599C3.62,20.956 9.562,24.309 16.007,24.309L16.007,21.709ZM3.22,14.423C2.831,13.657 2.634,12.832 2.634,12.005L0.034,12.005C0.034,13.249 0.332,14.476 0.901,15.598L3.22,14.423ZM2.634,12.005C2.634,11.177 2.831,10.353 3.22,9.586L0.901,8.411C0.332,9.533 0.034,10.76 0.034,12.005L2.634,12.005ZM3.22,9.587C5.442,5.208 10.417,2.3 16.007,2.3L16.007,-0.3C9.562,-0.3 3.62,3.053 0.901,8.41L3.22,9.587ZM16.007,2.3C21.597,2.3 26.572,5.208 28.794,9.587L31.112,8.41C28.394,3.053 22.452,-0.3 16.007,-0.3L16.007,2.3ZM28.794,9.586C29.182,10.353 29.38,11.177 29.38,12.005L31.98,12.005C31.98,10.76 31.682,9.533 31.113,8.411L28.794,9.586Z" fill="#A2A2A7"/>
</svg>
