<svg width="84" height="84" viewBox="0 0 84 84" fill="none" xmlns="http://www.w3.org/2000/svg" xmlns:xlink="http://www.w3.org/1999/xlink">
<path d="M84,41.731C84,64.342 65.196,82.672 42,82.672C18.804,82.672 0,64.342 0,41.731C0,19.12 18.804,0.79 42,0.79C65.196,0.79 84,19.12 84,41.731Z" fill="#F4F4F4"/>
<path d="M39.098,53.916C39.098,53.198 38.516,52.616 37.798,52.616C37.08,52.616 36.498,53.198 36.498,53.916L39.098,53.916ZM47.502,53.915C47.502,53.197 46.92,52.615 46.202,52.615C45.484,52.615 44.902,53.197 44.902,53.915L47.502,53.915ZM36.498,53.916L36.498,54.586L39.098,54.586L39.098,53.916L36.498,53.916ZM36.498,54.586C36.498,57.623 38.962,60.086 42,60.086L42,57.486C40.397,57.486 39.098,56.186 39.098,54.586L36.498,54.586ZM42,60.086C45.039,60.086 47.502,57.623 47.502,54.584L44.902,54.584C44.902,56.187 43.603,57.486 42,57.486L42,60.086ZM47.502,54.584L47.502,53.915L44.902,53.915L44.902,54.584L47.502,54.584Z" fill="#1E1E2D"/>
<path d="M44.061,30.829C44.061,31.547 44.643,32.129 45.361,32.129C46.079,32.129 46.661,31.547 46.661,30.829L44.061,30.829ZM37.34,30.829C37.34,31.547 37.922,32.129 38.64,32.129C39.358,32.129 39.94,31.547 39.94,30.829L37.34,30.829ZM46.661,30.829L46.661,29.146L44.061,29.146L44.061,30.829L46.661,30.829ZM46.661,29.146C46.661,26.573 44.576,24.486 42,24.486L42,27.086C43.139,27.086 44.061,28.008 44.061,29.146L46.661,29.146ZM42,24.486C39.425,24.486 37.34,26.573 37.34,29.146L39.94,29.146C39.94,28.008 40.861,27.086 42,27.086L42,24.486ZM37.34,29.146L37.34,30.829L39.94,30.829L39.94,29.146L37.34,29.146Z" fill="#1E1E2D"/>
<path d="M29.783,47.859L30.702,48.778L30.702,48.778L29.783,47.859ZM30.958,46.684L30.039,45.765L30.039,45.765L30.958,46.684ZM33.332,38.964C33.332,35.093 36.47,31.957 40.339,31.957L40.339,29.357C35.034,29.357 30.732,33.657 30.732,38.964L33.332,38.964ZM40.339,31.957L43.663,31.957L43.663,29.357L40.339,29.357L40.339,31.957ZM43.663,31.957C47.534,31.957 50.67,35.094 50.67,38.964L53.27,38.964C53.27,33.659 48.97,29.357 43.663,29.357L43.663,31.957ZM50.67,38.964L50.67,44.092L53.27,44.092L53.27,38.964L50.67,38.964ZM50.67,44.092C50.67,45.408 51.194,46.672 52.125,47.603L53.963,45.765C53.519,45.321 53.27,44.718 53.27,44.092L50.67,44.092ZM52.125,47.603L53.3,48.778L55.138,46.94L53.963,45.765L52.125,47.603ZM53.3,48.778C53.744,49.222 53.994,49.825 53.994,50.451L56.594,50.451C56.594,49.135 56.069,47.871 55.138,46.94L53.3,48.778ZM53.994,50.451C53.994,51.647 53.025,52.616 51.829,52.616L51.829,55.216C54.461,55.216 56.594,53.083 56.594,50.451L53.994,50.451ZM51.829,52.616L32.173,52.616L32.173,55.216L51.829,55.216L51.829,52.616ZM32.173,52.616C30.977,52.616 30.008,51.647 30.008,50.451L27.408,50.451C27.408,53.083 29.542,55.216 32.173,55.216L32.173,52.616ZM30.008,50.451C30.008,49.825 30.258,49.222 30.702,48.778L28.864,46.94C27.933,47.871 27.408,49.135 27.408,50.451L30.008,50.451ZM30.702,48.778L31.877,47.603L30.039,45.765L28.864,46.94L30.702,48.778ZM31.877,47.603C32.808,46.672 33.332,45.408 33.332,44.092L30.732,44.092C30.732,44.718 30.483,45.321 30.039,45.765L31.877,47.603ZM33.332,44.092L33.332,38.964L30.732,38.964L30.732,44.092L33.332,44.092Z" fill="#1E1E2D"/>
<path d="M60.8,31.264C60.8,34.033 58.382,36.277 55.4,36.277C52.418,36.277 50,34.033 50,31.264C50,28.496 52.418,26.252 55.4,26.252C58.382,26.252 60.8,28.496 60.8,31.264Z" fill="#FF0000"/>
</svg>
