<svg width="730" height="484" viewBox="0 0 730 484" fill="none" xmlns="http://www.w3.org/2000/svg" xmlns:xlink="http://www.w3.org/1999/xlink">
<g opacity="0.4">
<path d="M493.74,213.816C494.652,212.939 496.094,212.939 497.005,213.816L497.005,213.816C497.652,214.439 498.602,214.637 499.446,214.331L499.446,214.331C500.631,213.901 501.952,214.483 502.426,215.651L502.426,215.651C502.762,216.482 503.551,217.048 504.445,217.11L504.445,217.11C505.701,217.196 506.673,218.264 506.628,219.521L506.628,219.521C506.596,220.416 507.082,221.252 507.874,221.67L507.874,221.67C508.988,222.258 509.438,223.628 508.883,224.758L508.883,224.758C508.488,225.561 508.589,226.52 509.143,227.224L509.143,227.224C509.922,228.214 509.77,229.648 508.801,230.454L508.801,230.454C508.114,231.027 507.814,231.945 508.032,232.813L508.032,232.813C508.339,234.033 507.611,235.28 506.401,235.624L506.401,235.624C505.539,235.869 504.887,236.586 504.731,237.468L504.731,237.468C504.512,238.708 503.34,239.551 502.093,239.376L502.093,239.376C501.204,239.251 500.315,239.641 499.812,240.384L499.812,240.384C499.104,241.43 497.693,241.727 496.621,241.06L496.621,241.06C495.858,240.585 494.888,240.585 494.125,241.06L494.125,241.06C493.053,241.727 491.641,241.43 490.933,240.384L490.933,240.384C490.43,239.641 489.542,239.251 488.653,239.376L488.653,239.376C487.406,239.551 486.234,238.708 486.015,237.468L486.015,237.468C485.859,236.586 485.207,235.869 484.345,235.624L484.345,235.624C483.135,235.28 482.407,234.033 482.714,232.813L482.714,232.813C482.932,231.945 482.632,231.027 481.944,230.454L481.944,230.454C480.976,229.648 480.823,228.214 481.603,227.224L481.603,227.224C482.156,226.52 482.257,225.561 481.863,224.758L481.863,224.758C481.307,223.628 481.758,222.258 482.872,221.67L482.872,221.67C483.663,221.252 484.15,220.416 484.118,219.521L484.118,219.521C484.073,218.264 485.045,217.196 486.301,217.11L486.301,217.11C487.195,217.048 487.983,216.482 488.32,215.651L488.32,215.651C488.794,214.483 490.115,213.901 491.3,214.331L491.3,214.331C492.144,214.637 493.093,214.439 493.74,213.816L493.74,213.816Z" fill="#FF0707"/>
</g>
<g opacity="0.4">
<path d="M188.666,159.632C189.578,158.755 191.019,158.755 191.931,159.632L191.931,159.632C192.578,160.254 193.528,160.453 194.372,160.146L194.372,160.146C195.557,159.716 196.878,160.298 197.352,161.467L197.352,161.467C197.688,162.297 198.477,162.864 199.371,162.925L199.371,162.925C200.626,163.012 201.599,164.079 201.553,165.337L201.553,165.337C201.521,166.232 202.008,167.068 202.8,167.486L202.8,167.486C203.913,168.074 204.364,169.444 203.809,170.574L203.809,170.574C203.414,171.377 203.515,172.336 204.069,173.039L204.069,173.039C204.848,174.03 204.696,175.463 203.727,176.27L203.727,176.27C203.04,176.843 202.74,177.76 202.958,178.628L202.958,178.628C203.265,179.849 202.537,181.095 201.326,181.439L201.326,181.439C200.465,181.684 199.813,182.402 199.657,183.284L199.657,183.284C199.438,184.524 198.266,185.367 197.018,185.191L197.018,185.191C196.13,185.066 195.241,185.457 194.738,186.2L194.738,186.2C194.03,187.246 192.619,187.543 191.547,186.875L191.547,186.875C190.784,186.401 189.813,186.401 189.051,186.875L189.051,186.875C187.979,187.543 186.567,187.246 185.859,186.2L185.859,186.2C185.356,185.457 184.467,185.066 183.579,185.191L183.579,185.191C182.332,185.367 181.159,184.524 180.94,183.284L180.94,183.284C180.785,182.402 180.132,181.684 179.271,181.439L179.271,181.439C178.061,181.095 177.333,179.849 177.639,178.628L177.639,178.628C177.858,177.76 177.558,176.843 176.87,176.27L176.87,176.27C175.902,175.463 175.749,174.03 176.529,173.039L176.529,173.039C177.082,172.336 177.183,171.377 176.789,170.574L176.789,170.574C176.233,169.444 176.684,168.074 177.797,167.486L177.797,167.486C178.589,167.068 179.076,166.232 179.044,165.337L179.044,165.337C178.999,164.079 179.971,163.012 181.227,162.925L181.227,162.925C182.121,162.864 182.909,162.297 183.246,161.467L183.246,161.467C183.719,160.298 185.04,159.716 186.226,160.146L186.226,160.146C187.07,160.453 188.019,160.254 188.666,159.632L188.666,159.632Z" fill="#FF0707"/>
</g>
<path d="M355.106,179.106C361.031,173.405 370.402,173.405 376.327,179.106L376.327,179.106C380.533,183.152 386.705,184.442 392.191,182.451L392.191,182.451C399.896,179.655 408.481,183.437 411.56,191.034L411.56,191.034C413.748,196.433 418.873,200.116 424.686,200.515L424.686,200.515C432.846,201.076 439.166,208.015 438.872,216.19L438.872,216.19C438.664,222.005 441.829,227.441 446.974,230.157L446.974,230.157C454.212,233.977 457.142,242.883 453.533,250.228L453.533,250.228C450.967,255.45 451.624,261.682 455.222,266.254L455.222,266.254C460.288,272.693 459.296,282.01 453.002,287.254L453.002,287.254C448.532,290.978 446.583,296.943 448.002,302.584L448.002,302.584C449.997,310.516 445.264,318.617 437.397,320.854L437.397,320.854C431.797,322.447 427.557,327.11 426.545,332.843L426.545,332.843C425.123,340.905 417.501,346.381 409.394,345.242L409.394,345.242C403.62,344.43 397.842,346.97 394.573,351.799L394.573,351.799C389.971,358.597 380.797,360.528 373.828,356.189L373.828,356.189C368.871,353.103 362.562,353.103 357.605,356.189L357.605,356.189C350.636,360.528 341.462,358.597 336.86,351.799L336.86,351.799C333.591,346.97 327.813,344.43 322.039,345.242L322.039,345.242C313.932,346.381 306.311,340.905 304.888,332.843L304.888,332.843C303.876,327.11 299.636,322.447 294.036,320.854L294.036,320.854C286.169,318.617 281.437,310.516 283.432,302.584L283.432,302.584C284.851,296.943 282.901,290.978 278.432,287.254L278.432,287.254C272.137,282.01 271.145,272.693 276.211,266.254L276.211,266.254C279.809,261.682 280.466,255.45 277.901,250.228L277.901,250.228C274.292,242.883 277.221,233.977 284.459,230.157L284.459,230.157C289.605,227.441 292.77,222.005 292.561,216.19L292.561,216.19C292.267,208.015 298.587,201.076 306.748,200.515L306.748,200.515C312.56,200.116 317.685,196.433 319.873,191.034L319.873,191.034C322.952,183.437 331.537,179.655 339.242,182.451L339.242,182.451C344.728,184.442 350.9,183.152 355.106,179.106L355.106,179.106Z" fill="#F40000"/>
<path d="M354.284,297.998L351.463,295.162L354.284,297.998ZM320.636,272.976L348.642,300.834L354.284,295.162L326.278,267.304L320.636,272.976ZM357.105,300.834L415.618,242.632L409.976,236.96L351.463,295.162L357.105,300.834ZM348.642,300.834C350.983,303.162 354.765,303.162 357.105,300.834L351.463,295.162C352.243,294.386 353.504,294.386 354.284,295.162L348.642,300.834Z" transform="rotate(9.813 368.127 269.598)" fill="#FFFFFF"/>
<g opacity="0.4">
<path d="M222.792,332.684C223.509,331.995 224.641,331.995 225.358,332.684L225.358,332.684C225.866,333.173 226.612,333.329 227.275,333.089L227.275,333.089C228.206,332.751 229.244,333.208 229.616,334.126L229.616,334.126C229.881,334.779 230.5,335.224 231.203,335.272L231.203,335.272C232.189,335.34 232.953,336.179 232.918,337.167L232.918,337.167C232.893,337.87 233.275,338.527 233.897,338.855L233.897,338.855C234.772,339.317 235.126,340.394 234.69,341.282L234.69,341.282C234.38,341.913 234.459,342.666 234.894,343.219L234.894,343.219C235.507,343.997 235.387,345.123 234.626,345.757L234.626,345.757C234.086,346.207 233.85,346.928 234.021,347.61L234.021,347.61C234.263,348.569 233.691,349.548 232.74,349.819L232.74,349.819C232.063,350.011 231.55,350.575 231.428,351.268L231.428,351.268C231.256,352.243 230.335,352.905 229.355,352.767L229.355,352.767C228.657,352.669 227.958,352.976 227.563,353.559L227.563,353.559C227.007,354.381 225.898,354.615 225.055,354.09L225.055,354.09C224.456,353.717 223.694,353.717 223.094,354.09L223.094,354.09C222.252,354.615 221.143,354.381 220.587,353.559L220.587,353.559C220.192,352.976 219.493,352.669 218.795,352.767L218.795,352.767C217.815,352.905 216.894,352.243 216.722,351.268L216.722,351.268C216.6,350.575 216.087,350.011 215.41,349.819L215.41,349.819C214.459,349.548 213.887,348.569 214.128,347.61L214.128,347.61C214.3,346.928 214.064,346.207 213.524,345.757L213.524,345.757C212.763,345.123 212.643,343.997 213.256,343.219L213.256,343.219C213.69,342.666 213.77,341.913 213.46,341.282L213.46,341.282C213.024,340.394 213.378,339.317 214.253,338.855L214.253,338.855C214.875,338.527 215.257,337.87 215.232,337.167L215.232,337.167C215.196,336.179 215.96,335.34 216.947,335.272L216.947,335.272C217.649,335.224 218.269,334.779 218.533,334.126L218.533,334.126C218.906,333.208 219.943,332.751 220.875,333.089L220.875,333.089C221.538,333.329 222.284,333.173 222.792,332.684L222.792,332.684Z" fill="#FF0303"/>
</g>
<g opacity="0.4">
<path d="M212.363,243.374C212.819,242.936 213.54,242.936 213.996,243.374L213.996,243.374C214.319,243.685 214.794,243.785 215.216,243.631L215.216,243.631C215.809,243.416 216.469,243.707 216.706,244.292L216.706,244.292C216.874,244.707 217.269,244.99 217.716,245.021L217.716,245.021C218.343,245.064 218.83,245.598 218.807,246.227L218.807,246.227C218.791,246.674 219.034,247.092 219.43,247.301L219.43,247.301C219.987,247.595 220.212,248.28 219.935,248.845L219.935,248.845C219.737,249.247 219.788,249.726 220.065,250.078L220.065,250.078C220.454,250.573 220.378,251.29 219.894,251.693L219.894,251.693C219.55,251.98 219.4,252.438 219.509,252.872L219.509,252.872C219.663,253.483 219.299,254.106 218.693,254.278L218.693,254.278C218.263,254.4 217.937,254.759 217.859,255.2L217.859,255.2C217.749,255.82 217.163,256.241 216.539,256.154L216.539,256.154C216.095,256.091 215.651,256.287 215.399,256.658L215.399,256.658C215.045,257.181 214.34,257.33 213.804,256.996L213.804,256.996C213.422,256.758 212.937,256.758 212.556,256.996L212.556,256.996C212.02,257.33 211.314,257.181 210.96,256.658L210.96,256.658C210.708,256.287 210.264,256.091 209.82,256.154L209.82,256.154C209.196,256.241 208.61,255.82 208.5,255.2L208.5,255.2C208.423,254.759 208.096,254.4 207.666,254.278L207.666,254.278C207.061,254.106 206.697,253.483 206.85,252.872L206.85,252.872C206.959,252.438 206.809,251.98 206.465,251.693L206.465,251.693C205.981,251.29 205.905,250.573 206.295,250.078L206.295,250.078C206.571,249.726 206.622,249.247 206.425,248.845L206.425,248.845C206.147,248.28 206.372,247.595 206.929,247.301L206.929,247.301C207.325,247.092 207.568,246.674 207.552,246.227L207.552,246.227C207.53,245.598 208.016,245.064 208.644,245.021L208.644,245.021C209.091,244.99 209.485,244.707 209.653,244.292L209.653,244.292C209.89,243.707 210.55,243.416 211.143,243.631L211.143,243.631C211.565,243.785 212.04,243.685 212.363,243.374L212.363,243.374Z" fill="#FF0707"/>
</g>
<g opacity="0.4">
<path d="M452.065,308.395C452.52,307.956 453.241,307.956 453.697,308.395L453.697,308.395C454.02,308.706 454.495,308.805 454.917,308.652L454.917,308.652C455.51,308.437 456.17,308.728 456.407,309.312L456.407,309.312C456.576,309.728 456.97,310.011 457.417,310.042L457.417,310.042C458.045,310.085 458.531,310.619 458.508,311.248L458.508,311.248C458.492,311.695 458.736,312.113 459.131,312.322L459.131,312.322C459.688,312.616 459.913,313.301 459.636,313.866L459.636,313.866C459.438,314.268 459.489,314.747 459.766,315.099L459.766,315.099C460.155,315.594 460.079,316.311 459.595,316.714L459.595,316.714C459.251,317.001 459.101,317.459 459.21,317.893L459.21,317.893C459.364,318.503 459,319.127 458.395,319.299L458.395,319.299C457.964,319.421 457.638,319.78 457.56,320.221L457.56,320.221C457.45,320.841 456.864,321.262 456.241,321.175L456.241,321.175C455.796,321.112 455.352,321.308 455.101,321.679L455.101,321.679C454.746,322.202 454.041,322.351 453.505,322.017L453.505,322.017C453.123,321.779 452.638,321.779 452.257,322.017L452.257,322.017C451.721,322.351 451.015,322.202 450.661,321.679L450.661,321.679C450.41,321.308 449.965,321.112 449.521,321.175L449.521,321.175C448.897,321.262 448.311,320.841 448.202,320.221L448.202,320.221C448.124,319.78 447.798,319.421 447.367,319.299L447.367,319.299C446.762,319.127 446.398,318.503 446.551,317.893L446.551,317.893C446.66,317.459 446.51,317.001 446.167,316.714L446.167,316.714C445.682,316.311 445.606,315.594 445.996,315.099L445.996,315.099C446.272,314.747 446.323,314.268 446.126,313.866L446.126,313.866C445.848,313.301 446.073,312.616 446.63,312.322L446.63,312.322C447.026,312.113 447.269,311.695 447.253,311.248L447.253,311.248C447.231,310.619 447.717,310.085 448.345,310.042L448.345,310.042C448.792,310.011 449.186,309.728 449.354,309.312L449.354,309.312C449.591,308.728 450.252,308.437 450.844,308.652L450.844,308.652C451.266,308.805 451.741,308.706 452.065,308.395L452.065,308.395Z" fill="#FF0707"/>
</g>
</svg>
