<svg width="248" height="240" viewBox="0 0 248 240" fill="none" xmlns="http://www.w3.org/2000/svg" xmlns:xlink="http://www.w3.org/1999/xlink">
<g opacity="0.5">
<path d="M65.987,91.417C71.968,97.581 80.341,95.394 83.331,93.604C87.717,91.019 96.29,88.037 100.675,80.878C108.65,67.556 110.045,53.438 102.868,44.689C90.109,28.782 69.974,35.543 62,48.865C56.418,59.006 60.206,85.253 65.987,91.417Z" fill="#BDE5EC"/>
<path d="M68.579,49.859C68.579,54.234 65.19,57.614 60.804,57.614C56.418,57.614 53.029,54.234 53.029,49.859Z" fill="#BDE5EC"/>
<path d="M96.688,74.317C93.698,77.299 93.698,82.27 96.688,85.253C99.679,88.235 104.663,88.235 107.653,85.253C107.653,85.253 114.83,67.158 112.039,54.83C109.248,42.303 99.878,41.707 99.878,41.707C99.878,41.707 95.293,31.566 81.936,32.56C68.778,33.554 59.608,41.707 59.608,41.707C56.618,44.689 56.618,49.66 59.608,52.643C61.203,54.234 63.196,54.83 65.19,54.83C67.184,54.83 69.177,54.035 70.772,52.643Z" fill="#BDE5EC"/>
<path d="M178.823,91.417C172.843,97.581 164.47,95.394 161.479,93.604C157.093,91.019 148.521,88.037 144.135,80.878C136.161,67.556 134.765,53.438 141.942,44.689C154.701,28.782 174.836,35.543 182.81,48.865C188.392,59.006 184.605,85.253 178.823,91.417Z" fill="#BDE5EC"/>
<path d="M176.232,49.859C176.232,54.234 179.621,57.614 184.007,57.614C188.393,57.614 191.782,54.234 191.782,49.859Z" fill="#BDE5EC"/>
<path d="M148.122,74.317C151.113,77.299 151.113,82.27 148.122,85.253C145.132,88.235 140.148,88.235 137.158,85.253C137.158,85.253 129.981,67.158 132.772,54.83C135.563,42.303 144.933,41.707 144.933,41.707C144.933,41.707 149.518,31.566 162.875,32.56C176.032,33.554 185.203,41.707 185.203,41.707C188.193,44.689 188.193,49.66 185.203,52.643C183.608,54.234 181.614,54.83 179.621,54.83C177.627,54.83 175.634,54.035 174.039,52.643Z" fill="#BDE5EC"/>
<path d="M108.849,57.415C118.868,57.415 126.991,49.314 126.991,39.321C126.991,29.327 118.868,21.226 108.849,21.226C98.83,21.226 90.708,29.327 90.708,39.321C90.708,49.314 98.83,57.415 108.849,57.415Z" fill="#BDE5EC"/>
<path d="M173.241,89.627L173.241,111.301L191.183,134.167L184.206,213.107L55.82,213.107L60.804,119.254L83.53,102.95L87.717,78.89L100.675,77.299L111.839,95.791C114.829,100.762 120.013,104.341 125.794,105.137C134.366,106.33 142.739,102.154 146.527,94.399L154.302,78.89L173.241,89.627Z" fill="#BDE5EC"/>
</g>
<path d="M212.116,194.814C215.505,195.808 222.881,197.597 228.862,198.989C234.444,200.381 238.829,204.557 240.424,209.926L248,234.78L150.315,234.78L157.093,209.727C158.489,204.358 162.874,199.984 168.257,198.393L183.807,193.819L212.116,194.814Z" fill="#BDE5EC"/>
<path d="M210.122,179.702L212.116,194.814C212.116,194.814 194.772,212.312 183.807,194.217C189.19,179.702 184.804,170.953 184.804,170.953L185.601,162.403L200.952,164.192L210.122,179.702Z" fill="#BDE5EC"/>
<path d="M220.488,179.901C213.91,186.86 204.54,184.275 201.151,182.486C196.366,179.702 186.598,176.321 181.813,168.368C172.842,153.455 171.447,137.746 179.222,127.805C193.575,110.108 215.903,117.664 224.675,132.577C231.254,143.712 227.067,172.941 220.488,179.901Z" fill="#BDE5EC"/>
<path d="M194.173,161.011C194.173,161.011 186.997,163.596 186.997,157.432C187.196,151.268 195.37,144.507 197.762,153.853Z" fill="#BDE5EC"/>
<path d="M197.961,135.758C197.961,146.297 206.533,155.046 217.299,155.046C227.865,155.046 236.636,146.496 236.636,135.758Z" fill="#BDE5EC"/>
<path d="M220.09,142.121C226.071,142.121 230.855,137.349 230.855,131.384C230.855,125.418 226.071,120.646 220.09,120.646Z" fill="#BDE5EC"/>
<path d="M165.267,192.428C173.839,198.393 185.402,196.206 191.382,187.655C197.363,179.105 195.17,167.573 186.598,161.607Z" fill="#BDE5EC"/>
<path d="M161.479,205.949C161.479,205.949 174.637,151.069 175.633,139.735C176.63,128.202 202.148,145.899 202.148,145.899L202.148,209.13Z" fill="#BDE5EC"/>
<path d="M38.077,192.229C34.489,193.223 26.714,195.211 20.334,196.802C14.354,198.194 9.768,202.767 7.974,208.534L0,235.178L104.064,235.178L96.887,208.534C95.293,202.767 90.907,198.194 84.926,196.404L68.18,191.632L38.077,192.229Z" fill="#BDE5EC"/>
<path d="M40.27,176.123L38.276,192.229C38.276,192.229 56.817,210.721 68.379,191.632C62.797,176.123 67.383,166.777 67.383,166.777L66.386,157.432L50.038,159.42L40.27,176.123Z" fill="#BDE5EC"/>
<path d="M29.106,176.321C36.084,183.679 46.051,181.094 49.64,178.906C54.823,175.924 65.19,172.345 70.373,163.795C79.942,148.086 81.537,131.185 73.164,120.845C58.013,101.955 34.09,110.108 24.72,125.816C17.743,137.746 22.129,168.964 29.106,176.321Z" fill="#BDE5EC"/>
<path d="M57.216,156.239C57.216,156.239 64.99,159.022 64.791,152.461C64.592,145.899 56.019,138.542 53.428,148.683Z" fill="#BDE5EC"/>
<path d="M32.296,126.81C32.296,131.98 28.109,135.957 23.125,135.957C18.141,135.957 13.755,131.98 13.755,126.81Z" fill="#BDE5EC"/>
<path d="M34.688,129.992C31.1,133.571 25.318,133.571 21.73,129.992C18.141,126.413 18.141,120.646 21.73,117.067Z" fill="#BDE5EC"/>
<path d="M78.546,168.964C74.958,172.543 69.177,172.543 65.588,168.964C62,165.385 62,159.619 65.588,156.04Z" fill="#BDE5EC"/>
<path d="M117.023,193.67C113.036,194.664 104.663,196.852 97.685,198.641C91.306,200.232 86.122,205.004 84.328,211.367L75.756,240L188.392,240L180.418,211.168C178.624,204.805 173.839,200.033 167.659,198.045L149.717,192.875L117.023,193.67Z" fill="#AA0404"/>
<path d="M116.225,171.35L114.032,188.65C114.032,188.65 134.167,208.732 146.527,188.053C140.347,171.35 145.331,161.21 145.331,161.21L144.534,151.268L126.791,153.256L116.225,171.35Z" fill="#FFC298"/>
<path d="M139.351,157.829C139.351,157.432 144.534,154.25 144.534,153.853L144.335,151.268L126.592,153.256L116.225,171.35L114.63,183.48C119.614,183.877 125.994,181.094 128.386,179.901C136.161,176.123 138.753,168.964 139.351,157.829Z" fill="#E1927A"/>
<path d="M104.862,171.152C113.035,179.702 124.598,176.719 128.784,174.333C134.765,170.754 144.334,162.8 146.527,151.268C148.521,139.735 148.521,129.992 140.347,119.254C132.174,108.517 100.675,110.704 99.678,112.494C91.305,126.015 96.688,162.602 104.862,171.152Z" fill="#FFC298"/>
<path d="M85.126,105.932C85.126,105.932 81.338,120.05 95.891,125.419C110.045,130.588 125.396,120.05 125.396,120.05C125.396,120.05 125.396,142.916 145.531,161.011C162.875,156.636 172.045,114.085 142.74,99.569C112.238,84.457 94.894,109.71 94.894,109.71L85.126,105.932Z" fill="#000000"/>
<path d="M134.566,149.876C134.566,149.876 142.939,152.858 142.74,145.7C142.54,138.542 133.17,130.787 130.379,141.723Z" fill="#FFC298"/>
<path d="M97.685,110.903C93.498,110.903 90.109,107.523 90.109,103.347C90.109,99.171 93.498,95.791 97.685,95.791Z" fill="#000000"/>
<path d="M193.775,3.728L154.9,70.737C152.109,75.708 155.698,81.872 161.28,81.872L239.029,81.872C244.81,81.872 248.399,75.708 245.408,70.737L206.534,3.728C203.743,-1.243 196.765,-1.243 193.775,3.728Z" fill="#E44450"/>
<path d="M207.132,23.215L203.145,52.842L197.363,52.842L193.177,23.215L207.132,23.215Z" fill="#FFFFFF"/>
<path d="M200.154,70.34C202.907,70.34 205.138,68.114 205.138,65.369C205.138,62.623 202.907,60.398 200.154,60.398C197.402,60.398 195.17,62.623 195.17,65.369C195.17,68.114 197.402,70.34 200.154,70.34Z" fill="#FFFFFF"/>
</svg>
