<svg width="48" height="50" viewBox="0 0 48 50" fill="none" xmlns="http://www.w3.org/2000/svg" xmlns:xlink="http://www.w3.org/1999/xlink">
<path d="M10.477,29.318L8.831,35.788L2.817,35.922C1.02,32.411 0,28.393 0,24.124C0,19.995 0.953,16.102 2.643,12.674L2.644,12.674L7.999,13.708L10.344,19.314C9.853,20.821 9.586,22.44 9.586,24.124C9.586,25.951 9.9,27.702 10.477,29.318Z" fill="#FBBB00"/>
<path d="M46.86,19.472C47.131,20.979 47.273,22.534 47.273,24.124C47.273,25.906 47.095,27.645 46.756,29.322C45.605,35.029 42.599,40.012 38.434,43.539L38.433,43.538L31.688,43.175L30.734,36.899C33.498,35.192 35.657,32.52 36.795,29.322L24.156,29.322L24.156,19.472L36.979,19.472L46.86,19.472Z" fill="#518EF8"/>
<path d="M38.432,43.538L38.434,43.539C34.383,46.969 29.238,49.021 23.636,49.021C14.635,49.021 6.809,43.721 2.817,35.922L10.477,29.318C12.473,34.929 17.612,38.924 23.636,38.924C26.226,38.924 28.652,38.186 30.734,36.899L38.432,43.538Z" fill="#28B446"/>
<path d="M38.724,4.958L31.066,11.562C28.912,10.143 26.365,9.324 23.637,9.324C17.475,9.324 12.24,13.501 10.344,19.314L2.644,12.674L2.643,12.674C6.577,4.685 14.501,-0.773 23.637,-0.773C29.372,-0.773 34.63,1.378 38.724,4.958Z" fill="#F14336"/>
</svg>
