<svg width="22" height="24" viewBox="0 0 22 24" fill="none" xmlns="http://www.w3.org/2000/svg" xmlns:xlink="http://www.w3.org/1999/xlink">
<line x1="0.5" y1="9.764" x2="18.955" y2="9.764" stroke="#FFFFFF" stroke-width="2" stroke-miterlimit="3.999327" stroke-linecap="round" stroke-linejoin="round"/>
<path d="M11.198,0.39C10.449,-0.423 9.184,-0.475 8.372,0.274C7.559,1.022 7.507,2.287 8.255,3.1L11.198,0.39ZM18.954,11.764L20.425,13.119C21.13,12.353 21.13,11.174 20.425,10.409L18.954,11.764ZM8.255,20.428C7.507,21.24 7.559,22.506 8.372,23.254C9.184,24.002 10.449,23.95 11.198,23.138L8.255,20.428ZM8.255,3.1L17.483,13.119L20.425,10.409L11.198,0.39L8.255,3.1ZM17.483,10.409L8.255,20.428L11.198,23.138L20.425,13.119L17.483,10.409Z" fill="#FFFFFF"/>
</svg>
