<svg width="40" height="46" viewBox="0 0 40 46" fill="none" xmlns="http://www.w3.org/2000/svg" xmlns:xlink="http://www.w3.org/1999/xlink">
<path d="M9.936,15.597L28.267,15.597C29.525,15.597 30.611,15.597 31.506,15.665C32.45,15.737 33.389,15.896 34.292,16.326C35.64,16.967 36.736,17.989 37.422,19.247C37.883,20.09 38.053,20.966 38.13,21.847C38.203,22.682 38.203,23.695 38.203,24.87L38.203,35.291C38.203,36.466 38.203,37.479 38.13,38.313C38.053,39.194 37.883,40.07 37.422,40.914C36.736,42.171 35.64,43.194 34.292,43.835C33.389,44.264 32.45,44.423 31.506,44.495C30.611,44.563 29.525,44.563 28.267,44.563L9.936,44.563C8.678,44.563 7.592,44.563 6.697,44.495C5.753,44.423 4.815,44.264 3.911,43.835C2.563,43.194 1.467,42.171 0.781,40.914C0.32,40.07 0.15,39.194 0.073,38.313C0,37.479 0,36.466 0,35.291L0,24.87C0,23.695 0,22.682 0.073,21.847C0.15,20.966 0.32,20.09 0.781,19.247C1.467,17.989 2.563,16.967 3.911,16.326C4.815,15.896 5.753,15.737 6.697,15.665C7.592,15.597 8.678,15.597 9.936,15.597ZM19.102,28.966C17.783,28.966 16.714,29.964 16.714,31.194L16.714,33.423C16.714,34.653 17.783,35.651 19.102,35.651C20.42,35.651 21.489,34.653 21.489,33.423L21.489,31.194C21.489,29.964 20.42,28.966 19.102,28.966Z" clip-rule="evenodd" fill-rule="evenodd" fill="#0D0D0D" fill-opacity="0.72"/>
<path d="M9.551,8.913C9.551,3.99 13.827,0 19.102,0C24.376,0 28.652,3.99 28.652,8.913L28.652,15.597L23.877,15.597L23.877,8.913C23.877,6.452 21.739,4.456 19.102,4.456C16.464,4.456 14.326,6.452 14.326,8.913L14.326,15.597L9.551,15.597L9.551,8.913Z" clip-rule="evenodd" fill-rule="evenodd" fill="#0D0D0D" fill-opacity="0.72"/>
</svg>
