<svg width="44" height="44" viewBox="0 0 44 44" fill="none" xmlns="http://www.w3.org/2000/svg" xmlns:xlink="http://www.w3.org/1999/xlink">
<path d="M13.367,18.333C13.367,19.051 13.949,19.633 14.667,19.633C15.385,19.633 15.967,19.051 15.967,18.333L13.367,18.333ZM28.034,18.333C28.034,19.051 28.616,19.633 29.334,19.633C30.052,19.633 30.634,19.051 30.634,18.333L28.034,18.333ZM15.967,18.333L15.967,12.833L13.367,12.833L13.367,18.333L15.967,18.333ZM15.967,12.833C15.967,9.501 18.668,6.8 22,6.8L22,4.2C17.233,4.2 13.367,8.066 13.367,12.833L15.967,12.833ZM22,6.8C25.332,6.8 28.034,9.501 28.034,12.833L30.634,12.833C30.634,8.066 26.768,4.2 22,4.2L22,6.8ZM28.034,12.833L28.034,18.333L30.634,18.333L30.634,12.833L28.034,12.833Z" fill="#A2A2A7"/>
<path d="M31.167,37.2L12.834,37.2L12.834,39.8L31.167,39.8L31.167,37.2ZM12.834,37.2C11.526,37.2 10.467,36.141 10.467,34.833L7.867,34.833C7.867,37.577 10.09,39.8 12.834,39.8L12.834,37.2ZM10.467,34.833L10.467,22L7.867,22L7.867,34.833L10.467,34.833ZM10.467,22C10.467,20.692 11.526,19.633 12.834,19.633L12.834,17.033C10.09,17.033 7.867,19.256 7.867,22L10.467,22ZM12.834,19.633L31.167,19.633L31.167,17.033L12.834,17.033L12.834,19.633ZM31.167,19.633C32.475,19.633 33.534,20.692 33.534,22L36.134,22C36.134,19.256 33.911,17.033 31.167,17.033L31.167,19.633ZM33.534,22L33.534,34.833L36.134,34.833L36.134,22L33.534,22ZM33.534,34.833C33.534,36.141 32.475,37.2 31.167,37.2L31.167,39.8C33.911,39.8 36.134,37.577 36.134,34.833L33.534,34.833Z" fill="#A2A2A7"/>
<path d="M16.5,26.992C16.157,26.992 15.754,27.113 15.433,27.434C15.112,27.754 14.991,28.157 14.991,28.501L17.991,28.501C17.991,28.839 17.872,29.237 17.554,29.555C17.237,29.873 16.838,29.992 16.5,29.992L16.5,26.992ZM14.991,28.501C14.991,28.845 15.112,29.248 15.433,29.568C15.754,29.889 16.157,30.01 16.5,30.01L16.5,27.01C16.838,27.01 17.237,27.129 17.554,27.447C17.872,27.765 17.991,28.163 17.991,28.501L14.991,28.501ZM16.5,30.01C16.844,30.01 17.247,29.889 17.568,29.568C17.888,29.248 18.01,28.845 18.01,28.501L15.01,28.501C15.01,28.163 15.129,27.765 15.446,27.447C15.764,27.129 16.162,27.01 16.5,27.01L16.5,30.01ZM18.01,28.501C18.01,28.157 17.888,27.754 17.568,27.434C17.247,27.113 16.844,26.992 16.5,26.992L16.5,29.992C16.162,29.992 15.764,29.873 15.446,29.555C15.129,29.237 15.01,28.839 15.01,28.501L18.01,28.501Z" fill="#A2A2A7"/>
<path d="M22.009,28.51L21.452,29.903C21.629,29.974 21.818,30.01 22.009,30.01L22.009,28.51ZM22.009,26.992C21.666,26.992 21.263,27.113 20.942,27.434C20.621,27.754 20.5,28.157 20.5,28.501L23.5,28.501C23.5,28.839 23.381,29.237 23.063,29.555C22.746,29.873 22.347,29.992 22.009,29.992L22.009,26.992ZM20.5,28.501C20.5,28.936 20.683,29.251 20.812,29.419C20.94,29.585 21.073,29.687 21.144,29.736C21.223,29.792 21.293,29.829 21.337,29.851C21.361,29.863 21.383,29.873 21.401,29.882C21.411,29.886 21.42,29.89 21.428,29.893C21.432,29.895 21.437,29.897 21.44,29.898C21.442,29.899 21.444,29.9 21.446,29.901C21.447,29.901 21.448,29.901 21.449,29.902C21.45,29.902 21.45,29.902 21.451,29.902C21.451,29.902 21.451,29.903 21.451,29.903C21.452,29.903 21.452,29.903 22.009,28.51C22.566,27.117 22.567,27.118 22.567,27.118C22.567,27.118 22.567,27.118 22.568,27.118C22.568,27.118 22.569,27.118 22.569,27.119C22.57,27.119 22.571,27.119 22.572,27.12C22.574,27.121 22.576,27.121 22.578,27.122C22.582,27.124 22.586,27.125 22.59,27.127C22.598,27.131 22.607,27.134 22.616,27.138C22.634,27.147 22.655,27.156 22.679,27.168C22.721,27.189 22.788,27.225 22.865,27.279C22.934,27.327 23.065,27.427 23.19,27.59C23.318,27.756 23.5,28.069 23.5,28.501L20.5,28.501ZM22.009,30.01C22.353,30.01 22.756,29.889 23.076,29.568C23.397,29.248 23.518,28.845 23.518,28.501L20.518,28.501C20.518,28.163 20.638,27.765 20.955,27.447C21.273,27.129 21.671,27.01 22.009,27.01L22.009,30.01ZM23.518,28.501C23.518,28.157 23.397,27.754 23.076,27.434C22.756,27.113 22.353,26.992 22.009,26.992L22.009,29.992C21.671,29.992 21.273,29.873 20.955,29.555C20.638,29.237 20.518,28.839 20.518,28.501L23.518,28.501Z" fill="#A2A2A7"/>
<path d="M27.5,26.992C27.157,26.992 26.754,27.113 26.433,27.434C26.112,27.754 25.991,28.157 25.991,28.501L28.991,28.501C28.991,28.839 28.872,29.237 28.554,29.555C28.237,29.873 27.838,29.992 27.5,29.992L27.5,26.992ZM25.991,28.501C25.991,28.845 26.112,29.248 26.433,29.568C26.754,29.889 27.157,30.01 27.5,30.01L27.5,27.01C27.838,27.01 28.237,27.129 28.554,27.447C28.872,27.765 28.991,28.163 28.991,28.501L25.991,28.501ZM27.5,30.01C27.844,30.01 28.247,29.889 28.568,29.568C28.888,29.248 29.01,28.845 29.01,28.501L26.01,28.501C26.01,28.163 26.129,27.765 26.446,27.447C26.764,27.129 27.162,27.01 27.5,27.01L27.5,30.01ZM29.01,28.501C29.01,28.157 28.888,27.754 28.568,27.434C28.247,27.113 27.844,26.992 27.5,26.992L27.5,29.992C27.162,29.992 26.764,29.873 26.446,29.555C26.129,29.237 26.01,28.839 26.01,28.501L29.01,28.501Z" fill="#A2A2A7"/>
</svg>
