<svg width="36" height="42" viewBox="0 0 36 42" fill="none" xmlns="http://www.w3.org/2000/svg" xmlns:xlink="http://www.w3.org/1999/xlink">
<path d="M9.099,15.07L25.8,15.07C26.946,15.07 27.936,15.07 28.751,15.132C29.611,15.198 30.466,15.342 31.289,15.734C32.517,16.318 33.515,17.249 34.141,18.395C34.56,19.163 34.716,19.962 34.786,20.764C34.852,21.524 34.852,22.448 34.852,23.518L34.852,33.012C34.852,34.082 34.852,35.006 34.786,35.766C34.716,36.568 34.56,37.367 34.141,38.135C33.515,39.281 32.517,40.212 31.289,40.796C30.466,41.188 29.611,41.332 28.751,41.398C27.936,41.46 26.946,41.46 25.8,41.46L9.099,41.46C7.953,41.46 6.963,41.46 6.149,41.398C5.289,41.332 4.433,41.188 3.61,40.796C2.382,40.212 1.384,39.281 0.758,38.135C0.339,37.367 0.184,36.568 0.113,35.766C0.047,35.006 0.047,34.082 0.047,33.012L0.047,23.518C0.047,22.448 0.047,21.524 0.113,20.764C0.184,19.962 0.339,19.163 0.758,18.395C1.384,17.249 2.382,16.318 3.61,15.734C4.433,15.342 5.289,15.198 6.149,15.132C6.963,15.07 7.953,15.07 9.099,15.07ZM17.45,27.25C16.248,27.25 15.274,28.159 15.274,29.28L15.274,31.31C15.274,32.431 16.248,33.34 17.45,33.34C18.651,33.34 19.625,32.431 19.625,31.31L19.625,29.28C19.625,28.159 18.651,27.25 17.45,27.25Z" clip-rule="evenodd" fill-rule="evenodd" fill="#000000" fill-opacity="0.69"/>
<path d="M8.748,8.98C8.748,4.495 12.644,0.86 17.45,0.86C22.255,0.86 26.151,4.495 26.151,8.98L26.151,15.07L21.8,15.07L21.8,8.98C21.8,6.738 19.852,4.92 17.45,4.92C15.047,4.92 13.099,6.738 13.099,8.98L13.099,15.07L8.748,15.07L8.748,8.98Z" clip-rule="evenodd" fill-rule="evenodd" fill="#000000" fill-opacity="0.69"/>
</svg>
