<svg width="84" height="84" viewBox="0 0 84 84" fill="none" xmlns="http://www.w3.org/2000/svg" xmlns:xlink="http://www.w3.org/1999/xlink">
<path d="M84,41.731C84,64.342 65.196,82.672 42,82.672C18.804,82.672 0,64.342 0,41.731C0,19.12 18.804,0.79 42,0.79C65.196,0.79 84,19.12 84,41.731Z" fill="#F4F4F4"/>
<path d="M39.099,53.916C39.099,53.198 38.517,52.616 37.799,52.616C37.081,52.616 36.499,53.198 36.499,53.916L39.099,53.916ZM47.503,53.915C47.503,53.197 46.921,52.615 46.203,52.615C45.485,52.615 44.903,53.197 44.903,53.915L47.503,53.915ZM36.499,53.916L36.499,54.586L39.099,54.586L39.099,53.916L36.499,53.916ZM36.499,54.586C36.499,57.623 38.962,60.086 42.001,60.086L42.001,57.486C40.397,57.486 39.099,56.186 39.099,54.586L36.499,54.586ZM42.001,60.086C45.04,60.086 47.503,57.623 47.503,54.584L44.903,54.584C44.903,56.187 43.604,57.486 42.001,57.486L42.001,60.086ZM47.503,54.584L47.503,53.915L44.903,53.915L44.903,54.584L47.503,54.584Z" fill="#1E1E2D"/>
<path d="M44.062,30.829C44.062,31.547 44.644,32.129 45.362,32.129C46.08,32.129 46.662,31.547 46.662,30.829L44.062,30.829ZM37.341,30.829C37.341,31.547 37.923,32.129 38.641,32.129C39.359,32.129 39.941,31.547 39.941,30.829L37.341,30.829ZM46.662,30.829L46.662,29.146L44.062,29.146L44.062,30.829L46.662,30.829ZM46.662,29.146C46.662,26.573 44.577,24.486 42.001,24.486L42.001,27.086C43.14,27.086 44.062,28.008 44.062,29.146L46.662,29.146ZM42.001,24.486C39.426,24.486 37.341,26.573 37.341,29.146L39.941,29.146C39.941,28.008 40.862,27.086 42.001,27.086L42.001,24.486ZM37.341,29.146L37.341,30.829L39.941,30.829L39.941,29.146L37.341,29.146Z" fill="#1E1E2D"/>
<path d="M29.783,47.859L30.703,48.778L30.703,48.778L29.783,47.859ZM30.958,46.684L30.039,45.765L30.039,45.765L30.958,46.684ZM33.333,38.964C33.333,35.093 36.47,31.957 40.34,31.957L40.34,29.357C35.035,29.357 30.733,33.657 30.733,38.964L33.333,38.964ZM40.34,31.957L43.663,31.957L43.663,29.357L40.34,29.357L40.34,31.957ZM43.663,31.957C47.534,31.957 50.67,35.094 50.67,38.964L53.27,38.964C53.27,33.659 48.97,29.357 43.663,29.357L43.663,31.957ZM50.67,38.964L50.67,44.092L53.27,44.092L53.27,38.964L50.67,38.964ZM50.67,44.092C50.67,45.408 51.194,46.672 52.125,47.603L53.964,45.765C53.52,45.321 53.27,44.718 53.27,44.092L50.67,44.092ZM52.125,47.603L53.301,48.778L55.139,46.94L53.964,45.765L52.125,47.603ZM53.301,48.778C53.745,49.222 53.994,49.825 53.994,50.451L56.594,50.451C56.594,49.135 56.07,47.871 55.139,46.94L53.301,48.778ZM53.994,50.451C53.994,51.647 53.025,52.616 51.829,52.616L51.829,55.216C54.461,55.216 56.594,53.083 56.594,50.451L53.994,50.451ZM51.829,52.616L32.174,52.616L32.174,55.216L51.829,55.216L51.829,52.616ZM32.174,52.616C30.978,52.616 30.009,51.647 30.009,50.451L27.409,50.451C27.409,53.083 29.542,55.216 32.174,55.216L32.174,52.616ZM30.009,50.451C30.009,49.825 30.259,49.222 30.703,48.778L28.864,46.94C27.933,47.871 27.409,49.135 27.409,50.451L30.009,50.451ZM30.703,48.778L31.878,47.603L30.039,45.765L28.864,46.94L30.703,48.778ZM31.878,47.603C32.809,46.672 33.333,45.408 33.333,44.092L30.733,44.092C30.733,44.718 30.483,45.321 30.039,45.765L31.878,47.603ZM33.333,44.092L33.333,38.964L30.733,38.964L30.733,44.092L33.333,44.092Z" fill="#1E1E2D"/>
<path d="M60.8,31.264C60.8,34.033 58.382,36.277 55.4,36.277C52.418,36.277 50,34.033 50,31.264C50,28.496 52.418,26.252 55.4,26.252C58.382,26.252 60.8,28.496 60.8,31.264Z" fill="#FF0000"/>
</svg>
