<svg width="250" height="242" viewBox="0 0 250 242" fill="none" xmlns="http://www.w3.org/2000/svg" xmlns:xlink="http://www.w3.org/1999/xlink">
<g opacity="0.5">
<path d="M66.2,91.95C72.2,98.15 80.6,95.95 83.6,94.15C88,91.55 96.6,88.55 101,81.35C109,67.95 110.4,53.75 103.2,44.95C90.4,28.95 70.2,35.75 62.2,49.15C56.6,59.35 60.4,85.75 66.2,91.95Z" fill="#BDE5EC"/>
<path d="M68.8,50.15C68.8,54.55 65.4,57.95 61,57.95C56.6,57.95 53.2,54.55 53.2,50.15Z" fill="#BDE5EC"/>
<path d="M97,74.75C94,77.75 94,82.75 97,85.75C100,88.75 105,88.75 108,85.75C108,85.75 115.2,67.55 112.4,55.15C109.6,42.55 100.2,41.95 100.2,41.95C100.2,41.95 95.6,31.75 82.2,32.75C69,33.75 59.8,41.95 59.8,41.95C56.8,44.95 56.8,49.95 59.8,52.95C61.4,54.55 63.4,55.15 65.4,55.15C67.4,55.15 69.4,54.35 71,52.95Z" fill="#BDE5EC"/>
<path d="M179.4,91.95C173.4,98.15 165,95.95 162,94.15C157.6,91.55 149,88.55 144.6,81.35C136.6,67.95 135.2,53.75 142.4,44.95C155.2,28.95 175.4,35.75 183.4,49.15C189,59.35 185.2,85.75 179.4,91.95Z" fill="#BDE5EC"/>
<path d="M176.8,50.15C176.8,54.55 180.2,57.95 184.6,57.95C189,57.95 192.4,54.55 192.4,50.15Z" fill="#BDE5EC"/>
<path d="M148.6,74.75C151.6,77.75 151.6,82.75 148.6,85.75C145.6,88.75 140.6,88.75 137.6,85.75C137.6,85.75 130.4,67.55 133.2,55.15C136,42.55 145.4,41.95 145.4,41.95C145.4,41.95 150,31.75 163.4,32.75C176.6,33.75 185.8,41.95 185.8,41.95C188.8,44.95 188.8,49.95 185.8,52.95C184.2,54.55 182.2,55.15 180.2,55.15C178.2,55.15 176.2,54.35 174.6,52.95Z" fill="#BDE5EC"/>
<path d="M109.2,57.75C119.252,57.75 127.4,49.602 127.4,39.55C127.4,29.498 119.252,21.35 109.2,21.35C99.148,21.35 91,29.498 91,39.55C91,49.602 99.148,57.75 109.2,57.75Z" fill="#BDE5EC"/>
<path d="M173.8,90.15L173.8,111.95L191.8,134.95L184.8,214.35L56,214.35L61,119.95L83.8,103.55L88,79.35L101,77.75L112.2,96.35C115.2,101.35 120.4,104.95 126.2,105.75C134.8,106.95 143.2,102.75 147,94.95L154.8,79.35L173.8,90.15Z" fill="#BDE5EC"/>
</g>
<path d="M212.8,195.95C216.2,196.95 223.6,198.75 229.6,200.15C235.2,201.55 239.6,205.75 241.2,211.15L248.8,236.15L150.8,236.15L157.6,210.95C159,205.55 163.4,201.15 168.8,199.55L184.4,194.95L212.8,195.95Z" fill="#BDE5EC"/>
<path d="M210.8,180.75L212.8,195.95C212.8,195.95 195.4,213.55 184.4,195.35C189.8,180.75 185.4,171.95 185.4,171.95L186.2,163.35L201.6,165.15L210.8,180.75Z" fill="#BDE5EC"/>
<path d="M221.2,180.95C214.6,187.95 205.2,185.35 201.8,183.55C197,180.75 187.2,177.35 182.4,169.35C173.4,154.35 172,138.55 179.8,128.55C194.2,110.75 216.6,118.35 225.4,133.35C232,144.55 227.8,173.95 221.2,180.95Z" fill="#BDE5EC"/>
<path d="M194.8,161.95C194.8,161.95 187.6,164.55 187.6,158.35C187.8,152.15 196,145.35 198.4,154.75Z" fill="#BDE5EC"/>
<path d="M198.6,136.55C198.6,147.15 207.2,155.95 218,155.95C228.6,155.95 237.4,147.35 237.4,136.55Z" fill="#BDE5EC"/>
<path d="M220.8,142.95C226.8,142.95 231.6,138.15 231.6,132.15C231.6,126.15 226.8,121.35 220.8,121.35Z" fill="#BDE5EC"/>
<path d="M165.8,193.55C174.4,199.55 186,197.35 192,188.75C198,180.15 195.8,168.55 187.2,162.55Z" fill="#BDE5EC"/>
<path d="M162,207.15C162,207.15 175.2,151.95 176.2,140.55C177.2,128.95 202.8,146.75 202.8,146.75L202.8,210.35Z" fill="#BDE5EC"/>
<path d="M38.2,193.35C34.6,194.35 26.8,196.35 20.4,197.95C14.4,199.35 9.8,203.95 8,209.75L0,236.55L104.4,236.55L97.2,209.75C95.6,203.95 91.2,199.35 85.2,197.55L68.4,192.75L38.2,193.35Z" fill="#BDE5EC"/>
<path d="M40.4,177.15L38.4,193.35C38.4,193.35 57,211.95 68.6,192.75C63,177.15 67.6,167.75 67.6,167.75L66.6,158.35L50.2,160.35L40.4,177.15Z" fill="#BDE5EC"/>
<path d="M29.2,177.35C36.2,184.75 46.2,182.15 49.8,179.95C55,176.95 65.4,173.35 70.6,164.75C80.2,148.95 81.8,131.95 73.4,121.55C58.2,102.55 34.2,110.75 24.8,126.55C17.8,138.55 22.2,169.95 29.2,177.35Z" fill="#BDE5EC"/>
<path d="M57.4,157.15C57.4,157.15 65.2,159.95 65,153.35C64.8,146.75 56.2,139.35 53.6,149.55Z" fill="#BDE5EC"/>
<path d="M32.4,127.55C32.4,132.75 28.2,136.75 23.2,136.75C18.2,136.75 13.8,132.75 13.8,127.55Z" fill="#BDE5EC"/>
<path d="M34.8,130.75C31.2,134.35 25.4,134.35 21.8,130.75C18.2,127.15 18.2,121.35 21.8,117.75Z" fill="#BDE5EC"/>
<path d="M78.8,169.95C75.2,173.55 69.4,173.55 65.8,169.95C62.2,166.35 62.2,160.55 65.8,156.95Z" fill="#BDE5EC"/>
<path d="M117.4,194.8C113.4,195.8 105,198 98,199.8C91.6,201.4 86.4,206.2 84.6,212.6L76,241.4L189,241.4L181,212.4C179.2,206 174.4,201.2 168.2,199.2L150.2,194L117.4,194.8Z" fill="#AA0404"/>
<path d="M116.6,172.35L114.4,189.75C114.4,189.75 134.6,209.95 147,189.15C140.8,172.35 145.8,162.15 145.8,162.15L145,152.15L127.2,154.15L116.6,172.35Z" fill="#FFC298"/>
<path d="M139.8,158.75C139.8,158.35 145,155.15 145,154.75L144.8,152.15L127,154.15L116.6,172.35L115,184.55C120,184.95 126.4,182.15 128.8,180.95C136.6,177.15 139.2,169.95 139.8,158.75Z" fill="#E1927A"/>
<path d="M105.2,172.15C113.4,180.75 125,177.75 129.2,175.35C135.2,171.75 144.8,163.75 147,152.15C149,140.55 149,130.75 140.8,119.95C132.6,109.15 101,111.35 100,113.15C91.6,126.75 97,163.55 105.2,172.15Z" fill="#FFC298"/>
<path d="M85.4,106.55C85.4,106.55 81.6,120.75 96.2,126.15C110.4,131.35 125.8,120.75 125.8,120.75C125.8,120.75 125.8,143.75 146,161.95C163.4,157.55 172.6,114.75 143.2,100.15C112.6,84.95 95.2,110.35 95.2,110.35L85.4,106.55Z" fill="#000000"/>
<path d="M135,150.75C135,150.75 143.4,153.75 143.2,146.55C143,139.35 133.6,131.55 130.8,142.55Z" fill="#FFC298"/>
<path d="M98,111.55C93.8,111.55 90.4,108.15 90.4,103.95C90.4,99.75 93.8,96.35 98,96.35Z" fill="#000000"/>
<path d="M194.4,3.75L155.4,71.15C152.6,76.15 156.2,82.35 161.8,82.35L239.8,82.35C245.6,82.35 249.2,76.15 246.2,71.15L207.2,3.75C204.4,-1.25 197.4,-1.25 194.4,3.75Z" fill="#E44450"/>
<path d="M207.8,23.35L203.8,53.15L198,53.15L193.8,23.35L207.8,23.35Z" fill="#FFFFFF"/>
<path d="M200.8,70.75C203.561,70.75 205.8,68.511 205.8,65.75C205.8,62.989 203.561,60.75 200.8,60.75C198.038,60.75 195.8,62.989 195.8,65.75C195.8,68.511 198.038,70.75 200.8,70.75Z" fill="#FFFFFF"/>
</svg>
