<svg width="174" height="148" viewBox="0 0 174 148" fill="none" xmlns="http://www.w3.org/2000/svg" xmlns:xlink="http://www.w3.org/1999/xlink">
<path d="M21.24,4L152.76,4L152.76,0L21.24,0L21.24,4ZM170,21.24L170,126.76L174,126.76L174,21.24L170,21.24ZM152.76,144L21.24,144L21.24,148L152.76,148L152.76,144ZM4,126.76L4,21.24L0,21.24L0,126.76L4,126.76ZM21.24,144C11.719,144 4,136.281 4,126.76L0,126.76C0,138.491 9.509,148 21.24,148L21.24,144ZM170,126.76C170,136.281 162.281,144 152.76,144L152.76,148C164.491,148 174,138.491 174,126.76L170,126.76ZM152.76,4C162.281,4 170,11.719 170,21.24L174,21.24C174,9.509 164.491,0 152.76,0L152.76,4ZM21.24,0C9.509,0 0,9.509 0,21.24L4,21.24C4,11.719 11.719,4 21.24,4L21.24,0Z" fill="#FF3333"/>
<path d="M117.164,100.621L117.164,100.749L117.284,100.749C117.306,100.749 117.329,100.743 117.348,100.732C117.356,100.727 117.362,100.719 117.367,100.711C117.371,100.702 117.373,100.693 117.372,100.683C117.373,100.674 117.371,100.665 117.367,100.656C117.362,100.648 117.356,100.641 117.348,100.636C117.329,100.624 117.306,100.618 117.284,100.619L117.164,100.621ZM117.285,100.53C117.337,100.527 117.388,100.542 117.429,100.572C117.446,100.585 117.459,100.603 117.468,100.622C117.477,100.642 117.481,100.663 117.48,100.685C117.481,100.703 117.478,100.722 117.471,100.739C117.464,100.756 117.453,100.772 117.439,100.784C117.407,100.812 117.367,100.829 117.324,100.832L117.485,101.015L117.361,101.015L117.213,100.833L117.165,100.833L117.165,101.015L117.061,101.015L117.061,100.53L117.285,100.53ZM117.253,101.182C117.307,101.182 117.361,101.171 117.411,101.15C117.459,101.129 117.503,101.1 117.54,101.063C117.577,101.026 117.607,100.983 117.627,100.935C117.67,100.833 117.67,100.719 117.627,100.618C117.606,100.57 117.577,100.527 117.54,100.49C117.503,100.453 117.459,100.424 117.411,100.403C117.361,100.383 117.307,100.373 117.253,100.373C117.198,100.373 117.143,100.383 117.092,100.403C117.043,100.423 116.998,100.453 116.96,100.49C116.903,100.548 116.864,100.621 116.849,100.701C116.834,100.781 116.843,100.863 116.874,100.938C116.894,100.986 116.923,101.03 116.96,101.066C116.998,101.103 117.043,101.133 117.092,101.153C117.143,101.174 117.198,101.185 117.253,101.185L117.253,101.182ZM117.253,100.257C117.394,100.256 117.53,100.312 117.631,100.41C117.68,100.458 117.719,100.514 117.745,100.576C117.773,100.64 117.787,100.709 117.787,100.779C117.787,100.848 117.773,100.917 117.745,100.981C117.718,101.043 117.68,101.1 117.631,101.147C117.582,101.195 117.524,101.232 117.462,101.259C117.396,101.287 117.325,101.302 117.253,101.301C117.18,101.302 117.108,101.287 117.042,101.259C116.978,101.233 116.92,101.195 116.87,101.147C116.822,101.098 116.784,101.04 116.758,100.976C116.73,100.912 116.716,100.843 116.716,100.773C116.716,100.704 116.73,100.635 116.758,100.571C116.785,100.509 116.823,100.452 116.872,100.405C116.921,100.356 116.979,100.318 117.043,100.293C117.11,100.265 117.182,100.251 117.254,100.251L117.253,100.257ZM67.922,98.386C67.922,97.463 68.531,96.704 69.526,96.704C70.478,96.704 71.119,97.43 71.119,98.386C71.119,99.342 70.478,100.068 69.526,100.068C68.531,100.068 67.922,99.31 67.922,98.386ZM72.203,98.386L72.203,95.758L71.054,95.758L71.054,96.398C70.689,95.925 70.136,95.628 69.383,95.628C67.901,95.628 66.738,96.783 66.738,98.387C66.738,99.992 67.901,101.146 69.383,101.146C70.135,101.146 70.689,100.849 71.054,100.377L71.054,101.015L72.202,101.015L72.203,98.386ZM111.054,98.386C111.054,97.463 111.663,96.704 112.659,96.704C113.611,96.704 114.252,97.43 114.252,98.386C114.252,99.342 113.611,100.068 112.659,100.068C111.664,100.068 111.054,99.31 111.054,98.386ZM115.337,98.386L115.337,93.648L114.186,93.648L114.186,96.398C113.821,95.925 113.268,95.628 112.516,95.628C111.034,95.628 109.871,96.783 109.871,98.387C109.871,99.992 111.033,101.146 112.516,101.146C113.268,101.146 113.821,100.849 114.186,100.377L114.186,101.015L115.337,101.015L115.337,98.386ZM86.474,96.65C87.215,96.65 87.691,97.111 87.812,97.924L85.069,97.924C85.192,97.166 85.655,96.65 86.474,96.65ZM86.497,95.625C84.948,95.625 83.864,96.746 83.864,98.385C83.864,100.055 84.991,101.144 86.574,101.144C87.371,101.144 88.1,100.946 88.742,100.407L88.178,99.561C87.735,99.913 87.171,100.11 86.64,100.11C85.899,100.11 85.225,99.769 85.059,98.823L88.985,98.823C88.996,98.681 89.008,98.538 89.008,98.384C88.996,96.746 87.977,95.625 86.497,95.625ZM100.379,98.384C100.379,97.461 100.988,96.702 101.983,96.702C102.934,96.702 103.576,97.428 103.576,98.384C103.576,99.34 102.934,100.066 101.983,100.066C100.988,100.066 100.379,99.308 100.379,98.384ZM104.66,98.384L104.66,95.758L103.51,95.758L103.51,96.398C103.144,95.925 102.593,95.628 101.84,95.628C100.358,95.628 99.195,96.783 99.195,98.387C99.195,99.992 100.358,101.146 101.84,101.146C102.593,101.146 103.144,100.849 103.51,100.377L103.51,101.015L104.66,101.015L104.66,98.384ZM93.886,98.384C93.886,99.978 95.002,101.143 96.707,101.143C97.503,101.143 98.034,100.967 98.607,100.517L98.055,99.593C97.623,99.902 97.17,100.066 96.67,100.066C95.752,100.055 95.077,99.396 95.077,98.384C95.077,97.373 95.752,96.714 96.67,96.702C97.169,96.702 97.622,96.867 98.055,97.175L98.607,96.252C98.033,95.801 97.502,95.625 96.707,95.625C95.002,95.625 93.886,96.79 93.886,98.384ZM108.709,95.625C108.045,95.625 107.613,95.933 107.315,96.395L107.315,95.758L106.175,95.758L106.175,101.012L107.326,101.012L107.326,98.067C107.326,97.197 107.702,96.714 108.454,96.714C108.7,96.711 108.944,96.756 109.173,96.846L109.527,95.77C109.273,95.67 108.942,95.625 108.709,95.625ZM77.888,96.176C77.335,95.813 76.573,95.626 75.732,95.626C74.392,95.626 73.53,96.264 73.53,97.308C73.53,98.165 74.172,98.693 75.354,98.858L75.897,98.935C76.528,99.023 76.826,99.188 76.826,99.484C76.826,99.891 76.407,100.122 75.62,100.122C74.824,100.122 74.249,99.87 73.862,99.573L73.321,100.464C73.952,100.925 74.748,101.146 75.611,101.146C77.138,101.146 78.023,100.431 78.023,99.431C78.023,98.507 77.326,98.024 76.175,97.859L75.633,97.781C75.136,97.717 74.737,97.618 74.737,97.265C74.737,96.881 75.113,96.65 75.744,96.65C76.419,96.65 77.072,96.903 77.392,97.101L77.89,96.177L77.888,96.176ZM92.724,95.627C92.061,95.627 91.629,95.935 91.332,96.397L91.332,95.758L90.192,95.758L90.192,101.012L91.342,101.012L91.342,98.067C91.342,97.197 91.718,96.714 92.469,96.714C92.716,96.711 92.96,96.756 93.189,96.846L93.543,95.77C93.288,95.67 92.957,95.627 92.724,95.627ZM82.912,95.758L81.032,95.758L81.032,94.164L79.87,94.164L79.87,95.758L78.797,95.758L78.797,96.802L79.87,96.802L79.87,99.199C79.87,100.418 80.346,101.144 81.706,101.144C82.205,101.144 82.78,100.99 83.145,100.738L82.812,99.759C82.469,99.957 82.093,100.056 81.794,100.056C81.22,100.056 81.032,99.704 81.032,99.177L81.032,96.803L82.912,96.803L82.912,95.758ZM65.722,101.013L65.722,97.716C65.722,96.474 64.925,95.639 63.641,95.627C62.966,95.616 62.27,95.825 61.783,96.562C61.418,95.98 60.843,95.627 60.035,95.627C59.471,95.627 58.919,95.792 58.487,96.408L58.487,95.758L57.336,95.758L57.336,101.012L58.496,101.012L58.496,98.099C58.496,97.187 59.005,96.702 59.791,96.702C60.554,96.702 60.941,97.197 60.941,98.087L60.941,101.011L62.103,101.011L62.103,98.098C62.103,97.186 62.634,96.701 63.397,96.701C64.182,96.701 64.557,97.196 64.557,98.087L64.557,101.01L65.722,101.013Z" fill="#0D0D0D"/>
<rect  x="77.51" y="55.716" width="17.425" height="31.115" fill="#FF7E33"/>
<path d="M78.614,71.274C78.614,64.962 81.588,59.34 86.219,55.716C82.714,52.969 78.377,51.479 73.913,51.485C62.915,51.485 54,60.345 54,71.274C54,82.203 62.915,91.062 73.913,91.062C78.378,91.069 82.714,89.578 86.22,86.831C81.589,83.209 78.614,77.586 78.614,71.274Z" fill="#FF1F39"/>
<path d="M118.442,71.274C118.442,82.203 109.527,91.063 98.529,91.063C94.064,91.069 89.727,89.578 86.221,86.832C90.853,83.208 93.828,77.586 93.828,71.274C93.828,64.962 90.853,59.34 86.221,55.717C89.727,52.97 94.064,51.479 98.529,51.486C109.527,51.486 118.442,60.345 118.442,71.274Z" fill="#F9B44C"/>
</svg>
