<svg width="64" height="64" viewBox="0 0 64 64" fill="none" xmlns="http://www.w3.org/2000/svg" xmlns:xlink="http://www.w3.org/1999/xlink">
<path d="M60,32C60,47.464 47.464,60 32,60L32,64C49.673,64 64,49.673 64,32L60,32ZM32,60C16.536,60 4,47.464 4,32L0,32C0,49.673 14.327,64 32,64L32,60ZM4,32C4,16.536 16.536,4 32,4L32,0C14.327,0 0,14.327 0,32L4,32ZM32,4C47.464,4 60,16.536 60,32L64,32C64,14.327 49.673,0 32,0L32,4Z" fill="#000000"/>
<path d="M54,54C54,41.849 44.151,32 32,32L32,36C41.941,36 50,44.059 50,54L54,54ZM32,32C19.849,32 10,41.849 10,54L14,54C14,44.059 22.059,36 32,36L32,32Z" fill="#000000"/>
<path d="M42,22C42,27.523 37.523,32 32,32L32,36C39.732,36 46,29.732 46,22L42,22ZM32,32C26.477,32 22,27.523 22,22L18,22C18,29.732 24.268,36 32,36L32,32ZM22,22C22,16.477 26.477,12 32,12L32,8C24.268,8 18,14.268 18,22L22,22ZM32,12C37.523,12 42,16.477 42,22L46,22C46,14.268 39.732,8 32,8L32,12Z" fill="#000000"/>
</svg>
