<svg width="28" height="28" viewBox="0 0 28 28" fill="none" xmlns="http://www.w3.org/2000/svg" xmlns:xlink="http://www.w3.org/1999/xlink">
<path d="M10.421,26L10.135,26.958C10.657,27.114 11.207,26.824 11.373,26.306L10.421,26ZM4.977,22.679L4.212,22.035C3.882,22.426 3.901,23.003 4.256,23.372L4.977,22.679ZM1.732,16.52L0.752,16.72C0.855,17.222 1.321,17.566 1.831,17.515L1.732,16.52ZM1.478,13.997L2.478,13.998L2.478,13.997L1.478,13.997ZM2.052,10.241L2.052,9.241C1.615,9.241 1.229,9.524 1.098,9.941L2.052,10.241ZM2.104,10.241L2.104,9.241L2.104,9.241L2.104,10.241ZM5.476,4.825L4.794,4.093C4.471,4.394 4.384,4.871 4.578,5.267L5.476,4.825ZM10.652,1.928L11.543,1.474C11.327,1.05 10.842,0.837 10.384,0.964L10.652,1.928ZM14,3.98L14,2.98L14,2.98L14,3.98ZM17.348,1.928L17.616,0.964C17.157,0.837 16.673,1.05 16.457,1.474L17.348,1.928ZM22.524,4.825L23.421,5.267C23.616,4.871 23.529,4.394 23.206,4.093L22.524,4.825ZM25.948,10.241L26.902,9.941C26.77,9.519 26.376,9.234 25.934,9.241L25.948,10.241ZM26.522,13.997L25.522,13.996L25.522,13.997L26.522,13.997ZM26.268,16.52L26.168,17.515C26.679,17.566 27.145,17.223 27.247,16.721L26.268,16.52ZM23.023,22.68L23.744,23.373C24.099,23.004 24.118,22.427 23.788,22.035L23.023,22.68ZM17.579,26L16.627,26.306C16.793,26.824 17.343,27.114 17.865,26.958L17.579,26ZM10.707,25.042C8.802,24.473 7.076,23.42 5.698,21.986L4.256,23.372C5.873,25.055 7.899,26.291 10.135,26.958L10.707,25.042ZM5.741,23.324C6.351,22.6 6.732,21.711 6.834,20.77L4.845,20.555C4.786,21.1 4.566,21.615 4.212,22.035L5.741,23.324ZM6.834,20.77C6.935,19.829 6.754,18.879 6.313,18.041L4.544,18.973C4.799,19.459 4.904,20.009 4.845,20.555L6.834,20.77ZM6.313,18.041C5.872,17.204 5.191,16.517 4.357,16.068L3.41,17.83C3.893,18.09 4.288,18.488 4.544,18.973L6.313,18.041ZM4.357,16.068C3.524,15.62 2.575,15.431 1.633,15.525L1.831,17.515C2.377,17.46 2.927,17.57 3.41,17.83L4.357,16.068ZM2.712,16.32C2.556,15.556 2.478,14.778 2.478,13.998L0.478,13.997C0.478,14.911 0.569,15.824 0.752,16.72L2.712,16.32ZM2.478,13.997C2.478,12.791 2.663,11.63 3.005,10.541L1.098,9.941C0.694,11.223 0.478,12.586 0.478,13.997L2.478,13.997ZM2.052,11.241L2.104,11.241L2.104,9.241L2.052,9.241L2.052,11.241ZM2.104,11.241C2.912,11.241 3.707,11.035 4.414,10.643L3.443,8.894C3.034,9.122 2.573,9.241 2.104,9.241L2.104,11.241ZM4.414,10.643C5.121,10.25 5.716,9.684 6.143,8.998L4.445,7.941C4.198,8.339 3.853,8.667 3.443,8.894L4.414,10.643ZM6.143,8.998C6.571,8.312 6.816,7.528 6.856,6.72L4.859,6.621C4.835,7.089 4.693,7.543 4.445,7.941L6.143,8.998ZM6.856,6.72C6.896,5.913 6.73,5.109 6.373,4.383L4.578,5.267C4.785,5.687 4.882,6.153 4.859,6.621L6.856,6.72ZM6.157,5.557C7.508,4.299 9.141,3.385 10.919,2.892L10.384,0.964C8.297,1.544 6.38,2.617 4.794,4.093L6.157,5.557ZM9.76,2.382C10.159,3.164 10.766,3.82 11.514,4.279L12.559,2.574C12.125,2.308 11.773,1.927 11.543,1.474L9.76,2.382ZM11.514,4.279C12.262,4.737 13.123,4.98 14,4.98L14,2.98C13.491,2.98 12.992,2.839 12.559,2.574L11.514,4.279ZM14,4.98C14.877,4.98 15.738,4.737 16.486,4.279L15.441,2.574C15.007,2.839 14.509,2.98 14,2.98L14,4.98ZM16.486,4.279C17.234,3.82 17.841,3.164 18.239,2.382L16.457,1.474C16.226,1.927 15.875,2.308 15.441,2.574L16.486,4.279ZM17.081,2.892C18.859,3.385 20.492,4.299 21.843,5.557L23.206,4.093C21.62,2.617 19.703,1.544 17.616,0.964L17.081,2.892ZM21.627,4.383C21.267,5.114 21.101,5.924 21.144,6.737L23.142,6.631C23.117,6.16 23.213,5.69 23.421,5.267L21.627,4.383ZM21.144,6.737C21.188,7.55 21.439,8.338 21.874,9.026L23.564,7.958C23.312,7.559 23.167,7.102 23.142,6.631L21.144,6.737ZM21.874,9.026C22.309,9.715 22.913,10.279 23.629,10.667L24.582,8.908C24.167,8.684 23.817,8.356 23.564,7.958L21.874,9.026ZM23.629,10.667C24.345,11.055 25.149,11.252 25.963,11.241L25.934,9.241C25.462,9.248 24.997,9.133 24.582,8.908L23.629,10.667ZM24.994,10.54C25.345,11.658 25.523,12.824 25.522,13.996L27.522,13.998C27.523,12.622 27.314,11.254 26.902,9.941L24.994,10.54ZM25.522,13.997C25.522,14.793 25.441,15.57 25.288,16.32L27.247,16.721C27.427,15.84 27.522,14.929 27.522,13.997L25.522,13.997ZM26.367,15.525C25.425,15.431 24.476,15.621 23.643,16.069L24.59,17.831C25.073,17.571 25.623,17.461 26.168,17.515L26.367,15.525ZM23.643,16.069C22.809,16.517 22.128,17.204 21.687,18.042L23.456,18.974C23.712,18.488 24.107,18.09 24.59,17.831L23.643,16.069ZM21.687,18.042C21.246,18.879 21.064,19.829 21.166,20.77L23.155,20.555C23.096,20.01 23.201,19.459 23.456,18.974L21.687,18.042ZM21.166,20.77C21.268,21.712 21.648,22.601 22.259,23.325L23.788,22.035C23.434,21.616 23.214,21.101 23.155,20.555L21.166,20.77ZM22.302,21.987C20.924,23.421 19.198,24.473 17.293,25.042L17.865,26.958C20.101,26.291 22.127,25.056 23.744,23.373L22.302,21.987ZM18.531,25.695C18.223,24.735 17.618,23.898 16.804,23.304L15.625,24.92C16.097,25.264 16.448,25.749 16.627,26.306L18.531,25.695ZM16.804,23.304C15.99,22.71 15.008,22.39 14,22.39L14,24.39C14.584,24.39 15.153,24.575 15.625,24.92L16.804,23.304ZM14,22.39C12.992,22.39 12.01,22.71 11.196,23.304L12.374,24.92C12.846,24.575 13.416,24.39 14,24.39L14,22.39ZM11.196,23.304C10.382,23.898 9.777,24.735 9.469,25.695L11.373,26.306C11.552,25.749 11.902,25.264 12.374,24.92L11.196,23.304Z" fill="#414141"/>
<path d="M14,18.38L14,19.38L14,18.38ZM14,9.614L14,8.614L14,9.614ZM9.617,13.997L8.617,13.997L9.617,13.997ZM14,19.38C14.707,19.38 15.407,19.241 16.06,18.97L15.294,17.122C14.884,17.292 14.444,17.38 14,17.38L14,19.38ZM16.06,18.97C16.713,18.7 17.306,18.303 17.806,17.803L16.392,16.389C16.078,16.703 15.705,16.952 15.294,17.122L16.06,18.97ZM17.806,17.803C18.306,17.303 18.702,16.71 18.973,16.057L17.125,15.292C16.955,15.702 16.706,16.075 16.392,16.389L17.806,17.803ZM18.973,16.057C19.243,15.404 19.383,14.704 19.383,13.997L17.383,13.997C17.383,14.441 17.295,14.881 17.125,15.292L18.973,16.057ZM19.383,13.997C19.383,13.29 19.243,12.59 18.973,11.937L17.125,12.703C17.295,13.113 17.383,13.553 17.383,13.997L19.383,13.997ZM18.973,11.937C18.702,11.284 18.306,10.691 17.806,10.191L16.392,11.605C16.706,11.919 16.955,12.292 17.125,12.703L18.973,11.937ZM17.806,10.191C17.306,9.691 16.713,9.295 16.06,9.024L15.294,10.872C15.705,11.042 16.078,11.291 16.392,11.605L17.806,10.191ZM16.06,9.024C15.407,8.754 14.707,8.614 14,8.614L14,10.614C14.444,10.614 14.884,10.702 15.294,10.872L16.06,9.024ZM14,8.614C12.572,8.614 11.203,9.182 10.194,10.191L11.608,11.605C12.242,10.971 13.103,10.614 14,10.614L14,8.614ZM10.194,10.191C9.184,11.2 8.617,12.57 8.617,13.997L10.617,13.997C10.617,13.1 10.974,12.24 11.608,11.605L10.194,10.191ZM8.617,13.997C8.617,15.425 9.184,16.794 10.194,17.803L11.608,16.389C10.974,15.755 10.617,14.894 10.617,13.997L8.617,13.997ZM10.194,17.803C11.203,18.813 12.572,19.38 14,19.38L14,17.38C13.103,17.38 12.242,17.023 11.608,16.389L10.194,17.803Z" fill="#414141"/>
</svg>
