<svg width="250" height="242" viewBox="0 0 250 242" fill="none" xmlns="http://www.w3.org/2000/svg" xmlns:xlink="http://www.w3.org/1999/xlink">
<g opacity="0.5">
<path d="M66.2,92.135C72.2,98.335 80.6,96.135 83.6,94.335C88,91.735 96.6,88.735 101,81.535C109,68.135 110.4,53.935 103.2,45.135C90.4,29.135 70.2,35.935 62.2,49.335C56.6,59.535 60.4,85.935 66.2,92.135Z" fill="#BDE5EC"/>
<path d="M68.8,50.335C68.8,54.735 65.4,58.135 61,58.135C56.6,58.135 53.2,54.735 53.2,50.335Z" fill="#BDE5EC"/>
<path d="M97,74.935C94,77.935 94,82.935 97,85.935C100,88.935 105,88.935 108,85.935C108,85.935 115.2,67.735 112.4,55.335C109.6,42.735 100.2,42.135 100.2,42.135C100.2,42.135 95.6,31.935 82.2,32.935C69,33.935 59.8,42.135 59.8,42.135C56.8,45.135 56.8,50.135 59.8,53.135C61.4,54.735 63.4,55.335 65.4,55.335C67.4,55.335 69.4,54.535 71,53.135Z" fill="#BDE5EC"/>
<path d="M179.4,92.135C173.4,98.335 165,96.135 162,94.335C157.6,91.735 149,88.735 144.6,81.535C136.6,68.135 135.2,53.935 142.4,45.135C155.2,29.135 175.4,35.935 183.4,49.335C189,59.535 185.2,85.935 179.4,92.135Z" fill="#BDE5EC"/>
<path d="M176.8,50.335C176.8,54.735 180.2,58.135 184.6,58.135C189,58.135 192.4,54.735 192.4,50.335Z" fill="#BDE5EC"/>
<path d="M148.6,74.935C151.6,77.935 151.6,82.935 148.6,85.935C145.6,88.935 140.6,88.935 137.6,85.935C137.6,85.935 130.4,67.735 133.2,55.335C136,42.735 145.4,42.135 145.4,42.135C145.4,42.135 150,31.935 163.4,32.935C176.6,33.935 185.8,42.135 185.8,42.135C188.8,45.135 188.8,50.135 185.8,53.135C184.2,54.735 182.2,55.335 180.2,55.335C178.2,55.335 176.2,54.535 174.6,53.135Z" fill="#BDE5EC"/>
<path d="M109.2,57.935C119.252,57.935 127.4,49.787 127.4,39.735C127.4,29.683 119.252,21.535 109.2,21.535C99.148,21.535 91,29.683 91,39.735C91,49.787 99.148,57.935 109.2,57.935Z" fill="#BDE5EC"/>
<path d="M173.8,90.335L173.8,112.135L191.8,135.135L184.8,214.535L56,214.535L61,120.135L83.8,103.735L88,79.535L101,77.935L112.2,96.535C115.2,101.535 120.4,105.135 126.2,105.935C134.8,107.135 143.2,102.935 147,95.135L154.8,79.535L173.8,90.335Z" fill="#BDE5EC"/>
</g>
<path d="M212.8,196.135C216.2,197.135 223.6,198.935 229.6,200.335C235.2,201.735 239.6,205.935 241.2,211.335L248.8,236.335L150.8,236.335L157.6,211.135C159,205.735 163.4,201.335 168.8,199.735L184.4,195.135L212.8,196.135Z" fill="#BDE5EC"/>
<path d="M210.8,180.935L212.8,196.135C212.8,196.135 195.4,213.735 184.4,195.535C189.8,180.935 185.4,172.135 185.4,172.135L186.2,163.535L201.6,165.335L210.8,180.935Z" fill="#BDE5EC"/>
<path d="M221.2,181.135C214.6,188.135 205.2,185.535 201.8,183.735C197,180.935 187.2,177.535 182.4,169.535C173.4,154.535 172,138.735 179.8,128.735C194.2,110.935 216.6,118.535 225.4,133.535C232,144.735 227.8,174.135 221.2,181.135Z" fill="#BDE5EC"/>
<path d="M194.8,162.135C194.8,162.135 187.6,164.735 187.6,158.535C187.8,152.335 196,145.535 198.4,154.935Z" fill="#BDE5EC"/>
<path d="M198.6,136.735C198.6,147.335 207.2,156.135 218,156.135C228.6,156.135 237.4,147.535 237.4,136.735Z" fill="#BDE5EC"/>
<path d="M220.8,143.135C226.8,143.135 231.6,138.335 231.6,132.335C231.6,126.335 226.8,121.535 220.8,121.535Z" fill="#BDE5EC"/>
<path d="M165.8,193.735C174.4,199.735 186,197.535 192,188.935C198,180.335 195.8,168.735 187.2,162.735Z" fill="#BDE5EC"/>
<path d="M162,207.335C162,207.335 175.2,152.135 176.2,140.735C177.2,129.135 202.8,146.935 202.8,146.935L202.8,210.535Z" fill="#BDE5EC"/>
<path d="M38.2,193.535C34.6,194.535 26.8,196.535 20.4,198.135C14.4,199.535 9.8,204.135 8,209.935L0,236.735L104.4,236.735L97.2,209.935C95.6,204.135 91.2,199.535 85.2,197.735L68.4,192.935L38.2,193.535Z" fill="#BDE5EC"/>
<path d="M40.4,177.335L38.4,193.535C38.4,193.535 57,212.135 68.6,192.935C63,177.335 67.6,167.935 67.6,167.935L66.6,158.535L50.2,160.535L40.4,177.335Z" fill="#BDE5EC"/>
<path d="M29.2,177.535C36.2,184.935 46.2,182.335 49.8,180.135C55,177.135 65.4,173.535 70.6,164.935C80.2,149.135 81.8,132.135 73.4,121.735C58.2,102.735 34.2,110.935 24.8,126.735C17.8,138.735 22.2,170.135 29.2,177.535Z" fill="#BDE5EC"/>
<path d="M57.4,157.335C57.4,157.335 65.2,160.135 65,153.535C64.8,146.935 56.2,139.535 53.6,149.735Z" fill="#BDE5EC"/>
<path d="M32.4,127.735C32.4,132.935 28.2,136.935 23.2,136.935C18.2,136.935 13.8,132.935 13.8,127.735Z" fill="#BDE5EC"/>
<path d="M34.8,130.935C31.2,134.535 25.4,134.535 21.8,130.935C18.2,127.335 18.2,121.535 21.8,117.935Z" fill="#BDE5EC"/>
<path d="M78.8,170.135C75.2,173.735 69.4,173.735 65.8,170.135C62.2,166.535 62.2,160.735 65.8,157.135Z" fill="#BDE5EC"/>
<path d="M117.4,194.985C113.4,195.985 105,198.185 98,199.985C91.6,201.585 86.4,206.385 84.6,212.785L76,241.585L189,241.585L181,212.585C179.2,206.185 174.4,201.385 168.2,199.385L150.2,194.185L117.4,194.985Z" fill="#AA0404"/>
<path d="M116.6,172.535L114.4,189.935C114.4,189.935 134.6,210.135 147,189.335C140.8,172.535 145.8,162.335 145.8,162.335L145,152.335L127.2,154.335L116.6,172.535Z" fill="#FFC298"/>
<path d="M139.8,158.935C139.8,158.535 145,155.335 145,154.935L144.8,152.335L127,154.335L116.6,172.535L115,184.735C120,185.135 126.4,182.335 128.8,181.135C136.6,177.335 139.2,170.135 139.8,158.935Z" fill="#E1927A"/>
<path d="M105.2,172.335C113.4,180.935 125,177.935 129.2,175.535C135.2,171.935 144.8,163.935 147,152.335C149,140.735 149,130.935 140.8,120.135C132.6,109.335 101,111.535 100,113.335C91.6,126.935 97,163.735 105.2,172.335Z" fill="#FFC298"/>
<path d="M85.4,106.735C85.4,106.735 81.6,120.935 96.2,126.335C110.4,131.535 125.8,120.935 125.8,120.935C125.8,120.935 125.8,143.935 146,162.135C163.4,157.735 172.6,114.935 143.2,100.335C112.6,85.135 95.2,110.535 95.2,110.535L85.4,106.735Z" fill="#000000"/>
<path d="M135,150.935C135,150.935 143.4,153.935 143.2,146.735C143,139.535 133.6,131.735 130.8,142.735Z" fill="#FFC298"/>
<path d="M98,111.735C93.8,111.735 90.4,108.335 90.4,104.135C90.4,99.935 93.8,96.535 98,96.535Z" fill="#000000"/>
<path d="M194.4,3.935L155.4,71.335C152.6,76.335 156.2,82.535 161.8,82.535L239.8,82.535C245.6,82.535 249.2,76.335 246.2,71.335L207.2,3.935C204.4,-1.065 197.4,-1.065 194.4,3.935Z" fill="#E44450"/>
<path d="M207.8,23.535L203.8,53.335L198,53.335L193.8,23.535L207.8,23.535Z" fill="#FFFFFF"/>
<path d="M200.8,70.935C203.561,70.935 205.8,68.696 205.8,65.935C205.8,63.173 203.561,60.935 200.8,60.935C198.038,60.935 195.8,63.173 195.8,65.935C195.8,68.696 198.038,70.935 200.8,70.935Z" fill="#FFFFFF"/>
</svg>
