<svg width="32" height="32" viewBox="0 0 32 32" fill="none" xmlns="http://www.w3.org/2000/svg" xmlns:xlink="http://www.w3.org/1999/xlink">
<path d="M25.6,16.007C25.6,21.911 20.814,26.697 14.91,26.697L14.91,29.072C22.126,29.072 27.975,23.223 27.975,16.007L25.6,16.007ZM14.91,26.697C9.007,26.697 4.221,21.911 4.221,16.007L1.845,16.007C1.845,23.223 7.695,29.072 14.91,29.072L14.91,26.697ZM4.221,16.007C4.221,10.104 9.007,5.318 14.91,5.318L14.91,2.942C7.695,2.942 1.845,8.792 1.845,16.007L4.221,16.007ZM14.91,5.318C20.814,5.318 25.6,10.104 25.6,16.007L27.975,16.007C27.975,8.792 22.126,2.942 14.91,2.942L14.91,5.318Z" transform="rotate(0 14.91 16.007)" fill="#000000"/>
<path d="M16.1,9.079C16.1,8.423 15.568,7.891 14.912,7.891C14.256,7.891 13.724,8.423 13.724,9.079L16.1,9.079ZM14.912,16.007L13.724,16.007C13.724,16.663 14.256,17.195 14.912,17.195L14.912,16.007ZM21.84,17.195C22.496,17.195 23.028,16.663 23.028,16.007C23.028,15.351 22.496,14.82 21.84,14.82L21.84,17.195ZM13.724,9.079L13.724,16.007L16.1,16.007L16.1,9.079L13.724,9.079ZM14.912,17.195L21.84,17.195L21.84,14.82L14.912,14.82L14.912,17.195Z" transform="rotate(0 18.376 12.543)" fill="#000000"/>
</svg>
