<svg width="60" height="58" viewBox="0 0 60 58" fill="none" xmlns="http://www.w3.org/2000/svg" xmlns:xlink="http://www.w3.org/1999/xlink">
<path d="M25,16.972C25,15.683 26.119,14.639 27.5,14.639L50,14.639C51.381,14.639 52.5,15.683 52.5,16.972C52.5,18.261 51.381,19.305 50,19.305L27.5,19.305C26.119,19.305 25,18.261 25,16.972Z" clip-rule="evenodd" fill-rule="evenodd" fill="#F40909"/>
<path d="M10,40.305C10,39.017 11.119,37.972 12.5,37.972L35,37.972C36.381,37.972 37.5,39.017 37.5,40.305C37.5,41.594 36.381,42.639 35,42.639L12.5,42.639C11.119,42.639 10,41.594 10,40.305Z" clip-rule="evenodd" fill-rule="evenodd" fill="#F40909"/>
<path d="M42.5,35.639C39.739,35.639 37.5,37.728 37.5,40.305C37.5,42.883 39.739,44.972 42.5,44.972C45.261,44.972 47.5,42.883 47.5,40.305C47.5,37.728 45.261,35.639 42.5,35.639ZM32.5,40.305C32.5,35.151 36.977,30.972 42.5,30.972C48.023,30.972 52.5,35.151 52.5,40.305C52.5,45.46 48.023,49.639 42.5,49.639C36.977,49.639 32.5,45.46 32.5,40.305Z" clip-rule="evenodd" fill-rule="evenodd" fill="#F40909"/>
<path d="M17.5,12.305C14.739,12.305 12.5,14.395 12.5,16.972C12.5,19.549 14.739,21.639 17.5,21.639C20.261,21.639 22.5,19.549 22.5,16.972C22.5,14.395 20.261,12.305 17.5,12.305ZM7.5,16.972C7.5,11.817 11.977,7.639 17.5,7.639C23.023,7.639 27.5,11.817 27.5,16.972C27.5,22.127 23.023,26.305 17.5,26.305C11.977,26.305 7.5,22.127 7.5,16.972Z" clip-rule="evenodd" fill-rule="evenodd" fill="#F40909"/>
</svg>
