<svg width="34" height="38" viewBox="0 0 34 38" fill="none" xmlns="http://www.w3.org/2000/svg" xmlns:xlink="http://www.w3.org/1999/xlink">
<path d="M2.683,29.863L2.683,22.346L-0.442,22.346L-0.442,29.863L2.683,29.863ZM2.683,22.346C2.683,19.937 4.651,17.955 7.112,17.955L7.112,14.83C2.937,14.83 -0.442,18.199 -0.442,22.346L2.683,22.346ZM7.112,17.955L26.396,17.955L26.396,14.83L7.112,14.83L7.112,17.955ZM26.396,17.955C28.845,17.955 30.825,19.925 30.825,22.346L33.95,22.346C33.95,18.174 30.546,14.83 26.396,14.83L26.396,17.955ZM30.825,22.346L30.825,29.863L33.95,29.863L33.95,22.346L30.825,22.346ZM30.825,29.863C30.825,32.272 28.858,34.254 26.396,34.254L26.396,37.379C30.571,37.379 33.95,34.01 33.95,29.863L30.825,29.863ZM26.396,34.254L7.112,34.254L7.112,37.379L26.396,37.379L26.396,34.254ZM7.112,34.254C4.648,34.254 2.683,32.288 2.683,29.863L-0.442,29.863C-0.442,34.033 2.941,37.379 7.112,37.379L7.112,34.254Z" fill="#C2C3CB"/>
<path d="M6.98,16.412L5.417,16.412C5.417,17.275 6.117,17.974 6.98,17.974L6.98,16.412ZM26.51,16.412L26.51,17.974C27.373,17.974 28.072,17.275 28.072,16.412L26.51,16.412ZM8.542,16.412L8.542,10.666L5.417,10.666L5.417,16.412L8.542,16.412ZM8.542,10.666C8.542,6.188 12.213,2.526 16.745,2.526L16.745,-0.599C10.506,-0.599 5.417,4.443 5.417,10.666L8.542,10.666ZM16.745,2.526C21.276,2.526 24.947,6.188 24.947,10.666L28.072,10.666C28.072,4.443 22.983,-0.599 16.745,-0.599L16.745,2.526ZM24.947,10.666L24.947,16.412L28.072,16.412L28.072,10.666L24.947,10.666ZM26.51,14.849L6.98,14.849L6.98,17.974L26.51,17.974L26.51,14.849Z" fill="#C2C3CB"/>
<line x1="15.182" y1="25.135" x2="15.182" y2="29.995" stroke="#C2C3CB" stroke-width="1.563" stroke-miterlimit="3.999327" stroke-linecap="round" stroke-linejoin="round"/>
<path d="M17.135,24.174C17.135,24.373 16.97,24.552 16.745,24.552L16.745,27.677C18.677,27.677 20.26,26.118 20.26,24.174L17.135,24.174ZM16.745,24.552C16.52,24.552 16.354,24.373 16.354,24.174L13.229,24.174C13.229,26.118 14.813,27.677 16.745,27.677L16.745,24.552ZM16.354,24.174C16.354,23.975 16.52,23.796 16.745,23.796L16.745,20.671C14.813,20.671 13.229,22.23 13.229,24.174L16.354,24.174ZM16.745,23.796C16.97,23.796 17.135,23.975 17.135,24.174L20.26,24.174C20.26,22.23 18.677,20.671 16.745,20.671L16.745,23.796Z" fill="#C2C3CB"/>
</svg>
