<svg width="34" height="38" viewBox="0 0 34 38" fill="none" xmlns="http://www.w3.org/2000/svg" xmlns:xlink="http://www.w3.org/1999/xlink">
<path d="M2.503,30.237L2.503,22.72L-0.622,22.72L-0.622,30.237L2.503,30.237ZM2.503,22.72C2.503,20.311 4.471,18.329 6.933,18.329L6.933,15.204C2.758,15.204 -0.622,18.573 -0.622,22.72L2.503,22.72ZM6.933,18.329L26.216,18.329L26.216,15.204L6.933,15.204L6.933,18.329ZM26.216,18.329C28.666,18.329 30.646,20.299 30.646,22.72L33.771,22.72C33.771,18.547 30.366,15.204 26.216,15.204L26.216,18.329ZM30.646,22.72L30.646,30.237L33.771,30.237L33.771,22.72L30.646,22.72ZM30.646,30.237C30.646,32.646 28.678,34.628 26.216,34.628L26.216,37.753C30.391,37.753 33.771,34.384 33.771,30.237L30.646,30.237ZM26.216,34.628L6.933,34.628L6.933,37.753L26.216,37.753L26.216,34.628ZM6.933,34.628C4.468,34.628 2.503,32.661 2.503,30.237L-0.622,30.237C-0.622,34.406 2.761,37.753 6.933,37.753L6.933,34.628Z" fill="#C2C3CB"/>
<path d="M6.8,16.786L5.238,16.786C5.238,17.649 5.937,18.348 6.8,18.348L6.8,16.786ZM26.33,16.786L26.33,18.348C27.193,18.348 27.893,17.649 27.893,16.786L26.33,16.786ZM8.363,16.786L8.363,11.039L5.238,11.039L5.238,16.786L8.363,16.786ZM8.363,11.039C8.363,6.561 12.034,2.9 16.565,2.9L16.565,-0.225C10.327,-0.225 5.238,4.817 5.238,11.039L8.363,11.039ZM16.565,2.9C21.097,2.9 24.768,6.561 24.768,11.039L27.893,11.039C27.893,4.817 22.804,-0.225 16.565,-0.225L16.565,2.9ZM24.768,11.039L24.768,16.786L27.893,16.786L27.893,11.039L24.768,11.039ZM26.33,15.223L6.8,15.223L6.8,18.348L26.33,18.348L26.33,15.223Z" fill="#C2C3CB"/>
<line x1="15.003" y1="25.508" x2="15.003" y2="30.369" stroke="#C2C3CB" stroke-width="1.563" stroke-miterlimit="3.999327" stroke-linecap="round" stroke-linejoin="round"/>
<path d="M16.955,24.548C16.955,24.747 16.79,24.926 16.565,24.926L16.565,28.051C18.497,28.051 20.08,26.492 20.08,24.548L16.955,24.548ZM16.565,24.926C16.34,24.926 16.174,24.747 16.174,24.548L13.049,24.548C13.049,26.492 14.633,28.051 16.565,28.051L16.565,24.926ZM16.174,24.548C16.174,24.348 16.34,24.17 16.565,24.17L16.565,21.045C14.633,21.045 13.049,22.604 13.049,24.548L16.174,24.548ZM16.565,24.17C16.79,24.17 16.955,24.348 16.955,24.548L20.08,24.548C20.08,22.604 18.497,21.045 16.565,21.045L16.565,24.17Z" fill="#C2C3CB"/>
</svg>
