<svg width="20" height="8" viewBox="0 0 20 8" fill="none" xmlns="http://www.w3.org/2000/svg" xmlns:xlink="http://www.w3.org/1999/xlink">
<path d="M2.429,0.767C1.818,0.39 1.017,0.58 0.64,1.191C0.263,1.802 0.453,2.603 1.064,2.98L2.429,0.767ZM7.112,5.181L6.43,6.288L6.43,6.288L7.112,5.181ZM12.888,5.181L13.57,6.288L13.57,6.288L12.888,5.181ZM18.936,2.98C19.547,2.603 19.737,1.802 19.36,1.191C18.983,0.58 18.182,0.39 17.571,0.767L18.936,2.98ZM1.064,2.98L6.43,6.288L7.794,4.075L2.429,0.767L1.064,2.98ZM6.43,6.288C8.619,7.637 11.381,7.637 13.57,6.288L12.206,4.075C10.853,4.908 9.147,4.908 7.794,4.075L6.43,6.288ZM13.57,6.288L18.936,2.98L17.571,0.767L12.206,4.075L13.57,6.288Z" fill="#A2A2A7"/>
</svg>
