<svg width="16" height="28" viewBox="0 0 16 28" fill="none" xmlns="http://www.w3.org/2000/svg" xmlns:xlink="http://www.w3.org/1999/xlink">
<path d="M0.939,24.962C0.354,25.548 0.354,26.497 0.939,27.083C1.525,27.669 2.475,27.669 3.061,27.083L0.939,24.962ZM14,14.022L15.061,15.083C15.646,14.497 15.646,13.548 15.061,12.962L14,14.022ZM3.061,0.962C2.475,0.376 1.525,0.376 0.939,0.962C0.354,1.548 0.354,2.497 0.939,3.083L3.061,0.962ZM3.061,27.083L15.061,15.083L12.939,12.962L0.939,24.962L3.061,27.083ZM15.061,12.962L3.061,0.962L0.939,3.083L12.939,15.083L15.061,12.962Z" fill="#7E848D"/>
</svg>
