<svg width="16" height="28" viewBox="0 0 16 28" fill="none" xmlns="http://www.w3.org/2000/svg" xmlns:xlink="http://www.w3.org/1999/xlink">
<path d="M15.061,3.061C15.646,2.475 15.646,1.525 15.061,0.939C14.475,0.354 13.525,0.354 12.939,0.939L15.061,3.061ZM2,14L0.939,12.939C0.354,13.525 0.354,14.475 0.939,15.061L2,14ZM12.939,27.061C13.525,27.646 14.475,27.646 15.061,27.061C15.646,26.475 15.646,25.525 15.061,24.939L12.939,27.061ZM12.939,0.939L0.939,12.939L3.061,15.061L15.061,3.061L12.939,0.939ZM0.939,15.061L12.939,27.061L15.061,24.939L3.061,12.939L0.939,15.061Z" fill="#1E1E2D"/>
</svg>
