<svg width="16" height="28" viewBox="0 0 16 28" fill="none" xmlns="http://www.w3.org/2000/svg" xmlns:xlink="http://www.w3.org/1999/xlink">
<path d="M0.939,24.744C0.354,25.33 0.354,26.279 0.939,26.865C1.525,27.451 2.475,27.451 3.061,26.865L0.939,24.744ZM14,13.804L15.061,14.865C15.646,14.279 15.646,13.33 15.061,12.744L14,13.804ZM3.061,0.744C2.475,0.158 1.525,0.158 0.939,0.744C0.354,1.33 0.354,2.279 0.939,2.865L3.061,0.744ZM3.061,26.865L15.061,14.865L12.939,12.744L0.939,24.744L3.061,26.865ZM15.061,12.744L3.061,0.744L0.939,2.865L12.939,14.865L15.061,12.744Z" fill="#7E848D"/>
</svg>
