<svg width="16" height="28" viewBox="0 0 16 28" fill="none" xmlns="http://www.w3.org/2000/svg" xmlns:xlink="http://www.w3.org/1999/xlink">
<path d="M0.939,24.939C0.354,25.525 0.354,26.475 0.939,27.061C1.525,27.646 2.475,27.646 3.061,27.061L0.939,24.939ZM14,14L15.061,15.061C15.646,14.475 15.646,13.525 15.061,12.939L14,14ZM3.061,0.939C2.475,0.354 1.525,0.354 0.939,0.939C0.354,1.525 0.354,2.475 0.939,3.061L3.061,0.939ZM3.061,27.061L15.061,15.061L12.939,12.939L0.939,24.939L3.061,27.061ZM15.061,12.939L3.061,0.939L0.939,3.061L12.939,15.061L15.061,12.939Z" fill="#2F3236" fill-opacity="0.77"/>
</svg>
