<svg width="28" height="26" viewBox="0 0 28 26" fill="none" xmlns="http://www.w3.org/2000/svg" xmlns:xlink="http://www.w3.org/1999/xlink">
<path d="M1.085,11.024C-0.019,11.024 -0.915,11.919 -0.915,13.024C-0.915,14.128 -0.019,15.024 1.085,15.024L1.085,11.024ZM25.152,15.024C26.257,15.024 27.152,14.128 27.152,13.024C27.152,11.919 26.257,11.024 25.152,11.024L25.152,15.024ZM15.119,2.161C15.119,1.057 14.224,0.161 13.119,0.161C12.014,0.161 11.119,1.057 11.119,2.161L15.119,2.161ZM11.119,23.886C11.119,24.99 12.014,25.886 13.119,25.886C14.224,25.886 15.119,24.99 15.119,23.886L11.119,23.886ZM1.085,15.024L25.152,15.024L25.152,11.024L1.085,11.024L1.085,15.024ZM25.152,11.024L1.085,11.024L1.085,15.024L25.152,15.024L25.152,11.024ZM11.119,2.161L11.119,23.886L15.119,23.886L15.119,2.161L11.119,2.161Z" fill="#FFFFFF"/>
</svg>
