<svg width="30" height="26" viewBox="0 0 30 26" fill="none" xmlns="http://www.w3.org/2000/svg" xmlns:xlink="http://www.w3.org/1999/xlink">
<path d="M2.884,11.023C1.779,11.023 0.884,11.919 0.884,13.023C0.884,14.128 1.779,15.023 2.884,15.023L2.884,11.023ZM26.951,15.023C28.055,15.023 28.951,14.128 28.951,13.023C28.951,11.919 28.055,11.023 26.951,11.023L26.951,15.023ZM16.917,2.161C16.917,1.057 16.022,0.161 14.917,0.161C13.813,0.161 12.917,1.057 12.917,2.161L16.917,2.161ZM12.917,23.886C12.917,24.99 13.813,25.886 14.917,25.886C16.022,25.886 16.917,24.99 16.917,23.886L12.917,23.886ZM2.884,15.023L26.951,15.023L26.951,11.023L2.884,11.023L2.884,15.023ZM26.951,11.023L2.884,11.023L2.884,15.023L26.951,15.023L26.951,11.023ZM12.917,2.161L12.917,23.886L16.917,23.886L16.917,2.161L12.917,2.161Z" fill="#FFFFFF"/>
</svg>
