<svg width="28" height="26" viewBox="0 0 28 26" fill="none" xmlns="http://www.w3.org/2000/svg" xmlns:xlink="http://www.w3.org/1999/xlink">
<path d="M1.088,11.024C-0.017,11.024 -0.912,11.919 -0.912,13.024C-0.912,14.128 -0.017,15.024 1.088,15.024L1.088,11.024ZM25.155,15.024C26.259,15.024 27.155,14.128 27.155,13.024C27.155,11.919 26.259,11.024 25.155,11.024L25.155,15.024ZM15.121,2.161C15.121,1.057 14.226,0.161 13.121,0.161C12.017,0.161 11.121,1.057 11.121,2.161L15.121,2.161ZM11.121,23.886C11.121,24.99 12.017,25.886 13.121,25.886C14.226,25.886 15.121,24.99 15.121,23.886L11.121,23.886ZM1.088,15.024L25.155,15.024L25.155,11.024L1.088,11.024L1.088,15.024ZM25.155,11.024L1.088,11.024L1.088,15.024L25.155,15.024L25.155,11.024ZM11.121,2.161L11.121,23.886L15.121,23.886L15.121,2.161L11.121,2.161Z" fill="#FFFFFF"/>
</svg>
