<svg width="30" height="26" viewBox="0 0 30 26" fill="none" xmlns="http://www.w3.org/2000/svg" xmlns:xlink="http://www.w3.org/1999/xlink">
<path d="M2.885,11.023C1.78,11.023 0.885,11.919 0.885,13.023C0.885,14.128 1.78,15.023 2.885,15.023L2.885,11.023ZM26.952,15.023C28.056,15.023 28.952,14.128 28.952,13.023C28.952,11.919 28.056,11.023 26.952,11.023L26.952,15.023ZM16.918,2.161C16.918,1.057 16.023,0.161 14.918,0.161C13.814,0.161 12.918,1.057 12.918,2.161L16.918,2.161ZM12.918,23.886C12.918,24.99 13.814,25.886 14.918,25.886C16.023,25.886 16.918,24.99 16.918,23.886L12.918,23.886ZM2.885,15.023L26.952,15.023L26.952,11.023L2.885,11.023L2.885,15.023ZM26.952,11.023L2.885,11.023L2.885,15.023L26.952,15.023L26.952,11.023ZM12.918,2.161L12.918,23.886L16.918,23.886L16.918,2.161L12.918,2.161Z" fill="#FFFFFF"/>
</svg>
