<svg width="42" height="38" viewBox="0 0 42 38" fill="none" xmlns="http://www.w3.org/2000/svg" xmlns:xlink="http://www.w3.org/1999/xlink">
<path d="M2.734,34.024L0.734,34.024L2.734,34.024ZM2.734,15.167L2.734,13.167C1.63,13.167 0.734,14.062 0.734,15.167L2.734,15.167ZM39.937,15.167L41.937,15.167C41.937,14.062 41.042,13.167 39.937,13.167L39.937,15.167ZM2.734,7.624L0.734,7.624L2.734,7.624ZM2.734,15.167L0.734,15.167C0.734,16.271 1.63,17.167 2.734,17.167L2.734,15.167ZM39.937,15.167L39.937,17.167C41.042,17.167 41.937,16.271 41.937,15.167L39.937,15.167ZM31.603,1.967C31.603,0.862 30.708,-0.033 29.603,-0.033C28.499,-0.033 27.603,0.862 27.603,1.967L31.603,1.967ZM27.603,9.51C27.603,10.614 28.499,11.51 29.603,11.51C30.708,11.51 31.603,10.614 31.603,9.51L27.603,9.51ZM15.069,1.967C15.069,0.862 14.173,-0.033 13.069,-0.033C11.964,-0.033 11.069,0.862 11.069,1.967L15.069,1.967ZM11.069,9.51C11.069,10.614 11.964,11.51 13.069,11.51C14.173,11.51 15.069,10.614 15.069,9.51L11.069,9.51ZM37.871,33.91L4.801,33.91L4.801,37.91L37.871,37.91L37.871,33.91ZM4.801,33.91C4.768,33.91 4.739,33.903 4.717,33.895C4.695,33.887 4.687,33.879 4.688,33.88L1.992,36.835C2.766,37.541 3.779,37.91 4.801,37.91L4.801,33.91ZM4.688,33.88C4.689,33.881 4.701,33.893 4.713,33.919C4.725,33.945 4.734,33.982 4.734,34.024L0.734,34.024C0.734,35.117 1.212,36.123 1.992,36.835L4.688,33.88ZM4.734,34.024L4.734,15.167L0.734,15.167L0.734,34.024L4.734,34.024ZM2.734,17.167L39.937,17.167L39.937,13.167L2.734,13.167L2.734,17.167ZM37.937,15.167L37.937,34.024L41.937,34.024L41.937,15.167L37.937,15.167ZM37.937,34.024C37.937,33.982 37.947,33.945 37.959,33.919C37.971,33.893 37.983,33.881 37.984,33.88L40.68,36.835C41.46,36.123 41.937,35.117 41.937,34.024L37.937,34.024ZM37.984,33.88C37.985,33.879 37.976,33.887 37.955,33.895C37.933,33.903 37.904,33.91 37.871,33.91L37.871,37.91C38.893,37.91 39.906,37.541 40.68,36.835L37.984,33.88ZM41.937,7.624C41.937,6.531 41.46,5.525 40.68,4.813L37.984,7.768C37.983,7.767 37.971,7.755 37.959,7.729C37.947,7.702 37.937,7.666 37.937,7.624L41.937,7.624ZM40.68,4.813C39.906,4.107 38.893,3.738 37.871,3.738L37.871,7.738C37.904,7.738 37.933,7.744 37.955,7.753C37.976,7.761 37.985,7.769 37.984,7.768L40.68,4.813ZM37.871,3.738L4.801,3.738L4.801,7.738L37.871,7.738L37.871,3.738ZM4.801,3.738C3.779,3.738 2.766,4.107 1.992,4.813L4.688,7.768C4.687,7.769 4.695,7.761 4.717,7.753C4.739,7.744 4.768,7.738 4.801,7.738L4.801,3.738ZM1.992,4.813C1.212,5.525 0.734,6.531 0.734,7.624L4.734,7.624C4.734,7.666 4.725,7.702 4.713,7.729C4.701,7.755 4.689,7.767 4.688,7.768L1.992,4.813ZM0.734,7.624L0.734,15.167L4.734,15.167L4.734,7.624L0.734,7.624ZM2.734,17.167L39.937,17.167L39.937,13.167L2.734,13.167L2.734,17.167ZM41.937,15.167L41.937,7.624L37.937,7.624L37.937,15.167L41.937,15.167ZM27.603,1.967L27.603,9.51L31.603,9.51L31.603,1.967L27.603,1.967ZM31.603,9.51L31.603,1.967L27.603,1.967L27.603,9.51L31.603,9.51ZM11.069,1.967L11.069,9.51L15.069,9.51L15.069,1.967L11.069,1.967Z" fill="#FFFFFF"/>
</svg>
