<svg width="28" height="26" viewBox="0 0 28 26" fill="none" xmlns="http://www.w3.org/2000/svg" xmlns:xlink="http://www.w3.org/1999/xlink">
<path d="M1.295,10.064C0.19,10.064 -0.705,10.959 -0.705,12.064C-0.705,13.168 0.19,14.064 1.295,14.064L1.295,10.064ZM25.408,14.064C26.513,14.064 27.408,13.168 27.408,12.064C27.408,10.959 26.513,10.064 25.408,10.064L25.408,14.064ZM15.351,1.064C15.351,-0.041 14.456,-0.936 13.351,-0.936C12.247,-0.936 11.351,-0.041 11.351,1.064L15.351,1.064ZM11.351,23.064C11.351,24.168 12.247,25.064 13.351,25.064C14.456,25.064 15.351,24.168 15.351,23.064L11.351,23.064ZM1.295,14.064L25.408,14.064L25.408,10.064L1.295,10.064L1.295,14.064ZM25.408,10.064L1.295,10.064L1.295,14.064L25.408,14.064L25.408,10.064ZM11.351,1.064L11.351,23.064L15.351,23.064L15.351,1.064L11.351,1.064Z" fill="#FFFFFF"/>
</svg>
