<svg width="30" height="26" viewBox="0 0 30 26" fill="none" xmlns="http://www.w3.org/2000/svg" xmlns:xlink="http://www.w3.org/1999/xlink">
<path d="M2.262,10.064C1.157,10.064 0.262,10.959 0.262,12.064C0.262,13.168 1.157,14.064 2.262,14.064L2.262,10.064ZM26.375,14.064C27.479,14.064 28.375,13.168 28.375,12.064C28.375,10.959 27.479,10.064 26.375,10.064L26.375,14.064ZM16.318,1.064C16.318,-0.041 15.423,-0.936 14.318,-0.936C13.214,-0.936 12.318,-0.041 12.318,1.064L16.318,1.064ZM12.318,23.064C12.318,24.168 13.214,25.064 14.318,25.064C15.423,25.064 16.318,24.168 16.318,23.064L12.318,23.064ZM2.262,14.064L26.375,14.064L26.375,10.064L2.262,10.064L2.262,14.064ZM26.375,10.064L2.262,10.064L2.262,14.064L26.375,14.064L26.375,10.064ZM12.318,1.064L12.318,23.064L16.318,23.064L16.318,1.064L12.318,1.064Z" fill="#FFFFFF"/>
</svg>
