<svg width="50" height="36" viewBox="0 0 50 36" fill="none" xmlns="http://www.w3.org/2000/svg" xmlns:xlink="http://www.w3.org/1999/xlink">
<path d="M0.79,3.686C0,5.129 0,7.02 0,10.8L0,25.2C0,28.98 0,30.871 0.79,32.314C1.485,33.585 2.594,34.617 3.959,35.264C5.509,36 7.54,36 11.6,36L36.733,36C40.794,36 42.824,36 44.375,35.264C45.739,34.617 46.848,33.585 47.543,32.314C48.333,30.871 48.333,28.98 48.333,25.2L48.333,10.8C48.333,7.02 48.333,5.129 47.543,3.686C46.848,2.415 45.739,1.383 44.375,0.736C42.824,0 40.794,0 36.733,0L11.6,0C7.54,0 5.509,0 3.959,0.736C2.594,1.383 1.485,2.415 0.79,3.686ZM13.45,9.395C12.35,8.692 10.846,8.952 10.091,9.977C9.335,11.002 9.616,12.402 10.716,13.105L20.065,19.077C22.537,20.655 25.797,20.655 28.268,19.077L37.617,13.105C38.718,12.402 38.998,11.002 38.243,9.977C37.488,8.952 35.984,8.692 34.883,9.395L25.534,15.366C24.71,15.892 23.623,15.892 22.8,15.366L13.45,9.395Z" clip-rule="evenodd" fill-rule="evenodd" fill="#121213" fill-opacity="0.59"/>
</svg>
