<svg width="20" height="16" viewBox="0 0 20 16" fill="none" xmlns="http://www.w3.org/2000/svg" xmlns:xlink="http://www.w3.org/1999/xlink">
<path d="M3.106,6.804C2.546,6.194 1.597,6.153 0.986,6.713C0.376,7.272 0.335,8.221 0.894,8.832L3.106,6.804ZM7.335,13.636L6.229,14.65C6.513,14.96 6.915,15.136 7.335,15.136C7.755,15.136 8.157,14.96 8.441,14.65L7.335,13.636ZM19.106,3.014C19.666,2.403 19.624,1.454 19.013,0.894C18.403,0.334 17.454,0.376 16.894,0.986L19.106,3.014ZM0.894,8.832L6.229,14.65L8.44,12.623L3.106,6.804L0.894,8.832ZM8.441,14.65L19.106,3.014L16.894,0.986L6.229,12.623L8.441,14.65Z" fill="#FFFFFF"/>
</svg>
