<svg width="46" height="38" viewBox="0 0 46 38" fill="none" xmlns="http://www.w3.org/2000/svg" xmlns:xlink="http://www.w3.org/1999/xlink">
<path d="M11.811,0C8.494,0 5.494,0.829 3.317,2.851C1.119,4.892 0,7.923 0,11.811L0,26.189C0,30.078 1.119,33.108 3.317,35.149C5.494,37.171 8.494,38 11.811,38L32.351,38C35.669,38 38.668,37.171 40.845,35.149C43.044,33.108 44.162,30.078 44.162,26.189L44.162,11.811C44.162,7.923 43.044,4.892 40.845,2.851C38.668,0.829 35.669,0 32.351,0L11.811,0ZM36.929,11.528C37.602,11.008 37.726,10.04 37.206,9.367C36.686,8.694 35.718,8.57 35.045,9.09L23.651,17.894C22.726,18.609 21.436,18.609 20.511,17.894L9.117,9.09C8.444,8.57 7.476,8.694 6.956,9.367C6.436,10.04 6.56,11.008 7.233,11.528L18.627,20.332C20.662,21.904 23.5,21.904 25.535,20.332L36.929,11.528Z" clip-rule="evenodd" fill-rule="evenodd" fill="#030303" fill-opacity="0.66"/>
</svg>
