<svg width="42" height="38" viewBox="0 0 42 38" fill="none" xmlns="http://www.w3.org/2000/svg" xmlns:xlink="http://www.w3.org/1999/xlink">
<path d="M30.6,19.126C30.6,23.765 26.316,27.897 20.545,27.897L20.545,31.897C28.09,31.897 34.6,26.385 34.6,19.126L30.6,19.126ZM20.545,27.897C14.775,27.897 10.491,23.765 10.491,19.126L6.491,19.126C6.491,26.385 13.001,31.897 20.545,31.897L20.545,27.897ZM10.491,19.126C10.491,14.487 14.775,10.355 20.545,10.355L20.545,6.355C13.001,6.355 6.491,11.867 6.491,19.126L10.491,19.126ZM20.545,10.355C26.316,10.355 30.6,14.487 30.6,19.126L34.6,19.126C34.6,11.867 28.09,6.355 20.545,6.355L20.545,10.355Z" fill="#000000" fill-opacity="0.7"/>
<path d="M32.212,6.018C31.389,6.754 31.318,8.018 32.054,8.842C32.79,9.666 34.054,9.737 34.878,9.001L32.212,6.018ZM35.119,8.785C35.942,8.049 36.013,6.785 35.277,5.961C34.541,5.138 33.277,5.067 32.453,5.803L35.119,8.785ZM5.971,29.467C5.148,30.203 5.077,31.467 5.813,32.291C6.548,33.114 7.813,33.185 8.636,32.449L5.971,29.467ZM8.878,32.234C9.701,31.498 9.772,30.234 9.036,29.41C8.3,28.586 7.036,28.515 6.212,29.251L8.878,32.234ZM18.545,2.687C18.545,3.792 19.44,4.687 20.545,4.687C21.65,4.687 22.545,3.792 22.545,2.687L18.545,2.687ZM22.545,2.555C22.545,1.45 21.65,0.555 20.545,0.555C19.44,0.555 18.545,1.45 18.545,2.555L22.545,2.555ZM18.545,35.697C18.545,36.802 19.44,37.697 20.545,37.697C21.65,37.697 22.545,36.802 22.545,35.697L18.545,35.697ZM22.545,35.565C22.545,34.46 21.65,33.565 20.545,33.565C19.44,33.565 18.545,34.46 18.545,35.565L22.545,35.565ZM2.148,21.126C3.253,21.126 4.148,20.231 4.148,19.126C4.148,18.021 3.253,17.126 2.148,17.126L2.148,21.126ZM2,17.126C0.895,17.126 0,18.021 0,19.126C0,20.231 0.895,21.126 2,21.126L2,17.126ZM39.09,21.126C40.194,21.126 41.09,20.231 41.09,19.126C41.09,18.021 40.194,17.126 39.09,17.126L39.09,21.126ZM38.941,17.126C37.837,17.126 36.941,18.021 36.941,19.126C36.941,20.231 37.837,21.126 38.941,21.126L38.941,17.126ZM6.212,9.001C7.036,9.737 8.3,9.666 9.036,8.842C9.772,8.018 9.701,6.754 8.878,6.018L6.212,9.001ZM8.636,5.803C7.813,5.067 6.548,5.138 5.813,5.961C5.077,6.785 5.148,8.049 5.971,8.785L8.636,5.803ZM32.453,32.449C33.277,33.185 34.541,33.114 35.277,32.291C36.013,31.467 35.942,30.203 35.119,29.467L32.453,32.449ZM34.878,29.251C34.054,28.515 32.79,28.586 32.054,29.41C31.318,30.234 31.389,31.498 32.212,32.234L34.878,29.251ZM34.878,9.001L35.119,8.785L32.453,5.803L32.212,6.018L34.878,9.001ZM32.453,5.803L32.212,6.018L34.878,9.001L35.119,8.785L32.453,5.803ZM8.636,32.449L8.878,32.234L6.212,29.251L5.971,29.467L8.636,32.449ZM6.212,29.251L5.971,29.467L8.636,32.449L8.878,32.234L6.212,29.251ZM22.545,2.687L22.545,2.555L18.545,2.555L18.545,2.687L22.545,2.687ZM18.545,2.555L18.545,2.687L22.545,2.687L22.545,2.555L18.545,2.555ZM22.545,35.697L22.545,35.565L18.545,35.565L18.545,35.697L22.545,35.697ZM18.545,35.565L18.545,35.697L22.545,35.697L22.545,35.565L18.545,35.565ZM2.148,17.126L2,17.126L2,21.126L2.148,21.126L2.148,17.126ZM2,21.126L2.148,21.126L2.148,17.126L2,17.126L2,21.126ZM39.09,17.126L38.941,17.126L38.941,21.126L39.09,21.126L39.09,17.126ZM38.941,21.126L39.09,21.126L39.09,17.126L38.941,17.126L38.941,21.126ZM8.878,6.018L8.636,5.803L5.971,8.785L6.212,9.001L8.878,6.018ZM5.971,8.785L6.212,9.001L8.878,6.018L8.636,5.803L5.971,8.785ZM35.119,29.467L34.878,29.251L32.212,32.234L32.453,32.449L35.119,29.467Z" fill="#000000" fill-opacity="0.7"/>
</svg>
