<svg width="50" height="46" viewBox="0 0 50 46" fill="none" xmlns="http://www.w3.org/2000/svg" xmlns:xlink="http://www.w3.org/1999/xlink">
<path d="M28.217,29.628C27.401,28.883 26.136,28.941 25.391,29.757C24.647,30.573 24.705,31.838 25.521,32.583L28.217,29.628ZM33.069,36.762L31.721,38.24C32.485,38.936 33.654,38.936 34.417,38.24L33.069,36.762ZM40.618,32.583C41.434,31.838 41.492,30.573 40.747,29.757C40.003,28.941 38.738,28.883 37.922,29.628L40.618,32.583ZM25.521,32.583L31.721,38.24L34.417,35.285L28.217,29.628L25.521,32.583ZM34.417,38.24L40.618,32.583L37.922,29.628L31.721,35.285L34.417,38.24Z" fill="#FFFFFF"/>
<path d="M35.069,6.591C35.069,5.486 34.174,4.591 33.069,4.591C31.965,4.591 31.069,5.486 31.069,6.591L35.069,6.591ZM31.069,36.762C31.069,37.867 31.965,38.762 33.069,38.762C34.174,38.762 35.069,37.867 35.069,36.762L31.069,36.762ZM14.535,36.762C14.535,37.867 15.43,38.762 16.535,38.762C17.639,38.762 18.535,37.867 18.535,36.762L14.535,36.762ZM18.535,6.591C18.535,5.486 17.639,4.591 16.535,4.591C15.43,4.591 14.535,5.486 14.535,6.591L18.535,6.591ZM31.069,6.591L31.069,36.762L35.069,36.762L35.069,6.591L31.069,6.591ZM35.069,36.762L35.069,6.591L31.069,6.591L31.069,36.762L35.069,36.762ZM18.535,36.762L18.535,6.591L14.535,6.591L14.535,36.762L18.535,36.762Z" fill="#FFFFFF"/>
<path d="M21.387,13.726C22.203,14.47 23.468,14.412 24.212,13.596C24.957,12.78 24.899,11.515 24.083,10.771L21.387,13.726ZM16.534,6.591L17.882,5.113C17.119,4.417 15.95,4.417 15.186,5.113L16.534,6.591ZM8.986,10.771C8.17,11.515 8.112,12.78 8.857,13.596C9.601,14.412 10.866,14.47 11.682,13.726L8.986,10.771ZM24.083,10.771L17.882,5.113L15.186,8.068L21.387,13.726L24.083,10.771ZM15.186,5.113L8.986,10.771L11.682,13.726L17.882,8.068L15.186,5.113Z" fill="#FFFFFF"/>
</svg>
