<svg width="34" height="28" viewBox="0 0 34 28" fill="none" xmlns="http://www.w3.org/2000/svg" xmlns:xlink="http://www.w3.org/1999/xlink">
<path d="M28.836,18.345L28.836,24.433C28.836,25.063 28.585,25.667 28.14,26.112C27.694,26.558 27.09,26.808 26.46,26.808L5.081,26.808C4.451,26.808 3.847,26.558 3.401,26.112C2.956,25.667 2.706,25.063 2.706,24.433L2.706,18.345C1.845,18.123 1.065,17.664 0.452,17.021C-0.16,16.377 -0.58,15.575 -0.76,14.705C-0.939,13.835 -0.871,12.931 -0.563,12.098C-0.255,11.265 0.281,10.534 0.983,9.99C1.685,9.446 2.526,9.11 3.41,9.019C4.294,8.929 5.185,9.088 5.983,9.479C6.781,9.87 7.454,10.476 7.924,11.23C8.394,11.984 8.644,12.855 8.644,13.743L8.644,19.682C8.644,19.997 8.769,20.299 8.992,20.521C9.215,20.744 9.517,20.869 9.832,20.869C10.147,20.869 10.449,20.744 10.672,20.521C10.895,20.299 11.02,19.997 11.02,19.682L11.02,14.931L20.522,14.931L20.522,19.682C20.522,19.997 20.647,20.299 20.869,20.521C21.092,20.744 21.394,20.869 21.709,20.869C22.024,20.869 22.326,20.744 22.549,20.521C22.772,20.299 22.897,19.997 22.897,19.682L22.897,13.743C22.897,12.855 23.147,11.984 23.617,11.23C24.088,10.476 24.76,9.87 25.558,9.479C26.356,9.088 27.247,8.929 28.131,9.019C29.015,9.11 29.856,9.446 30.558,9.99C31.26,10.534 31.796,11.265 32.104,12.098C32.412,12.931 32.48,13.835 32.301,14.705C32.122,15.575 31.702,16.377 31.089,17.021C30.477,17.664 29.696,18.123 28.836,18.345ZM10.916,12.555L20.625,12.555C20.906,10.895 21.765,9.389 23.05,8.302C24.336,7.215 25.965,6.618 27.648,6.617L28.197,6.617C28.278,6.625 28.36,6.616 28.437,6.591C28.514,6.566 28.585,6.524 28.646,6.47C28.706,6.415 28.754,6.348 28.787,6.274C28.819,6.199 28.836,6.119 28.836,6.038L28.836,5.429C28.836,3.854 28.21,2.343 27.096,1.23C25.983,0.116 24.472,-0.51 22.897,-0.51L8.644,-0.51C7.069,-0.51 5.559,0.116 4.445,1.23C3.331,2.343 2.706,3.854 2.706,5.429L2.706,6.053C2.705,6.134 2.722,6.214 2.755,6.289C2.787,6.363 2.836,6.43 2.896,6.484C2.956,6.539 3.027,6.58 3.104,6.606C3.182,6.631 3.263,6.64 3.344,6.632L3.893,6.632C5.575,6.632 7.202,7.227 8.487,8.311C9.772,9.395 10.632,10.898 10.916,12.555Z" transform="rotate(0 15.771 13.149)" fill="#000000"/>
</svg>
