<svg width="34" height="28" viewBox="0 0 34 28" fill="none" xmlns="http://www.w3.org/2000/svg" xmlns:xlink="http://www.w3.org/1999/xlink">
<path d="M28.836,18.303L28.836,24.39C28.836,25.02 28.585,25.624 28.14,26.07C27.694,26.515 27.09,26.766 26.46,26.766L5.081,26.766C4.451,26.766 3.847,26.515 3.401,26.07C2.956,25.624 2.706,25.02 2.706,24.39L2.706,18.303C1.845,18.081 1.065,17.622 0.452,16.979C-0.16,16.335 -0.58,15.533 -0.76,14.662C-0.939,13.792 -0.871,12.889 -0.563,12.056C-0.255,11.222 0.281,10.492 0.983,9.948C1.685,9.404 2.526,9.067 3.41,8.977C4.294,8.887 5.185,9.046 5.983,9.437C6.781,9.827 7.454,10.434 7.924,11.188C8.394,11.942 8.644,12.812 8.644,13.701L8.644,19.639C8.644,19.954 8.769,20.256 8.992,20.479C9.215,20.702 9.517,20.827 9.832,20.827C10.147,20.827 10.449,20.702 10.672,20.479C10.895,20.256 11.02,19.954 11.02,19.639L11.02,14.888L20.522,14.888L20.522,19.639C20.522,19.954 20.647,20.256 20.869,20.479C21.092,20.702 21.394,20.827 21.709,20.827C22.024,20.827 22.326,20.702 22.549,20.479C22.772,20.256 22.897,19.954 22.897,19.639L22.897,13.701C22.897,12.812 23.147,11.942 23.617,11.188C24.088,10.434 24.76,9.827 25.558,9.437C26.356,9.046 27.247,8.887 28.131,8.977C29.015,9.067 29.856,9.404 30.558,9.948C31.26,10.492 31.796,11.222 32.104,12.056C32.412,12.889 32.48,13.792 32.301,14.662C32.122,15.533 31.702,16.335 31.089,16.979C30.477,17.622 29.696,18.081 28.836,18.303ZM10.916,12.513L20.625,12.513C20.906,10.853 21.765,9.346 23.05,8.259C24.336,7.172 25.965,6.575 27.648,6.574L28.197,6.574C28.278,6.583 28.36,6.574 28.437,6.549C28.514,6.523 28.585,6.482 28.646,6.427C28.706,6.373 28.754,6.306 28.787,6.232C28.819,6.157 28.836,6.077 28.836,5.995L28.836,5.387C28.836,3.812 28.21,2.301 27.096,1.187C25.983,0.074 24.472,-0.552 22.897,-0.552L8.644,-0.552C7.069,-0.552 5.559,0.074 4.445,1.187C3.331,2.301 2.706,3.812 2.706,5.387L2.706,6.01C2.705,6.092 2.722,6.172 2.755,6.246C2.787,6.321 2.836,6.388 2.896,6.442C2.956,6.497 3.027,6.538 3.104,6.563C3.182,6.589 3.263,6.598 3.344,6.589L3.893,6.589C5.575,6.59 7.202,7.184 8.487,8.268C9.772,9.352 10.632,10.856 10.916,12.513Z" transform="rotate(0 15.771 13.107)" fill="#000000"/>
</svg>
