<svg width="72" height="6" viewBox="0 0 72 6" fill="none" xmlns="http://www.w3.org/2000/svg" xmlns:xlink="http://www.w3.org/1999/xlink">
<path d="M0,2.09C0,2.496 0.494,2.825 1.103,2.825L5.59,2.825L5.59,5.15C5.59,5.556 6.084,5.885 6.693,5.885L7.548,5.885C8.157,5.885 8.651,5.556 8.651,5.15L8.651,2.825L24.767,2.825L24.767,5.15C24.767,5.556 25.26,5.885 25.869,5.885L26.724,5.885C27.333,5.885 27.827,5.556 27.827,5.15L27.827,2.825L43.943,2.825L43.943,5.15C43.943,5.556 44.436,5.885 45.045,5.885L45.9,5.885C46.509,5.885 47.003,5.556 47.003,5.15L47.003,2.825L63.119,2.825L63.119,5.15C63.119,5.556 63.612,5.885 64.221,5.885L65.076,5.885C65.685,5.885 66.179,5.556 66.179,5.15L66.179,2.825L69.842,2.825C70.45,2.825 70.944,2.496 70.944,2.09L70.944,0.361C69.937,1.003 68.573,1.397 67.073,1.397L66.175,1.397L63.123,1.397L46.999,1.397L43.947,1.397L27.823,1.397L24.771,1.397L23.914,1.397C20.118,1.397 16.429,0.766 13.132,-0.439L1.103,-0.439C0.494,-0.439 0,-0.11 0,0.296L0,2.09Z" fill="#000000"/>
</svg>
