<svg width="34" height="28" viewBox="0 0 34 28" fill="none" xmlns="http://www.w3.org/2000/svg" xmlns:xlink="http://www.w3.org/1999/xlink">
<path d="M29.492,18.331L29.492,24.418C29.492,25.048 29.242,25.652 28.796,26.098C28.351,26.543 27.746,26.794 27.116,26.794L5.737,26.794C5.107,26.794 4.503,26.543 4.058,26.098C3.612,25.652 3.362,25.048 3.362,24.418L3.362,18.331C2.502,18.109 1.721,17.65 1.108,17.007C0.496,16.363 0.076,15.561 -0.103,14.69C-0.283,13.82 -0.215,12.917 0.094,12.084C0.402,11.25 0.937,10.52 1.639,9.976C2.342,9.432 3.183,9.095 4.066,9.005C4.95,8.914 5.842,9.074 6.64,9.465C7.438,9.855 8.11,10.462 8.58,11.216C9.051,11.97 9.3,12.84 9.301,13.729L9.301,19.667C9.301,19.982 9.426,20.284 9.648,20.507C9.871,20.73 10.173,20.855 10.488,20.855C10.803,20.855 11.105,20.73 11.328,20.507C11.551,20.284 11.676,19.982 11.676,19.667L11.676,14.916L21.178,14.916L21.178,19.667C21.178,19.982 21.303,20.284 21.526,20.507C21.748,20.73 22.05,20.855 22.365,20.855C22.68,20.855 22.983,20.73 23.205,20.507C23.428,20.284 23.553,19.982 23.553,19.667L23.553,13.729C23.554,12.84 23.803,11.97 24.274,11.216C24.744,10.462 25.416,9.855 26.214,9.465C27.012,9.074 27.904,8.914 28.787,9.005C29.671,9.095 30.512,9.432 31.214,9.976C31.917,10.52 32.452,11.25 32.76,12.084C33.068,12.917 33.137,13.82 32.957,14.69C32.778,15.561 32.358,16.363 31.745,17.007C31.133,17.65 30.352,18.109 29.492,18.331ZM11.572,12.541L21.282,12.541C21.562,10.881 22.421,9.374 23.707,8.287C24.992,7.2 26.621,6.603 28.304,6.602L28.853,6.602C28.934,6.611 29.016,6.602 29.093,6.577C29.171,6.551 29.242,6.51 29.302,6.455C29.362,6.401 29.41,6.334 29.443,6.26C29.476,6.185 29.492,6.105 29.492,6.023L29.492,5.415C29.492,3.84 28.866,2.329 27.752,1.215C26.639,0.102 25.128,-0.524 23.553,-0.524L9.301,-0.524C7.726,-0.524 6.215,0.102 5.101,1.215C3.988,2.329 3.362,3.84 3.362,5.415L3.362,6.038C3.362,6.12 3.378,6.2 3.411,6.274C3.444,6.349 3.492,6.416 3.552,6.47C3.612,6.525 3.683,6.566 3.761,6.591C3.838,6.617 3.92,6.626 4,6.617L4.55,6.617C6.231,6.618 7.858,7.212 9.143,8.296C10.428,9.38 11.288,10.884 11.572,12.541Z" transform="rotate(0 16.427 13.135)" fill="#8C8D89"/>
</svg>
