<svg width="34" height="28" viewBox="0 0 34 28" fill="none" xmlns="http://www.w3.org/2000/svg" xmlns:xlink="http://www.w3.org/1999/xlink">
<path d="M28.836,18.331L28.836,24.418C28.836,25.048 28.585,25.653 28.14,26.098C27.694,26.543 27.09,26.794 26.46,26.794L5.081,26.794C4.451,26.794 3.847,26.543 3.401,26.098C2.956,25.653 2.706,25.048 2.706,24.418L2.706,18.331C1.845,18.109 1.065,17.65 0.452,17.007C-0.16,16.363 -0.58,15.561 -0.76,14.69C-0.939,13.82 -0.871,12.917 -0.563,12.084C-0.255,11.251 0.281,10.52 0.983,9.976C1.685,9.432 2.526,9.095 3.41,9.005C4.294,8.915 5.185,9.074 5.983,9.465C6.781,9.856 7.454,10.462 7.924,11.216C8.394,11.97 8.644,12.84 8.644,13.729L8.644,19.667C8.644,19.982 8.769,20.285 8.992,20.507C9.215,20.73 9.517,20.855 9.832,20.855C10.147,20.855 10.449,20.73 10.672,20.507C10.895,20.285 11.02,19.982 11.02,19.667L11.02,14.917L20.522,14.917L20.522,19.667C20.522,19.982 20.647,20.285 20.869,20.507C21.092,20.73 21.394,20.855 21.709,20.855C22.024,20.855 22.326,20.73 22.549,20.507C22.772,20.285 22.897,19.982 22.897,19.667L22.897,13.729C22.897,12.84 23.147,11.97 23.617,11.216C24.088,10.462 24.76,9.856 25.558,9.465C26.356,9.074 27.247,8.915 28.131,9.005C29.015,9.095 29.856,9.432 30.558,9.976C31.26,10.52 31.796,11.251 32.104,12.084C32.412,12.917 32.48,13.82 32.301,14.69C32.122,15.561 31.702,16.363 31.089,17.007C30.477,17.65 29.696,18.109 28.836,18.331ZM10.916,12.541L20.625,12.541C20.906,10.881 21.765,9.374 23.05,8.287C24.336,7.2 25.965,6.603 27.648,6.602L28.197,6.602C28.278,6.611 28.36,6.602 28.437,6.577C28.514,6.551 28.585,6.51 28.646,6.455C28.706,6.401 28.754,6.334 28.787,6.26C28.819,6.185 28.836,6.105 28.836,6.023L28.836,5.415C28.836,3.84 28.21,2.329 27.096,1.216C25.983,0.102 24.472,-0.524 22.897,-0.524L8.644,-0.524C7.069,-0.524 5.559,0.102 4.445,1.216C3.331,2.329 2.706,3.84 2.706,5.415L2.706,6.038C2.705,6.12 2.722,6.2 2.755,6.275C2.787,6.349 2.836,6.416 2.896,6.47C2.956,6.525 3.027,6.566 3.104,6.592C3.182,6.617 3.263,6.626 3.344,6.617L3.893,6.617C5.575,6.618 7.202,7.213 8.487,8.297C9.772,9.381 10.632,10.884 10.916,12.541Z" transform="rotate(0 15.771 13.135)" fill="#000000"/>
</svg>
