<svg width="34" height="28" viewBox="0 0 34 28" fill="none" xmlns="http://www.w3.org/2000/svg" xmlns:xlink="http://www.w3.org/1999/xlink">
<path d="M30.146,18.374L30.146,24.461C30.146,25.091 29.896,25.695 29.45,26.14C29.005,26.586 28.401,26.836 27.771,26.836L6.392,26.836C5.762,26.836 5.158,26.586 4.712,26.14C4.267,25.695 4.016,25.091 4.016,24.461L4.016,18.374C3.156,18.151 2.375,17.693 1.763,17.049C1.15,16.405 0.73,15.603 0.551,14.733C0.372,13.863 0.44,12.96 0.748,12.126C1.056,11.293 1.591,10.563 2.294,10.018C2.996,9.474 3.837,9.138 4.721,9.047C5.605,8.957 6.496,9.116 7.294,9.507C8.092,9.898 8.764,10.505 9.234,11.258C9.705,12.012 9.954,12.883 9.955,13.771L9.955,19.71C9.955,20.025 10.08,20.327 10.303,20.55C10.526,20.772 10.828,20.898 11.143,20.898C11.458,20.898 11.76,20.772 11.982,20.55C12.205,20.327 12.33,20.025 12.33,19.71L12.33,14.959L21.832,14.959L21.832,19.71C21.832,20.025 21.957,20.327 22.18,20.55C22.403,20.772 22.705,20.898 23.02,20.898C23.335,20.898 23.637,20.772 23.86,20.55C24.082,20.327 24.208,20.025 24.208,19.71L24.208,13.771C24.208,12.883 24.458,12.012 24.928,11.258C25.398,10.505 26.071,9.898 26.869,9.507C27.666,9.116 28.558,8.957 29.442,9.047C30.326,9.138 31.166,9.474 31.869,10.018C32.571,10.563 33.107,11.293 33.415,12.126C33.723,12.96 33.791,13.863 33.612,14.733C33.432,15.603 33.012,16.405 32.4,17.049C31.787,17.693 31.006,18.151 30.146,18.374ZM12.226,12.583L21.936,12.583C22.217,10.924 23.076,9.417 24.361,8.33C25.646,7.243 27.275,6.646 28.958,6.645L29.508,6.645C29.589,6.653 29.67,6.644 29.748,6.619C29.825,6.594 29.896,6.552 29.956,6.498C30.016,6.443 30.064,6.376 30.097,6.302C30.13,6.228 30.147,6.147 30.146,6.066L30.146,5.457C30.146,3.882 29.521,2.372 28.407,1.258C27.293,0.144 25.783,-0.481 24.208,-0.481L9.955,-0.481C8.38,-0.481 6.869,0.144 5.756,1.258C4.642,2.372 4.016,3.882 4.016,5.457L4.016,6.081C4.016,6.162 4.033,6.242 4.065,6.317C4.098,6.391 4.146,6.458 4.206,6.513C4.267,6.567 4.338,6.609 4.415,6.634C4.492,6.659 4.574,6.668 4.655,6.66L5.204,6.66C6.885,6.66 8.512,7.255 9.797,8.339C11.082,9.423 11.943,10.926 12.226,12.583Z" transform="rotate(0 17.081 13.177)" fill="#8C8D89"/>
</svg>
