<svg width="20" height="20" viewBox="0 0 20 20" fill="none" xmlns="http://www.w3.org/2000/svg" xmlns:xlink="http://www.w3.org/1999/xlink">
<path d="M19.041,17.626C19.134,17.719 19.208,17.83 19.258,17.951C19.308,18.072 19.334,18.203 19.334,18.334C19.334,18.465 19.308,18.595 19.258,18.717C19.208,18.838 19.134,18.948 19.041,19.041C18.948,19.134 18.838,19.208 18.716,19.258C18.595,19.309 18.465,19.335 18.334,19.335C18.202,19.335 18.072,19.309 17.951,19.258C17.829,19.208 17.719,19.134 17.626,19.041L9.334,10.748L1.041,19.041C0.853,19.229 0.599,19.335 0.334,19.335C0.068,19.335 -0.186,19.229 -0.374,19.041C-0.562,18.854 -0.667,18.599 -0.667,18.334C-0.667,18.069 -0.562,17.814 -0.374,17.626L7.92,9.334L-0.374,1.041C-0.562,0.854 -0.667,0.599 -0.667,0.334C-0.667,0.069 -0.562,-0.186 -0.374,-0.374C-0.186,-0.561 0.068,-0.667 0.334,-0.667C0.599,-0.667 0.853,-0.561 1.041,-0.374L9.334,7.92L17.626,-0.374C17.814,-0.561 18.068,-0.667 18.334,-0.667C18.599,-0.667 18.853,-0.561 19.041,-0.374C19.229,-0.186 19.334,0.069 19.334,0.334C19.334,0.599 19.229,0.854 19.041,1.041L10.747,9.334L19.041,17.626Z" fill="#0D0D0D"/>
</svg>
