<svg width="130" height="148" viewBox="0 0 130 148" fill="none" xmlns="http://www.w3.org/2000/svg" xmlns:xlink="http://www.w3.org/1999/xlink">
<path d="M120.438,146.75C125.408,146.75 129.438,142.721 129.438,137.75C129.438,132.779 125.408,128.75 120.438,128.75L120.438,146.75ZM64.219,137.75L64.219,128.75L64.219,137.75ZM17,10C17,5.029 12.971,1 8,1C3.029,1 -1,5.029 -1,10L17,10ZM120.438,128.75L64.219,128.75L64.219,146.75L120.438,146.75L120.438,128.75ZM64.219,128.75C52.093,128.75 40.192,123.287 31.222,113.095L17.71,124.988C29.826,138.754 46.524,146.75 64.219,146.75L64.219,128.75ZM31.222,113.095C22.219,102.867 17,88.773 17,73.875L-1,73.875C-1,92.858 5.627,111.259 17.71,124.988L31.222,113.095ZM17,73.875L17,10L-1,10L-1,73.875L17,73.875Z" fill="#ED1C24"/>
</svg>
