<svg width="34" height="28" viewBox="0 0 34 28" fill="none" xmlns="http://www.w3.org/2000/svg" xmlns:xlink="http://www.w3.org/1999/xlink">
<path d="M29.972,18.331L29.972,24.419C29.972,25.049 29.722,25.653 29.276,26.098C28.831,26.544 28.227,26.794 27.597,26.794L6.218,26.794C5.588,26.794 4.984,26.544 4.538,26.098C4.093,25.653 3.842,25.049 3.842,24.419L3.842,18.331C2.982,18.109 2.201,17.65 1.589,17.007C0.976,16.363 0.557,15.561 0.377,14.691C0.198,13.82 0.266,12.917 0.574,12.084C0.882,11.251 1.418,10.52 2.12,9.976C2.822,9.432 3.663,9.096 4.547,9.005C5.431,8.915 6.322,9.074 7.12,9.465C7.918,9.856 8.59,10.462 9.061,11.216C9.531,11.97 9.781,12.84 9.781,13.729L9.781,19.668C9.781,19.983 9.906,20.285 10.129,20.507C10.352,20.73 10.654,20.855 10.969,20.855C11.284,20.855 11.586,20.73 11.809,20.507C12.031,20.285 12.156,19.983 12.156,19.668L12.156,14.917L21.658,14.917L21.658,19.668C21.658,19.983 21.783,20.285 22.006,20.507C22.229,20.73 22.531,20.855 22.846,20.855C23.161,20.855 23.463,20.73 23.686,20.507C23.908,20.285 24.034,19.983 24.034,19.668L24.034,13.729C24.034,12.84 24.284,11.97 24.754,11.216C25.224,10.462 25.897,9.856 26.695,9.465C27.492,9.074 28.384,8.915 29.268,9.005C30.152,9.096 30.992,9.432 31.695,9.976C32.397,10.52 32.933,11.251 33.241,12.084C33.549,12.917 33.617,13.82 33.438,14.691C33.258,15.561 32.838,16.363 32.226,17.007C31.613,17.65 30.832,18.109 29.972,18.331ZM12.053,12.541L21.762,12.541C22.043,10.881 22.902,9.374 24.187,8.288C25.472,7.201 27.101,6.604 28.784,6.603L29.334,6.603C29.415,6.611 29.496,6.602 29.574,6.577C29.651,6.552 29.722,6.51 29.782,6.456C29.842,6.401 29.89,6.334 29.923,6.26C29.956,6.185 29.973,6.105 29.972,6.024L29.972,5.415C29.972,3.84 29.347,2.329 28.233,1.216C27.119,0.102 25.609,-0.524 24.034,-0.524L9.781,-0.524C8.206,-0.524 6.696,0.102 5.582,1.216C4.468,2.329 3.842,3.84 3.842,5.415L3.842,6.038C3.842,6.12 3.859,6.2 3.891,6.275C3.924,6.349 3.972,6.416 4.032,6.47C4.093,6.525 4.164,6.566 4.241,6.592C4.318,6.617 4.4,6.626 4.481,6.617L5.03,6.617C6.711,6.618 8.338,7.213 9.623,8.297C10.908,9.381 11.769,10.884 12.053,12.541Z" transform="rotate(0 16.907 13.135)" fill="#8C8D89"/>
</svg>
