<svg width="70" height="76" viewBox="0 0 70 76" fill="none" xmlns="http://www.w3.org/2000/svg" xmlns:xlink="http://www.w3.org/1999/xlink">
<path d="M60.287,60.924C60.302,60.899 60.325,60.874 60.34,60.849C65.336,54.409 68.341,46.108 68.341,37.039C68.341,27.969 65.336,19.668 60.348,13.228C60.332,13.203 60.31,13.187 60.294,13.162C60.21,13.054 60.134,12.955 60.05,12.856C60.02,12.815 59.989,12.782 59.959,12.74L59.646,12.352L59.638,12.343C59.524,12.203 59.402,12.062 59.287,11.922L59.28,11.914C59.036,11.632 58.792,11.351 58.54,11.079L58.532,11.07L58.166,10.673L58.143,10.649C58.029,10.525 57.915,10.409 57.8,10.293C57.762,10.252 57.724,10.21 57.678,10.169C57.602,10.086 57.526,10.012 57.449,9.938C57.426,9.913 57.396,9.888 57.373,9.855C51.286,3.737 43.133,0 34.171,0C25.208,0 17.055,3.737 10.961,9.855C10.938,9.88 10.907,9.905 10.884,9.938C10.808,10.012 10.732,10.095 10.655,10.177C10.617,10.219 10.579,10.26 10.533,10.301C10.419,10.417 10.305,10.541 10.19,10.657L10.167,10.682L9.801,11.079L9.794,11.087C9.542,11.36 9.298,11.641 9.054,11.922L9.046,11.93C8.924,12.071 8.81,12.211 8.695,12.352L8.688,12.36C8.581,12.484 8.474,12.616 8.375,12.749C8.344,12.79 8.314,12.823 8.283,12.864C8.199,12.963 8.123,13.071 8.039,13.17C8.024,13.195 8.001,13.212 7.986,13.236C3.005,19.668 0,27.969 0,37.039C0,46.108 3.005,54.409 7.993,60.849C8.009,60.874 8.032,60.899 8.047,60.924L8.283,61.229C8.314,61.271 8.344,61.304 8.375,61.345L8.688,61.734C8.688,61.742 8.695,61.742 8.695,61.75C8.81,61.891 8.924,62.031 9.046,62.164L9.054,62.172C9.298,62.453 9.542,62.734 9.786,63.007L9.794,63.015C9.916,63.148 10.03,63.28 10.152,63.404L10.175,63.429C10.427,63.701 10.686,63.966 10.945,64.222C17.055,70.34 25.208,74.077 34.171,74.077C43.133,74.077 51.286,70.34 57.381,64.222C57.64,63.964 57.895,63.699 58.143,63.429L58.166,63.404C58.288,63.272 58.41,63.148 58.525,63.015L58.532,63.007C58.784,62.734 59.028,62.453 59.265,62.172L59.272,62.164C59.387,62.023 59.509,61.891 59.623,61.75C59.623,61.742 59.631,61.742 59.631,61.734C59.737,61.61 59.844,61.477 59.943,61.345C59.974,61.304 60.004,61.271 60.035,61.229C60.121,61.13 60.205,61.028 60.287,60.924L60.287,60.924ZM60.599,49.134C59.547,51.829 58.159,54.326 56.465,56.591C54.558,54.805 52.473,53.255 50.249,51.97C51.134,48.092 51.683,43.835 51.828,39.354L62.773,39.354C62.544,42.735 61.812,46.017 60.599,49.134ZM62.773,34.724L51.828,34.724C51.683,30.243 51.134,25.985 50.249,22.107C52.484,20.818 54.566,19.263 56.465,17.486C60.146,22.397 62.348,28.413 62.773,34.724L62.773,34.724ZM45.329,8.392C48.357,9.781 51.111,11.699 53.536,14.113C52.127,15.413 50.611,16.57 49.006,17.569C47.808,13.848 46.275,10.616 44.49,8.028C44.773,8.144 45.055,8.268 45.329,8.392ZM38.419,66.314C37.717,66.909 37.016,67.364 36.306,67.67L36.306,52.334C39.333,52.562 42.309,53.293 45.131,54.5C44.498,56.533 43.766,58.41 42.919,60.105C41.592,62.784 40.036,64.925 38.419,66.314ZM42.919,13.972C43.758,15.675 44.498,17.552 45.131,19.578C42.309,20.784 39.333,21.515 36.306,21.744L36.306,6.416C37.008,6.722 37.717,7.168 38.419,7.772C40.036,9.152 41.592,11.293 42.919,13.972L42.919,13.972ZM36.306,47.695L36.306,39.354L47.557,39.354C47.435,43.008 47.015,46.555 46.313,49.919L46.29,50.019C43.089,48.703 39.723,47.92 36.306,47.695L36.306,47.695ZM36.306,34.724L36.306,26.382C39.8,26.15 43.156,25.348 46.29,24.059L46.313,24.158C47.015,27.523 47.435,31.061 47.557,34.724L36.306,34.724ZM32.035,39.354L32.035,47.695C28.542,47.927 25.186,48.729 22.051,50.019L22.028,49.919C21.326,46.555 20.907,43.016 20.785,39.354L32.035,39.354ZM20.785,34.724C20.907,31.069 21.326,27.523 22.028,24.158L22.051,24.059C25.186,25.348 28.534,26.15 32.035,26.382L32.035,34.724L20.785,34.724ZM32.035,52.334L32.035,67.662C31.333,67.356 30.624,66.909 29.922,66.306C28.305,64.925 26.742,62.775 25.414,60.097C24.575,58.394 23.835,56.517 23.202,54.491C26.04,53.284 28.992,52.565 32.035,52.334ZM32.035,21.744C29.008,21.515 26.032,20.784 23.21,19.578C23.843,17.544 24.575,15.667 25.422,13.972C26.749,11.293 28.305,9.144 29.93,7.763C30.631,7.168 31.333,6.713 32.043,6.407L32.043,21.744L32.035,21.744ZM23.012,8.392C23.294,8.268 23.569,8.144 23.851,8.028C22.066,10.616 20.533,13.848 19.335,17.569C17.734,16.576 16.216,15.419 14.805,14.113C17.23,11.699 19.984,9.781 23.012,8.392L23.012,8.392ZM7.742,24.943C8.794,22.248 10.183,19.751 11.876,17.486C13.775,19.263 15.857,20.818 18.092,22.107C17.207,25.985 16.658,30.243 16.513,34.724L5.568,34.724C5.797,31.342 6.529,28.06 7.742,24.943ZM5.568,39.354L16.513,39.354C16.658,43.835 17.207,48.092 18.092,51.97C15.868,53.255 13.783,54.805 11.876,56.591C8.195,51.681 5.993,45.664 5.568,39.354L5.568,39.354ZM23.012,65.686C19.984,64.297 17.23,62.379 14.805,59.964C16.216,58.658 17.734,57.509 19.335,56.509C20.533,60.229 22.066,63.462 23.851,66.049C23.569,65.934 23.286,65.81 23.012,65.686ZM45.329,65.686C45.047,65.81 44.773,65.934 44.49,66.049C46.275,63.462 47.808,60.229 49.006,56.509C50.608,57.501 52.125,58.658 53.536,59.964C51.124,62.369 48.348,64.304 45.329,65.686L45.329,65.686Z" fill="#0094FE"/>
</svg>
