<svg width="18" height="16" viewBox="0 0 18 16" fill="none" xmlns="http://www.w3.org/2000/svg" xmlns:xlink="http://www.w3.org/1999/xlink">
<path d="M5.596,0.885L4.94,2.6L0.2,2.6C-0.297,2.6 -0.7,3.002 -0.7,3.499L-0.7,14.299C-0.7,14.796 -0.297,15.199 0.2,15.199L6.462,15.199C6.141,15.074 5.826,14.924 5.522,14.749C3.432,13.542 2.145,11.312 2.145,8.899C2.145,6.486 3.432,4.256 5.522,3.049C7.612,1.843 10.187,1.843 12.277,3.049C14.367,4.256 15.655,6.486 15.655,8.899C15.655,11.312 14.367,13.542 12.277,14.749C11.973,14.924 11.659,15.074 11.337,15.199L15.2,15.199C15.697,15.199 16.1,14.796 16.1,14.299L16.1,3.499C16.1,3.002 15.697,2.6 15.2,2.6L12.896,2.6L12.24,0.885C12.151,0.653 11.928,0.5 11.679,0.5L6.157,0.5C5.908,0.5 5.685,0.653 5.596,0.885Z" fill="#C2CCDE" fill-opacity="0.25" stroke="#414141" stroke-width="0.5" stroke-miterlimit="3.999327" stroke-linecap="round" stroke-linejoin="round"/>
<path d="M3.174,2.6L0.836,2.6L0.995,1.871C1.055,1.596 1.299,1.4 1.581,1.4L2.429,1.4C2.711,1.4 2.955,1.596 3.015,1.871L3.174,2.6Z" fill="#C2CCDE" fill-opacity="0.25" stroke="#414141" stroke-width="0.5" stroke-miterlimit="3.999327" stroke-linecap="round" stroke-linejoin="round"/>
<path d="M11.249,0.5L6.572,0.5L6.939,-0.341C7.035,-0.559 7.25,-0.7 7.489,-0.7L10.332,-0.7C10.57,-0.7 10.786,-0.559 10.881,-0.341L11.249,0.5Z" fill="#C2CCDE" fill-opacity="0.25" stroke="#414141" stroke-width="0.5" stroke-miterlimit="3.999327" stroke-linecap="round" stroke-linejoin="round"/>
<path d="M5.522,3.049C7.612,1.843 10.187,1.843 12.277,3.049C14.367,4.256 15.655,6.486 15.655,8.899C15.655,11.312 14.367,13.542 12.277,14.749C10.187,15.955 7.612,15.955 5.522,14.749C3.432,13.542 2.145,11.312 2.145,8.899C2.145,6.486 3.432,4.256 5.522,3.049Z" fill="#C2CCDE" fill-opacity="0.25" stroke="#414141" stroke-width="0.5" stroke-miterlimit="3.999327" stroke-linecap="round" stroke-linejoin="round"/>
<path d="M6.821,5.299C8.108,4.557 9.692,4.557 10.978,5.299C12.264,6.042 13.057,7.414 13.057,8.899C13.057,10.384 12.264,11.756 10.978,12.499C9.692,13.241 8.108,13.241 6.821,12.499C5.535,11.756 4.743,10.384 4.743,8.899C4.743,7.414 5.535,6.042 6.821,5.299Z" fill="#C2CCDE" fill-opacity="0.25" stroke="#414141" stroke-width="0.5" stroke-miterlimit="3.999327" stroke-linecap="round" stroke-linejoin="round"/>
</svg>
