<svg width="34" height="28" viewBox="0 0 34 28" fill="none" xmlns="http://www.w3.org/2000/svg" xmlns:xlink="http://www.w3.org/1999/xlink">
<path d="M29.972,18.367L29.972,24.454C29.972,25.084 29.722,25.688 29.276,26.134C28.831,26.579 28.227,26.83 27.597,26.83L6.218,26.83C5.588,26.83 4.984,26.579 4.538,26.134C4.093,25.688 3.842,25.084 3.842,24.454L3.842,18.367C2.982,18.145 2.201,17.686 1.589,17.043C0.976,16.399 0.557,15.597 0.377,14.726C0.198,13.856 0.266,12.953 0.574,12.12C0.882,11.286 1.418,10.556 2.12,10.012C2.822,9.468 3.663,9.131 4.547,9.041C5.431,8.95 6.322,9.11 7.12,9.501C7.918,9.891 8.59,10.498 9.061,11.252C9.531,12.006 9.781,12.876 9.781,13.765L9.781,19.703C9.781,20.018 9.906,20.32 10.129,20.543C10.352,20.766 10.654,20.891 10.969,20.891C11.284,20.891 11.586,20.766 11.809,20.543C12.031,20.32 12.156,20.018 12.156,19.703L12.156,14.952L21.658,14.952L21.658,19.703C21.658,20.018 21.783,20.32 22.006,20.543C22.229,20.766 22.531,20.891 22.846,20.891C23.161,20.891 23.463,20.766 23.686,20.543C23.908,20.32 24.034,20.018 24.034,19.703L24.034,13.765C24.034,12.876 24.284,12.006 24.754,11.252C25.224,10.498 25.897,9.891 26.695,9.501C27.492,9.11 28.384,8.95 29.268,9.041C30.152,9.131 30.992,9.468 31.695,10.012C32.397,10.556 32.933,11.286 33.241,12.12C33.549,12.953 33.617,13.856 33.438,14.726C33.258,15.597 32.838,16.399 32.226,17.043C31.613,17.686 30.832,18.145 29.972,18.367ZM12.053,12.577L21.762,12.577C22.043,10.917 22.902,9.41 24.187,8.323C25.472,7.236 27.101,6.639 28.784,6.638L29.334,6.638C29.415,6.647 29.496,6.638 29.574,6.613C29.651,6.587 29.722,6.546 29.782,6.491C29.842,6.437 29.89,6.37 29.923,6.296C29.956,6.221 29.973,6.141 29.972,6.059L29.972,5.451C29.972,3.876 29.347,2.365 28.233,1.251C27.119,0.138 25.609,-0.488 24.034,-0.488L9.781,-0.488C8.206,-0.488 6.696,0.138 5.582,1.251C4.468,2.365 3.842,3.876 3.842,5.451L3.842,6.074C3.842,6.156 3.859,6.236 3.891,6.31C3.924,6.385 3.972,6.452 4.032,6.506C4.093,6.561 4.164,6.602 4.241,6.627C4.318,6.653 4.4,6.662 4.481,6.653L5.03,6.653C6.711,6.654 8.338,7.248 9.623,8.332C10.908,9.416 11.769,10.92 12.053,12.577Z" transform="rotate(0 16.907 13.171)" fill="#000000"/>
</svg>
