<svg width="36" height="28" viewBox="0 0 36 28" fill="none" xmlns="http://www.w3.org/2000/svg" xmlns:xlink="http://www.w3.org/1999/xlink">
<path d="M30.627,18.359L30.627,24.447C30.627,25.077 30.376,25.681 29.931,26.126C29.485,26.572 28.881,26.822 28.251,26.822L6.872,26.822C6.242,26.822 5.638,26.572 5.193,26.126C4.747,25.681 4.497,25.077 4.497,24.447L4.497,18.359C3.636,18.137 2.856,17.678 2.243,17.035C1.631,16.391 1.211,15.589 1.031,14.719C0.852,13.849 0.92,12.945 1.228,12.112C1.536,11.279 2.072,10.548 2.774,10.004C3.476,9.46 4.317,9.124 5.201,9.033C6.085,8.943 6.977,9.102 7.774,9.493C8.572,9.884 9.245,10.49 9.715,11.244C10.185,11.998 10.435,12.869 10.435,13.757L10.435,19.696C10.435,20.011 10.56,20.313 10.783,20.535C11.006,20.758 11.308,20.883 11.623,20.883C11.938,20.883 12.24,20.758 12.463,20.535C12.686,20.313 12.811,20.011 12.811,19.696L12.811,14.945L22.313,14.945L22.313,19.696C22.313,20.011 22.438,20.313 22.66,20.535C22.883,20.758 23.185,20.883 23.5,20.883C23.815,20.883 24.117,20.758 24.34,20.535C24.563,20.313 24.688,20.011 24.688,19.696L24.688,13.757C24.688,12.869 24.938,11.998 25.408,11.244C25.879,10.49 26.551,9.884 27.349,9.493C28.147,9.102 29.038,8.943 29.922,9.033C30.806,9.124 31.647,9.46 32.349,10.004C33.051,10.548 33.587,11.279 33.895,12.112C34.203,12.945 34.271,13.849 34.092,14.719C33.913,15.589 33.493,16.391 32.88,17.035C32.268,17.678 31.487,18.137 30.627,18.359ZM12.707,12.569L22.416,12.569C22.697,10.909 23.556,9.403 24.841,8.316C26.127,7.229 27.756,6.632 29.439,6.631L29.988,6.631C30.069,6.639 30.151,6.63 30.228,6.605C30.305,6.58 30.376,6.538 30.437,6.484C30.497,6.429 30.545,6.362 30.578,6.288C30.61,6.213 30.627,6.133 30.627,6.052L30.627,5.443C30.627,3.868 30.001,2.357 28.887,1.244C27.774,0.13 26.263,-0.496 24.688,-0.496L10.435,-0.496C8.86,-0.496 7.35,0.13 6.236,1.244C5.122,2.357 4.497,3.868 4.497,5.443L4.497,6.067C4.496,6.148 4.513,6.228 4.546,6.303C4.578,6.377 4.627,6.444 4.687,6.498C4.747,6.553 4.818,6.594 4.895,6.62C4.973,6.645 5.054,6.654 5.135,6.646L5.684,6.646C7.366,6.646 8.993,7.241 10.278,8.325C11.563,9.409 12.423,10.912 12.707,12.569Z" transform="rotate(0 17.562 13.163)" fill="#8C8D89"/>
</svg>
