<svg width="34" height="28" viewBox="0 0 34 28" fill="none" xmlns="http://www.w3.org/2000/svg" xmlns:xlink="http://www.w3.org/1999/xlink">
<path d="M29.972,18.324L29.972,24.412C29.972,25.042 29.722,25.646 29.276,26.091C28.831,26.537 28.227,26.787 27.597,26.787L6.218,26.787C5.588,26.787 4.984,26.537 4.538,26.091C4.093,25.646 3.842,25.042 3.842,24.412L3.842,18.324C2.982,18.102 2.201,17.643 1.589,17C0.976,16.356 0.557,15.554 0.377,14.684C0.198,13.813 0.266,12.91 0.574,12.077C0.882,11.244 1.418,10.513 2.12,9.969C2.822,9.425 3.663,9.089 4.547,8.998C5.431,8.908 6.322,9.067 7.12,9.458C7.918,9.849 8.59,10.455 9.061,11.209C9.531,11.963 9.781,12.834 9.781,13.722L9.781,19.661C9.781,19.976 9.906,20.278 10.129,20.5C10.352,20.723 10.654,20.848 10.969,20.848C11.284,20.848 11.586,20.723 11.809,20.5C12.031,20.278 12.156,19.976 12.156,19.661L12.156,14.91L21.658,14.91L21.658,19.661C21.658,19.976 21.783,20.278 22.006,20.5C22.229,20.723 22.531,20.848 22.846,20.848C23.161,20.848 23.463,20.723 23.686,20.5C23.908,20.278 24.034,19.976 24.034,19.661L24.034,13.722C24.034,12.834 24.284,11.963 24.754,11.209C25.224,10.455 25.897,9.849 26.695,9.458C27.492,9.067 28.384,8.908 29.268,8.998C30.152,9.089 30.992,9.425 31.695,9.969C32.397,10.513 32.933,11.244 33.241,12.077C33.549,12.91 33.617,13.813 33.438,14.684C33.258,15.554 32.838,16.356 32.226,17C31.613,17.643 30.832,18.102 29.972,18.324ZM12.053,12.534L21.762,12.534C22.043,10.874 22.902,9.368 24.187,8.281C25.472,7.194 27.101,6.597 28.784,6.596L29.334,6.596C29.415,6.604 29.496,6.595 29.574,6.57C29.651,6.545 29.722,6.503 29.782,6.449C29.842,6.394 29.89,6.327 29.923,6.253C29.956,6.178 29.973,6.098 29.972,6.017L29.972,5.408C29.972,3.833 29.347,2.322 28.233,1.209C27.119,0.095 25.609,-0.531 24.034,-0.531L9.781,-0.531C8.206,-0.531 6.696,0.095 5.582,1.209C4.468,2.322 3.842,3.833 3.842,5.408L3.842,6.031C3.842,6.113 3.859,6.193 3.891,6.268C3.924,6.342 3.972,6.409 4.032,6.463C4.093,6.518 4.164,6.559 4.241,6.585C4.318,6.61 4.4,6.619 4.481,6.61L5.03,6.61C6.711,6.611 8.338,7.206 9.623,8.29C10.908,9.374 11.769,10.877 12.053,12.534Z" transform="rotate(0 16.907 13.128)" fill="#8C8D89"/>
</svg>
