<svg width="36" height="28" viewBox="0 0 36 28" fill="none" xmlns="http://www.w3.org/2000/svg" xmlns:xlink="http://www.w3.org/1999/xlink">
<path d="M30.627,18.303L30.627,24.39C30.627,25.02 30.376,25.625 29.931,26.07C29.485,26.515 28.881,26.766 28.251,26.766L6.872,26.766C6.242,26.766 5.638,26.515 5.193,26.07C4.747,25.625 4.497,25.02 4.497,24.39L4.497,18.303C3.636,18.081 2.856,17.622 2.243,16.979C1.631,16.335 1.211,15.533 1.031,14.663C0.852,13.792 0.92,12.889 1.228,12.056C1.536,11.223 2.072,10.492 2.774,9.948C3.476,9.404 4.317,9.067 5.201,8.977C6.085,8.887 6.977,9.046 7.774,9.437C8.572,9.828 9.245,10.434 9.715,11.188C10.185,11.942 10.435,12.812 10.435,13.701L10.435,19.639C10.435,19.954 10.56,20.257 10.783,20.479C11.006,20.702 11.308,20.827 11.623,20.827C11.938,20.827 12.24,20.702 12.463,20.479C12.686,20.257 12.811,19.954 12.811,19.639L12.811,14.889L22.313,14.889L22.313,19.639C22.313,19.954 22.438,20.257 22.66,20.479C22.883,20.702 23.185,20.827 23.5,20.827C23.815,20.827 24.117,20.702 24.34,20.479C24.563,20.257 24.688,19.954 24.688,19.639L24.688,13.701C24.688,12.812 24.938,11.942 25.408,11.188C25.879,10.434 26.551,9.828 27.349,9.437C28.147,9.046 29.038,8.887 29.922,8.977C30.806,9.067 31.647,9.404 32.349,9.948C33.051,10.492 33.587,11.223 33.895,12.056C34.203,12.889 34.271,13.792 34.092,14.663C33.913,15.533 33.493,16.335 32.88,16.979C32.268,17.622 31.487,18.081 30.627,18.303ZM12.707,12.513L22.416,12.513C22.697,10.853 23.556,9.346 24.841,8.259C26.127,7.172 27.756,6.576 29.439,6.575L29.988,6.575C30.069,6.583 30.151,6.574 30.228,6.549C30.305,6.523 30.376,6.482 30.437,6.427C30.497,6.373 30.545,6.306 30.578,6.232C30.61,6.157 30.627,6.077 30.627,5.995L30.627,5.387C30.627,3.812 30.001,2.301 28.887,1.188C27.774,0.074 26.263,-0.552 24.688,-0.552L10.435,-0.552C8.86,-0.552 7.35,0.074 6.236,1.188C5.122,2.301 4.497,3.812 4.497,5.387L4.497,6.01C4.496,6.092 4.513,6.172 4.546,6.247C4.578,6.321 4.627,6.388 4.687,6.442C4.747,6.497 4.818,6.538 4.895,6.564C4.973,6.589 5.054,6.598 5.135,6.589L5.684,6.589C7.366,6.59 8.993,7.185 10.278,8.269C11.563,9.353 12.423,10.856 12.707,12.513Z" transform="rotate(0 17.562 13.107)" fill="#8C8D89"/>
</svg>
