<svg width="34" height="28" viewBox="0 0 34 28" fill="none" xmlns="http://www.w3.org/2000/svg" xmlns:xlink="http://www.w3.org/1999/xlink">
<path d="M29.972,18.373L29.972,24.46C29.972,25.09 29.722,25.695 29.276,26.14C28.831,26.585 28.227,26.836 27.597,26.836L6.218,26.836C5.588,26.836 4.984,26.585 4.538,26.14C4.093,25.695 3.842,25.09 3.842,24.46L3.842,18.373C2.982,18.151 2.201,17.692 1.589,17.049C0.976,16.405 0.557,15.603 0.377,14.733C0.198,13.862 0.266,12.959 0.574,12.126C0.882,11.293 1.418,10.562 2.12,10.018C2.822,9.474 3.663,9.137 4.547,9.047C5.431,8.957 6.322,9.116 7.12,9.507C7.918,9.898 8.59,10.504 9.061,11.258C9.531,12.012 9.781,12.882 9.781,13.771L9.781,19.709C9.781,20.024 9.906,20.327 10.129,20.549C10.352,20.772 10.654,20.897 10.969,20.897C11.284,20.897 11.586,20.772 11.809,20.549C12.031,20.327 12.156,20.024 12.156,19.709L12.156,14.959L21.658,14.959L21.658,19.709C21.658,20.024 21.783,20.327 22.006,20.549C22.229,20.772 22.531,20.897 22.846,20.897C23.161,20.897 23.463,20.772 23.686,20.549C23.908,20.327 24.034,20.024 24.034,19.709L24.034,13.771C24.034,12.882 24.284,12.012 24.754,11.258C25.224,10.504 25.897,9.898 26.695,9.507C27.492,9.116 28.384,8.957 29.268,9.047C30.152,9.137 30.992,9.474 31.695,10.018C32.397,10.562 32.933,11.293 33.241,12.126C33.549,12.959 33.617,13.862 33.438,14.733C33.258,15.603 32.838,16.405 32.226,17.049C31.613,17.692 30.832,18.151 29.972,18.373ZM12.053,12.583L21.762,12.583C22.043,10.923 22.902,9.416 24.187,8.329C25.472,7.242 27.101,6.646 28.784,6.645L29.334,6.645C29.415,6.653 29.496,6.644 29.574,6.619C29.651,6.593 29.722,6.552 29.782,6.498C29.842,6.443 29.89,6.376 29.923,6.302C29.956,6.227 29.973,6.147 29.972,6.066L29.972,5.457C29.972,3.882 29.347,2.371 28.233,1.258C27.119,0.144 25.609,-0.482 24.034,-0.482L9.781,-0.482C8.206,-0.482 6.696,0.144 5.582,1.258C4.468,2.371 3.842,3.882 3.842,5.457L3.842,6.08C3.842,6.162 3.859,6.242 3.891,6.317C3.924,6.391 3.972,6.458 4.032,6.512C4.093,6.567 4.164,6.608 4.241,6.634C4.318,6.659 4.4,6.668 4.481,6.659L5.03,6.659C6.711,6.66 8.338,7.255 9.623,8.339C10.908,9.423 11.769,10.926 12.053,12.583Z" transform="rotate(0 16.907 13.177)" fill="#000000"/>
</svg>
