<svg width="232" height="476" viewBox="0 0 232 476" fill="none" xmlns="http://www.w3.org/2000/svg" xmlns:xlink="http://www.w3.org/1999/xlink">
<path d="M225.262,11.866C228.502,11.168 230.562,7.977 229.866,4.738C229.168,1.498 225.978,-0.563 222.738,0.134L225.262,11.866ZM82.907,138.571L76.986,137.602L76.966,137.725L76.951,137.85L82.907,138.571ZM2.744,464.96C-0.039,466.758 -0.838,470.472 0.96,473.256C2.759,476.04 6.473,476.838 9.256,475.04L2.744,464.96ZM222.738,0.134C120.825,22.068 83.077,100.407 76.986,137.602L88.828,139.541C94.303,106.11 129.183,32.544 225.262,11.866L222.738,0.134ZM76.951,137.85C73.801,163.843 71.218,234.188 85.687,310.144L97.475,307.898C83.263,233.29 85.846,164.198 88.864,139.293L76.951,137.85ZM85.687,310.144C92.462,345.708 80.471,378.774 62.129,406.032C43.772,433.31 19.417,454.188 2.744,464.96L9.256,475.04C27.085,463.52 52.691,441.55 72.084,412.73C91.492,383.892 105.041,347.614 97.475,307.898L85.687,310.144Z" fill="#FFFCFC"/>
</svg>
