<svg width="36" height="28" viewBox="0 0 36 28" fill="none" xmlns="http://www.w3.org/2000/svg" xmlns:xlink="http://www.w3.org/1999/xlink">
<path d="M30.625,18.331L30.625,24.418C30.625,25.048 30.374,25.652 29.929,26.098C29.483,26.543 28.879,26.794 28.249,26.794L6.87,26.794C6.24,26.794 5.636,26.543 5.191,26.098C4.745,25.652 4.495,25.048 4.495,24.418L4.495,18.331C3.635,18.109 2.854,17.65 2.241,17.007C1.629,16.363 1.209,15.561 1.029,14.69C0.85,13.82 0.918,12.917 1.226,12.084C1.534,11.25 2.07,10.52 2.772,9.976C3.475,9.432 4.315,9.095 5.199,9.005C6.083,8.914 6.975,9.074 7.772,9.465C8.57,9.855 9.243,10.462 9.713,11.216C10.183,11.97 10.433,12.84 10.433,13.729L10.433,19.667C10.433,19.982 10.559,20.284 10.781,20.507C11.004,20.73 11.306,20.855 11.621,20.855C11.936,20.855 12.238,20.73 12.461,20.507C12.684,20.284 12.809,19.982 12.809,19.667L12.809,14.916L22.311,14.916L22.311,19.667C22.311,19.982 22.436,20.284 22.658,20.507C22.881,20.73 23.183,20.855 23.498,20.855C23.813,20.855 24.115,20.73 24.338,20.507C24.561,20.284 24.686,19.982 24.686,19.667L24.686,13.729C24.686,12.84 24.936,11.97 25.406,11.216C25.877,10.462 26.549,9.855 27.347,9.465C28.145,9.074 29.036,8.914 29.92,9.005C30.804,9.095 31.645,9.432 32.347,9.976C33.049,10.52 33.585,11.25 33.893,12.084C34.201,12.917 34.269,13.82 34.09,14.69C33.911,15.561 33.491,16.363 32.878,17.007C32.266,17.65 31.485,18.109 30.625,18.331ZM12.705,12.541L22.414,12.541C22.695,10.881 23.554,9.374 24.839,8.287C26.125,7.2 27.754,6.603 29.437,6.602L29.986,6.602C30.067,6.611 30.149,6.602 30.226,6.577C30.303,6.551 30.374,6.51 30.435,6.455C30.495,6.401 30.543,6.334 30.576,6.26C30.608,6.185 30.625,6.105 30.625,6.023L30.625,5.415C30.625,3.84 29.999,2.329 28.885,1.215C27.772,0.102 26.261,-0.524 24.686,-0.524L10.433,-0.524C8.858,-0.524 7.348,0.102 6.234,1.215C5.12,2.329 4.495,3.84 4.495,5.415L4.495,6.038C4.494,6.12 4.511,6.2 4.544,6.274C4.577,6.349 4.625,6.416 4.685,6.47C4.745,6.525 4.816,6.566 4.893,6.591C4.971,6.617 5.052,6.626 5.133,6.617L5.683,6.617C7.364,6.618 8.991,7.212 10.276,8.296C11.561,9.38 12.421,10.884 12.705,12.541Z" transform="rotate(0 17.56 13.135)" fill="#8C8D89"/>
</svg>
