<svg width="28" height="24" viewBox="0 0 28 24" fill="none" xmlns="http://www.w3.org/2000/svg" xmlns:xlink="http://www.w3.org/1999/xlink">
<path d="M24.621,15.857L24.621,20.929C24.621,21.454 24.413,21.958 24.041,22.329C23.67,22.7 23.167,22.909 22.642,22.909L4.826,22.909C4.301,22.909 3.797,22.7 3.426,22.329C3.055,21.958 2.846,21.454 2.846,20.929L2.846,15.857C2.129,15.672 1.479,15.289 0.968,14.753C0.458,14.217 0.108,13.548 -0.041,12.823C-0.191,12.098 -0.134,11.345 0.123,10.651C0.379,9.956 0.826,9.348 1.411,8.894C1.996,8.441 2.697,8.16 3.433,8.085C4.17,8.01 4.913,8.142 5.578,8.468C6.243,8.794 6.803,9.299 7.195,9.927C7.587,10.556 7.795,11.281 7.795,12.021L7.795,16.97C7.795,17.233 7.899,17.485 8.085,17.67C8.271,17.856 8.522,17.96 8.785,17.96C9.047,17.96 9.299,17.856 9.485,17.67C9.67,17.485 9.775,17.233 9.775,16.97L9.775,13.011L17.693,13.011L17.693,16.97C17.693,17.233 17.797,17.485 17.983,17.67C18.168,17.856 18.42,17.96 18.683,17.96C18.945,17.96 19.197,17.856 19.382,17.67C19.568,17.485 19.672,17.233 19.672,16.97L19.672,12.021C19.673,11.281 19.881,10.556 20.273,9.927C20.665,9.299 21.225,8.794 21.89,8.468C22.555,8.142 23.298,8.01 24.034,8.085C24.771,8.16 25.471,8.441 26.057,8.894C26.642,9.348 27.088,9.956 27.345,10.651C27.602,11.345 27.658,12.098 27.509,12.823C27.359,13.548 27.01,14.217 26.499,14.753C25.989,15.289 25.338,15.672 24.621,15.857ZM9.688,11.032L17.779,11.032C18.013,9.648 18.729,8.393 19.8,7.487C20.871,6.581 22.229,6.084 23.631,6.083L24.089,6.083C24.157,6.09 24.225,6.082 24.289,6.061C24.353,6.04 24.413,6.006 24.463,5.96C24.513,5.915 24.553,5.859 24.58,5.797C24.608,5.735 24.622,5.668 24.621,5.6L24.621,5.093C24.621,3.781 24.1,2.522 23.172,1.594C22.244,0.666 20.985,0.144 19.672,0.144L7.795,0.144C6.483,0.144 5.224,0.666 4.296,1.594C3.368,2.522 2.846,3.781 2.846,5.093L2.846,5.613C2.846,5.68 2.86,5.748 2.887,5.81C2.914,5.872 2.954,5.927 3.005,5.973C3.055,6.018 3.114,6.053 3.178,6.074C3.243,6.095 3.311,6.102 3.378,6.095L3.836,6.095C5.237,6.096 6.593,6.591 7.664,7.495C8.735,8.398 9.452,9.651 9.688,11.032Z" transform="rotate(0 13.734 11.527)" fill="#8C8D89"/>
</svg>
