<svg width="82" height="28" viewBox="0 0 82 28" fill="none" xmlns="http://www.w3.org/2000/svg" xmlns:xlink="http://www.w3.org/1999/xlink">
<path d="M35.316,26.974L28.674,26.974L32.825,1.336L39.467,1.336L35.316,26.974ZM23.086,1.336L16.754,18.97L16.005,15.173L16.006,15.174L13.771,3.645C13.771,3.645 13.501,1.336 10.62,1.336L0.152,1.336L0.029,1.77C0.029,1.77 3.23,2.44 6.977,4.701L12.747,26.974L19.667,26.974L30.234,1.336L23.086,1.336L23.086,1.336ZM75.328,26.974L81.426,26.974L76.109,1.336L70.77,1.336C68.304,1.336 67.704,3.246 67.704,3.246L57.798,26.974L64.722,26.974L66.106,23.165L74.55,23.165L75.328,26.974ZM68.019,17.905L71.509,8.311L73.472,17.905L68.019,17.905ZM58.317,7.501L59.265,1.996C59.265,1.996 56.34,0.878 53.291,0.878C49.995,0.878 42.168,2.326 42.168,9.365C42.168,15.989 51.355,16.071 51.355,19.55C51.355,23.029 43.115,22.406 40.395,20.212L39.408,25.968C39.408,25.968 42.374,27.416 46.905,27.416C51.437,27.416 58.275,25.057 58.275,18.639C58.275,11.973 49.006,11.352 49.006,8.454C49.007,5.555 55.475,5.928 58.317,7.501L58.317,7.501Z" fill="#337ED4"/>
</svg>
