<svg width="34" height="28" viewBox="0 0 34 28" fill="none" xmlns="http://www.w3.org/2000/svg" xmlns:xlink="http://www.w3.org/1999/xlink">
<path d="M30.146,18.338L30.146,24.426C30.146,25.056 29.896,25.66 29.45,26.105C29.005,26.551 28.401,26.801 27.771,26.801L6.392,26.801C5.762,26.801 5.158,26.551 4.712,26.105C4.267,25.66 4.016,25.056 4.016,24.426L4.016,18.338C3.156,18.116 2.375,17.657 1.763,17.014C1.15,16.37 0.73,15.568 0.551,14.698C0.372,13.828 0.44,12.924 0.748,12.091C1.056,11.258 1.591,10.528 2.294,9.983C2.996,9.439 3.837,9.103 4.721,9.012C5.605,8.922 6.496,9.081 7.294,9.472C8.092,9.863 8.764,10.47 9.234,11.223C9.705,11.977 9.954,12.848 9.955,13.736L9.955,19.675C9.955,19.99 10.08,20.292 10.303,20.514C10.526,20.737 10.828,20.862 11.143,20.862C11.458,20.862 11.76,20.737 11.982,20.514C12.205,20.292 12.33,19.99 12.33,19.675L12.33,14.924L21.832,14.924L21.832,19.675C21.832,19.99 21.957,20.292 22.18,20.514C22.403,20.737 22.705,20.862 23.02,20.862C23.335,20.862 23.637,20.737 23.86,20.514C24.082,20.292 24.208,19.99 24.208,19.675L24.208,13.736C24.208,12.848 24.458,11.977 24.928,11.223C25.398,10.47 26.071,9.863 26.869,9.472C27.666,9.081 28.558,8.922 29.442,9.012C30.326,9.103 31.166,9.439 31.869,9.983C32.571,10.528 33.107,11.258 33.415,12.091C33.723,12.924 33.791,13.828 33.612,14.698C33.432,15.568 33.012,16.37 32.4,17.014C31.787,17.657 31.006,18.116 30.146,18.338ZM12.226,12.548L21.936,12.548C22.217,10.888 23.076,9.382 24.361,8.295C25.646,7.208 27.275,6.611 28.958,6.61L29.508,6.61C29.589,6.618 29.67,6.609 29.748,6.584C29.825,6.559 29.896,6.517 29.956,6.463C30.016,6.408 30.064,6.341 30.097,6.267C30.13,6.192 30.147,6.112 30.146,6.031L30.146,5.422C30.146,3.847 29.521,2.336 28.407,1.223C27.293,0.109 25.783,-0.517 24.208,-0.517L9.955,-0.517C8.38,-0.517 6.869,0.109 5.756,1.223C4.642,2.336 4.016,3.847 4.016,5.422L4.016,6.046C4.016,6.127 4.033,6.207 4.065,6.282C4.098,6.356 4.146,6.423 4.206,6.477C4.267,6.532 4.338,6.573 4.415,6.599C4.492,6.624 4.574,6.633 4.655,6.625L5.204,6.625C6.885,6.625 8.512,7.22 9.797,8.304C11.082,9.388 11.943,10.891 12.226,12.548Z" transform="rotate(0 17.081 13.142)" fill="#000000"/>
</svg>
