<svg width="22" height="26" viewBox="0 0 22 26" fill="none" xmlns="http://www.w3.org/2000/svg" xmlns:xlink="http://www.w3.org/1999/xlink">
<path d="M19.333,12L20.041,12.707C20.431,12.317 20.431,11.684 20.041,11.293L19.333,12ZM14.707,5.96C14.317,5.569 13.684,5.569 13.293,5.96C12.903,6.35 12.903,6.983 13.293,7.374L14.707,5.96ZM13.293,16.626C12.903,17.017 12.903,17.65 13.293,18.041C13.684,18.431 14.317,18.431 14.707,18.041L13.293,16.626ZM6,11C5.448,11 5,11.448 5,12C5,12.552 5.448,13 6,13L6,11ZM12.667,25C13.219,25 13.667,24.552 13.667,24C13.667,23.448 13.219,23 12.667,23L12.667,25ZM12.667,1C13.219,1 13.667,0.552 13.667,0C13.667,-0.552 13.219,-1 12.667,-1L12.667,1ZM20.041,11.293L14.707,5.96L13.293,7.374L18.626,12.707L20.041,11.293ZM18.626,11.293L13.293,16.626L14.707,18.041L20.041,12.707L18.626,11.293ZM19.333,11L6,11L6,13L19.333,13L19.333,11ZM12.667,23C11.222,23 9.792,22.716 8.457,22.163L7.692,24.011C9.269,24.664 10.96,25 12.667,25L12.667,23ZM8.457,22.163C7.123,21.61 5.91,20.8 4.889,19.778L3.474,21.193C4.682,22.4 6.115,23.357 7.692,24.011L8.457,22.163ZM4.889,19.778C3.867,18.757 3.057,17.544 2.504,16.21L0.656,16.975C1.31,18.552 2.267,19.985 3.474,21.193L4.889,19.778ZM2.504,16.21C1.951,14.875 1.667,13.445 1.667,12L-0.333,12C-0.333,13.707 0.003,15.398 0.656,16.975L2.504,16.21ZM1.667,12C1.667,10.556 1.951,9.125 2.504,7.791L0.656,7.025C0.003,8.602 -0.333,10.293 -0.333,12L1.667,12ZM2.504,7.791C3.057,6.456 3.867,5.243 4.889,4.222L3.474,2.808C2.267,4.015 1.31,5.448 0.656,7.025L2.504,7.791ZM4.889,4.222C5.91,3.201 7.123,2.39 8.457,1.837L7.692,-0.01C6.115,0.643 4.682,1.601 3.474,2.808L4.889,4.222ZM8.457,1.837C9.792,1.285 11.222,1 12.667,1L12.667,-1C10.96,-1 9.269,-0.664 7.692,-0.01L8.457,1.837Z" transform="rotate(360 10 12)" fill="#414141"/>
</svg>
