<svg width="34" height="28" viewBox="0 0 34 28" fill="none" xmlns="http://www.w3.org/2000/svg" xmlns:xlink="http://www.w3.org/1999/xlink">
<path d="M29.281,18.338L29.281,24.425C29.281,25.055 29.031,25.66 28.585,26.105C28.14,26.55 27.535,26.801 26.905,26.801L5.526,26.801C4.896,26.801 4.292,26.55 3.847,26.105C3.401,25.66 3.151,25.055 3.151,24.425L3.151,18.338C2.291,18.116 1.51,17.657 0.898,17.014C0.285,16.37 -0.135,15.568 -0.314,14.697C-0.494,13.827 -0.425,12.924 -0.117,12.091C0.191,11.258 0.726,10.527 1.429,9.983C2.131,9.439 2.972,9.102 3.855,9.012C4.739,8.922 5.631,9.081 6.429,9.472C7.227,9.863 7.899,10.469 8.369,11.223C8.84,11.977 9.089,12.847 9.09,13.736L9.09,19.674C9.09,19.989 9.215,20.292 9.438,20.514C9.66,20.737 9.962,20.862 10.277,20.862C10.592,20.862 10.894,20.737 11.117,20.514C11.34,20.292 11.465,19.989 11.465,19.674L11.465,14.923L20.967,14.923L20.967,19.674C20.967,19.989 21.092,20.292 21.315,20.514C21.537,20.737 21.839,20.862 22.154,20.862C22.469,20.862 22.772,20.737 22.994,20.514C23.217,20.292 23.342,19.989 23.342,19.674L23.342,13.736C23.343,12.847 23.592,11.977 24.063,11.223C24.533,10.469 25.205,9.863 26.003,9.472C26.801,9.081 27.693,8.922 28.576,9.012C29.46,9.102 30.301,9.439 31.003,9.983C31.706,10.527 32.241,11.258 32.549,12.091C32.857,12.924 32.926,13.827 32.746,14.697C32.567,15.568 32.147,16.37 31.534,17.014C30.922,17.657 30.141,18.116 29.281,18.338ZM11.361,12.548L21.071,12.548C21.351,10.888 22.21,9.381 23.496,8.294C24.781,7.207 26.41,6.61 28.093,6.609L28.642,6.609C28.723,6.618 28.805,6.609 28.882,6.584C28.96,6.558 29.031,6.517 29.091,6.462C29.151,6.408 29.199,6.341 29.232,6.267C29.265,6.192 29.281,6.112 29.281,6.03L29.281,5.422C29.281,3.847 28.655,2.336 27.541,1.223C26.428,0.109 24.917,-0.517 23.342,-0.517L9.09,-0.517C7.515,-0.517 6.004,0.109 4.89,1.223C3.777,2.336 3.151,3.847 3.151,5.422L3.151,6.045C3.151,6.127 3.167,6.207 3.2,6.281C3.233,6.356 3.281,6.423 3.341,6.477C3.401,6.532 3.472,6.573 3.55,6.599C3.627,6.624 3.709,6.633 3.789,6.624L4.339,6.624C6.02,6.625 7.647,7.219 8.932,8.304C10.217,9.388 11.077,10.891 11.361,12.548Z" transform="rotate(0 16.216 13.142)" fill="#8C8D89"/>
</svg>
