<svg width="34" height="28" viewBox="0 0 34 28" fill="none" xmlns="http://www.w3.org/2000/svg" xmlns:xlink="http://www.w3.org/1999/xlink">
<path d="M30.146,18.317L30.146,24.404C30.146,25.034 29.896,25.638 29.45,26.084C29.005,26.529 28.401,26.78 27.771,26.78L6.392,26.78C5.762,26.78 5.158,26.529 4.712,26.084C4.267,25.638 4.016,25.034 4.016,24.404L4.016,18.317C3.156,18.095 2.375,17.636 1.763,16.993C1.15,16.349 0.73,15.547 0.551,14.676C0.372,13.806 0.44,12.903 0.748,12.07C1.056,11.236 1.591,10.506 2.294,9.962C2.996,9.418 3.837,9.081 4.721,8.991C5.605,8.9 6.496,9.06 7.294,9.451C8.092,9.841 8.764,10.448 9.234,11.202C9.705,11.956 9.954,12.826 9.955,13.715L9.955,19.653C9.955,19.968 10.08,20.27 10.303,20.493C10.526,20.716 10.828,20.841 11.143,20.841C11.458,20.841 11.76,20.716 11.982,20.493C12.205,20.27 12.33,19.968 12.33,19.653L12.33,14.902L21.832,14.902L21.832,19.653C21.832,19.968 21.957,20.27 22.18,20.493C22.403,20.716 22.705,20.841 23.02,20.841C23.335,20.841 23.637,20.716 23.86,20.493C24.082,20.27 24.208,19.968 24.208,19.653L24.208,13.715C24.208,12.826 24.458,11.956 24.928,11.202C25.398,10.448 26.071,9.841 26.869,9.451C27.666,9.06 28.558,8.9 29.442,8.991C30.326,9.081 31.166,9.418 31.869,9.962C32.571,10.506 33.107,11.236 33.415,12.07C33.723,12.903 33.791,13.806 33.612,14.676C33.432,15.547 33.012,16.349 32.4,16.993C31.787,17.636 31.006,18.095 30.146,18.317ZM12.226,12.527L21.936,12.527C22.217,10.867 23.076,9.36 24.361,8.273C25.646,7.186 27.275,6.589 28.958,6.588L29.508,6.588C29.589,6.597 29.67,6.588 29.748,6.563C29.825,6.537 29.896,6.496 29.956,6.441C30.016,6.387 30.064,6.32 30.097,6.246C30.13,6.171 30.147,6.091 30.146,6.009L30.146,5.401C30.146,3.826 29.521,2.315 28.407,1.201C27.293,0.088 25.783,-0.538 24.208,-0.538L9.955,-0.538C8.38,-0.538 6.869,0.088 5.756,1.201C4.642,2.315 4.016,3.826 4.016,5.401L4.016,6.024C4.016,6.106 4.033,6.186 4.065,6.26C4.098,6.335 4.146,6.402 4.206,6.456C4.267,6.511 4.338,6.552 4.415,6.577C4.492,6.603 4.574,6.612 4.655,6.603L5.204,6.603C6.885,6.604 8.512,7.198 9.797,8.282C11.082,9.366 11.943,10.87 12.226,12.527Z" transform="rotate(0 17.081 13.121)" fill="#8C8D89"/>
</svg>
