<svg width="34" height="28" viewBox="0 0 34 28" fill="none" xmlns="http://www.w3.org/2000/svg" xmlns:xlink="http://www.w3.org/1999/xlink">
<path d="M30.146,18.367L30.146,24.454C30.146,25.084 29.896,25.688 29.45,26.134C29.005,26.579 28.401,26.829 27.771,26.829L6.392,26.829C5.762,26.829 5.158,26.579 4.712,26.134C4.267,25.688 4.016,25.084 4.016,24.454L4.016,18.367C3.156,18.145 2.375,17.686 1.763,17.042C1.15,16.399 0.73,15.596 0.551,14.726C0.372,13.856 0.44,12.953 0.748,12.12C1.056,11.286 1.591,10.556 2.294,10.012C2.996,9.467 3.837,9.131 4.721,9.041C5.605,8.95 6.496,9.109 7.294,9.5C8.092,9.891 8.764,10.498 9.234,11.252C9.705,12.005 9.954,12.876 9.955,13.764L9.955,19.703C9.955,20.018 10.08,20.32 10.303,20.543C10.526,20.766 10.828,20.891 11.143,20.891C11.458,20.891 11.76,20.766 11.982,20.543C12.205,20.32 12.33,20.018 12.33,19.703L12.33,14.952L21.832,14.952L21.832,19.703C21.832,20.018 21.957,20.32 22.18,20.543C22.403,20.766 22.705,20.891 23.02,20.891C23.335,20.891 23.637,20.766 23.86,20.543C24.082,20.32 24.208,20.018 24.208,19.703L24.208,13.764C24.208,12.876 24.458,12.005 24.928,11.252C25.398,10.498 26.071,9.891 26.869,9.5C27.666,9.109 28.558,8.95 29.442,9.041C30.326,9.131 31.166,9.467 31.869,10.012C32.571,10.556 33.107,11.286 33.415,12.12C33.723,12.953 33.791,13.856 33.612,14.726C33.432,15.596 33.012,16.399 32.4,17.042C31.787,17.686 31.006,18.145 30.146,18.367ZM12.226,12.577L21.936,12.577C22.217,10.917 23.076,9.41 24.361,8.323C25.646,7.236 27.275,6.639 28.958,6.638L29.508,6.638C29.589,6.646 29.67,6.638 29.748,6.612C29.825,6.587 29.896,6.546 29.956,6.491C30.016,6.436 30.064,6.37 30.097,6.295C30.13,6.221 30.147,6.14 30.146,6.059L30.146,5.45C30.146,3.875 29.521,2.365 28.407,1.251C27.293,0.137 25.783,-0.488 24.208,-0.488L9.955,-0.488C8.38,-0.488 6.869,0.137 5.756,1.251C4.642,2.365 4.016,3.875 4.016,5.45L4.016,6.074C4.016,6.155 4.033,6.236 4.065,6.31C4.098,6.385 4.146,6.451 4.206,6.506C4.267,6.56 4.338,6.602 4.415,6.627C4.492,6.652 4.574,6.661 4.655,6.653L5.204,6.653C6.885,6.653 8.512,7.248 9.797,8.332C11.082,9.416 11.943,10.92 12.226,12.577Z" transform="rotate(0 17.081 13.171)" fill="#000000"/>
</svg>
