<svg width="34" height="28" viewBox="0 0 34 28" fill="none" xmlns="http://www.w3.org/2000/svg" xmlns:xlink="http://www.w3.org/1999/xlink">
<path d="M29.281,18.353L29.281,24.44C29.281,25.07 29.031,25.674 28.585,26.119C28.14,26.565 27.535,26.815 26.905,26.815L5.526,26.815C4.896,26.815 4.292,26.565 3.847,26.119C3.401,25.674 3.151,25.07 3.151,24.44L3.151,18.353C2.291,18.131 1.51,17.672 0.898,17.028C0.285,16.385 -0.135,15.582 -0.314,14.712C-0.494,13.842 -0.425,12.939 -0.117,12.105C0.191,11.272 0.726,10.542 1.429,9.997C2.131,9.453 2.972,9.117 3.855,9.026C4.739,8.936 5.631,9.095 6.429,9.486C7.227,9.877 7.899,10.484 8.369,11.237C8.84,11.991 9.089,12.862 9.09,13.75L9.09,19.689C9.09,20.004 9.215,20.306 9.438,20.529C9.66,20.751 9.962,20.877 10.277,20.877C10.592,20.877 10.894,20.751 11.117,20.529C11.34,20.306 11.465,20.004 11.465,19.689L11.465,14.938L20.967,14.938L20.967,19.689C20.967,20.004 21.092,20.306 21.315,20.529C21.537,20.751 21.839,20.877 22.154,20.877C22.469,20.877 22.772,20.751 22.994,20.529C23.217,20.306 23.342,20.004 23.342,19.689L23.342,13.75C23.343,12.862 23.592,11.991 24.063,11.237C24.533,10.484 25.205,9.877 26.003,9.486C26.801,9.095 27.693,8.936 28.576,9.026C29.46,9.117 30.301,9.453 31.003,9.997C31.706,10.542 32.241,11.272 32.549,12.105C32.857,12.939 32.926,13.842 32.746,14.712C32.567,15.582 32.147,16.385 31.534,17.028C30.922,17.672 30.141,18.131 29.281,18.353ZM11.361,12.563L21.071,12.563C21.351,10.903 22.21,9.396 23.496,8.309C24.781,7.222 26.41,6.625 28.093,6.624L28.642,6.624C28.723,6.632 28.805,6.623 28.882,6.598C28.96,6.573 29.031,6.531 29.091,6.477C29.151,6.422 29.199,6.356 29.232,6.281C29.265,6.207 29.281,6.126 29.281,6.045L29.281,5.436C29.281,3.861 28.655,2.351 27.541,1.237C26.428,0.123 24.917,-0.502 23.342,-0.502L9.09,-0.502C7.515,-0.502 6.004,0.123 4.89,1.237C3.777,2.351 3.151,3.861 3.151,5.436L3.151,6.06C3.151,6.141 3.167,6.222 3.2,6.296C3.233,6.37 3.281,6.437 3.341,6.492C3.401,6.546 3.472,6.588 3.55,6.613C3.627,6.638 3.709,6.647 3.789,6.639L4.339,6.639C6.02,6.639 7.647,7.234 8.932,8.318C10.217,9.402 11.077,10.905 11.361,12.563Z" transform="rotate(0 16.216 13.156)" fill="#FC0000"/>
</svg>
