<svg width="34" height="28" viewBox="0 0 34 28" fill="none" xmlns="http://www.w3.org/2000/svg" xmlns:xlink="http://www.w3.org/1999/xlink">
<path d="M29.283,18.31L29.283,24.397C29.283,25.027 29.033,25.632 28.587,26.077C28.142,26.522 27.537,26.773 26.907,26.773L5.528,26.773C4.898,26.773 4.294,26.522 3.849,26.077C3.403,25.632 3.153,25.027 3.153,24.397L3.153,18.31C2.293,18.088 1.512,17.629 0.899,16.986C0.287,16.342 -0.133,15.54 -0.312,14.669C-0.492,13.799 -0.423,12.896 -0.115,12.063C0.193,11.23 0.728,10.499 1.43,9.955C2.133,9.411 2.974,9.074 3.857,8.984C4.741,8.894 5.633,9.053 6.431,9.444C7.229,9.834 7.901,10.441 8.371,11.195C8.842,11.949 9.091,12.819 9.092,13.708L9.092,19.646C9.092,19.961 9.217,20.264 9.439,20.486C9.662,20.709 9.964,20.834 10.279,20.834C10.594,20.834 10.896,20.709 11.119,20.486C11.342,20.264 11.467,19.961 11.467,19.646L11.467,14.895L20.969,14.895L20.969,19.646C20.969,19.961 21.094,20.264 21.317,20.486C21.539,20.709 21.841,20.834 22.156,20.834C22.471,20.834 22.774,20.709 22.996,20.486C23.219,20.264 23.344,19.961 23.344,19.646L23.344,13.708C23.345,12.819 23.594,11.949 24.065,11.195C24.535,10.441 25.207,9.834 26.005,9.444C26.803,9.053 27.695,8.894 28.578,8.984C29.462,9.074 30.303,9.411 31.005,9.955C31.708,10.499 32.243,11.23 32.551,12.063C32.859,12.896 32.928,13.799 32.748,14.669C32.569,15.54 32.149,16.342 31.536,16.986C30.924,17.629 30.143,18.088 29.283,18.31ZM11.363,12.52L21.073,12.52C21.353,10.86 22.212,9.353 23.498,8.266C24.783,7.179 26.412,6.582 28.095,6.581L28.644,6.581C28.725,6.59 28.807,6.581 28.884,6.556C28.962,6.53 29.033,6.489 29.093,6.434C29.153,6.38 29.201,6.313 29.234,6.239C29.267,6.164 29.283,6.084 29.283,6.002L29.283,5.394C29.283,3.819 28.657,2.308 27.543,1.194C26.43,0.081 24.919,-0.545 23.344,-0.545L9.092,-0.545C7.517,-0.545 6.006,0.081 4.892,1.194C3.779,2.308 3.153,3.819 3.153,5.394L3.153,6.017C3.153,6.099 3.169,6.179 3.202,6.253C3.235,6.328 3.283,6.395 3.343,6.449C3.403,6.504 3.474,6.545 3.552,6.57C3.629,6.596 3.711,6.605 3.791,6.596L4.341,6.596C6.022,6.597 7.649,7.191 8.934,8.275C10.219,9.359 11.079,10.863 11.363,12.52Z" transform="rotate(0 16.218 13.114)" fill="#000000"/>
</svg>
