<svg width="34" height="28" viewBox="0 0 34 28" fill="none" xmlns="http://www.w3.org/2000/svg" xmlns:xlink="http://www.w3.org/1999/xlink">
<path d="M29.283,18.317L29.283,24.404C29.283,25.034 29.033,25.639 28.587,26.084C28.142,26.529 27.537,26.78 26.907,26.78L5.528,26.78C4.898,26.78 4.294,26.529 3.849,26.084C3.403,25.639 3.153,25.034 3.153,24.404L3.153,18.317C2.293,18.095 1.512,17.636 0.899,16.993C0.287,16.349 -0.133,15.547 -0.312,14.677C-0.492,13.806 -0.423,12.903 -0.115,12.07C0.193,11.237 0.728,10.506 1.43,9.962C2.133,9.418 2.974,9.081 3.857,8.991C4.741,8.901 5.633,9.06 6.431,9.451C7.229,9.842 7.901,10.448 8.371,11.202C8.842,11.956 9.091,12.826 9.092,13.715L9.092,19.653C9.092,19.968 9.217,20.271 9.439,20.493C9.662,20.716 9.964,20.841 10.279,20.841C10.594,20.841 10.896,20.716 11.119,20.493C11.342,20.271 11.467,19.968 11.467,19.653L11.467,14.903L20.969,14.903L20.969,19.653C20.969,19.968 21.094,20.271 21.317,20.493C21.539,20.716 21.841,20.841 22.156,20.841C22.471,20.841 22.774,20.716 22.996,20.493C23.219,20.271 23.344,19.968 23.344,19.653L23.344,13.715C23.345,12.826 23.594,11.956 24.065,11.202C24.535,10.448 25.207,9.842 26.005,9.451C26.803,9.06 27.695,8.901 28.578,8.991C29.462,9.081 30.303,9.418 31.005,9.962C31.708,10.506 32.243,11.237 32.551,12.07C32.859,12.903 32.928,13.806 32.748,14.677C32.569,15.547 32.149,16.349 31.536,16.993C30.924,17.636 30.143,18.095 29.283,18.317ZM11.363,12.527L21.073,12.527C21.353,10.867 22.212,9.36 23.498,8.273C24.783,7.186 26.412,6.59 28.095,6.589L28.644,6.589C28.725,6.597 28.807,6.588 28.884,6.563C28.962,6.537 29.033,6.496 29.093,6.441C29.153,6.387 29.201,6.32 29.234,6.246C29.267,6.171 29.283,6.091 29.283,6.01L29.283,5.401C29.283,3.826 28.657,2.315 27.543,1.202C26.43,0.088 24.919,-0.538 23.344,-0.538L9.092,-0.538C7.517,-0.538 6.006,0.088 4.892,1.202C3.779,2.315 3.153,3.826 3.153,5.401L3.153,6.024C3.153,6.106 3.169,6.186 3.202,6.261C3.235,6.335 3.283,6.402 3.343,6.456C3.403,6.511 3.474,6.552 3.552,6.578C3.629,6.603 3.711,6.612 3.791,6.603L4.341,6.603C6.022,6.604 7.649,7.199 8.934,8.283C10.219,9.367 11.079,10.87 11.363,12.527Z" transform="rotate(0 16.218 13.121)" fill="#000000"/>
</svg>
