<svg width="34" height="28" viewBox="0 0 34 28" fill="none" xmlns="http://www.w3.org/2000/svg" xmlns:xlink="http://www.w3.org/1999/xlink">
<path d="M29.492,18.324L29.492,24.412C29.492,25.042 29.242,25.646 28.796,26.091C28.351,26.537 27.746,26.787 27.116,26.787L5.737,26.787C5.107,26.787 4.503,26.537 4.058,26.091C3.612,25.646 3.362,25.042 3.362,24.412L3.362,18.324C2.502,18.102 1.721,17.643 1.108,17C0.496,16.356 0.076,15.554 -0.103,14.684C-0.283,13.813 -0.215,12.91 0.094,12.077C0.402,11.244 0.937,10.513 1.639,9.969C2.342,9.425 3.183,9.089 4.066,8.998C4.95,8.908 5.842,9.067 6.64,9.458C7.438,9.849 8.11,10.455 8.58,11.209C9.051,11.963 9.3,12.833 9.301,13.722L9.301,19.661C9.301,19.976 9.426,20.278 9.648,20.5C9.871,20.723 10.173,20.848 10.488,20.848C10.803,20.848 11.105,20.723 11.328,20.5C11.551,20.278 11.676,19.976 11.676,19.661L11.676,14.91L21.178,14.91L21.178,19.661C21.178,19.976 21.303,20.278 21.526,20.5C21.748,20.723 22.05,20.848 22.365,20.848C22.68,20.848 22.983,20.723 23.205,20.5C23.428,20.278 23.553,19.976 23.553,19.661L23.553,13.722C23.554,12.833 23.803,11.963 24.274,11.209C24.744,10.455 25.416,9.849 26.214,9.458C27.012,9.067 27.904,8.908 28.787,8.998C29.671,9.089 30.512,9.425 31.214,9.969C31.917,10.513 32.452,11.244 32.76,12.077C33.068,12.91 33.137,13.813 32.957,14.684C32.778,15.554 32.358,16.356 31.745,17C31.133,17.643 30.352,18.102 29.492,18.324ZM11.572,12.534L21.282,12.534C21.562,10.874 22.421,9.367 23.707,8.281C24.992,7.194 26.621,6.597 28.304,6.596L28.853,6.596C28.934,6.604 29.016,6.595 29.093,6.57C29.171,6.545 29.242,6.503 29.302,6.449C29.362,6.394 29.41,6.327 29.443,6.253C29.476,6.178 29.492,6.098 29.492,6.017L29.492,5.408C29.492,3.833 28.866,2.322 27.752,1.209C26.639,0.095 25.128,-0.531 23.553,-0.531L9.301,-0.531C7.726,-0.531 6.215,0.095 5.101,1.209C3.988,2.322 3.362,3.833 3.362,5.408L3.362,6.031C3.362,6.113 3.378,6.193 3.411,6.268C3.444,6.342 3.492,6.409 3.552,6.463C3.612,6.518 3.683,6.559 3.761,6.585C3.838,6.61 3.92,6.619 4,6.61L4.55,6.61C6.231,6.611 7.858,7.206 9.143,8.29C10.428,9.374 11.288,10.877 11.572,12.534Z" transform="rotate(0 16.427 13.128)" fill="#8C8D89"/>
</svg>
