<svg width="70" height="70" viewBox="0 0 70 70" fill="none" xmlns="http://www.w3.org/2000/svg" xmlns:xlink="http://www.w3.org/1999/xlink">
<path d="M39.337,16.156L52.162,28.983L28.955,52.21L16.139,39.374L39.337,16.156ZM30.778,55.895L55.835,30.816C56.079,30.579 56.272,30.295 56.404,29.982C56.536,29.669 56.605,29.332 56.605,28.993C56.605,28.653 56.537,28.316 56.406,28.003C56.274,27.689 56.081,27.406 55.838,27.168L41.157,12.474C40.666,12.005 40.013,11.743 39.334,11.744C38.655,11.744 38.002,12.007 37.512,12.477L12.455,37.556C12.211,37.793 12.018,38.077 11.886,38.39C11.754,38.703 11.685,39.039 11.685,39.379C11.685,39.719 11.752,40.056 11.884,40.369C12.016,40.682 12.209,40.966 12.452,41.204L27.133,55.898C27.624,56.367 28.277,56.629 28.956,56.628C29.635,56.628 30.288,56.365 30.778,55.895L30.778,55.895ZM66.835,30.038L30.052,66.896C29.106,67.825 27.811,68.397 26.381,68.397C24.952,68.397 23.656,67.825 22.711,66.896L17.603,61.786C19.029,60.314 19.82,58.339 19.804,56.289C19.788,54.238 18.967,52.277 17.518,50.827C16.07,49.377 14.109,48.556 12.06,48.541C10.012,48.525 8.039,49.317 6.569,50.745L6.572,50.742L1.501,45.63C0.572,44.683 0,43.387 0,41.956C0,40.525 0.572,39.229 1.501,38.283L38.287,1.502C39.232,0.573 40.527,0 41.957,0C43.386,0 44.682,0.573 45.627,1.502L50.698,6.578C49.948,7.296 49.348,8.158 48.934,9.112C48.521,10.066 48.302,11.094 48.291,12.133C48.279,13.173 48.475,14.205 48.868,15.168C49.26,16.131 49.841,17.006 50.575,17.741C51.31,18.477 52.184,19.058 53.146,19.45C54.108,19.843 55.139,20.039 56.178,20.028C57.217,20.016 58.243,19.797 59.197,19.384C60.15,18.97 61.011,18.369 61.729,17.618L61.732,17.615L66.841,22.691C67.769,23.637 68.341,24.934 68.341,26.364C68.341,27.795 67.769,29.092 66.841,30.038L66.835,30.038Z" fill="#0D0D0D"/>
</svg>
