<svg width="66" height="66" viewBox="0 0 66 66" fill="none" xmlns="http://www.w3.org/2000/svg" xmlns:xlink="http://www.w3.org/1999/xlink">
<path d="M65.8,4.3C65.8,3.601 65.621,2.914 65.281,2.304C64.94,1.694 64.45,1.181 63.855,0.814C63.261,0.447 62.583,0.238 61.885,0.206C61.187,0.175 60.492,0.322 59.867,0.635L27.928,16.6L12.5,16.6C9.238,16.6 6.109,17.896 3.803,20.203C1.496,22.509 0.2,25.638 0.2,28.9C0.2,32.162 1.496,35.291 3.803,37.597C6.109,39.904 9.238,41.2 12.5,41.2L13.648,41.2L20.909,62.996C21.181,63.812 21.704,64.523 22.402,65.026C23.1,65.529 23.939,65.8 24.8,65.8L28.9,65.8C29.988,65.8 31.03,65.368 31.799,64.599C32.568,63.83 33,62.787 33,61.7L33,43.734L59.867,57.165C60.492,57.478 61.187,57.625 61.885,57.594C62.583,57.562 63.261,57.353 63.855,56.986C64.45,56.619 64.94,56.106 65.281,55.496C65.621,54.886 65.8,54.199 65.8,53.5L65.8,4.3Z" clip-rule="evenodd" fill-rule="evenodd" fill="#0094FE"/>
</svg>
