<svg width="34" height="28" viewBox="0 0 34 28" fill="none" xmlns="http://www.w3.org/2000/svg" xmlns:xlink="http://www.w3.org/1999/xlink">
<path d="M28.836,18.317L28.836,24.404C28.836,25.034 28.585,25.639 28.14,26.084C27.694,26.529 27.09,26.78 26.46,26.78L5.081,26.78C4.451,26.78 3.847,26.529 3.401,26.084C2.956,25.639 2.706,25.034 2.706,24.404L2.706,18.317C1.845,18.095 1.065,17.636 0.452,16.993C-0.16,16.349 -0.58,15.547 -0.76,14.676C-0.939,13.806 -0.871,12.903 -0.563,12.07C-0.255,11.237 0.281,10.506 0.983,9.962C1.685,9.418 2.526,9.081 3.41,8.991C4.294,8.901 5.185,9.06 5.983,9.451C6.781,9.842 7.454,10.448 7.924,11.202C8.394,11.956 8.644,12.826 8.644,13.715L8.644,19.653C8.644,19.968 8.769,20.271 8.992,20.493C9.215,20.716 9.517,20.841 9.832,20.841C10.147,20.841 10.449,20.716 10.672,20.493C10.895,20.271 11.02,19.968 11.02,19.653L11.02,14.902L20.522,14.902L20.522,19.653C20.522,19.968 20.647,20.271 20.869,20.493C21.092,20.716 21.394,20.841 21.709,20.841C22.024,20.841 22.326,20.716 22.549,20.493C22.772,20.271 22.897,19.968 22.897,19.653L22.897,13.715C22.897,12.826 23.147,11.956 23.617,11.202C24.088,10.448 24.76,9.842 25.558,9.451C26.356,9.06 27.247,8.901 28.131,8.991C29.015,9.081 29.856,9.418 30.558,9.962C31.26,10.506 31.796,11.237 32.104,12.07C32.412,12.903 32.48,13.806 32.301,14.676C32.122,15.547 31.702,16.349 31.089,16.993C30.477,17.636 29.696,18.095 28.836,18.317ZM10.916,12.527L20.625,12.527C20.906,10.867 21.765,9.36 23.05,8.273C24.336,7.186 25.965,6.589 27.648,6.588L28.197,6.588C28.278,6.597 28.36,6.588 28.437,6.563C28.514,6.537 28.585,6.496 28.646,6.441C28.706,6.387 28.754,6.32 28.787,6.246C28.819,6.171 28.836,6.091 28.836,6.009L28.836,5.401C28.836,3.826 28.21,2.315 27.096,1.202C25.983,0.088 24.472,-0.538 22.897,-0.538L8.644,-0.538C7.069,-0.538 5.559,0.088 4.445,1.202C3.331,2.315 2.706,3.826 2.706,5.401L2.706,6.024C2.705,6.106 2.722,6.186 2.755,6.26C2.787,6.335 2.836,6.402 2.896,6.456C2.956,6.511 3.027,6.552 3.104,6.578C3.182,6.603 3.263,6.612 3.344,6.603L3.893,6.603C5.575,6.604 7.202,7.198 8.487,8.283C9.772,9.367 10.632,10.87 10.916,12.527Z" transform="rotate(0 15.771 13.121)" fill="#8C8D89"/>
</svg>
