<svg width="40" height="36" viewBox="0 0 40 36" fill="none" xmlns="http://www.w3.org/2000/svg" xmlns:xlink="http://www.w3.org/1999/xlink">
<path d="M8,26C8,27.105 8.895,28 10,28C11.105,28 12,27.105 12,26L8,26ZM10,2L11.414,0.586C10.633,-0.195 9.367,-0.195 8.586,0.586L10,2ZM0.586,8.586C-0.195,9.367 -0.195,10.633 0.586,11.414C1.367,12.195 2.633,12.195 3.414,11.414L0.586,8.586ZM16.586,11.414C17.367,12.195 18.633,12.195 19.414,11.414C20.195,10.633 20.195,9.367 19.414,8.586L16.586,11.414ZM32,10C32,8.895 31.105,8 30,8C28.895,8 28,8.895 28,10L32,10ZM30,34L28.586,35.414C29.367,36.195 30.633,36.195 31.414,35.414L30,34ZM39.414,27.414C40.195,26.633 40.195,25.367 39.414,24.586C38.633,23.805 37.367,23.805 36.586,24.586L39.414,27.414ZM23.414,24.586C22.633,23.805 21.367,23.805 20.586,24.586C19.805,25.367 19.805,26.633 20.586,27.414L23.414,24.586ZM12,26L12,2L8,2L8,26L12,26ZM8.586,0.586L0.586,8.586L3.414,11.414L11.414,3.414L8.586,0.586ZM8.586,3.414L16.586,11.414L19.414,8.586L11.414,0.586L8.586,3.414ZM28,10L28,34L32,34L32,10L28,10ZM31.414,35.414L39.414,27.414L36.586,24.586L28.586,32.586L31.414,35.414ZM31.414,32.586L23.414,24.586L20.586,27.414L28.586,35.414L31.414,32.586Z" fill="#000000"/>
</svg>
