<svg width="34" height="28" viewBox="0 0 34 28" fill="none" xmlns="http://www.w3.org/2000/svg" xmlns:xlink="http://www.w3.org/1999/xlink">
<path d="M30.146,18.353L30.146,24.44C30.146,25.07 29.896,25.674 29.45,26.119C29.005,26.565 28.401,26.815 27.771,26.815L6.392,26.815C5.762,26.815 5.158,26.565 4.712,26.119C4.267,25.674 4.016,25.07 4.016,24.44L4.016,18.353C3.156,18.13 2.375,17.672 1.763,17.028C1.15,16.384 0.73,15.582 0.551,14.712C0.372,13.842 0.44,12.939 0.748,12.105C1.056,11.272 1.591,10.542 2.294,9.997C2.996,9.453 3.837,9.117 4.721,9.026C5.605,8.936 6.496,9.095 7.294,9.486C8.092,9.877 8.764,10.484 9.234,11.237C9.705,11.991 9.954,12.862 9.955,13.75L9.955,19.689C9.955,20.004 10.08,20.306 10.303,20.528C10.526,20.751 10.828,20.876 11.143,20.876C11.458,20.876 11.76,20.751 11.982,20.528C12.205,20.306 12.33,20.004 12.33,19.689L12.33,14.938L21.832,14.938L21.832,19.689C21.832,20.004 21.957,20.306 22.18,20.528C22.403,20.751 22.705,20.876 23.02,20.876C23.335,20.876 23.637,20.751 23.86,20.528C24.082,20.306 24.208,20.004 24.208,19.689L24.208,13.75C24.208,12.862 24.458,11.991 24.928,11.237C25.398,10.484 26.071,9.877 26.869,9.486C27.666,9.095 28.558,8.936 29.442,9.026C30.326,9.117 31.166,9.453 31.869,9.997C32.571,10.542 33.107,11.272 33.415,12.105C33.723,12.939 33.791,13.842 33.612,14.712C33.432,15.582 33.012,16.384 32.4,17.028C31.787,17.672 31.006,18.13 30.146,18.353ZM12.226,12.562L21.936,12.562C22.217,10.903 23.076,9.396 24.361,8.309C25.646,7.222 27.275,6.625 28.958,6.624L29.508,6.624C29.589,6.632 29.67,6.623 29.748,6.598C29.825,6.573 29.896,6.531 29.956,6.477C30.016,6.422 30.064,6.355 30.097,6.281C30.13,6.207 30.147,6.126 30.146,6.045L30.146,5.436C30.146,3.861 29.521,2.351 28.407,1.237C27.293,0.123 25.783,-0.503 24.208,-0.503L9.955,-0.503C8.38,-0.503 6.869,0.123 5.756,1.237C4.642,2.351 4.016,3.861 4.016,5.436L4.016,6.06C4.016,6.141 4.033,6.221 4.065,6.296C4.098,6.37 4.146,6.437 4.206,6.492C4.267,6.546 4.338,6.588 4.415,6.613C4.492,6.638 4.574,6.647 4.655,6.639L5.204,6.639C6.885,6.639 8.512,7.234 9.797,8.318C11.082,9.402 11.943,10.905 12.226,12.562Z" transform="rotate(0 17.081 13.156)" fill="#000000"/>
</svg>
