<svg width="36" height="28" viewBox="0 0 36 28" fill="none" xmlns="http://www.w3.org/2000/svg" xmlns:xlink="http://www.w3.org/1999/xlink">
<path d="M30.627,18.367L30.627,24.454C30.627,25.084 30.376,25.688 29.931,26.134C29.485,26.579 28.881,26.83 28.251,26.83L6.872,26.83C6.242,26.83 5.638,26.579 5.193,26.134C4.747,25.688 4.497,25.084 4.497,24.454L4.497,18.367C3.636,18.145 2.856,17.686 2.243,17.043C1.631,16.399 1.211,15.597 1.031,14.726C0.852,13.856 0.92,12.953 1.228,12.12C1.536,11.286 2.072,10.556 2.774,10.012C3.476,9.468 4.317,9.131 5.201,9.041C6.085,8.95 6.977,9.11 7.774,9.501C8.572,9.891 9.245,10.498 9.715,11.252C10.185,12.006 10.435,12.876 10.435,13.765L10.435,19.703C10.435,20.018 10.56,20.32 10.783,20.543C11.006,20.766 11.308,20.891 11.623,20.891C11.938,20.891 12.24,20.766 12.463,20.543C12.686,20.32 12.811,20.018 12.811,19.703L12.811,14.952L22.313,14.952L22.313,19.703C22.313,20.018 22.438,20.32 22.66,20.543C22.883,20.766 23.185,20.891 23.5,20.891C23.815,20.891 24.117,20.766 24.34,20.543C24.563,20.32 24.688,20.018 24.688,19.703L24.688,13.765C24.688,12.876 24.938,12.006 25.408,11.252C25.879,10.498 26.551,9.891 27.349,9.501C28.147,9.11 29.038,8.95 29.922,9.041C30.806,9.131 31.647,9.468 32.349,10.012C33.051,10.556 33.587,11.286 33.895,12.12C34.203,12.953 34.271,13.856 34.092,14.726C33.913,15.597 33.493,16.399 32.88,17.043C32.268,17.686 31.487,18.145 30.627,18.367ZM12.707,12.577L22.416,12.577C22.697,10.917 23.556,9.41 24.841,8.323C26.127,7.236 27.756,6.639 29.439,6.638L29.988,6.638C30.069,6.647 30.151,6.638 30.228,6.613C30.305,6.587 30.376,6.546 30.437,6.491C30.497,6.437 30.545,6.37 30.578,6.296C30.61,6.221 30.627,6.141 30.627,6.059L30.627,5.451C30.627,3.876 30.001,2.365 28.887,1.251C27.774,0.138 26.263,-0.488 24.688,-0.488L10.435,-0.488C8.86,-0.488 7.35,0.138 6.236,1.251C5.122,2.365 4.497,3.876 4.497,5.451L4.497,6.074C4.496,6.156 4.513,6.236 4.546,6.31C4.578,6.385 4.627,6.452 4.687,6.506C4.747,6.561 4.818,6.602 4.895,6.627C4.973,6.653 5.054,6.662 5.135,6.653L5.684,6.653C7.366,6.654 8.993,7.248 10.278,8.332C11.563,9.416 12.423,10.92 12.707,12.577Z" transform="rotate(0 17.562 13.171)" fill="#000000"/>
</svg>
