<svg width="34" height="28" viewBox="0 0 34 28" fill="none" xmlns="http://www.w3.org/2000/svg" xmlns:xlink="http://www.w3.org/1999/xlink">
<path d="M28.836,18.338L28.836,24.425C28.836,25.055 28.585,25.659 28.14,26.105C27.694,26.55 27.09,26.801 26.46,26.801L5.081,26.801C4.451,26.801 3.847,26.55 3.401,26.105C2.956,25.659 2.706,25.055 2.706,24.425L2.706,18.338C1.845,18.116 1.065,17.657 0.452,17.014C-0.16,16.37 -0.58,15.568 -0.76,14.697C-0.939,13.827 -0.871,12.924 -0.563,12.091C-0.255,11.257 0.281,10.527 0.983,9.983C1.685,9.439 2.526,9.102 3.41,9.012C4.294,8.921 5.185,9.081 5.983,9.472C6.781,9.862 7.454,10.469 7.924,11.223C8.394,11.977 8.644,12.847 8.644,13.736L8.644,19.674C8.644,19.989 8.769,20.291 8.992,20.514C9.215,20.737 9.517,20.862 9.832,20.862C10.147,20.862 10.449,20.737 10.672,20.514C10.895,20.291 11.02,19.989 11.02,19.674L11.02,14.923L20.522,14.923L20.522,19.674C20.522,19.989 20.647,20.291 20.869,20.514C21.092,20.737 21.394,20.862 21.709,20.862C22.024,20.862 22.326,20.737 22.549,20.514C22.772,20.291 22.897,19.989 22.897,19.674L22.897,13.736C22.897,12.847 23.147,11.977 23.617,11.223C24.088,10.469 24.76,9.862 25.558,9.472C26.356,9.081 27.247,8.921 28.131,9.012C29.015,9.102 29.856,9.439 30.558,9.983C31.26,10.527 31.796,11.257 32.104,12.091C32.412,12.924 32.48,13.827 32.301,14.697C32.122,15.568 31.702,16.37 31.089,17.014C30.477,17.657 29.696,18.116 28.836,18.338ZM10.916,12.548L20.625,12.548C20.906,10.888 21.765,9.381 23.05,8.294C24.336,7.207 25.965,6.61 27.648,6.609L28.197,6.609C28.278,6.618 28.36,6.609 28.437,6.584C28.514,6.558 28.585,6.517 28.646,6.462C28.706,6.408 28.754,6.341 28.787,6.267C28.819,6.192 28.836,6.112 28.836,6.03L28.836,5.422C28.836,3.847 28.21,2.336 27.096,1.222C25.983,0.109 24.472,-0.517 22.897,-0.517L8.644,-0.517C7.069,-0.517 5.559,0.109 4.445,1.222C3.331,2.336 2.706,3.847 2.706,5.422L2.706,6.045C2.705,6.127 2.722,6.207 2.755,6.281C2.787,6.356 2.836,6.423 2.896,6.477C2.956,6.532 3.027,6.573 3.104,6.598C3.182,6.624 3.263,6.633 3.344,6.624L3.893,6.624C5.575,6.625 7.202,7.219 8.487,8.303C9.772,9.387 10.632,10.891 10.916,12.548Z" transform="rotate(0 15.771 13.142)" fill="#000000"/>
</svg>
