<svg width="34" height="28" viewBox="0 0 34 28" fill="none" xmlns="http://www.w3.org/2000/svg" xmlns:xlink="http://www.w3.org/1999/xlink">
<path d="M30.146,18.324L30.146,24.411C30.146,25.041 29.896,25.646 29.45,26.091C29.005,26.536 28.401,26.787 27.771,26.787L6.392,26.787C5.762,26.787 5.158,26.536 4.712,26.091C4.267,25.646 4.016,25.041 4.016,24.411L4.016,18.324C3.156,18.102 2.375,17.643 1.763,17C1.15,16.356 0.73,15.554 0.551,14.684C0.372,13.813 0.44,12.91 0.748,12.077C1.056,11.244 1.591,10.513 2.294,9.969C2.996,9.425 3.837,9.088 4.721,8.998C5.605,8.908 6.496,9.067 7.294,9.458C8.092,9.849 8.764,10.455 9.234,11.209C9.705,11.963 9.954,12.833 9.955,13.722L9.955,19.66C9.955,19.975 10.08,20.278 10.303,20.5C10.526,20.723 10.828,20.848 11.143,20.848C11.458,20.848 11.76,20.723 11.982,20.5C12.205,20.278 12.33,19.975 12.33,19.66L12.33,14.91L21.832,14.91L21.832,19.66C21.832,19.975 21.957,20.278 22.18,20.5C22.403,20.723 22.705,20.848 23.02,20.848C23.335,20.848 23.637,20.723 23.86,20.5C24.082,20.278 24.208,19.975 24.208,19.66L24.208,13.722C24.208,12.833 24.458,11.963 24.928,11.209C25.398,10.455 26.071,9.849 26.869,9.458C27.666,9.067 28.558,8.908 29.442,8.998C30.326,9.088 31.166,9.425 31.869,9.969C32.571,10.513 33.107,11.244 33.415,12.077C33.723,12.91 33.791,13.813 33.612,14.684C33.432,15.554 33.012,16.356 32.4,17C31.787,17.643 31.006,18.102 30.146,18.324ZM12.226,12.534L21.936,12.534C22.217,10.874 23.076,9.367 24.361,8.28C25.646,7.193 27.275,6.597 28.958,6.596L29.508,6.596C29.589,6.604 29.67,6.595 29.748,6.57C29.825,6.544 29.896,6.503 29.956,6.448C30.016,6.394 30.064,6.327 30.097,6.253C30.13,6.178 30.147,6.098 30.146,6.017L30.146,5.408C30.146,3.833 29.521,2.322 28.407,1.209C27.293,0.095 25.783,-0.531 24.208,-0.531L9.955,-0.531C8.38,-0.531 6.869,0.095 5.756,1.209C4.642,2.322 4.016,3.833 4.016,5.408L4.016,6.031C4.016,6.113 4.033,6.193 4.065,6.268C4.098,6.342 4.146,6.409 4.206,6.463C4.267,6.518 4.338,6.559 4.415,6.585C4.492,6.61 4.574,6.619 4.655,6.61L5.204,6.61C6.885,6.611 8.512,7.206 9.797,8.29C11.082,9.374 11.943,10.877 12.226,12.534Z" transform="rotate(0 17.081 13.128)" fill="#8C8D89"/>
</svg>
