<svg width="34" height="28" viewBox="0 0 34 28" fill="none" xmlns="http://www.w3.org/2000/svg" xmlns:xlink="http://www.w3.org/1999/xlink">
<path d="M28.836,18.324L28.836,24.412C28.836,25.042 28.585,25.646 28.14,26.091C27.694,26.537 27.09,26.787 26.46,26.787L5.081,26.787C4.451,26.787 3.847,26.537 3.401,26.091C2.956,25.646 2.706,25.042 2.706,24.412L2.706,18.324C1.845,18.102 1.065,17.643 0.452,17C-0.16,16.356 -0.58,15.554 -0.76,14.684C-0.939,13.813 -0.871,12.91 -0.563,12.077C-0.255,11.244 0.281,10.513 0.983,9.969C1.685,9.425 2.526,9.089 3.41,8.998C4.294,8.908 5.185,9.067 5.983,9.458C6.781,9.849 7.454,10.455 7.924,11.209C8.394,11.963 8.644,12.834 8.644,13.722L8.644,19.661C8.644,19.976 8.769,20.278 8.992,20.5C9.215,20.723 9.517,20.848 9.832,20.848C10.147,20.848 10.449,20.723 10.672,20.5C10.895,20.278 11.02,19.976 11.02,19.661L11.02,14.91L20.522,14.91L20.522,19.661C20.522,19.976 20.647,20.278 20.869,20.5C21.092,20.723 21.394,20.848 21.709,20.848C22.024,20.848 22.326,20.723 22.549,20.5C22.772,20.278 22.897,19.976 22.897,19.661L22.897,13.722C22.897,12.834 23.147,11.963 23.617,11.209C24.088,10.455 24.76,9.849 25.558,9.458C26.356,9.067 27.247,8.908 28.131,8.998C29.015,9.089 29.856,9.425 30.558,9.969C31.26,10.513 31.796,11.244 32.104,12.077C32.412,12.91 32.48,13.813 32.301,14.684C32.122,15.554 31.702,16.356 31.089,17C30.477,17.643 29.696,18.102 28.836,18.324ZM10.916,12.534L20.625,12.534C20.906,10.874 21.765,9.368 23.05,8.281C24.336,7.194 25.965,6.597 27.648,6.596L28.197,6.596C28.278,6.604 28.36,6.595 28.437,6.57C28.514,6.545 28.585,6.503 28.646,6.449C28.706,6.394 28.754,6.327 28.787,6.253C28.819,6.178 28.836,6.098 28.836,6.017L28.836,5.408C28.836,3.833 28.21,2.322 27.096,1.209C25.983,0.095 24.472,-0.531 22.897,-0.531L8.644,-0.531C7.069,-0.531 5.559,0.095 4.445,1.209C3.331,2.322 2.706,3.833 2.706,5.408L2.706,6.032C2.705,6.113 2.722,6.193 2.755,6.268C2.787,6.342 2.836,6.409 2.896,6.463C2.956,6.518 3.027,6.559 3.104,6.585C3.182,6.61 3.263,6.619 3.344,6.611L3.893,6.611C5.575,6.611 7.202,7.206 8.487,8.29C9.772,9.374 10.632,10.877 10.916,12.534Z" transform="rotate(0 15.771 13.128)" fill="#8C8D89"/>
</svg>
