<svg width="34" height="28" viewBox="0 0 34 28" fill="none" xmlns="http://www.w3.org/2000/svg" xmlns:xlink="http://www.w3.org/1999/xlink">
<path d="M29.281,18.367L29.281,24.454C29.281,25.084 29.031,25.688 28.585,26.134C28.14,26.579 27.535,26.83 26.905,26.83L5.526,26.83C4.896,26.83 4.292,26.579 3.847,26.134C3.401,25.688 3.151,25.084 3.151,24.454L3.151,18.367C2.291,18.145 1.51,17.686 0.898,17.042C0.285,16.399 -0.135,15.596 -0.314,14.726C-0.494,13.856 -0.425,12.953 -0.117,12.12C0.191,11.286 0.726,10.556 1.429,10.012C2.131,9.468 2.972,9.131 3.855,9.041C4.739,8.95 5.631,9.11 6.429,9.5C7.227,9.891 7.899,10.498 8.369,11.252C8.84,12.006 9.089,12.876 9.09,13.765L9.09,19.703C9.09,20.018 9.215,20.32 9.438,20.543C9.66,20.766 9.962,20.891 10.277,20.891C10.592,20.891 10.894,20.766 11.117,20.543C11.34,20.32 11.465,20.018 11.465,19.703L11.465,14.952L20.967,14.952L20.967,19.703C20.967,20.018 21.092,20.32 21.315,20.543C21.537,20.766 21.839,20.891 22.154,20.891C22.469,20.891 22.772,20.766 22.994,20.543C23.217,20.32 23.342,20.018 23.342,19.703L23.342,13.765C23.343,12.876 23.592,12.006 24.063,11.252C24.533,10.498 25.205,9.891 26.003,9.5C26.801,9.11 27.693,8.95 28.576,9.041C29.46,9.131 30.301,9.468 31.003,10.012C31.706,10.556 32.241,11.286 32.549,12.12C32.857,12.953 32.926,13.856 32.746,14.726C32.567,15.596 32.147,16.399 31.534,17.042C30.922,17.686 30.141,18.145 29.281,18.367ZM11.361,12.577L21.071,12.577C21.351,10.917 22.21,9.41 23.496,8.323C24.781,7.236 26.41,6.639 28.093,6.638L28.642,6.638C28.723,6.647 28.805,6.638 28.882,6.612C28.96,6.587 29.031,6.546 29.091,6.491C29.151,6.437 29.199,6.37 29.232,6.295C29.265,6.221 29.281,6.141 29.281,6.059L29.281,5.451C29.281,3.875 28.655,2.365 27.541,1.251C26.428,0.138 24.917,-0.488 23.342,-0.488L9.09,-0.488C7.515,-0.488 6.004,0.138 4.89,1.251C3.777,2.365 3.151,3.875 3.151,5.451L3.151,6.074C3.151,6.155 3.167,6.236 3.2,6.31C3.233,6.385 3.281,6.451 3.341,6.506C3.401,6.561 3.472,6.602 3.55,6.627C3.627,6.653 3.709,6.661 3.789,6.653L4.339,6.653C6.02,6.653 7.647,7.248 8.932,8.332C10.217,9.416 11.077,10.92 11.361,12.577Z" transform="rotate(0 16.216 13.171)" fill="#8C8D89"/>
</svg>
