<svg width="28" height="24" viewBox="0 0 28 24" fill="none" xmlns="http://www.w3.org/2000/svg" xmlns:xlink="http://www.w3.org/1999/xlink">
<path d="M24.377,15.857L24.377,20.929C24.377,21.454 24.168,21.958 23.797,22.329C23.426,22.7 22.922,22.909 22.397,22.909L4.582,22.909C4.057,22.909 3.553,22.7 3.182,22.329C2.811,21.958 2.602,21.454 2.602,20.929L2.602,15.857C1.885,15.672 1.235,15.289 0.724,14.753C0.214,14.217 -0.136,13.548 -0.286,12.823C-0.435,12.098 -0.378,11.345 -0.122,10.651C0.135,9.956 0.581,9.348 1.167,8.894C1.752,8.441 2.453,8.16 3.189,8.085C3.926,8.01 4.669,8.142 5.333,8.468C5.998,8.794 6.559,9.299 6.951,9.927C7.343,10.556 7.551,11.281 7.551,12.021L7.551,16.97C7.551,17.233 7.655,17.484 7.841,17.67C8.026,17.856 8.278,17.96 8.541,17.96C8.803,17.96 9.055,17.856 9.241,17.67C9.426,17.484 9.53,17.233 9.53,16.97L9.53,13.011L17.449,13.011L17.449,16.97C17.449,17.233 17.553,17.484 17.739,17.67C17.924,17.856 18.176,17.96 18.438,17.96C18.701,17.96 18.953,17.856 19.138,17.67C19.324,17.484 19.428,17.233 19.428,16.97L19.428,12.021C19.429,11.281 19.636,10.556 20.028,9.927C20.42,9.299 20.981,8.794 21.646,8.468C22.311,8.142 23.053,8.01 23.79,8.085C24.527,8.16 25.227,8.441 25.812,8.894C26.398,9.348 26.844,9.956 27.101,10.651C27.357,11.345 27.414,12.098 27.265,12.823C27.115,13.548 26.765,14.217 26.255,14.753C25.744,15.289 25.094,15.672 24.377,15.857ZM9.444,11.032L17.535,11.032C17.769,9.648 18.485,8.393 19.556,7.487C20.627,6.581 21.984,6.084 23.387,6.083L23.845,6.083C23.912,6.09 23.98,6.082 24.045,6.061C24.109,6.04 24.168,6.006 24.219,5.96C24.269,5.915 24.309,5.859 24.336,5.797C24.363,5.735 24.377,5.668 24.377,5.6L24.377,5.093C24.377,3.78 23.856,2.522 22.927,1.594C21.999,0.666 20.741,0.144 19.428,0.144L7.551,0.144C6.238,0.144 4.98,0.666 4.052,1.594C3.124,2.522 2.602,3.78 2.602,5.093L2.602,5.613C2.602,5.68 2.616,5.747 2.643,5.809C2.67,5.871 2.71,5.927 2.76,5.973C2.811,6.018 2.87,6.053 2.934,6.074C2.999,6.095 3.067,6.102 3.134,6.095L3.592,6.095C4.993,6.095 6.349,6.591 7.42,7.494C8.49,8.398 9.207,9.651 9.444,11.032Z" transform="rotate(0 13.49 11.526)" fill="#F90707"/>
</svg>
