<svg width="34" height="28" viewBox="0 0 34 28" fill="none" xmlns="http://www.w3.org/2000/svg" xmlns:xlink="http://www.w3.org/1999/xlink">
<path d="M30.146,18.345L30.146,24.433C30.146,25.063 29.896,25.667 29.45,26.112C29.005,26.558 28.401,26.808 27.771,26.808L6.392,26.808C5.762,26.808 5.158,26.558 4.712,26.112C4.267,25.667 4.016,25.063 4.016,24.433L4.016,18.345C3.156,18.123 2.375,17.664 1.763,17.021C1.15,16.377 0.73,15.575 0.551,14.705C0.372,13.834 0.44,12.931 0.748,12.098C1.056,11.265 1.591,10.534 2.294,9.99C2.996,9.446 3.837,9.11 4.721,9.019C5.605,8.929 6.496,9.088 7.294,9.479C8.092,9.87 8.764,10.476 9.234,11.23C9.705,11.984 9.954,12.855 9.955,13.743L9.955,19.682C9.955,19.997 10.08,20.299 10.303,20.521C10.526,20.744 10.828,20.869 11.143,20.869C11.458,20.869 11.76,20.744 11.982,20.521C12.205,20.299 12.33,19.997 12.33,19.682L12.33,14.931L21.832,14.931L21.832,19.682C21.832,19.997 21.957,20.299 22.18,20.521C22.403,20.744 22.705,20.869 23.02,20.869C23.335,20.869 23.637,20.744 23.86,20.521C24.082,20.299 24.208,19.997 24.208,19.682L24.208,13.743C24.208,12.855 24.458,11.984 24.928,11.23C25.398,10.476 26.071,9.87 26.869,9.479C27.666,9.088 28.558,8.929 29.442,9.019C30.326,9.11 31.166,9.446 31.869,9.99C32.571,10.534 33.107,11.265 33.415,12.098C33.723,12.931 33.791,13.834 33.612,14.705C33.432,15.575 33.012,16.377 32.4,17.021C31.787,17.664 31.006,18.123 30.146,18.345ZM12.226,12.555L21.936,12.555C22.217,10.895 23.076,9.389 24.361,8.302C25.646,7.215 27.275,6.618 28.958,6.617L29.508,6.617C29.589,6.625 29.67,6.616 29.748,6.591C29.825,6.566 29.896,6.524 29.956,6.47C30.016,6.415 30.064,6.348 30.097,6.274C30.13,6.199 30.147,6.119 30.146,6.038L30.146,5.429C30.146,3.854 29.521,2.343 28.407,1.23C27.293,0.116 25.783,-0.51 24.208,-0.51L9.955,-0.51C8.38,-0.51 6.869,0.116 5.756,1.23C4.642,2.343 4.016,3.854 4.016,5.429L4.016,6.053C4.016,6.134 4.033,6.214 4.065,6.289C4.098,6.363 4.146,6.43 4.206,6.484C4.267,6.539 4.338,6.58 4.415,6.606C4.492,6.631 4.574,6.64 4.655,6.632L5.204,6.632C6.885,6.632 8.512,7.227 9.797,8.311C11.082,9.395 11.943,10.898 12.226,12.555Z" transform="rotate(0 17.081 13.149)" fill="#8C8D89"/>
</svg>
