<svg width="104" height="52" viewBox="0 0 104 52" fill="none" xmlns="http://www.w3.org/2000/svg" xmlns:xlink="http://www.w3.org/1999/xlink">
<path d="M73.745,1.432C73.396,1.75 73.12,2.128 72.931,2.545C72.742,2.962 72.645,3.409 72.645,3.86C72.645,4.312 72.742,4.759 72.931,5.176C73.12,5.593 73.396,5.971 73.745,6.289L90.842,22.023L3.348,22.023C2.362,22.023 1.417,22.383 0.719,23.024C0.022,23.666 -0.369,24.536 -0.369,25.443C-0.369,26.35 0.022,27.22 0.719,27.862C1.417,28.503 2.362,28.863 3.348,28.863L90.768,28.863L73.745,44.494C73.052,45.135 72.664,46.002 72.664,46.906C72.664,47.809 73.052,48.676 73.745,49.317C74.441,49.954 75.383,50.312 76.365,50.312C77.347,50.312 78.289,49.954 78.985,49.317L102.624,27.564C102.943,27.283 103.196,26.945 103.369,26.572C103.542,26.199 103.631,25.797 103.631,25.392C103.631,24.986 103.542,24.584 103.369,24.211C103.196,23.838 102.943,23.501 102.624,23.22L79.023,1.432C78.677,1.111 78.266,0.857 77.813,0.683C77.36,0.51 76.874,0.42 76.384,0.42C75.893,0.42 75.407,0.51 74.954,0.683C74.501,0.857 74.09,1.111 73.745,1.432Z" fill="#000000"/>
</svg>
