<svg width="34" height="28" viewBox="0 0 34 28" fill="none" xmlns="http://www.w3.org/2000/svg" xmlns:xlink="http://www.w3.org/1999/xlink">
<path d="M29.972,18.338L29.972,24.425C29.972,25.055 29.722,25.66 29.276,26.105C28.831,26.55 28.227,26.801 27.597,26.801L6.218,26.801C5.588,26.801 4.984,26.55 4.538,26.105C4.093,25.66 3.842,25.055 3.842,24.425L3.842,18.338C2.982,18.116 2.201,17.657 1.589,17.014C0.976,16.37 0.557,15.568 0.377,14.697C0.198,13.827 0.266,12.924 0.574,12.091C0.882,11.258 1.418,10.527 2.12,9.983C2.822,9.439 3.663,9.102 4.547,9.012C5.431,8.922 6.322,9.081 7.12,9.472C7.918,9.863 8.59,10.469 9.061,11.223C9.531,11.977 9.781,12.847 9.781,13.736L9.781,19.674C9.781,19.989 9.906,20.292 10.129,20.514C10.352,20.737 10.654,20.862 10.969,20.862C11.284,20.862 11.586,20.737 11.809,20.514C12.031,20.292 12.156,19.989 12.156,19.674L12.156,14.923L21.658,14.923L21.658,19.674C21.658,19.989 21.783,20.292 22.006,20.514C22.229,20.737 22.531,20.862 22.846,20.862C23.161,20.862 23.463,20.737 23.686,20.514C23.908,20.292 24.034,19.989 24.034,19.674L24.034,13.736C24.034,12.847 24.284,11.977 24.754,11.223C25.224,10.469 25.897,9.863 26.695,9.472C27.492,9.081 28.384,8.922 29.268,9.012C30.152,9.102 30.992,9.439 31.695,9.983C32.397,10.527 32.933,11.258 33.241,12.091C33.549,12.924 33.617,13.827 33.438,14.697C33.258,15.568 32.838,16.37 32.226,17.014C31.613,17.657 30.832,18.116 29.972,18.338ZM12.053,12.548L21.762,12.548C22.043,10.888 22.902,9.381 24.187,8.294C25.472,7.207 27.101,6.61 28.784,6.609L29.334,6.609C29.415,6.618 29.496,6.609 29.574,6.584C29.651,6.558 29.722,6.517 29.782,6.462C29.842,6.408 29.89,6.341 29.923,6.267C29.956,6.192 29.973,6.112 29.972,6.03L29.972,5.422C29.972,3.847 29.347,2.336 28.233,1.223C27.119,0.109 25.609,-0.517 24.034,-0.517L9.781,-0.517C8.206,-0.517 6.696,0.109 5.582,1.223C4.468,2.336 3.842,3.847 3.842,5.422L3.842,6.045C3.842,6.127 3.859,6.207 3.891,6.281C3.924,6.356 3.972,6.423 4.032,6.477C4.093,6.532 4.164,6.573 4.241,6.599C4.318,6.624 4.4,6.633 4.481,6.624L5.03,6.624C6.711,6.625 8.338,7.219 9.623,8.304C10.908,9.388 11.769,10.891 12.053,12.548Z" transform="rotate(0 16.907 13.142)" fill="#000000"/>
</svg>
