<svg width="34" height="28" viewBox="0 0 34 28" fill="none" xmlns="http://www.w3.org/2000/svg" xmlns:xlink="http://www.w3.org/1999/xlink">
<path d="M30.146,18.331L30.146,24.418C30.146,25.048 29.896,25.653 29.45,26.098C29.005,26.543 28.401,26.794 27.771,26.794L6.392,26.794C5.762,26.794 5.158,26.543 4.712,26.098C4.267,25.653 4.016,25.048 4.016,24.418L4.016,18.331C3.156,18.109 2.375,17.65 1.763,17.007C1.15,16.363 0.73,15.561 0.551,14.691C0.372,13.82 0.44,12.917 0.748,12.084C1.056,11.251 1.591,10.52 2.294,9.976C2.996,9.432 3.837,9.095 4.721,9.005C5.605,8.915 6.496,9.074 7.294,9.465C8.092,9.856 8.764,10.462 9.234,11.216C9.705,11.97 9.954,12.84 9.955,13.729L9.955,19.667C9.955,19.982 10.08,20.285 10.303,20.507C10.526,20.73 10.828,20.855 11.143,20.855C11.458,20.855 11.76,20.73 11.982,20.507C12.205,20.285 12.33,19.982 12.33,19.667L12.33,14.917L21.832,14.917L21.832,19.667C21.832,19.982 21.957,20.285 22.18,20.507C22.403,20.73 22.705,20.855 23.02,20.855C23.335,20.855 23.637,20.73 23.86,20.507C24.082,20.285 24.208,19.982 24.208,19.667L24.208,13.729C24.208,12.84 24.458,11.97 24.928,11.216C25.398,10.462 26.071,9.856 26.869,9.465C27.666,9.074 28.558,8.915 29.442,9.005C30.326,9.095 31.166,9.432 31.869,9.976C32.571,10.52 33.107,11.251 33.415,12.084C33.723,12.917 33.791,13.82 33.612,14.691C33.432,15.561 33.012,16.363 32.4,17.007C31.787,17.65 31.006,18.109 30.146,18.331ZM12.226,12.541L21.936,12.541C22.217,10.881 23.076,9.374 24.361,8.287C25.646,7.2 27.275,6.604 28.958,6.603L29.508,6.603C29.589,6.611 29.67,6.602 29.748,6.577C29.825,6.551 29.896,6.51 29.956,6.455C30.016,6.401 30.064,6.334 30.097,6.26C30.13,6.185 30.147,6.105 30.146,6.024L30.146,5.415C30.146,3.84 29.521,2.329 28.407,1.216C27.293,0.102 25.783,-0.524 24.208,-0.524L9.955,-0.524C8.38,-0.524 6.869,0.102 5.756,1.216C4.642,2.329 4.016,3.84 4.016,5.415L4.016,6.038C4.016,6.12 4.033,6.2 4.065,6.275C4.098,6.349 4.146,6.416 4.206,6.47C4.267,6.525 4.338,6.566 4.415,6.592C4.492,6.617 4.574,6.626 4.655,6.617L5.204,6.617C6.885,6.618 8.512,7.213 9.797,8.297C11.082,9.381 11.943,10.884 12.226,12.541Z" transform="rotate(0 17.081 13.135)" fill="#000000"/>
</svg>
