<svg width="34" height="28" viewBox="0 0 34 28" fill="none" xmlns="http://www.w3.org/2000/svg" xmlns:xlink="http://www.w3.org/1999/xlink">
<path d="M28.836,18.367L28.836,24.454C28.836,25.084 28.585,25.688 28.14,26.134C27.694,26.579 27.09,26.829 26.46,26.829L5.081,26.829C4.451,26.829 3.847,26.579 3.401,26.134C2.956,25.688 2.706,25.084 2.706,24.454L2.706,18.367C1.845,18.145 1.065,17.686 0.452,17.042C-0.16,16.399 -0.58,15.596 -0.76,14.726C-0.939,13.856 -0.871,12.953 -0.563,12.12C-0.255,11.286 0.281,10.556 0.983,10.012C1.685,9.467 2.526,9.131 3.41,9.041C4.294,8.95 5.185,9.11 5.983,9.5C6.781,9.891 7.454,10.498 7.924,11.252C8.394,12.005 8.644,12.876 8.644,13.764L8.644,19.703C8.644,20.018 8.769,20.32 8.992,20.543C9.215,20.766 9.517,20.891 9.832,20.891C10.147,20.891 10.449,20.766 10.672,20.543C10.895,20.32 11.02,20.018 11.02,19.703L11.02,14.952L20.522,14.952L20.522,19.703C20.522,20.018 20.647,20.32 20.869,20.543C21.092,20.766 21.394,20.891 21.709,20.891C22.024,20.891 22.326,20.766 22.549,20.543C22.772,20.32 22.897,20.018 22.897,19.703L22.897,13.764C22.897,12.876 23.147,12.005 23.617,11.252C24.088,10.498 24.76,9.891 25.558,9.5C26.356,9.11 27.247,8.95 28.131,9.041C29.015,9.131 29.856,9.467 30.558,10.012C31.26,10.556 31.796,11.286 32.104,12.12C32.412,12.953 32.48,13.856 32.301,14.726C32.122,15.596 31.702,16.399 31.089,17.042C30.477,17.686 29.696,18.145 28.836,18.367ZM10.916,12.577L20.625,12.577C20.906,10.917 21.765,9.41 23.05,8.323C24.336,7.236 25.965,6.639 27.648,6.638L28.197,6.638C28.278,6.646 28.36,6.638 28.437,6.612C28.514,6.587 28.585,6.546 28.646,6.491C28.706,6.436 28.754,6.37 28.787,6.295C28.819,6.221 28.836,6.14 28.836,6.059L28.836,5.45C28.836,3.875 28.21,2.365 27.096,1.251C25.983,0.137 24.472,-0.488 22.897,-0.488L8.644,-0.488C7.069,-0.488 5.559,0.137 4.445,1.251C3.331,2.365 2.706,3.875 2.706,5.45L2.706,6.074C2.705,6.155 2.722,6.236 2.755,6.31C2.787,6.385 2.836,6.451 2.896,6.506C2.956,6.561 3.027,6.602 3.104,6.627C3.182,6.653 3.263,6.661 3.344,6.653L3.893,6.653C5.575,6.653 7.202,7.248 8.487,8.332C9.772,9.416 10.632,10.92 10.916,12.577Z" transform="rotate(0 15.771 13.171)" fill="#000000"/>
</svg>
