<svg width="72" height="18" viewBox="0 0 72 18" fill="none" xmlns="http://www.w3.org/2000/svg" xmlns:xlink="http://www.w3.org/1999/xlink">
<path d="M3.998,16.377L66.946,16.377C69.154,16.377 70.944,15.184 70.944,13.712L70.944,3.792C70.944,2.32 69.154,1.126 66.946,1.126L57.523,1.126L57.523,0.243C57.523,-0.078 57.134,-0.338 56.653,-0.338L39.915,-0.338C39.434,-0.338 39.044,-0.078 39.044,0.243L39.044,1.126L32.117,1.126L32.117,0.243C32.117,-0.078 31.727,-0.338 31.246,-0.338L28.499,-0.338C28.018,-0.338 27.629,-0.078 27.629,0.243L27.629,1.126L21.903,1.126C13.333,1.126 5.586,4.524 2.192,9.77L0.326,12.656C0.218,12.823 0.137,12.996 0.083,13.173C0.028,13.35 0,13.53 0,13.712C0,15.184 1.79,16.377 3.998,16.377ZM51.964,5.791C51.964,5.471 52.354,5.211 52.835,5.211L67.669,5.211C68.149,5.211 68.539,5.471 68.539,5.791L68.539,8.205C68.539,8.526 68.149,8.786 67.669,8.786L52.835,8.786C52.354,8.786 51.964,8.526 51.964,8.205L51.964,5.791ZM39.045,5.791C39.045,5.471 39.434,5.211 39.915,5.211L48.968,5.211C49.45,5.211 49.839,5.471 49.839,5.791L49.839,8.205C49.839,8.526 49.45,8.786 48.968,8.786L39.915,8.786C39.434,8.786 39.045,8.526 39.045,8.205L39.045,5.791ZM32.244,5.791C32.244,5.471 32.634,5.211 33.115,5.211L35.861,5.211C36.343,5.211 36.732,5.471 36.732,5.791L36.732,12.183C36.732,12.504 36.343,12.764 35.861,12.764L33.115,12.764C32.634,12.764 32.244,12.504 32.244,12.183L32.244,5.791ZM25.385,5.791C25.385,5.471 25.774,5.211 26.256,5.211L29.002,5.211C29.483,5.211 29.873,5.471 29.873,5.791L29.873,12.183C29.873,12.504 29.483,12.764 29.002,12.764L26.256,12.764C25.774,12.764 25.385,12.504 25.385,12.183L25.385,5.791ZM10.83,5.211L22.027,5.211C22.348,5.211 22.609,5.385 22.609,5.599L22.609,9.591C22.609,9.806 22.348,9.98 22.027,9.98L4.85,9.98C6.241,8.047 8.315,6.421 10.83,5.211Z" fill="#000000"/>
</svg>
