<svg width="34" height="28" viewBox="0 0 34 28" fill="none" xmlns="http://www.w3.org/2000/svg" xmlns:xlink="http://www.w3.org/1999/xlink">
<path d="M29.494,18.303L29.494,24.39C29.494,25.02 29.244,25.625 28.798,26.07C28.353,26.515 27.748,26.766 27.118,26.766L5.739,26.766C5.109,26.766 4.505,26.515 4.06,26.07C3.614,25.625 3.364,25.02 3.364,24.39L3.364,18.303C2.504,18.081 1.723,17.622 1.11,16.979C0.498,16.335 0.078,15.533 -0.101,14.663C-0.281,13.792 -0.213,12.889 0.096,12.056C0.404,11.223 0.939,10.492 1.641,9.948C2.344,9.404 3.184,9.067 4.068,8.977C4.952,8.887 5.844,9.046 6.642,9.437C7.439,9.828 8.112,10.434 8.582,11.188C9.053,11.942 9.302,12.812 9.303,13.701L9.303,19.639C9.303,19.954 9.428,20.257 9.65,20.479C9.873,20.702 10.175,20.827 10.49,20.827C10.805,20.827 11.107,20.702 11.33,20.479C11.553,20.257 11.678,19.954 11.678,19.639L11.678,14.889L21.18,14.889L21.18,19.639C21.18,19.954 21.305,20.257 21.528,20.479C21.75,20.702 22.052,20.827 22.367,20.827C22.682,20.827 22.985,20.702 23.207,20.479C23.43,20.257 23.555,19.954 23.555,19.639L23.555,13.701C23.556,12.812 23.805,11.942 24.276,11.188C24.746,10.434 25.418,9.828 26.216,9.437C27.014,9.046 27.906,8.887 28.789,8.977C29.673,9.067 30.514,9.404 31.216,9.948C31.919,10.492 32.454,11.223 32.762,12.056C33.07,12.889 33.139,13.792 32.959,14.663C32.78,15.533 32.36,16.335 31.747,16.979C31.135,17.622 30.354,18.081 29.494,18.303ZM11.574,12.513L21.284,12.513C21.564,10.853 22.423,9.346 23.709,8.259C24.994,7.172 26.623,6.576 28.306,6.575L28.855,6.575C28.936,6.583 29.018,6.574 29.095,6.549C29.173,6.523 29.244,6.482 29.304,6.427C29.364,6.373 29.412,6.306 29.445,6.232C29.478,6.157 29.494,6.077 29.494,5.996L29.494,5.387C29.494,3.812 28.868,2.301 27.754,1.188C26.641,0.074 25.13,-0.552 23.555,-0.552L9.303,-0.552C7.728,-0.552 6.217,0.074 5.103,1.188C3.99,2.301 3.364,3.812 3.364,5.387L3.364,6.01C3.364,6.092 3.38,6.172 3.413,6.247C3.446,6.321 3.494,6.388 3.554,6.442C3.614,6.497 3.685,6.538 3.762,6.564C3.84,6.589 3.921,6.598 4.002,6.589L4.552,6.589C6.233,6.59 7.86,7.185 9.145,8.269C10.43,9.353 11.29,10.856 11.574,12.513Z" transform="rotate(0 16.429 13.107)" fill="#8C8D89"/>
</svg>
