<svg width="34" height="28" viewBox="0 0 34 28" fill="none" xmlns="http://www.w3.org/2000/svg" xmlns:xlink="http://www.w3.org/1999/xlink">
<path d="M28.836,18.36L28.836,24.447C28.836,25.077 28.585,25.681 28.14,26.126C27.694,26.572 27.09,26.822 26.46,26.822L5.081,26.822C4.451,26.822 3.847,26.572 3.401,26.126C2.956,25.681 2.706,25.077 2.706,24.447L2.706,18.36C1.845,18.137 1.065,17.679 0.452,17.035C-0.16,16.391 -0.58,15.589 -0.76,14.719C-0.939,13.849 -0.871,12.946 -0.563,12.112C-0.255,11.279 0.281,10.549 0.983,10.004C1.685,9.46 2.526,9.124 3.41,9.033C4.294,8.943 5.185,9.102 5.983,9.493C6.781,9.884 7.454,10.491 7.924,11.244C8.394,11.998 8.644,12.869 8.644,13.757L8.644,19.696C8.644,20.011 8.769,20.313 8.992,20.535C9.215,20.758 9.517,20.883 9.832,20.883C10.147,20.883 10.449,20.758 10.672,20.535C10.895,20.313 11.02,20.011 11.02,19.696L11.02,14.945L20.522,14.945L20.522,19.696C20.522,20.011 20.647,20.313 20.869,20.535C21.092,20.758 21.394,20.883 21.709,20.883C22.024,20.883 22.326,20.758 22.549,20.535C22.772,20.313 22.897,20.011 22.897,19.696L22.897,13.757C22.897,12.869 23.147,11.998 23.617,11.244C24.088,10.491 24.76,9.884 25.558,9.493C26.356,9.102 27.247,8.943 28.131,9.033C29.015,9.124 29.856,9.46 30.558,10.004C31.26,10.549 31.796,11.279 32.104,12.112C32.412,12.946 32.48,13.849 32.301,14.719C32.122,15.589 31.702,16.391 31.089,17.035C30.477,17.679 29.696,18.137 28.836,18.36ZM10.916,12.569L20.625,12.569C20.906,10.91 21.765,9.403 23.05,8.316C24.336,7.229 25.965,6.632 27.648,6.631L28.197,6.631C28.278,6.639 28.36,6.63 28.437,6.605C28.514,6.58 28.585,6.538 28.646,6.484C28.706,6.429 28.754,6.362 28.787,6.288C28.819,6.214 28.836,6.133 28.836,6.052L28.836,5.443C28.836,3.868 28.21,2.358 27.096,1.244C25.983,0.13 24.472,-0.496 22.897,-0.496L8.644,-0.496C7.069,-0.496 5.559,0.13 4.445,1.244C3.331,2.358 2.706,3.868 2.706,5.443L2.706,6.067C2.705,6.148 2.722,6.228 2.755,6.303C2.787,6.377 2.836,6.444 2.896,6.499C2.956,6.553 3.027,6.595 3.104,6.62C3.182,6.645 3.263,6.654 3.344,6.646L3.893,6.646C5.575,6.646 7.202,7.241 8.487,8.325C9.772,9.409 10.632,10.912 10.916,12.569Z" transform="rotate(0 15.771 13.163)" fill="#000000"/>
</svg>
