<svg width="34" height="28" viewBox="0 0 34 28" fill="none" xmlns="http://www.w3.org/2000/svg" xmlns:xlink="http://www.w3.org/1999/xlink">
<path d="M29.281,18.345L29.281,24.433C29.281,25.063 29.031,25.667 28.585,26.112C28.14,26.558 27.535,26.808 26.905,26.808L5.526,26.808C4.896,26.808 4.292,26.558 3.847,26.112C3.401,25.667 3.151,25.063 3.151,24.433L3.151,18.345C2.291,18.123 1.51,17.664 0.898,17.021C0.285,16.377 -0.135,15.575 -0.314,14.705C-0.494,13.835 -0.425,12.931 -0.117,12.098C0.191,11.265 0.726,10.535 1.429,9.99C2.131,9.446 2.972,9.11 3.855,9.019C4.739,8.929 5.631,9.088 6.429,9.479C7.227,9.87 7.899,10.477 8.369,11.23C8.84,11.984 9.089,12.855 9.09,13.743L9.09,19.682C9.09,19.997 9.215,20.299 9.438,20.521C9.66,20.744 9.962,20.869 10.277,20.869C10.592,20.869 10.894,20.744 11.117,20.521C11.34,20.299 11.465,19.997 11.465,19.682L11.465,14.931L20.967,14.931L20.967,19.682C20.967,19.997 21.092,20.299 21.315,20.521C21.537,20.744 21.839,20.869 22.154,20.869C22.469,20.869 22.772,20.744 22.994,20.521C23.217,20.299 23.342,19.997 23.342,19.682L23.342,13.743C23.343,12.855 23.592,11.984 24.063,11.23C24.533,10.477 25.205,9.87 26.003,9.479C26.801,9.088 27.693,8.929 28.576,9.019C29.46,9.11 30.301,9.446 31.003,9.99C31.706,10.535 32.241,11.265 32.549,12.098C32.857,12.931 32.926,13.835 32.746,14.705C32.567,15.575 32.147,16.377 31.534,17.021C30.922,17.664 30.141,18.123 29.281,18.345ZM11.361,12.555L21.071,12.555C21.351,10.895 22.21,9.389 23.496,8.302C24.781,7.215 26.41,6.618 28.093,6.617L28.642,6.617C28.723,6.625 28.805,6.616 28.882,6.591C28.96,6.566 29.031,6.524 29.091,6.47C29.151,6.415 29.199,6.348 29.232,6.274C29.265,6.199 29.281,6.119 29.281,6.038L29.281,5.429C29.281,3.854 28.655,2.343 27.541,1.23C26.428,0.116 24.917,-0.51 23.342,-0.51L9.09,-0.51C7.515,-0.51 6.004,0.116 4.89,1.23C3.777,2.343 3.151,3.854 3.151,5.429L3.151,6.053C3.151,6.134 3.167,6.214 3.2,6.289C3.233,6.363 3.281,6.43 3.341,6.484C3.401,6.539 3.472,6.58 3.55,6.606C3.627,6.631 3.709,6.64 3.789,6.632L4.339,6.632C6.02,6.632 7.647,7.227 8.932,8.311C10.217,9.395 11.077,10.898 11.361,12.555Z" transform="rotate(0 16.216 13.149)" fill="#8C8D89"/>
</svg>
