<svg width="72" height="18" viewBox="0 0 72 18" fill="none" xmlns="http://www.w3.org/2000/svg" xmlns:xlink="http://www.w3.org/1999/xlink">
<path d="M3.998,16.715L66.946,16.715C69.154,16.715 70.944,15.521 70.944,14.049L70.944,4.129C70.944,2.657 69.154,1.464 66.946,1.464L57.523,1.464L57.523,0.58C57.523,0.26 57.134,0 56.653,0L39.915,0C39.434,0 39.044,0.26 39.044,0.58L39.044,1.464L32.117,1.464L32.117,0.58C32.117,0.26 31.727,0 31.246,0L28.499,0C28.018,0 27.629,0.26 27.629,0.58L27.629,1.464L21.903,1.464C13.333,1.464 5.586,4.862 2.192,10.108L0.326,12.994C0.218,13.16 0.137,13.334 0.083,13.511C0.028,13.687 0,13.868 0,14.049C0,15.521 1.79,16.715 3.998,16.715ZM51.964,6.129C51.964,5.808 52.354,5.549 52.835,5.549L67.669,5.549C68.149,5.549 68.539,5.808 68.539,6.129L68.539,8.543C68.539,8.864 68.149,9.123 67.669,9.123L52.835,9.123C52.354,9.123 51.964,8.864 51.964,8.543L51.964,6.129ZM39.045,6.129C39.045,5.808 39.434,5.549 39.915,5.549L48.968,5.549C49.45,5.549 49.839,5.808 49.839,6.129L49.839,8.543C49.839,8.864 49.45,9.123 48.968,9.123L39.915,9.123C39.434,9.123 39.045,8.864 39.045,8.543L39.045,6.129ZM32.244,6.129C32.244,5.808 32.634,5.549 33.115,5.549L35.861,5.549C36.343,5.549 36.732,5.808 36.732,6.129L36.732,12.521C36.732,12.842 36.343,13.101 35.861,13.101L33.115,13.101C32.634,13.101 32.244,12.842 32.244,12.521L32.244,6.129ZM25.385,6.129C25.385,5.808 25.774,5.549 26.256,5.549L29.002,5.549C29.483,5.549 29.873,5.808 29.873,6.129L29.873,12.521C29.873,12.842 29.483,13.101 29.002,13.101L26.256,13.101C25.774,13.101 25.385,12.842 25.385,12.521L25.385,6.129ZM10.83,5.549L22.027,5.549C22.348,5.549 22.609,5.723 22.609,5.937L22.609,9.929C22.609,10.144 22.348,10.318 22.027,10.318L4.85,10.318C6.241,8.384 8.315,6.758 10.83,5.549Z" fill="#000000"/>
</svg>
