<svg width="36" height="28" viewBox="0 0 36 28" fill="none" xmlns="http://www.w3.org/2000/svg" xmlns:xlink="http://www.w3.org/1999/xlink">
<path d="M30.627,18.325L30.627,24.412C30.627,25.042 30.376,25.646 29.931,26.091C29.485,26.537 28.881,26.787 28.251,26.787L6.872,26.787C6.242,26.787 5.638,26.537 5.193,26.091C4.747,25.646 4.497,25.042 4.497,24.412L4.497,18.325C3.636,18.103 2.856,17.644 2.243,17C1.631,16.357 1.211,15.554 1.031,14.684C0.852,13.814 0.92,12.911 1.228,12.077C1.536,11.244 2.072,10.514 2.774,9.97C3.476,9.425 4.317,9.089 5.201,8.998C6.085,8.908 6.977,9.067 7.774,9.458C8.572,9.849 9.245,10.456 9.715,11.21C10.185,11.963 10.435,12.834 10.435,13.722L10.435,19.661C10.435,19.976 10.56,20.278 10.783,20.501C11.006,20.723 11.308,20.849 11.623,20.849C11.938,20.849 12.24,20.723 12.463,20.501C12.686,20.278 12.811,19.976 12.811,19.661L12.811,14.91L22.313,14.91L22.313,19.661C22.313,19.976 22.438,20.278 22.66,20.501C22.883,20.723 23.185,20.849 23.5,20.849C23.815,20.849 24.117,20.723 24.34,20.501C24.563,20.278 24.688,19.976 24.688,19.661L24.688,13.722C24.688,12.834 24.938,11.963 25.408,11.21C25.879,10.456 26.551,9.849 27.349,9.458C28.147,9.067 29.038,8.908 29.922,8.998C30.806,9.089 31.647,9.425 32.349,9.97C33.051,10.514 33.587,11.244 33.895,12.077C34.203,12.911 34.271,13.814 34.092,14.684C33.913,15.554 33.493,16.357 32.88,17C32.268,17.644 31.487,18.103 30.627,18.325ZM12.707,12.535L22.416,12.535C22.697,10.875 23.556,9.368 24.841,8.281C26.127,7.194 27.756,6.597 29.439,6.596L29.988,6.596C30.069,6.604 30.151,6.596 30.228,6.57C30.305,6.545 30.376,6.504 30.437,6.449C30.497,6.394 30.545,6.328 30.578,6.253C30.61,6.179 30.627,6.098 30.627,6.017L30.627,5.408C30.627,3.833 30.001,2.323 28.887,1.209C27.774,0.095 26.263,-0.53 24.688,-0.53L10.435,-0.53C8.86,-0.53 7.35,0.095 6.236,1.209C5.122,2.323 4.497,3.833 4.497,5.408L4.497,6.032C4.496,6.113 4.513,6.194 4.546,6.268C4.578,6.342 4.627,6.409 4.687,6.464C4.747,6.518 4.818,6.56 4.895,6.585C4.973,6.61 5.054,6.619 5.135,6.611L5.684,6.611C7.366,6.611 8.993,7.206 10.278,8.29C11.563,9.374 12.423,10.877 12.707,12.535Z" transform="rotate(0 17.562 13.128)" fill="#8C8D89"/>
</svg>
