<svg width="34" height="28" viewBox="0 0 34 28" fill="none" xmlns="http://www.w3.org/2000/svg" xmlns:xlink="http://www.w3.org/1999/xlink">
<path d="M29.494,18.367L29.494,24.454C29.494,25.084 29.244,25.688 28.798,26.134C28.353,26.579 27.748,26.829 27.118,26.829L5.739,26.829C5.109,26.829 4.505,26.579 4.06,26.134C3.614,25.688 3.364,25.084 3.364,24.454L3.364,18.367C2.504,18.145 1.723,17.686 1.11,17.042C0.498,16.399 0.078,15.596 -0.101,14.726C-0.281,13.856 -0.213,12.953 0.096,12.12C0.404,11.286 0.939,10.556 1.641,10.012C2.344,9.467 3.184,9.131 4.068,9.041C4.952,8.95 5.844,9.11 6.642,9.5C7.439,9.891 8.112,10.498 8.582,11.252C9.053,12.005 9.302,12.876 9.303,13.764L9.303,19.703C9.303,20.018 9.428,20.32 9.65,20.543C9.873,20.766 10.175,20.891 10.49,20.891C10.805,20.891 11.107,20.766 11.33,20.543C11.553,20.32 11.678,20.018 11.678,19.703L11.678,14.952L21.18,14.952L21.18,19.703C21.18,20.018 21.305,20.32 21.528,20.543C21.75,20.766 22.052,20.891 22.367,20.891C22.682,20.891 22.985,20.766 23.207,20.543C23.43,20.32 23.555,20.018 23.555,19.703L23.555,13.764C23.556,12.876 23.805,12.005 24.276,11.252C24.746,10.498 25.418,9.891 26.216,9.5C27.014,9.11 27.906,8.95 28.789,9.041C29.673,9.131 30.514,9.467 31.216,10.012C31.919,10.556 32.454,11.286 32.762,12.12C33.07,12.953 33.139,13.856 32.959,14.726C32.78,15.596 32.36,16.399 31.747,17.042C31.135,17.686 30.354,18.145 29.494,18.367ZM11.574,12.577L21.284,12.577C21.564,10.917 22.423,9.41 23.709,8.323C24.994,7.236 26.623,6.639 28.306,6.638L28.855,6.638C28.936,6.646 29.018,6.638 29.095,6.612C29.173,6.587 29.244,6.546 29.304,6.491C29.364,6.436 29.412,6.37 29.445,6.295C29.478,6.221 29.494,6.14 29.494,6.059L29.494,5.45C29.494,3.875 28.868,2.365 27.754,1.251C26.641,0.137 25.13,-0.488 23.555,-0.488L9.303,-0.488C7.728,-0.488 6.217,0.137 5.103,1.251C3.99,2.365 3.364,3.875 3.364,5.45L3.364,6.074C3.364,6.155 3.38,6.236 3.413,6.31C3.446,6.385 3.494,6.451 3.554,6.506C3.614,6.561 3.685,6.602 3.762,6.627C3.84,6.653 3.921,6.661 4.002,6.653L4.552,6.653C6.233,6.653 7.86,7.248 9.145,8.332C10.43,9.416 11.29,10.92 11.574,12.577Z" transform="rotate(0 16.429 13.171)" fill="#8C8D89"/>
</svg>
