<svg width="34" height="28" viewBox="0 0 34 28" fill="none" xmlns="http://www.w3.org/2000/svg" xmlns:xlink="http://www.w3.org/1999/xlink">
<path d="M29.972,18.36L29.972,24.447C29.972,25.077 29.722,25.681 29.276,26.126C28.831,26.572 28.227,26.822 27.597,26.822L6.218,26.822C5.588,26.822 4.984,26.572 4.538,26.126C4.093,25.681 3.842,25.077 3.842,24.447L3.842,18.36C2.982,18.138 2.201,17.679 1.589,17.035C0.976,16.391 0.557,15.589 0.377,14.719C0.198,13.849 0.266,12.946 0.574,12.112C0.882,11.279 1.418,10.549 2.12,10.004C2.822,9.46 3.663,9.124 4.547,9.033C5.431,8.943 6.322,9.102 7.12,9.493C7.918,9.884 8.59,10.491 9.061,11.244C9.531,11.998 9.781,12.869 9.781,13.757L9.781,19.696C9.781,20.011 9.906,20.313 10.129,20.536C10.352,20.758 10.654,20.884 10.969,20.884C11.284,20.884 11.586,20.758 11.809,20.536C12.031,20.313 12.156,20.011 12.156,19.696L12.156,14.945L21.658,14.945L21.658,19.696C21.658,20.011 21.783,20.313 22.006,20.536C22.229,20.758 22.531,20.884 22.846,20.884C23.161,20.884 23.463,20.758 23.686,20.536C23.908,20.313 24.034,20.011 24.034,19.696L24.034,13.757C24.034,12.869 24.284,11.998 24.754,11.244C25.224,10.491 25.897,9.884 26.695,9.493C27.492,9.102 28.384,8.943 29.268,9.033C30.152,9.124 30.992,9.46 31.695,10.004C32.397,10.549 32.933,11.279 33.241,12.112C33.549,12.946 33.617,13.849 33.438,14.719C33.258,15.589 32.838,16.391 32.226,17.035C31.613,17.679 30.832,18.138 29.972,18.36ZM12.053,12.569L21.762,12.569C22.043,10.91 22.902,9.403 24.187,8.316C25.472,7.229 27.101,6.632 28.784,6.631L29.334,6.631C29.415,6.639 29.496,6.63 29.574,6.605C29.651,6.58 29.722,6.538 29.782,6.484C29.842,6.429 29.89,6.363 29.923,6.288C29.956,6.214 29.973,6.133 29.972,6.052L29.972,5.443C29.972,3.868 29.347,2.358 28.233,1.244C27.119,0.13 25.609,-0.495 24.034,-0.495L9.781,-0.495C8.206,-0.495 6.696,0.13 5.582,1.244C4.468,2.358 3.842,3.868 3.842,5.443L3.842,6.067C3.842,6.148 3.859,6.229 3.891,6.303C3.924,6.377 3.972,6.444 4.032,6.499C4.093,6.553 4.164,6.595 4.241,6.62C4.318,6.645 4.4,6.654 4.481,6.646L5.03,6.646C6.711,6.646 8.338,7.241 9.623,8.325C10.908,9.409 11.769,10.912 12.053,12.569Z" transform="rotate(0 16.907 13.163)" fill="#000000"/>
</svg>
