<svg width="18" height="16" viewBox="0 0 18 16" fill="none" xmlns="http://www.w3.org/2000/svg" xmlns:xlink="http://www.w3.org/1999/xlink">
<path d="M5.597,0.885L4.941,2.6L0.201,2.6C-0.296,2.6 -0.699,3.002 -0.699,3.499L-0.699,14.299C-0.699,14.796 -0.296,15.199 0.201,15.199L6.463,15.199C6.142,15.074 5.827,14.924 5.523,14.749C3.433,13.542 2.146,11.312 2.146,8.899C2.146,6.486 3.433,4.256 5.523,3.049C7.613,1.843 10.188,1.843 12.278,3.049C14.368,4.256 15.656,6.486 15.656,8.899C15.656,11.312 14.368,13.542 12.278,14.749C11.974,14.924 11.66,15.074 11.338,15.199L15.201,15.199C15.698,15.199 16.101,14.796 16.101,14.299L16.101,3.499C16.101,3.002 15.698,2.6 15.201,2.6L12.897,2.6L12.241,0.885C12.152,0.653 11.929,0.5 11.68,0.5L6.158,0.5C5.909,0.5 5.686,0.653 5.597,0.885Z" fill="#C2CCDE" fill-opacity="0.25" stroke="#414141" stroke-width="0.5" stroke-miterlimit="3.999327" stroke-linecap="round" stroke-linejoin="round"/>
<path d="M3.175,2.6L0.837,2.6L0.996,1.871C1.056,1.596 1.3,1.4 1.582,1.4L2.43,1.4C2.712,1.4 2.956,1.596 3.016,1.871L3.175,2.6Z" fill="#C2CCDE" fill-opacity="0.25" stroke="#414141" stroke-width="0.5" stroke-miterlimit="3.999327" stroke-linecap="round" stroke-linejoin="round"/>
<path d="M11.25,0.5L6.572,0.5L6.94,-0.341C7.036,-0.559 7.251,-0.7 7.49,-0.7L10.332,-0.7C10.571,-0.7 10.787,-0.559 10.882,-0.341L11.25,0.5Z" fill="#C2CCDE" fill-opacity="0.25" stroke="#414141" stroke-width="0.5" stroke-miterlimit="3.999327" stroke-linecap="round" stroke-linejoin="round"/>
<path d="M5.523,3.049C7.613,1.843 10.188,1.843 12.278,3.049C14.368,4.256 15.656,6.486 15.656,8.899C15.656,11.312 14.368,13.542 12.278,14.749C10.188,15.955 7.613,15.955 5.523,14.749C3.433,13.542 2.146,11.312 2.146,8.899C2.146,6.486 3.433,4.256 5.523,3.049Z" fill="#C2CCDE" fill-opacity="0.25" stroke="#414141" stroke-width="0.5" stroke-miterlimit="3.999327" stroke-linecap="round" stroke-linejoin="round"/>
<path d="M6.822,5.299C8.108,4.557 9.693,4.557 10.979,5.299C12.265,6.042 13.058,7.414 13.058,8.899C13.058,10.384 12.265,11.756 10.979,12.499C9.693,13.241 8.108,13.241 6.822,12.499C5.536,11.756 4.744,10.384 4.744,8.899C4.744,7.414 5.536,6.042 6.822,5.299Z" fill="#C2CCDE" fill-opacity="0.25" stroke="#414141" stroke-width="0.5" stroke-miterlimit="3.999327" stroke-linecap="round" stroke-linejoin="round"/>
</svg>
