<svg width="34" height="28" viewBox="0 0 34 28" fill="none" xmlns="http://www.w3.org/2000/svg" xmlns:xlink="http://www.w3.org/1999/xlink">
<path d="M29.972,18.353L29.972,24.44C29.972,25.07 29.722,25.674 29.276,26.12C28.831,26.565 28.227,26.815 27.597,26.815L6.218,26.815C5.588,26.815 4.984,26.565 4.538,26.12C4.093,25.674 3.842,25.07 3.842,24.44L3.842,18.353C2.982,18.131 2.201,17.672 1.589,17.028C0.976,16.385 0.557,15.582 0.377,14.712C0.198,13.842 0.266,12.939 0.574,12.106C0.882,11.272 1.418,10.542 2.12,9.998C2.822,9.453 3.663,9.117 4.547,9.027C5.431,8.936 6.322,9.096 7.12,9.486C7.918,9.877 8.59,10.484 9.061,11.238C9.531,11.991 9.781,12.862 9.781,13.75L9.781,19.689C9.781,20.004 9.906,20.306 10.129,20.529C10.352,20.752 10.654,20.877 10.969,20.877C11.284,20.877 11.586,20.752 11.809,20.529C12.031,20.306 12.156,20.004 12.156,19.689L12.156,14.938L21.658,14.938L21.658,19.689C21.658,20.004 21.783,20.306 22.006,20.529C22.229,20.752 22.531,20.877 22.846,20.877C23.161,20.877 23.463,20.752 23.686,20.529C23.908,20.306 24.034,20.004 24.034,19.689L24.034,13.75C24.034,12.862 24.284,11.991 24.754,11.238C25.224,10.484 25.897,9.877 26.695,9.486C27.492,9.096 28.384,8.936 29.268,9.027C30.152,9.117 30.992,9.453 31.695,9.998C32.397,10.542 32.933,11.272 33.241,12.106C33.549,12.939 33.617,13.842 33.438,14.712C33.258,15.582 32.838,16.385 32.226,17.028C31.613,17.672 30.832,18.131 29.972,18.353ZM12.053,12.563L21.762,12.563C22.043,10.903 22.902,9.396 24.187,8.309C25.472,7.222 27.101,6.625 28.784,6.624L29.334,6.624C29.415,6.632 29.496,6.624 29.574,6.598C29.651,6.573 29.722,6.532 29.782,6.477C29.842,6.422 29.89,6.356 29.923,6.281C29.956,6.207 29.973,6.126 29.972,6.045L29.972,5.436C29.972,3.861 29.347,2.351 28.233,1.237C27.119,0.123 25.609,-0.502 24.034,-0.502L9.781,-0.502C8.206,-0.502 6.696,0.123 5.582,1.237C4.468,2.351 3.842,3.861 3.842,5.436L3.842,6.06C3.842,6.141 3.859,6.222 3.891,6.296C3.924,6.371 3.972,6.437 4.032,6.492C4.093,6.547 4.164,6.588 4.241,6.613C4.318,6.639 4.4,6.647 4.481,6.639L5.03,6.639C6.711,6.639 8.338,7.234 9.623,8.318C10.908,9.402 11.769,10.906 12.053,12.563Z" transform="rotate(0 16.907 13.157)" fill="#000000"/>
</svg>
