<svg width="6" height="6" viewBox="0 0 6 6" fill="none" xmlns="http://www.w3.org/2000/svg" xmlns:xlink="http://www.w3.org/1999/xlink">
<path d="M5.878,2.753C6.258,1.716 5.724,0.567 4.687,0.188C3.65,-0.192 2.501,0.341 2.122,1.379L5.878,2.753ZM3.878,1.379C3.499,0.341 2.35,-0.192 1.313,0.188C0.276,0.567 -0.258,1.716 0.122,2.753L3.878,1.379ZM2.122,1.379C2.115,1.397 2.114,1.394 2.126,1.375C2.138,1.357 2.168,1.313 2.228,1.258L4.926,4.211C5.39,3.788 5.693,3.26 5.878,2.753L2.122,1.379ZM2.228,1.258C2.353,1.144 2.618,0.979 3,0.979L3,4.979C3.787,4.979 4.45,4.646 4.926,4.211L2.228,1.258ZM3,0.979C3.382,0.979 3.647,1.144 3.772,1.258L1.074,4.211C1.55,4.646 2.213,4.979 3,4.979L3,0.979ZM3.772,1.258C3.832,1.313 3.862,1.357 3.874,1.375C3.886,1.394 3.885,1.397 3.878,1.379L0.122,2.753C0.307,3.26 0.61,3.788 1.074,4.211L3.772,1.258Z" fill="#1A1717" fill-opacity="0.6"/>
</svg>
