<svg width="34" height="28" viewBox="0 0 34 28" fill="none" xmlns="http://www.w3.org/2000/svg" xmlns:xlink="http://www.w3.org/1999/xlink">
<path d="M29.972,18.346L29.972,24.433C29.972,25.063 29.722,25.667 29.276,26.112C28.831,26.558 28.227,26.808 27.597,26.808L6.218,26.808C5.588,26.808 4.984,26.558 4.538,26.112C4.093,25.667 3.842,25.063 3.842,24.433L3.842,18.346C2.982,18.123 2.201,17.664 1.589,17.021C0.976,16.377 0.557,15.575 0.377,14.705C0.198,13.835 0.266,12.932 0.574,12.098C0.882,11.265 1.418,10.535 2.12,9.99C2.822,9.446 3.663,9.11 4.547,9.019C5.431,8.929 6.322,9.088 7.12,9.479C7.918,9.87 8.59,10.477 9.061,11.23C9.531,11.984 9.781,12.855 9.781,13.743L9.781,19.682C9.781,19.997 9.906,20.299 10.129,20.521C10.352,20.744 10.654,20.869 10.969,20.869C11.284,20.869 11.586,20.744 11.809,20.521C12.031,20.299 12.156,19.997 12.156,19.682L12.156,14.931L21.658,14.931L21.658,19.682C21.658,19.997 21.783,20.299 22.006,20.521C22.229,20.744 22.531,20.869 22.846,20.869C23.161,20.869 23.463,20.744 23.686,20.521C23.908,20.299 24.034,19.997 24.034,19.682L24.034,13.743C24.034,12.855 24.284,11.984 24.754,11.23C25.224,10.477 25.897,9.87 26.695,9.479C27.492,9.088 28.384,8.929 29.268,9.019C30.152,9.11 30.992,9.446 31.695,9.99C32.397,10.535 32.933,11.265 33.241,12.098C33.549,12.932 33.617,13.835 33.438,14.705C33.258,15.575 32.838,16.377 32.226,17.021C31.613,17.664 30.832,18.123 29.972,18.346ZM12.053,12.555L21.762,12.555C22.043,10.896 22.902,9.389 24.187,8.302C25.472,7.215 27.101,6.618 28.784,6.617L29.334,6.617C29.415,6.625 29.496,6.616 29.574,6.591C29.651,6.566 29.722,6.524 29.782,6.47C29.842,6.415 29.89,6.348 29.923,6.274C29.956,6.2 29.973,6.119 29.972,6.038L29.972,5.429C29.972,3.854 29.347,2.344 28.233,1.23C27.119,0.116 25.609,-0.51 24.034,-0.51L9.781,-0.51C8.206,-0.51 6.696,0.116 5.582,1.23C4.468,2.344 3.842,3.854 3.842,5.429L3.842,6.053C3.842,6.134 3.859,6.214 3.891,6.289C3.924,6.363 3.972,6.43 4.032,6.485C4.093,6.539 4.164,6.58 4.241,6.606C4.318,6.631 4.4,6.64 4.481,6.632L5.03,6.632C6.711,6.632 8.338,7.227 9.623,8.311C10.908,9.395 11.769,10.898 12.053,12.555Z" transform="rotate(0 16.907 13.149)" fill="#000000"/>
</svg>
