<svg width="34" height="28" viewBox="0 0 34 28" fill="none" xmlns="http://www.w3.org/2000/svg" xmlns:xlink="http://www.w3.org/1999/xlink">
<path d="M29.281,18.325L29.281,24.412C29.281,25.042 29.031,25.646 28.585,26.091C28.14,26.537 27.535,26.787 26.905,26.787L5.526,26.787C4.896,26.787 4.292,26.537 3.847,26.091C3.401,25.646 3.151,25.042 3.151,24.412L3.151,18.325C2.291,18.102 1.51,17.644 0.898,17C0.285,16.356 -0.135,15.554 -0.314,14.684C-0.494,13.814 -0.425,12.911 -0.117,12.077C0.191,11.244 0.726,10.514 1.429,9.969C2.131,9.425 2.972,9.089 3.855,8.998C4.739,8.908 5.631,9.067 6.429,9.458C7.227,9.849 7.899,10.456 8.369,11.209C8.84,11.963 9.089,12.834 9.09,13.722L9.09,19.661C9.09,19.976 9.215,20.278 9.438,20.501C9.66,20.723 9.962,20.849 10.277,20.849C10.592,20.849 10.894,20.723 11.117,20.501C11.34,20.278 11.465,19.976 11.465,19.661L11.465,14.91L20.967,14.91L20.967,19.661C20.967,19.976 21.092,20.278 21.315,20.501C21.537,20.723 21.839,20.849 22.154,20.849C22.469,20.849 22.772,20.723 22.994,20.501C23.217,20.278 23.342,19.976 23.342,19.661L23.342,13.722C23.343,12.834 23.592,11.963 24.063,11.209C24.533,10.456 25.205,9.849 26.003,9.458C26.801,9.067 27.693,8.908 28.576,8.998C29.46,9.089 30.301,9.425 31.003,9.969C31.706,10.514 32.241,11.244 32.549,12.077C32.857,12.911 32.926,13.814 32.746,14.684C32.567,15.554 32.147,16.356 31.534,17C30.922,17.644 30.141,18.102 29.281,18.325ZM11.361,12.534L21.071,12.534C21.351,10.875 22.21,9.368 23.496,8.281C24.781,7.194 26.41,6.597 28.093,6.596L28.642,6.596C28.723,6.604 28.805,6.595 28.882,6.57C28.96,6.545 29.031,6.503 29.091,6.449C29.151,6.394 29.199,6.327 29.232,6.253C29.265,6.179 29.281,6.098 29.281,6.017L29.281,5.408C29.281,3.833 28.655,2.323 27.541,1.209C26.428,0.095 24.917,-0.53 23.342,-0.53L9.09,-0.53C7.515,-0.53 6.004,0.095 4.89,1.209C3.777,2.323 3.151,3.833 3.151,5.408L3.151,6.032C3.151,6.113 3.167,6.193 3.2,6.268C3.233,6.342 3.281,6.409 3.341,6.464C3.401,6.518 3.472,6.56 3.55,6.585C3.627,6.61 3.709,6.619 3.789,6.611L4.339,6.611C6.02,6.611 7.647,7.206 8.932,8.29C10.217,9.374 11.077,10.877 11.361,12.534Z" transform="rotate(0 16.216 13.128)" fill="#8C8D89"/>
</svg>
