<svg width="36" height="28" viewBox="0 0 36 28" fill="none" xmlns="http://www.w3.org/2000/svg" xmlns:xlink="http://www.w3.org/1999/xlink">
<path d="M30.627,18.346L30.627,24.433C30.627,25.063 30.376,25.667 29.931,26.112C29.485,26.558 28.881,26.808 28.251,26.808L6.872,26.808C6.242,26.808 5.638,26.558 5.193,26.112C4.747,25.667 4.497,25.063 4.497,24.433L4.497,18.346C3.636,18.123 2.856,17.665 2.243,17.021C1.631,16.377 1.211,15.575 1.031,14.705C0.852,13.835 0.92,12.932 1.228,12.098C1.536,11.265 2.072,10.535 2.774,9.99C3.476,9.446 4.317,9.11 5.201,9.019C6.085,8.929 6.977,9.088 7.774,9.479C8.572,9.87 9.245,10.477 9.715,11.23C10.185,11.984 10.435,12.855 10.435,13.743L10.435,19.682C10.435,19.997 10.56,20.299 10.783,20.521C11.006,20.744 11.308,20.869 11.623,20.869C11.938,20.869 12.24,20.744 12.463,20.521C12.686,20.299 12.811,19.997 12.811,19.682L12.811,14.931L22.313,14.931L22.313,19.682C22.313,19.997 22.438,20.299 22.66,20.521C22.883,20.744 23.185,20.869 23.5,20.869C23.815,20.869 24.117,20.744 24.34,20.521C24.563,20.299 24.688,19.997 24.688,19.682L24.688,13.743C24.688,12.855 24.938,11.984 25.408,11.23C25.879,10.477 26.551,9.87 27.349,9.479C28.147,9.088 29.038,8.929 29.922,9.019C30.806,9.11 31.647,9.446 32.349,9.99C33.051,10.535 33.587,11.265 33.895,12.098C34.203,12.932 34.271,13.835 34.092,14.705C33.913,15.575 33.493,16.377 32.88,17.021C32.268,17.665 31.487,18.123 30.627,18.346ZM12.707,12.555L22.416,12.555C22.697,10.896 23.556,9.389 24.841,8.302C26.127,7.215 27.756,6.618 29.439,6.617L29.988,6.617C30.069,6.625 30.151,6.616 30.228,6.591C30.305,6.566 30.376,6.524 30.437,6.47C30.497,6.415 30.545,6.348 30.578,6.274C30.61,6.2 30.627,6.119 30.627,6.038L30.627,5.429C30.627,3.854 30.001,2.344 28.887,1.23C27.774,0.116 26.263,-0.51 24.688,-0.51L10.435,-0.51C8.86,-0.51 7.35,0.116 6.236,1.23C5.122,2.344 4.497,3.854 4.497,5.429L4.497,6.053C4.496,6.134 4.513,6.214 4.546,6.289C4.578,6.363 4.627,6.43 4.687,6.485C4.747,6.539 4.818,6.581 4.895,6.606C4.973,6.631 5.054,6.64 5.135,6.632L5.684,6.632C7.366,6.632 8.993,7.227 10.278,8.311C11.563,9.395 12.423,10.898 12.707,12.555Z" transform="rotate(0 17.562 13.149)" fill="#000000"/>
</svg>
