<svg width="36" height="28" viewBox="0 0 36 28" fill="none" xmlns="http://www.w3.org/2000/svg" xmlns:xlink="http://www.w3.org/1999/xlink">
<path d="M30.627,18.338L30.627,24.425C30.627,25.055 30.376,25.66 29.931,26.105C29.485,26.55 28.881,26.801 28.251,26.801L6.872,26.801C6.242,26.801 5.638,26.55 5.193,26.105C4.747,25.66 4.497,25.055 4.497,24.425L4.497,18.338C3.636,18.116 2.856,17.657 2.243,17.014C1.631,16.37 1.211,15.568 1.031,14.697C0.852,13.827 0.92,12.924 1.228,12.091C1.536,11.258 2.072,10.527 2.774,9.983C3.476,9.439 4.317,9.102 5.201,9.012C6.085,8.922 6.977,9.081 7.774,9.472C8.572,9.863 9.245,10.469 9.715,11.223C10.185,11.977 10.435,12.847 10.435,13.736L10.435,19.674C10.435,19.989 10.56,20.292 10.783,20.514C11.006,20.737 11.308,20.862 11.623,20.862C11.938,20.862 12.24,20.737 12.463,20.514C12.686,20.292 12.811,19.989 12.811,19.674L12.811,14.924L22.313,14.924L22.313,19.674C22.313,19.989 22.438,20.292 22.66,20.514C22.883,20.737 23.185,20.862 23.5,20.862C23.815,20.862 24.117,20.737 24.34,20.514C24.563,20.292 24.688,19.989 24.688,19.674L24.688,13.736C24.688,12.847 24.938,11.977 25.408,11.223C25.879,10.469 26.551,9.863 27.349,9.472C28.147,9.081 29.038,8.922 29.922,9.012C30.806,9.102 31.647,9.439 32.349,9.983C33.051,10.527 33.587,11.258 33.895,12.091C34.203,12.924 34.271,13.827 34.092,14.697C33.913,15.568 33.493,16.37 32.88,17.014C32.268,17.657 31.487,18.116 30.627,18.338ZM12.707,12.548L22.416,12.548C22.697,10.888 23.556,9.381 24.841,8.294C26.127,7.207 27.756,6.61 29.439,6.609L29.988,6.609C30.069,6.618 30.151,6.609 30.228,6.584C30.305,6.558 30.376,6.517 30.437,6.462C30.497,6.408 30.545,6.341 30.578,6.267C30.61,6.192 30.627,6.112 30.627,6.03L30.627,5.422C30.627,3.847 30.001,2.336 28.887,1.223C27.774,0.109 26.263,-0.517 24.688,-0.517L10.435,-0.517C8.86,-0.517 7.35,0.109 6.236,1.223C5.122,2.336 4.497,3.847 4.497,5.422L4.497,6.045C4.496,6.127 4.513,6.207 4.546,6.282C4.578,6.356 4.627,6.423 4.687,6.477C4.747,6.532 4.818,6.573 4.895,6.599C4.973,6.624 5.054,6.633 5.135,6.624L5.684,6.624C7.366,6.625 8.993,7.22 10.278,8.304C11.563,9.388 12.423,10.891 12.707,12.548Z" transform="rotate(0 17.562 13.142)" fill="#8C8D89"/>
</svg>
