<svg width="34" height="28" viewBox="0 0 34 28" fill="none" xmlns="http://www.w3.org/2000/svg" xmlns:xlink="http://www.w3.org/1999/xlink">
<path d="M29.492,18.338L29.492,24.425C29.492,25.055 29.242,25.659 28.796,26.105C28.351,26.55 27.746,26.801 27.116,26.801L5.737,26.801C5.107,26.801 4.503,26.55 4.058,26.105C3.612,25.659 3.362,25.055 3.362,24.425L3.362,18.338C2.502,18.116 1.721,17.657 1.108,17.014C0.496,16.37 0.076,15.568 -0.103,14.697C-0.283,13.827 -0.215,12.924 0.094,12.091C0.402,11.257 0.937,10.527 1.639,9.983C2.342,9.439 3.183,9.102 4.066,9.012C4.95,8.921 5.842,9.081 6.64,9.472C7.438,9.862 8.11,10.469 8.58,11.223C9.051,11.977 9.3,12.847 9.301,13.736L9.301,19.674C9.301,19.989 9.426,20.291 9.648,20.514C9.871,20.737 10.173,20.862 10.488,20.862C10.803,20.862 11.105,20.737 11.328,20.514C11.551,20.291 11.676,19.989 11.676,19.674L11.676,14.923L21.178,14.923L21.178,19.674C21.178,19.989 21.303,20.291 21.526,20.514C21.748,20.737 22.05,20.862 22.365,20.862C22.68,20.862 22.983,20.737 23.205,20.514C23.428,20.291 23.553,19.989 23.553,19.674L23.553,13.736C23.554,12.847 23.803,11.977 24.274,11.223C24.744,10.469 25.416,9.862 26.214,9.472C27.012,9.081 27.904,8.921 28.787,9.012C29.671,9.102 30.512,9.439 31.214,9.983C31.917,10.527 32.452,11.257 32.76,12.091C33.068,12.924 33.137,13.827 32.957,14.697C32.778,15.568 32.358,16.37 31.745,17.014C31.133,17.657 30.352,18.116 29.492,18.338ZM11.572,12.548L21.282,12.548C21.562,10.888 22.421,9.381 23.707,8.294C24.992,7.207 26.621,6.61 28.304,6.609L28.853,6.609C28.934,6.618 29.016,6.609 29.093,6.584C29.171,6.558 29.242,6.517 29.302,6.462C29.362,6.408 29.41,6.341 29.443,6.267C29.476,6.192 29.492,6.112 29.492,6.03L29.492,5.422C29.492,3.847 28.866,2.336 27.752,1.222C26.639,0.109 25.128,-0.517 23.553,-0.517L9.301,-0.517C7.726,-0.517 6.215,0.109 5.101,1.222C3.988,2.336 3.362,3.847 3.362,5.422L3.362,6.045C3.362,6.127 3.378,6.207 3.411,6.281C3.444,6.356 3.492,6.423 3.552,6.477C3.612,6.532 3.683,6.573 3.761,6.598C3.838,6.624 3.92,6.633 4,6.624L4.55,6.624C6.231,6.625 7.858,7.219 9.143,8.303C10.428,9.387 11.288,10.891 11.572,12.548Z" transform="rotate(0 16.427 13.142)" fill="#8C8D89"/>
</svg>
