<svg width="36" height="28" viewBox="0 0 36 28" fill="none" xmlns="http://www.w3.org/2000/svg" xmlns:xlink="http://www.w3.org/1999/xlink">
<path d="M30.627,18.353L30.627,24.44C30.627,25.07 30.376,25.674 29.931,26.12C29.485,26.565 28.881,26.815 28.251,26.815L6.872,26.815C6.242,26.815 5.638,26.565 5.193,26.12C4.747,25.674 4.497,25.07 4.497,24.44L4.497,18.353C3.636,18.131 2.856,17.672 2.243,17.028C1.631,16.385 1.211,15.582 1.031,14.712C0.852,13.842 0.92,12.939 1.228,12.106C1.536,11.272 2.072,10.542 2.774,9.998C3.476,9.453 4.317,9.117 5.201,9.027C6.085,8.936 6.977,9.096 7.774,9.486C8.572,9.877 9.245,10.484 9.715,11.238C10.185,11.991 10.435,12.862 10.435,13.751L10.435,19.689C10.435,20.004 10.56,20.306 10.783,20.529C11.006,20.752 11.308,20.877 11.623,20.877C11.938,20.877 12.24,20.752 12.463,20.529C12.686,20.306 12.811,20.004 12.811,19.689L12.811,14.938L22.313,14.938L22.313,19.689C22.313,20.004 22.438,20.306 22.66,20.529C22.883,20.752 23.185,20.877 23.5,20.877C23.815,20.877 24.117,20.752 24.34,20.529C24.563,20.306 24.688,20.004 24.688,19.689L24.688,13.751C24.688,12.862 24.938,11.991 25.408,11.238C25.879,10.484 26.551,9.877 27.349,9.486C28.147,9.096 29.038,8.936 29.922,9.027C30.806,9.117 31.647,9.453 32.349,9.998C33.051,10.542 33.587,11.272 33.895,12.106C34.203,12.939 34.271,13.842 34.092,14.712C33.913,15.582 33.493,16.385 32.88,17.028C32.268,17.672 31.487,18.131 30.627,18.353ZM12.707,12.563L22.416,12.563C22.697,10.903 23.556,9.396 24.841,8.309C26.127,7.222 27.756,6.625 29.439,6.624L29.988,6.624C30.069,6.633 30.151,6.624 30.228,6.598C30.305,6.573 30.376,6.532 30.437,6.477C30.497,6.422 30.545,6.356 30.578,6.281C30.61,6.207 30.627,6.126 30.627,6.045L30.627,5.436C30.627,3.861 30.001,2.351 28.887,1.237C27.774,0.124 26.263,-0.502 24.688,-0.502L10.435,-0.502C8.86,-0.502 7.35,0.124 6.236,1.237C5.122,2.351 4.497,3.861 4.497,5.436L4.497,6.06C4.496,6.141 4.513,6.222 4.546,6.296C4.578,6.371 4.627,6.437 4.687,6.492C4.747,6.547 4.818,6.588 4.895,6.613C4.973,6.639 5.054,6.647 5.135,6.639L5.684,6.639C7.366,6.639 8.993,7.234 10.278,8.318C11.563,9.402 12.423,10.906 12.707,12.563Z" transform="rotate(0 17.562 13.157)" fill="#8C8D89"/>
</svg>
