<svg width="34" height="28" viewBox="0 0 34 28" fill="none" xmlns="http://www.w3.org/2000/svg" xmlns:xlink="http://www.w3.org/1999/xlink">
<path d="M29.972,18.317L29.972,24.404C29.972,25.034 29.722,25.639 29.276,26.084C28.831,26.529 28.227,26.78 27.597,26.78L6.218,26.78C5.588,26.78 4.984,26.529 4.538,26.084C4.093,25.639 3.842,25.034 3.842,24.404L3.842,18.317C2.982,18.095 2.201,17.636 1.589,16.993C0.976,16.349 0.557,15.547 0.377,14.677C0.198,13.806 0.266,12.903 0.574,12.07C0.882,11.237 1.418,10.506 2.12,9.962C2.822,9.418 3.663,9.081 4.547,8.991C5.431,8.901 6.322,9.06 7.12,9.451C7.918,9.842 8.59,10.448 9.061,11.202C9.531,11.956 9.781,12.826 9.781,13.715L9.781,19.653C9.781,19.968 9.906,20.271 10.129,20.493C10.352,20.716 10.654,20.841 10.969,20.841C11.284,20.841 11.586,20.716 11.809,20.493C12.031,20.271 12.156,19.968 12.156,19.653L12.156,14.903L21.658,14.903L21.658,19.653C21.658,19.968 21.783,20.271 22.006,20.493C22.229,20.716 22.531,20.841 22.846,20.841C23.161,20.841 23.463,20.716 23.686,20.493C23.908,20.271 24.034,19.968 24.034,19.653L24.034,13.715C24.034,12.826 24.284,11.956 24.754,11.202C25.224,10.448 25.897,9.842 26.695,9.451C27.492,9.06 28.384,8.901 29.268,8.991C30.152,9.081 30.992,9.418 31.695,9.962C32.397,10.506 32.933,11.237 33.241,12.07C33.549,12.903 33.617,13.806 33.438,14.677C33.258,15.547 32.838,16.349 32.226,16.993C31.613,17.636 30.832,18.095 29.972,18.317ZM12.053,12.527L21.762,12.527C22.043,10.867 22.902,9.36 24.187,8.273C25.472,7.186 27.101,6.59 28.784,6.589L29.334,6.589C29.415,6.597 29.496,6.588 29.574,6.563C29.651,6.537 29.722,6.496 29.782,6.441C29.842,6.387 29.89,6.32 29.923,6.246C29.956,6.171 29.973,6.091 29.972,6.01L29.972,5.401C29.972,3.826 29.347,2.315 28.233,1.202C27.119,0.088 25.609,-0.538 24.034,-0.538L9.781,-0.538C8.206,-0.538 6.696,0.088 5.582,1.202C4.468,2.315 3.842,3.826 3.842,5.401L3.842,6.024C3.842,6.106 3.859,6.186 3.891,6.261C3.924,6.335 3.972,6.402 4.032,6.456C4.093,6.511 4.164,6.552 4.241,6.578C4.318,6.603 4.4,6.612 4.481,6.603L5.03,6.603C6.711,6.604 8.338,7.199 9.623,8.283C10.908,9.367 11.769,10.87 12.053,12.527Z" transform="rotate(0 16.907 13.121)" fill="#000000"/>
</svg>
