<svg width="130" height="148" viewBox="0 0 130 148" fill="none" xmlns="http://www.w3.org/2000/svg" xmlns:xlink="http://www.w3.org/1999/xlink">
<path d="M-1,137.75C-1,142.721 3.029,146.75 8,146.75C12.971,146.75 17,142.721 17,137.75L-1,137.75ZM64.219,10L64.219,1L64.219,10ZM120.438,19C125.408,19 129.438,14.971 129.438,10C129.438,5.029 125.408,1 120.438,1L120.438,19ZM17,137.75L17,73.875L-1,73.875L-1,137.75L17,137.75ZM17,73.875C17,58.977 22.219,44.883 31.222,34.655L17.71,22.762C5.627,36.491 -1,54.892 -1,73.875L17,73.875ZM31.222,34.655C40.192,24.463 52.093,19 64.219,19L64.219,1C46.524,1 29.826,8.996 17.71,22.762L31.222,34.655ZM64.219,19L120.438,19L120.438,1L64.219,1L64.219,19Z" fill="#ED1C24"/>
</svg>
