<svg width="18" height="16" viewBox="0 0 18 16" fill="none" xmlns="http://www.w3.org/2000/svg" xmlns:xlink="http://www.w3.org/1999/xlink">
<path d="M5.596,0.885L4.94,2.6L0.2,2.6C-0.297,2.6 -0.7,3.003 -0.7,3.5L-0.7,14.3C-0.7,14.797 -0.297,15.2 0.2,15.2L6.462,15.2C6.141,15.076 5.826,14.926 5.522,14.75C3.432,13.543 2.145,11.313 2.145,8.9C2.145,6.487 3.432,4.257 5.522,3.05C7.612,1.843 10.187,1.843 12.277,3.05C14.367,4.257 15.655,6.487 15.655,8.9C15.655,11.313 14.367,13.543 12.277,14.75C11.973,14.926 11.659,15.076 11.337,15.2L15.2,15.2C15.697,15.2 16.1,14.797 16.1,14.3L16.1,3.5C16.1,3.003 15.697,2.6 15.2,2.6L12.896,2.6L12.24,0.885C12.151,0.653 11.928,0.5 11.679,0.5L6.157,0.5C5.908,0.5 5.685,0.653 5.596,0.885Z" fill="#C2CCDE" fill-opacity="0.25" stroke="#414141" stroke-width="0.5" stroke-miterlimit="3.999327" stroke-linecap="round" stroke-linejoin="round"/>
<path d="M3.174,2.6L0.836,2.6L0.995,1.872C1.055,1.596 1.299,1.4 1.581,1.4L2.429,1.4C2.711,1.4 2.955,1.596 3.015,1.872L3.174,2.6Z" fill="#C2CCDE" fill-opacity="0.25" stroke="#414141" stroke-width="0.5" stroke-miterlimit="3.999327" stroke-linecap="round" stroke-linejoin="round"/>
<path d="M11.249,0.5L6.572,0.5L6.939,-0.34C7.035,-0.559 7.25,-0.7 7.489,-0.7L10.332,-0.7C10.57,-0.7 10.786,-0.559 10.881,-0.34L11.249,0.5Z" fill="#C2CCDE" fill-opacity="0.25" stroke="#414141" stroke-width="0.5" stroke-miterlimit="3.999327" stroke-linecap="round" stroke-linejoin="round"/>
<path d="M5.522,3.05C7.612,1.843 10.187,1.843 12.277,3.05C14.367,4.257 15.655,6.487 15.655,8.9C15.655,11.313 14.367,13.543 12.277,14.75C10.187,15.957 7.612,15.957 5.522,14.75C3.432,13.543 2.145,11.313 2.145,8.9C2.145,6.487 3.432,4.257 5.522,3.05Z" fill="#C2CCDE" fill-opacity="0.25" stroke="#414141" stroke-width="0.5" stroke-miterlimit="3.999327" stroke-linecap="round" stroke-linejoin="round"/>
<path d="M6.821,5.3C8.108,4.557 9.692,4.557 10.978,5.3C12.264,6.043 13.057,7.415 13.057,8.9C13.057,10.385 12.264,11.757 10.978,12.5C9.692,13.243 8.108,13.243 6.821,12.5C5.535,11.757 4.743,10.385 4.743,8.9C4.743,7.415 5.535,6.043 6.821,5.3Z" fill="#C2CCDE" fill-opacity="0.25" stroke="#414141" stroke-width="0.5" stroke-miterlimit="3.999327" stroke-linecap="round" stroke-linejoin="round"/>
</svg>
