<svg width="58" height="80" viewBox="0 0 58 80" fill="none" xmlns="http://www.w3.org/2000/svg" xmlns:xlink="http://www.w3.org/1999/xlink">
<path d="M44.812,60.003L44.626,59.649L44.72,59.516L44.813,59.384C46.479,58.703 48.055,57.819 49.505,56.753C50.906,55.703 51.844,54.172 52.328,52.146L52.68,50.526L52.68,8.671C52.68,7.661 52.378,6.613 51.783,5.547C51.191,4.467 50.436,3.484 49.545,2.633C48.656,1.776 47.648,1.052 46.553,0.483C45.445,-0.081 44.388,-0.36 43.373,-0.36L13.419,-0.36C12.462,-0.36 11.431,-0.098 10.327,0.439C9.22,0.976 8.196,1.671 7.287,2.5C6.382,3.309 5.612,4.258 5.007,5.309C4.41,6.367 4.11,7.387 4.11,8.409L4.11,50.887C4.11,51.602 4.299,52.348 4.646,53.122C5.007,53.899 5.453,54.626 5.988,55.305C6.522,56.004 7.111,56.628 7.738,57.191C8.364,57.753 8.973,58.219 9.571,58.575C9.86,58.696 10.389,58.883 11.141,59.121C11.875,59.357 12.22,59.533 12.164,59.648L-0.097,78.255L7.055,78.255L16.005,65.284L40.695,65.284L49.635,78.255L56.88,78.255L44.812,60.003ZM21.282,3.214C21.282,2.913 21.425,2.607 21.73,2.271C22.024,1.944 22.321,1.787 22.624,1.787L34.074,1.787C34.189,1.787 34.437,1.902 34.793,2.136C35.145,2.376 35.324,2.613 35.324,2.851L35.324,7.233C35.324,7.533 35.173,7.809 34.88,8.037C34.578,8.283 34.306,8.407 34.076,8.407L22.539,8.407L22.175,8.124C21.963,7.982 21.769,7.817 21.596,7.63C21.5,7.549 21.423,7.448 21.369,7.335C21.315,7.221 21.286,7.098 21.282,6.972L21.282,3.214L21.282,3.214ZM9.742,15.468C9.742,14.872 9.883,14.288 10.147,13.719C10.412,13.154 10.758,12.637 11.175,12.153C11.595,11.674 12.087,11.299 12.648,10.999C13.186,10.707 13.787,10.552 14.399,10.549L42.219,10.549C42.747,10.549 43.285,10.674 43.821,10.9C44.359,11.14 44.849,11.474 45.3,11.888C45.75,12.301 46.102,12.76 46.374,13.236C46.64,13.701 46.771,14.213 46.771,14.749L46.771,24.233C46.771,24.771 46.627,25.28 46.329,25.791C46.029,26.312 45.634,26.772 45.166,27.148C44.702,27.522 44.19,27.834 43.644,28.073C43.143,28.312 42.594,28.436 42.038,28.433L14.578,28.433L14.125,28.353C13.94,28.311 13.759,28.248 13.586,28.168C12.577,27.994 11.685,27.454 10.908,26.557C10.13,25.662 9.742,24.681 9.742,23.61L9.742,15.468L9.742,15.468ZM18.022,52.41C17.099,53.363 15.943,53.839 14.578,53.839C13.205,53.839 12.085,53.363 11.216,52.41C10.353,51.459 9.922,50.288 9.922,48.915C9.922,47.664 10.371,46.58 11.269,45.658C12.161,44.732 13.264,44.263 14.578,44.263C15.943,44.263 17.097,44.706 18.022,45.557C18.947,46.431 19.408,47.567 19.408,49.009C19.408,50.323 18.947,51.459 18.022,52.41ZM38.504,52.41C37.582,51.459 37.113,50.288 37.113,48.915C37.113,47.541 37.604,46.431 38.589,45.557C39.539,44.712 40.769,44.251 42.04,44.263C43.401,44.263 44.526,44.73 45.39,45.658C46.251,46.58 46.691,47.666 46.691,48.915C46.691,50.288 46.24,51.459 45.346,52.41C44.446,53.363 43.319,53.839 41.942,53.839C40.574,53.839 39.426,53.363 38.504,52.41L38.504,52.41Z" fill="#0D0D0D"/>
</svg>
