<svg width="34" height="28" viewBox="0 0 34 28" fill="none" xmlns="http://www.w3.org/2000/svg" xmlns:xlink="http://www.w3.org/1999/xlink">
<path d="M28.836,18.31L28.836,24.397C28.836,25.027 28.585,25.631 28.14,26.077C27.694,26.522 27.09,26.773 26.46,26.773L5.081,26.773C4.451,26.773 3.847,26.522 3.401,26.077C2.956,25.631 2.706,25.027 2.706,24.397L2.706,18.31C1.845,18.088 1.065,17.629 0.452,16.986C-0.16,16.342 -0.58,15.54 -0.76,14.669C-0.939,13.799 -0.871,12.896 -0.563,12.063C-0.255,11.229 0.281,10.499 0.983,9.955C1.685,9.411 2.526,9.074 3.41,8.984C4.294,8.893 5.185,9.053 5.983,9.444C6.781,9.834 7.454,10.441 7.924,11.195C8.394,11.949 8.644,12.819 8.644,13.708L8.644,19.646C8.644,19.961 8.769,20.263 8.992,20.486C9.215,20.709 9.517,20.834 9.832,20.834C10.147,20.834 10.449,20.709 10.672,20.486C10.895,20.263 11.02,19.961 11.02,19.646L11.02,14.895L20.522,14.895L20.522,19.646C20.522,19.961 20.647,20.263 20.869,20.486C21.092,20.709 21.394,20.834 21.709,20.834C22.024,20.834 22.326,20.709 22.549,20.486C22.772,20.263 22.897,19.961 22.897,19.646L22.897,13.708C22.897,12.819 23.147,11.949 23.617,11.195C24.088,10.441 24.76,9.834 25.558,9.444C26.356,9.053 27.247,8.893 28.131,8.984C29.015,9.074 29.856,9.411 30.558,9.955C31.26,10.499 31.796,11.229 32.104,12.063C32.412,12.896 32.48,13.799 32.301,14.669C32.122,15.54 31.702,16.342 31.089,16.986C30.477,17.629 29.696,18.088 28.836,18.31ZM10.916,12.52L20.625,12.52C20.906,10.86 21.765,9.353 23.05,8.266C24.336,7.179 25.965,6.582 27.648,6.581L28.197,6.581C28.278,6.59 28.36,6.581 28.437,6.556C28.514,6.53 28.585,6.489 28.646,6.434C28.706,6.38 28.754,6.313 28.787,6.239C28.819,6.164 28.836,6.084 28.836,6.002L28.836,5.394C28.836,3.819 28.21,2.308 27.096,1.194C25.983,0.081 24.472,-0.545 22.897,-0.545L8.644,-0.545C7.069,-0.545 5.559,0.081 4.445,1.194C3.331,2.308 2.706,3.819 2.706,5.394L2.706,6.017C2.705,6.098 2.722,6.179 2.755,6.253C2.787,6.328 2.836,6.395 2.896,6.449C2.956,6.504 3.027,6.545 3.104,6.57C3.182,6.596 3.263,6.605 3.344,6.596L3.893,6.596C5.575,6.597 7.202,7.191 8.487,8.275C9.772,9.359 10.632,10.863 10.916,12.52Z" transform="rotate(0 15.771 13.114)" fill="#8C8D89"/>
</svg>
