<svg width="34" height="28" viewBox="0 0 34 28" fill="none" xmlns="http://www.w3.org/2000/svg" xmlns:xlink="http://www.w3.org/1999/xlink">
<path d="M29.492,18.359L29.492,24.447C29.492,25.077 29.242,25.681 28.796,26.126C28.351,26.572 27.746,26.822 27.116,26.822L5.737,26.822C5.107,26.822 4.503,26.572 4.058,26.126C3.612,25.681 3.362,25.077 3.362,24.447L3.362,18.359C2.502,18.137 1.721,17.678 1.108,17.035C0.496,16.391 0.076,15.589 -0.103,14.719C-0.283,13.849 -0.215,12.945 0.094,12.112C0.402,11.279 0.937,10.548 1.639,10.004C2.342,9.46 3.183,9.124 4.066,9.033C4.95,8.943 5.842,9.102 6.64,9.493C7.438,9.884 8.11,10.49 8.58,11.244C9.051,11.998 9.3,12.869 9.301,13.757L9.301,19.696C9.301,20.011 9.426,20.313 9.648,20.535C9.871,20.758 10.173,20.883 10.488,20.883C10.803,20.883 11.105,20.758 11.328,20.535C11.551,20.313 11.676,20.011 11.676,19.696L11.676,14.945L21.178,14.945L21.178,19.696C21.178,20.011 21.303,20.313 21.526,20.535C21.748,20.758 22.05,20.883 22.365,20.883C22.68,20.883 22.983,20.758 23.205,20.535C23.428,20.313 23.553,20.011 23.553,19.696L23.553,13.757C23.554,12.869 23.803,11.998 24.274,11.244C24.744,10.49 25.416,9.884 26.214,9.493C27.012,9.102 27.904,8.943 28.787,9.033C29.671,9.124 30.512,9.46 31.214,10.004C31.917,10.548 32.452,11.279 32.76,12.112C33.068,12.945 33.137,13.849 32.957,14.719C32.778,15.589 32.358,16.391 31.745,17.035C31.133,17.678 30.352,18.137 29.492,18.359ZM11.572,12.569L21.282,12.569C21.562,10.909 22.421,9.403 23.707,8.316C24.992,7.229 26.621,6.632 28.304,6.631L28.853,6.631C28.934,6.639 29.016,6.63 29.093,6.605C29.171,6.58 29.242,6.538 29.302,6.484C29.362,6.429 29.41,6.362 29.443,6.288C29.476,6.213 29.492,6.133 29.492,6.052L29.492,5.443C29.492,3.868 28.866,2.357 27.752,1.244C26.639,0.13 25.128,-0.496 23.553,-0.496L9.301,-0.496C7.726,-0.496 6.215,0.13 5.101,1.244C3.988,2.357 3.362,3.868 3.362,5.443L3.362,6.067C3.362,6.148 3.378,6.228 3.411,6.303C3.444,6.377 3.492,6.444 3.552,6.498C3.612,6.553 3.683,6.594 3.761,6.62C3.838,6.645 3.92,6.654 4,6.646L4.55,6.646C6.231,6.646 7.858,7.241 9.143,8.325C10.428,9.409 11.288,10.912 11.572,12.569Z" transform="rotate(0 16.427 13.163)" fill="#8C8D89"/>
</svg>
