<svg width="18" height="30" viewBox="0 0 18 30" fill="none" xmlns="http://www.w3.org/2000/svg" xmlns:xlink="http://www.w3.org/1999/xlink">
<path d="M16.315,0.734C16.131,0.55 15.913,0.404 15.672,0.304C15.432,0.204 15.174,0.153 14.914,0.153C14.653,0.153 14.396,0.204 14.155,0.304C13.915,0.404 13.696,0.55 13.513,0.734L0.355,13.892C0.208,14.038 0.092,14.212 0.012,14.404C-0.067,14.595 -0.108,14.801 -0.108,15.008C-0.108,15.215 -0.067,15.421 0.012,15.612C0.092,15.804 0.208,15.978 0.355,16.124L13.513,29.282C14.288,30.058 15.539,30.058 16.315,29.282C17.091,28.506 17.091,27.255 16.315,26.479L4.852,15L16.331,3.521C17.091,2.761 17.091,1.494 16.315,0.734Z" transform="rotate(0 8.395 15.008)" fill="#FFFFFF" stroke="#1E232C" stroke-width="0.2" stroke-miterlimit="3.999327"/>
</svg>
