<svg width="34" height="28" viewBox="0 0 34 28" fill="none" xmlns="http://www.w3.org/2000/svg" xmlns:xlink="http://www.w3.org/1999/xlink">
<path d="M30.146,18.36L30.146,24.447C30.146,25.077 29.896,25.681 29.45,26.126C29.005,26.572 28.401,26.822 27.771,26.822L6.392,26.822C5.762,26.822 5.158,26.572 4.712,26.126C4.267,25.681 4.016,25.077 4.016,24.447L4.016,18.36C3.156,18.137 2.375,17.678 1.763,17.035C1.15,16.391 0.73,15.589 0.551,14.719C0.372,13.849 0.44,12.946 0.748,12.112C1.056,11.279 1.591,10.549 2.294,10.004C2.996,9.46 3.837,9.124 4.721,9.033C5.605,8.943 6.496,9.102 7.294,9.493C8.092,9.884 8.764,10.491 9.234,11.244C9.705,11.998 9.954,12.869 9.955,13.757L9.955,19.696C9.955,20.011 10.08,20.313 10.303,20.535C10.526,20.758 10.828,20.883 11.143,20.883C11.458,20.883 11.76,20.758 11.982,20.535C12.205,20.313 12.33,20.011 12.33,19.696L12.33,14.945L21.832,14.945L21.832,19.696C21.832,20.011 21.957,20.313 22.18,20.535C22.403,20.758 22.705,20.883 23.02,20.883C23.335,20.883 23.637,20.758 23.86,20.535C24.082,20.313 24.208,20.011 24.208,19.696L24.208,13.757C24.208,12.869 24.458,11.998 24.928,11.244C25.398,10.491 26.071,9.884 26.869,9.493C27.666,9.102 28.558,8.943 29.442,9.033C30.326,9.124 31.166,9.46 31.869,10.004C32.571,10.549 33.107,11.279 33.415,12.112C33.723,12.946 33.791,13.849 33.612,14.719C33.432,15.589 33.012,16.391 32.4,17.035C31.787,17.678 31.006,18.137 30.146,18.36ZM12.226,12.569L21.936,12.569C22.217,10.91 23.076,9.403 24.361,8.316C25.646,7.229 27.275,6.632 28.958,6.631L29.508,6.631C29.589,6.639 29.67,6.63 29.748,6.605C29.825,6.58 29.896,6.538 29.956,6.484C30.016,6.429 30.064,6.362 30.097,6.288C30.13,6.214 30.147,6.133 30.146,6.052L30.146,5.443C30.146,3.868 29.521,2.358 28.407,1.244C27.293,0.13 25.783,-0.496 24.208,-0.496L9.955,-0.496C8.38,-0.496 6.869,0.13 5.756,1.244C4.642,2.358 4.016,3.868 4.016,5.443L4.016,6.067C4.016,6.148 4.033,6.228 4.065,6.303C4.098,6.377 4.146,6.444 4.206,6.499C4.267,6.553 4.338,6.594 4.415,6.62C4.492,6.645 4.574,6.654 4.655,6.646L5.204,6.646C6.885,6.646 8.512,7.241 9.797,8.325C11.082,9.409 11.943,10.912 12.226,12.569Z" transform="rotate(0 17.081 13.163)" fill="#000000"/>
</svg>
