<svg width="34" height="28" viewBox="0 0 34 28" fill="none" xmlns="http://www.w3.org/2000/svg" xmlns:xlink="http://www.w3.org/1999/xlink">
<path d="M29.492,18.317L29.492,24.404C29.492,25.034 29.242,25.639 28.796,26.084C28.351,26.529 27.746,26.78 27.116,26.78L5.737,26.78C5.107,26.78 4.503,26.529 4.058,26.084C3.612,25.639 3.362,25.034 3.362,24.404L3.362,18.317C2.502,18.095 1.721,17.636 1.108,16.993C0.496,16.349 0.076,15.547 -0.103,14.676C-0.283,13.806 -0.215,12.903 0.094,12.07C0.402,11.237 0.937,10.506 1.639,9.962C2.342,9.418 3.183,9.081 4.066,8.991C4.95,8.901 5.842,9.06 6.64,9.451C7.438,9.841 8.11,10.448 8.58,11.202C9.051,11.956 9.3,12.826 9.301,13.715L9.301,19.653C9.301,19.968 9.426,20.271 9.648,20.493C9.871,20.716 10.173,20.841 10.488,20.841C10.803,20.841 11.105,20.716 11.328,20.493C11.551,20.271 11.676,19.968 11.676,19.653L11.676,14.902L21.178,14.902L21.178,19.653C21.178,19.968 21.303,20.271 21.526,20.493C21.748,20.716 22.05,20.841 22.365,20.841C22.68,20.841 22.983,20.716 23.205,20.493C23.428,20.271 23.553,19.968 23.553,19.653L23.553,13.715C23.554,12.826 23.803,11.956 24.274,11.202C24.744,10.448 25.416,9.841 26.214,9.451C27.012,9.06 27.904,8.901 28.787,8.991C29.671,9.081 30.512,9.418 31.214,9.962C31.917,10.506 32.452,11.237 32.76,12.07C33.068,12.903 33.137,13.806 32.957,14.676C32.778,15.547 32.358,16.349 31.745,16.993C31.133,17.636 30.352,18.095 29.492,18.317ZM11.572,12.527L21.282,12.527C21.562,10.867 22.421,9.36 23.707,8.273C24.992,7.186 26.621,6.589 28.304,6.588L28.853,6.588C28.934,6.597 29.016,6.588 29.093,6.563C29.171,6.537 29.242,6.496 29.302,6.441C29.362,6.387 29.41,6.32 29.443,6.246C29.476,6.171 29.492,6.091 29.492,6.009L29.492,5.401C29.492,3.826 28.866,2.315 27.752,1.201C26.639,0.088 25.128,-0.538 23.553,-0.538L9.301,-0.538C7.726,-0.538 6.215,0.088 5.101,1.201C3.988,2.315 3.362,3.826 3.362,5.401L3.362,6.024C3.362,6.106 3.378,6.186 3.411,6.26C3.444,6.335 3.492,6.402 3.552,6.456C3.612,6.511 3.683,6.552 3.761,6.577C3.838,6.603 3.92,6.612 4,6.603L4.55,6.603C6.231,6.604 7.858,7.198 9.143,8.282C10.428,9.366 11.288,10.87 11.572,12.527Z" transform="rotate(0 16.427 13.121)" fill="#8C8D89"/>
</svg>
