<svg width="34" height="28" viewBox="0 0 34 28" fill="none" xmlns="http://www.w3.org/2000/svg" xmlns:xlink="http://www.w3.org/1999/xlink">
<path d="M30.146,18.31L30.146,24.397C30.146,25.027 29.896,25.631 29.45,26.077C29.005,26.522 28.401,26.773 27.771,26.773L6.392,26.773C5.762,26.773 5.158,26.522 4.712,26.077C4.267,25.631 4.016,25.027 4.016,24.397L4.016,18.31C3.156,18.088 2.375,17.629 1.763,16.985C1.15,16.342 0.73,15.539 0.551,14.669C0.372,13.799 0.44,12.896 0.748,12.063C1.056,11.229 1.591,10.499 2.294,9.955C2.996,9.411 3.837,9.074 4.721,8.984C5.605,8.893 6.496,9.053 7.294,9.444C8.092,9.834 8.764,10.441 9.234,11.195C9.705,11.949 9.954,12.819 9.955,13.708L9.955,19.646C9.955,19.961 10.08,20.263 10.303,20.486C10.526,20.709 10.828,20.834 11.143,20.834C11.458,20.834 11.76,20.709 11.982,20.486C12.205,20.263 12.33,19.961 12.33,19.646L12.33,14.895L21.832,14.895L21.832,19.646C21.832,19.961 21.957,20.263 22.18,20.486C22.403,20.709 22.705,20.834 23.02,20.834C23.335,20.834 23.637,20.709 23.86,20.486C24.082,20.263 24.208,19.961 24.208,19.646L24.208,13.708C24.208,12.819 24.458,11.949 24.928,11.195C25.398,10.441 26.071,9.834 26.869,9.444C27.666,9.053 28.558,8.893 29.442,8.984C30.326,9.074 31.166,9.411 31.869,9.955C32.571,10.499 33.107,11.229 33.415,12.063C33.723,12.896 33.791,13.799 33.612,14.669C33.432,15.539 33.012,16.342 32.4,16.985C31.787,17.629 31.006,18.088 30.146,18.31ZM12.226,12.52L21.936,12.52C22.217,10.86 23.076,9.353 24.361,8.266C25.646,7.179 27.275,6.582 28.958,6.581L29.508,6.581C29.589,6.59 29.67,6.581 29.748,6.556C29.825,6.53 29.896,6.489 29.956,6.434C30.016,6.38 30.064,6.313 30.097,6.238C30.13,6.164 30.147,6.084 30.146,6.002L30.146,5.394C30.146,3.819 29.521,2.308 28.407,1.194C27.293,0.081 25.783,-0.545 24.208,-0.545L9.955,-0.545C8.38,-0.545 6.869,0.081 5.756,1.194C4.642,2.308 4.016,3.819 4.016,5.394L4.016,6.017C4.016,6.098 4.033,6.179 4.065,6.253C4.098,6.328 4.146,6.394 4.206,6.449C4.267,6.504 4.338,6.545 4.415,6.57C4.492,6.596 4.574,6.604 4.655,6.596L5.204,6.596C6.885,6.597 8.512,7.191 9.797,8.275C11.082,9.359 11.943,10.863 12.226,12.52Z" transform="rotate(0 17.081 13.114)" fill="#000000"/>
</svg>
