<svg width="36" height="28" viewBox="0 0 36 28" fill="none" xmlns="http://www.w3.org/2000/svg" xmlns:xlink="http://www.w3.org/1999/xlink">
<path d="M30.627,18.317L30.627,24.404C30.627,25.034 30.376,25.639 29.931,26.084C29.485,26.529 28.881,26.78 28.251,26.78L6.872,26.78C6.242,26.78 5.638,26.529 5.193,26.084C4.747,25.639 4.497,25.034 4.497,24.404L4.497,18.317C3.636,18.095 2.856,17.636 2.243,16.993C1.631,16.349 1.211,15.547 1.031,14.677C0.852,13.806 0.92,12.903 1.228,12.07C1.536,11.237 2.072,10.506 2.774,9.962C3.476,9.418 4.317,9.081 5.201,8.991C6.085,8.901 6.977,9.06 7.774,9.451C8.572,9.842 9.245,10.448 9.715,11.202C10.185,11.956 10.435,12.826 10.435,13.715L10.435,19.653C10.435,19.968 10.56,20.271 10.783,20.493C11.006,20.716 11.308,20.841 11.623,20.841C11.938,20.841 12.24,20.716 12.463,20.493C12.686,20.271 12.811,19.968 12.811,19.653L12.811,14.903L22.313,14.903L22.313,19.653C22.313,19.968 22.438,20.271 22.66,20.493C22.883,20.716 23.185,20.841 23.5,20.841C23.815,20.841 24.117,20.716 24.34,20.493C24.563,20.271 24.688,19.968 24.688,19.653L24.688,13.715C24.688,12.826 24.938,11.956 25.408,11.202C25.879,10.448 26.551,9.842 27.349,9.451C28.147,9.06 29.038,8.901 29.922,8.991C30.806,9.081 31.647,9.418 32.349,9.962C33.051,10.506 33.587,11.237 33.895,12.07C34.203,12.903 34.271,13.806 34.092,14.677C33.913,15.547 33.493,16.349 32.88,16.993C32.268,17.636 31.487,18.095 30.627,18.317ZM12.707,12.527L22.416,12.527C22.697,10.867 23.556,9.36 24.841,8.273C26.127,7.186 27.756,6.59 29.439,6.589L29.988,6.589C30.069,6.597 30.151,6.588 30.228,6.563C30.305,6.537 30.376,6.496 30.437,6.442C30.497,6.387 30.545,6.32 30.578,6.246C30.61,6.171 30.627,6.091 30.627,6.01L30.627,5.401C30.627,3.826 30.001,2.315 28.887,1.202C27.774,0.088 26.263,-0.538 24.688,-0.538L10.435,-0.538C8.86,-0.538 7.35,0.088 6.236,1.202C5.122,2.315 4.497,3.826 4.497,5.401L4.497,6.024C4.496,6.106 4.513,6.186 4.546,6.261C4.578,6.335 4.627,6.402 4.687,6.456C4.747,6.511 4.818,6.552 4.895,6.578C4.973,6.603 5.054,6.612 5.135,6.603L5.684,6.603C7.366,6.604 8.993,7.199 10.278,8.283C11.563,9.367 12.423,10.87 12.707,12.527Z" transform="rotate(0 17.562 13.121)" fill="#000000"/>
</svg>
