<svg width="18" height="16" viewBox="0 0 18 16" fill="none" xmlns="http://www.w3.org/2000/svg" xmlns:xlink="http://www.w3.org/1999/xlink">
<path d="M9.5,0.065L9.5,-0.935L9.5,0.065ZM4.5,5.564L3.5,5.564L4.5,5.564ZM2,13.814L1.409,13.007C1.06,13.263 0.915,13.714 1.05,14.125C1.184,14.536 1.568,14.814 2,14.814L2,13.814ZM17,13.814L17,14.814C17.432,14.814 17.816,14.536 17.95,14.125C18.085,13.714 17.94,13.263 17.591,13.007L17,13.814ZM15.5,5.564C15.5,3.87 14.889,2.228 13.775,1.003L12.296,2.348C13.058,3.186 13.5,4.342 13.5,5.564L15.5,5.564ZM13.775,1.003C12.659,-0.225 11.124,-0.935 9.5,-0.935L9.5,1.065C10.528,1.065 11.537,1.513 12.296,2.348L13.775,1.003ZM9.5,-0.935C7.876,-0.935 6.341,-0.225 5.225,1.003L6.704,2.348C7.463,1.513 8.472,1.065 9.5,1.065L9.5,-0.935ZM5.225,1.003C4.111,2.228 3.5,3.87 3.5,5.564L5.5,5.564C5.5,4.342 5.942,3.186 6.704,2.348L5.225,1.003ZM3.5,5.564C3.5,8.64 2.902,10.547 2.354,11.651C2.08,12.205 1.814,12.564 1.633,12.775C1.542,12.88 1.472,12.948 1.432,12.985C1.412,13.004 1.399,13.015 1.395,13.018C1.392,13.02 1.392,13.02 1.395,13.018C1.396,13.017 1.398,13.016 1.4,13.014C1.401,13.013 1.402,13.012 1.404,13.011C1.405,13.01 1.405,13.01 1.406,13.009C1.407,13.009 1.407,13.009 1.407,13.008C1.408,13.008 1.409,13.007 2,13.814C2.591,14.62 2.592,14.62 2.593,14.619C2.593,14.619 2.594,14.619 2.594,14.618C2.595,14.618 2.596,14.617 2.597,14.616C2.599,14.615 2.601,14.613 2.604,14.611C2.608,14.608 2.614,14.604 2.62,14.599C2.631,14.59 2.645,14.579 2.662,14.565C2.694,14.539 2.735,14.504 2.783,14.46C2.88,14.371 3.005,14.247 3.148,14.08C3.436,13.746 3.795,13.246 4.146,12.54C4.848,11.123 5.5,8.905 5.5,5.564L3.5,5.564ZM2,14.814L17,14.814L17,12.814L2,12.814L2,14.814ZM17,13.814C17.591,13.007 17.592,13.008 17.593,13.008C17.593,13.009 17.593,13.009 17.594,13.009C17.595,13.01 17.595,13.01 17.596,13.011C17.598,13.012 17.599,13.013 17.6,13.014C17.602,13.016 17.604,13.017 17.605,13.018C17.608,13.02 17.608,13.02 17.605,13.018C17.601,13.015 17.588,13.004 17.568,12.985C17.528,12.948 17.458,12.88 17.367,12.775C17.186,12.564 16.92,12.205 16.646,11.651C16.098,10.547 15.5,8.64 15.5,5.564L13.5,5.564C13.5,8.905 14.152,11.123 14.854,12.54C15.205,13.246 15.564,13.746 15.852,14.08C15.995,14.247 16.12,14.371 16.217,14.46C16.265,14.504 16.306,14.539 16.338,14.565C16.355,14.579 16.369,14.59 16.38,14.599C16.386,14.604 16.392,14.608 16.396,14.611C16.399,14.613 16.401,14.615 16.403,14.616C16.404,14.617 16.405,14.618 16.406,14.618C16.406,14.619 16.407,14.619 16.407,14.619C16.408,14.62 16.409,14.62 17,13.814Z" fill="#212020" fill-opacity="0.76"/>
</svg>
