<svg width="36" height="28" viewBox="0 0 36 28" fill="none" xmlns="http://www.w3.org/2000/svg" xmlns:xlink="http://www.w3.org/1999/xlink">
<path d="M30.625,18.31L30.625,24.397C30.625,25.027 30.374,25.631 29.929,26.077C29.483,26.522 28.879,26.772 28.249,26.772L6.87,26.772C6.24,26.772 5.636,26.522 5.191,26.077C4.745,25.631 4.495,25.027 4.495,24.397L4.495,18.31C3.635,18.088 2.854,17.629 2.241,16.985C1.629,16.342 1.209,15.539 1.029,14.669C0.85,13.799 0.918,12.896 1.226,12.063C1.534,11.229 2.07,10.499 2.772,9.955C3.475,9.411 4.315,9.074 5.199,8.984C6.083,8.893 6.975,9.053 7.772,9.443C8.57,9.834 9.243,10.441 9.713,11.195C10.183,11.949 10.433,12.819 10.433,13.708L10.433,19.646C10.433,19.961 10.559,20.263 10.781,20.486C11.004,20.709 11.306,20.834 11.621,20.834C11.936,20.834 12.238,20.709 12.461,20.486C12.684,20.263 12.809,19.961 12.809,19.646L12.809,14.895L22.311,14.895L22.311,19.646C22.311,19.961 22.436,20.263 22.658,20.486C22.881,20.709 23.183,20.834 23.498,20.834C23.813,20.834 24.115,20.709 24.338,20.486C24.561,20.263 24.686,19.961 24.686,19.646L24.686,13.708C24.686,12.819 24.936,11.949 25.406,11.195C25.877,10.441 26.549,9.834 27.347,9.443C28.145,9.053 29.036,8.893 29.92,8.984C30.804,9.074 31.645,9.411 32.347,9.955C33.049,10.499 33.585,11.229 33.893,12.063C34.201,12.896 34.269,13.799 34.09,14.669C33.911,15.539 33.491,16.342 32.878,16.985C32.266,17.629 31.485,18.088 30.625,18.31ZM12.705,12.52L22.414,12.52C22.695,10.86 23.554,9.353 24.839,8.266C26.125,7.179 27.754,6.582 29.437,6.581L29.986,6.581C30.067,6.59 30.149,6.581 30.226,6.555C30.303,6.53 30.374,6.489 30.435,6.434C30.495,6.38 30.543,6.313 30.576,6.238C30.608,6.164 30.625,6.084 30.625,6.002L30.625,5.393C30.625,3.818 29.999,2.308 28.885,1.194C27.772,0.081 26.261,-0.545 24.686,-0.545L10.433,-0.545C8.858,-0.545 7.348,0.081 6.234,1.194C5.12,2.308 4.495,3.818 4.495,5.393L4.495,6.017C4.494,6.098 4.511,6.179 4.544,6.253C4.577,6.328 4.625,6.394 4.685,6.449C4.745,6.504 4.816,6.545 4.893,6.57C4.971,6.596 5.052,6.604 5.133,6.596L5.683,6.596C7.364,6.596 8.991,7.191 10.276,8.275C11.561,9.359 12.421,10.863 12.705,12.52Z" transform="rotate(0 17.56 13.114)" fill="#8C8D89"/>
</svg>
