<svg width="34" height="28" viewBox="0 0 34 28" fill="none" xmlns="http://www.w3.org/2000/svg" xmlns:xlink="http://www.w3.org/1999/xlink">
<path d="M29.283,18.303L29.283,24.39C29.283,25.02 29.033,25.625 28.587,26.07C28.142,26.515 27.537,26.766 26.907,26.766L5.528,26.766C4.898,26.766 4.294,26.515 3.849,26.07C3.403,25.625 3.153,25.02 3.153,24.39L3.153,18.303C2.293,18.081 1.512,17.622 0.899,16.979C0.287,16.335 -0.133,15.533 -0.312,14.663C-0.492,13.792 -0.423,12.889 -0.115,12.056C0.193,11.223 0.728,10.492 1.43,9.948C2.133,9.404 2.974,9.067 3.857,8.977C4.741,8.887 5.633,9.046 6.431,9.437C7.229,9.828 7.901,10.434 8.371,11.188C8.842,11.942 9.091,12.812 9.092,13.701L9.092,19.639C9.092,19.954 9.217,20.257 9.439,20.479C9.662,20.702 9.964,20.827 10.279,20.827C10.594,20.827 10.896,20.702 11.119,20.479C11.342,20.257 11.467,19.954 11.467,19.639L11.467,14.889L20.969,14.889L20.969,19.639C20.969,19.954 21.094,20.257 21.317,20.479C21.539,20.702 21.841,20.827 22.156,20.827C22.471,20.827 22.774,20.702 22.996,20.479C23.219,20.257 23.344,19.954 23.344,19.639L23.344,13.701C23.345,12.812 23.594,11.942 24.065,11.188C24.535,10.434 25.207,9.828 26.005,9.437C26.803,9.046 27.695,8.887 28.578,8.977C29.462,9.067 30.303,9.404 31.005,9.948C31.708,10.492 32.243,11.223 32.551,12.056C32.859,12.889 32.928,13.792 32.748,14.663C32.569,15.533 32.149,16.335 31.536,16.979C30.924,17.622 30.143,18.081 29.283,18.303ZM11.363,12.513L21.073,12.513C21.353,10.853 22.212,9.346 23.498,8.259C24.783,7.172 26.412,6.576 28.095,6.575L28.644,6.575C28.725,6.583 28.807,6.574 28.884,6.549C28.962,6.523 29.033,6.482 29.093,6.427C29.153,6.373 29.201,6.306 29.234,6.232C29.267,6.157 29.283,6.077 29.283,5.995L29.283,5.387C29.283,3.812 28.657,2.301 27.543,1.188C26.43,0.074 24.919,-0.552 23.344,-0.552L9.092,-0.552C7.517,-0.552 6.006,0.074 4.892,1.188C3.779,2.301 3.153,3.812 3.153,5.387L3.153,6.01C3.153,6.092 3.169,6.172 3.202,6.247C3.235,6.321 3.283,6.388 3.343,6.442C3.403,6.497 3.474,6.538 3.552,6.564C3.629,6.589 3.711,6.598 3.791,6.589L4.341,6.589C6.022,6.59 7.649,7.185 8.934,8.269C10.219,9.353 11.079,10.856 11.363,12.513Z" transform="rotate(0 16.218 13.107)" fill="#8C8D89"/>
</svg>
