<svg width="34" height="28" viewBox="0 0 34 28" fill="none" xmlns="http://www.w3.org/2000/svg" xmlns:xlink="http://www.w3.org/1999/xlink">
<path d="M29.281,18.36L29.281,24.447C29.281,25.077 29.031,25.681 28.585,26.126C28.14,26.572 27.535,26.822 26.905,26.822L5.526,26.822C4.896,26.822 4.292,26.572 3.847,26.126C3.401,25.681 3.151,25.077 3.151,24.447L3.151,18.36C2.291,18.138 1.51,17.679 0.898,17.035C0.285,16.392 -0.135,15.589 -0.314,14.719C-0.494,13.849 -0.425,12.946 -0.117,12.112C0.191,11.279 0.726,10.549 1.429,10.005C2.131,9.46 2.972,9.124 3.855,9.033C4.739,8.943 5.631,9.102 6.429,9.493C7.227,9.884 7.899,10.491 8.369,11.245C8.84,11.998 9.089,12.869 9.09,13.757L9.09,19.696C9.09,20.011 9.215,20.313 9.438,20.536C9.66,20.758 9.962,20.884 10.277,20.884C10.592,20.884 10.894,20.758 11.117,20.536C11.34,20.313 11.465,20.011 11.465,19.696L11.465,14.945L20.967,14.945L20.967,19.696C20.967,20.011 21.092,20.313 21.315,20.536C21.537,20.758 21.839,20.884 22.154,20.884C22.469,20.884 22.772,20.758 22.994,20.536C23.217,20.313 23.342,20.011 23.342,19.696L23.342,13.757C23.343,12.869 23.592,11.998 24.063,11.245C24.533,10.491 25.205,9.884 26.003,9.493C26.801,9.102 27.693,8.943 28.576,9.033C29.46,9.124 30.301,9.46 31.003,10.005C31.706,10.549 32.241,11.279 32.549,12.112C32.857,12.946 32.926,13.849 32.746,14.719C32.567,15.589 32.147,16.392 31.534,17.035C30.922,17.679 30.141,18.138 29.281,18.36ZM11.361,12.57L21.071,12.57C21.351,10.91 22.21,9.403 23.496,8.316C24.781,7.229 26.41,6.632 28.093,6.631L28.642,6.631C28.723,6.639 28.805,6.631 28.882,6.605C28.96,6.58 29.031,6.539 29.091,6.484C29.151,6.429 29.199,6.363 29.232,6.288C29.265,6.214 29.281,6.133 29.281,6.052L29.281,5.443C29.281,3.868 28.655,2.358 27.541,1.244C26.428,0.13 24.917,-0.495 23.342,-0.495L9.09,-0.495C7.515,-0.495 6.004,0.13 4.89,1.244C3.777,2.358 3.151,3.868 3.151,5.443L3.151,6.067C3.151,6.148 3.167,6.229 3.2,6.303C3.233,6.377 3.281,6.444 3.341,6.499C3.401,6.553 3.472,6.595 3.55,6.62C3.627,6.645 3.709,6.654 3.789,6.646L4.339,6.646C6.02,6.646 7.647,7.241 8.932,8.325C10.217,9.409 11.077,10.912 11.361,12.57Z" transform="rotate(0 16.216 13.163)" fill="#8C8D89"/>
</svg>
