<svg width="28" height="24" viewBox="0 0 28 24" fill="none" xmlns="http://www.w3.org/2000/svg" xmlns:xlink="http://www.w3.org/1999/xlink">
<path d="M24.133,15.857L24.133,20.93C24.133,21.455 23.924,21.958 23.553,22.329C23.182,22.7 22.678,22.909 22.153,22.909L4.338,22.909C3.813,22.909 3.309,22.7 2.938,22.329C2.567,21.958 2.358,21.455 2.358,20.93L2.358,15.857C1.641,15.672 0.99,15.289 0.48,14.753C-0.03,14.217 -0.38,13.548 -0.53,12.823C-0.679,12.098 -0.622,11.345 -0.366,10.651C-0.109,9.956 0.337,9.348 0.923,8.894C1.508,8.441 2.208,8.16 2.945,8.085C3.682,8.01 4.424,8.142 5.089,8.468C5.754,8.794 6.315,9.299 6.706,9.928C7.098,10.556 7.306,11.281 7.307,12.022L7.307,16.97C7.307,17.233 7.411,17.485 7.597,17.67C7.782,17.856 8.034,17.96 8.297,17.96C8.559,17.96 8.811,17.856 8.996,17.67C9.182,17.485 9.286,17.233 9.286,16.97L9.286,13.011L17.204,13.011L17.204,16.97C17.204,17.233 17.309,17.485 17.494,17.67C17.68,17.856 17.932,17.96 18.194,17.96C18.457,17.96 18.708,17.856 18.894,17.67C19.08,17.485 19.184,17.233 19.184,16.97L19.184,12.022C19.184,11.281 19.392,10.556 19.784,9.928C20.176,9.299 20.736,8.794 21.401,8.468C22.066,8.142 22.809,8.01 23.546,8.085C24.282,8.16 24.983,8.441 25.568,8.894C26.153,9.348 26.6,9.956 26.856,10.651C27.113,11.345 27.17,12.098 27.021,12.823C26.871,13.548 26.521,14.217 26.011,14.753C25.5,15.289 24.85,15.672 24.133,15.857ZM9.2,11.032L17.291,11.032C17.525,9.649 18.241,8.393 19.312,7.487C20.383,6.581 21.74,6.084 23.143,6.083L23.601,6.083C23.668,6.09 23.736,6.083 23.801,6.061C23.865,6.04 23.924,6.006 23.974,5.96C24.025,5.915 24.065,5.859 24.092,5.797C24.119,5.735 24.133,5.668 24.133,5.6L24.133,5.093C24.133,3.781 23.611,2.522 22.683,1.594C21.755,0.666 20.496,0.144 19.184,0.144L7.307,0.144C5.994,0.144 4.736,0.666 3.807,1.594C2.879,2.522 2.358,3.781 2.358,5.093L2.358,5.613C2.358,5.681 2.372,5.748 2.399,5.81C2.426,5.872 2.466,5.927 2.516,5.973C2.567,6.018 2.626,6.053 2.69,6.074C2.754,6.095 2.823,6.102 2.89,6.095L3.348,6.095C4.749,6.096 6.105,6.591 7.175,7.495C8.246,8.398 8.963,9.651 9.2,11.032Z" transform="rotate(0 13.245 11.527)" fill="#000000"/>
</svg>
