<svg width="34" height="28" viewBox="0 0 34 28" fill="none" xmlns="http://www.w3.org/2000/svg" xmlns:xlink="http://www.w3.org/1999/xlink">
<path d="M29.972,18.31L29.972,24.397C29.972,25.027 29.722,25.631 29.276,26.077C28.831,26.522 28.227,26.773 27.597,26.773L6.218,26.773C5.588,26.773 4.984,26.522 4.538,26.077C4.093,25.631 3.842,25.027 3.842,24.397L3.842,18.31C2.982,18.088 2.201,17.629 1.589,16.986C0.976,16.342 0.557,15.54 0.377,14.669C0.198,13.799 0.266,12.896 0.574,12.063C0.882,11.229 1.418,10.499 2.12,9.955C2.822,9.411 3.663,9.074 4.547,8.984C5.431,8.893 6.322,9.053 7.12,9.444C7.918,9.834 8.59,10.441 9.061,11.195C9.531,11.949 9.781,12.819 9.781,13.708L9.781,19.646C9.781,19.961 9.906,20.263 10.129,20.486C10.352,20.709 10.654,20.834 10.969,20.834C11.284,20.834 11.586,20.709 11.809,20.486C12.031,20.263 12.156,19.961 12.156,19.646L12.156,14.895L21.658,14.895L21.658,19.646C21.658,19.961 21.783,20.263 22.006,20.486C22.229,20.709 22.531,20.834 22.846,20.834C23.161,20.834 23.463,20.709 23.686,20.486C23.908,20.263 24.034,19.961 24.034,19.646L24.034,13.708C24.034,12.819 24.284,11.949 24.754,11.195C25.224,10.441 25.897,9.834 26.695,9.444C27.492,9.053 28.384,8.893 29.268,8.984C30.152,9.074 30.992,9.411 31.695,9.955C32.397,10.499 32.933,11.229 33.241,12.063C33.549,12.896 33.617,13.799 33.438,14.669C33.258,15.54 32.838,16.342 32.226,16.986C31.613,17.629 30.832,18.088 29.972,18.31ZM12.053,12.52L21.762,12.52C22.043,10.86 22.902,9.353 24.187,8.266C25.472,7.179 27.101,6.582 28.784,6.581L29.334,6.581C29.415,6.59 29.496,6.581 29.574,6.556C29.651,6.53 29.722,6.489 29.782,6.434C29.842,6.38 29.89,6.313 29.923,6.239C29.956,6.164 29.973,6.084 29.972,6.002L29.972,5.394C29.972,3.819 29.347,2.308 28.233,1.194C27.119,0.081 25.609,-0.545 24.034,-0.545L9.781,-0.545C8.206,-0.545 6.696,0.081 5.582,1.194C4.468,2.308 3.842,3.819 3.842,5.394L3.842,6.017C3.842,6.099 3.859,6.179 3.891,6.253C3.924,6.328 3.972,6.395 4.032,6.449C4.093,6.504 4.164,6.545 4.241,6.57C4.318,6.596 4.4,6.605 4.481,6.596L5.03,6.596C6.711,6.597 8.338,7.191 9.623,8.275C10.908,9.359 11.769,10.863 12.053,12.52Z" transform="rotate(0 16.907 13.114)" fill="#000000"/>
</svg>
