<svg width="16" height="24" viewBox="0 0 16 24" fill="none" xmlns="http://www.w3.org/2000/svg" xmlns:xlink="http://www.w3.org/1999/xlink">
<path d="M16,8.707C16,4.289 12.418,0.707 8,0.707C3.582,0.707 0,4.289 0,8.707L0,9.189C0,10.957 0.552,12.68 1.58,14.119L7.984,23.085C7.992,23.096 8.008,23.096 8.016,23.085L14.42,14.119C15.448,12.68 16,10.957 16,9.189L16,8.707Z" transform="rotate(360 8 11.9)" fill="#C2CCDE" fill-opacity="0.25" stroke="#5A5A5A" stroke-width="1" stroke-miterlimit="3.999327" stroke-linecap="round" stroke-linejoin="round"/>
<path d="M6.436,5.508C7.424,5.032 8.576,5.032 9.564,5.508C10.552,5.984 11.269,6.884 11.514,7.953C11.758,9.022 11.501,10.144 10.818,11.002C10.134,11.859 9.097,12.359 8,12.359C6.903,12.359 5.866,11.859 5.182,11.002C4.499,10.144 4.242,9.022 4.486,7.953C4.731,6.884 5.448,5.984 6.436,5.508Z" transform="rotate(360 8 11.9)" fill="#C2CCDE" fill-opacity="0.25" stroke="#5A5A5A" stroke-width="1" stroke-miterlimit="3.999327" stroke-linecap="round" stroke-linejoin="round"/>
</svg>
