<svg width="34" height="28" viewBox="0 0 34 28" fill="none" xmlns="http://www.w3.org/2000/svg" xmlns:xlink="http://www.w3.org/1999/xlink">
<path d="M29.281,18.331L29.281,24.419C29.281,25.049 29.031,25.653 28.585,26.098C28.14,26.544 27.535,26.794 26.905,26.794L5.526,26.794C4.896,26.794 4.292,26.544 3.847,26.098C3.401,25.653 3.151,25.049 3.151,24.419L3.151,18.331C2.291,18.109 1.51,17.65 0.898,17.007C0.285,16.363 -0.135,15.561 -0.314,14.691C-0.494,13.82 -0.425,12.917 -0.117,12.084C0.191,11.251 0.726,10.52 1.429,9.976C2.131,9.432 2.972,9.096 3.855,9.005C4.739,8.915 5.631,9.074 6.429,9.465C7.227,9.856 7.899,10.462 8.369,11.216C8.84,11.97 9.089,12.841 9.09,13.729L9.09,19.668C9.09,19.983 9.215,20.285 9.438,20.507C9.66,20.73 9.962,20.855 10.277,20.855C10.592,20.855 10.894,20.73 11.117,20.507C11.34,20.285 11.465,19.983 11.465,19.668L11.465,14.917L20.967,14.917L20.967,19.668C20.967,19.983 21.092,20.285 21.315,20.507C21.537,20.73 21.839,20.855 22.154,20.855C22.469,20.855 22.772,20.73 22.994,20.507C23.217,20.285 23.342,19.983 23.342,19.668L23.342,13.729C23.343,12.841 23.592,11.97 24.063,11.216C24.533,10.462 25.205,9.856 26.003,9.465C26.801,9.074 27.693,8.915 28.576,9.005C29.46,9.096 30.301,9.432 31.003,9.976C31.706,10.52 32.241,11.251 32.549,12.084C32.857,12.917 32.926,13.82 32.746,14.691C32.567,15.561 32.147,16.363 31.534,17.007C30.922,17.65 30.141,18.109 29.281,18.331ZM11.361,12.541L21.071,12.541C21.351,10.881 22.21,9.375 23.496,8.288C24.781,7.201 26.41,6.604 28.093,6.603L28.642,6.603C28.723,6.611 28.805,6.602 28.882,6.577C28.96,6.552 29.031,6.51 29.091,6.456C29.151,6.401 29.199,6.334 29.232,6.26C29.265,6.185 29.281,6.105 29.281,6.024L29.281,5.415C29.281,3.84 28.655,2.329 27.541,1.216C26.428,0.102 24.917,-0.524 23.342,-0.524L9.09,-0.524C7.515,-0.524 6.004,0.102 4.89,1.216C3.777,2.329 3.151,3.84 3.151,5.415L3.151,6.039C3.151,6.12 3.167,6.2 3.2,6.275C3.233,6.349 3.281,6.416 3.341,6.47C3.401,6.525 3.472,6.566 3.55,6.592C3.627,6.617 3.709,6.626 3.789,6.618L4.339,6.618C6.02,6.618 7.647,7.213 8.932,8.297C10.217,9.381 11.077,10.884 11.361,12.541Z" transform="rotate(0 16.216 13.135)" fill="#000000"/>
</svg>
