<svg width="34" height="28" viewBox="0 0 34 28" fill="none" xmlns="http://www.w3.org/2000/svg" xmlns:xlink="http://www.w3.org/1999/xlink">
<path d="M28.836,18.353L28.836,24.44C28.836,25.07 28.585,25.674 28.14,26.119C27.694,26.565 27.09,26.815 26.46,26.815L5.081,26.815C4.451,26.815 3.847,26.565 3.401,26.119C2.956,25.674 2.706,25.07 2.706,24.44L2.706,18.353C1.845,18.13 1.065,17.672 0.452,17.028C-0.16,16.384 -0.58,15.582 -0.76,14.712C-0.939,13.842 -0.871,12.939 -0.563,12.105C-0.255,11.272 0.281,10.542 0.983,9.997C1.685,9.453 2.526,9.117 3.41,9.026C4.294,8.936 5.185,9.095 5.983,9.486C6.781,9.877 7.454,10.484 7.924,11.237C8.394,11.991 8.644,12.862 8.644,13.75L8.644,19.689C8.644,20.004 8.769,20.306 8.992,20.528C9.215,20.751 9.517,20.876 9.832,20.876C10.147,20.876 10.449,20.751 10.672,20.528C10.895,20.306 11.02,20.004 11.02,19.689L11.02,14.938L20.522,14.938L20.522,19.689C20.522,20.004 20.647,20.306 20.869,20.528C21.092,20.751 21.394,20.876 21.709,20.876C22.024,20.876 22.326,20.751 22.549,20.528C22.772,20.306 22.897,20.004 22.897,19.689L22.897,13.75C22.897,12.862 23.147,11.991 23.617,11.237C24.088,10.484 24.76,9.877 25.558,9.486C26.356,9.095 27.247,8.936 28.131,9.026C29.015,9.117 29.856,9.453 30.558,9.997C31.26,10.542 31.796,11.272 32.104,12.105C32.412,12.939 32.48,13.842 32.301,14.712C32.122,15.582 31.702,16.384 31.089,17.028C30.477,17.672 29.696,18.13 28.836,18.353ZM10.916,12.562L20.625,12.562C20.906,10.903 21.765,9.396 23.05,8.309C24.336,7.222 25.965,6.625 27.648,6.624L28.197,6.624C28.278,6.632 28.36,6.623 28.437,6.598C28.514,6.573 28.585,6.531 28.646,6.477C28.706,6.422 28.754,6.355 28.787,6.281C28.819,6.207 28.836,6.126 28.836,6.045L28.836,5.436C28.836,3.861 28.21,2.351 27.096,1.237C25.983,0.123 24.472,-0.503 22.897,-0.503L8.644,-0.503C7.069,-0.503 5.559,0.123 4.445,1.237C3.331,2.351 2.706,3.861 2.706,5.436L2.706,6.06C2.705,6.141 2.722,6.221 2.755,6.296C2.787,6.37 2.836,6.437 2.896,6.492C2.956,6.546 3.027,6.588 3.104,6.613C3.182,6.638 3.263,6.647 3.344,6.639L3.893,6.639C5.575,6.639 7.202,7.234 8.487,8.318C9.772,9.402 10.632,10.905 10.916,12.562Z" transform="rotate(0 15.771 13.156)" fill="#8C8D89"/>
</svg>
