<svg width="36" height="28" viewBox="0 0 36 28" fill="none" xmlns="http://www.w3.org/2000/svg" xmlns:xlink="http://www.w3.org/1999/xlink">
<path d="M30.625,18.373L30.625,24.461C30.625,25.091 30.374,25.695 29.929,26.14C29.483,26.586 28.879,26.836 28.249,26.836L6.87,26.836C6.24,26.836 5.636,26.586 5.191,26.14C4.745,25.695 4.495,25.091 4.495,24.461L4.495,18.373C3.635,18.151 2.854,17.692 2.241,17.049C1.629,16.405 1.209,15.603 1.029,14.733C0.85,13.862 0.918,12.959 1.226,12.126C1.534,11.293 2.07,10.562 2.772,10.018C3.475,9.474 4.315,9.138 5.199,9.047C6.083,8.957 6.975,9.116 7.772,9.507C8.57,9.898 9.243,10.504 9.713,11.258C10.183,12.012 10.433,12.883 10.433,13.771L10.433,19.71C10.433,20.025 10.559,20.327 10.781,20.549C11.004,20.772 11.306,20.897 11.621,20.897C11.936,20.897 12.238,20.772 12.461,20.549C12.684,20.327 12.809,20.025 12.809,19.71L12.809,14.959L22.311,14.959L22.311,19.71C22.311,20.025 22.436,20.327 22.658,20.549C22.881,20.772 23.183,20.897 23.498,20.897C23.813,20.897 24.115,20.772 24.338,20.549C24.561,20.327 24.686,20.025 24.686,19.71L24.686,13.771C24.686,12.883 24.936,12.012 25.406,11.258C25.877,10.504 26.549,9.898 27.347,9.507C28.145,9.116 29.036,8.957 29.92,9.047C30.804,9.138 31.645,9.474 32.347,10.018C33.049,10.562 33.585,11.293 33.893,12.126C34.201,12.959 34.269,13.862 34.09,14.733C33.911,15.603 33.491,16.405 32.878,17.049C32.266,17.692 31.485,18.151 30.625,18.373ZM12.705,12.583L22.414,12.583C22.695,10.923 23.554,9.417 24.839,8.33C26.125,7.243 27.754,6.646 29.437,6.645L29.986,6.645C30.067,6.653 30.149,6.644 30.226,6.619C30.303,6.594 30.374,6.552 30.435,6.498C30.495,6.443 30.543,6.376 30.576,6.302C30.608,6.227 30.625,6.147 30.625,6.066L30.625,5.457C30.625,3.882 29.999,2.371 28.885,1.258C27.772,0.144 26.261,-0.482 24.686,-0.482L10.433,-0.482C8.858,-0.482 7.348,0.144 6.234,1.258C5.12,2.371 4.495,3.882 4.495,5.457L4.495,6.081C4.494,6.162 4.511,6.242 4.544,6.317C4.577,6.391 4.625,6.458 4.685,6.512C4.745,6.567 4.816,6.608 4.893,6.634C4.971,6.659 5.052,6.668 5.133,6.66L5.683,6.66C7.364,6.66 8.991,7.255 10.276,8.339C11.561,9.423 12.421,10.926 12.705,12.583Z" transform="rotate(0 17.56 13.177)" fill="#8C8D89"/>
</svg>
