<svg width="130" height="148" viewBox="0 0 130 148" fill="none" xmlns="http://www.w3.org/2000/svg" xmlns:xlink="http://www.w3.org/1999/xlink">
<path d="M111.438,138C111.438,142.971 115.467,147 120.438,147C125.408,147 129.438,142.971 129.438,138L111.438,138ZM120.438,74L111.438,74L120.438,74ZM64.438,10L64.438,1L64.438,10ZM8.438,1C3.467,1 -0.563,5.029 -0.563,10C-0.563,14.971 3.467,19 8.438,19L8.438,1ZM129.438,138L129.438,74L111.438,74L111.438,138L129.438,138ZM129.438,74C129.438,54.999 122.844,36.573 110.809,22.819L97.262,34.672C106.231,44.922 111.438,59.054 111.438,74L129.438,74ZM110.809,22.819C98.74,9.026 82.094,1 64.438,1L64.438,19C76.485,19 88.327,24.46 97.262,34.672L110.809,22.819ZM64.438,1L8.438,1L8.438,19L64.438,19L64.438,1Z" fill="#ED1C24"/>
</svg>
