<svg width="34" height="28" viewBox="0 0 34 28" fill="none" xmlns="http://www.w3.org/2000/svg" xmlns:xlink="http://www.w3.org/1999/xlink">
<path d="M30.146,18.303L30.146,24.39C30.146,25.02 29.896,25.625 29.45,26.07C29.005,26.515 28.401,26.766 27.771,26.766L6.392,26.766C5.762,26.766 5.158,26.515 4.712,26.07C4.267,25.625 4.016,25.02 4.016,24.39L4.016,18.303C3.156,18.081 2.375,17.622 1.763,16.979C1.15,16.335 0.73,15.533 0.551,14.662C0.372,13.792 0.44,12.889 0.748,12.056C1.056,11.223 1.591,10.492 2.294,9.948C2.996,9.404 3.837,9.067 4.721,8.977C5.605,8.887 6.496,9.046 7.294,9.437C8.092,9.828 8.764,10.434 9.234,11.188C9.705,11.942 9.954,12.812 9.955,13.701L9.955,19.639C9.955,19.954 10.08,20.257 10.303,20.479C10.526,20.702 10.828,20.827 11.143,20.827C11.458,20.827 11.76,20.702 11.982,20.479C12.205,20.257 12.33,19.954 12.33,19.639L12.33,14.888L21.832,14.888L21.832,19.639C21.832,19.954 21.957,20.257 22.18,20.479C22.403,20.702 22.705,20.827 23.02,20.827C23.335,20.827 23.637,20.702 23.86,20.479C24.082,20.257 24.208,19.954 24.208,19.639L24.208,13.701C24.208,12.812 24.458,11.942 24.928,11.188C25.398,10.434 26.071,9.828 26.869,9.437C27.666,9.046 28.558,8.887 29.442,8.977C30.326,9.067 31.166,9.404 31.869,9.948C32.571,10.492 33.107,11.223 33.415,12.056C33.723,12.889 33.791,13.792 33.612,14.662C33.432,15.533 33.012,16.335 32.4,16.979C31.787,17.622 31.006,18.081 30.146,18.303ZM12.226,12.513L21.936,12.513C22.217,10.853 23.076,9.346 24.361,8.259C25.646,7.172 27.275,6.575 28.958,6.574L29.508,6.574C29.589,6.583 29.67,6.574 29.748,6.549C29.825,6.523 29.896,6.482 29.956,6.427C30.016,6.373 30.064,6.306 30.097,6.232C30.13,6.157 30.147,6.077 30.146,5.995L30.146,5.387C30.146,3.812 29.521,2.301 28.407,1.187C27.293,0.074 25.783,-0.552 24.208,-0.552L9.955,-0.552C8.38,-0.552 6.869,0.074 5.756,1.187C4.642,2.301 4.016,3.812 4.016,5.387L4.016,6.01C4.016,6.092 4.033,6.172 4.065,6.246C4.098,6.321 4.146,6.388 4.206,6.442C4.267,6.497 4.338,6.538 4.415,6.564C4.492,6.589 4.574,6.598 4.655,6.589L5.204,6.589C6.885,6.59 8.512,7.184 9.797,8.269C11.082,9.353 11.943,10.856 12.226,12.513Z" transform="rotate(0 17.081 13.107)" fill="#8C8D89"/>
</svg>
