<svg width="34" height="28" viewBox="0 0 34 28" fill="none" xmlns="http://www.w3.org/2000/svg" xmlns:xlink="http://www.w3.org/1999/xlink">
<path d="M29.283,18.373L29.283,24.461C29.283,25.091 29.033,25.695 28.587,26.14C28.142,26.586 27.537,26.836 26.907,26.836L5.528,26.836C4.898,26.836 4.294,26.586 3.849,26.14C3.403,25.695 3.153,25.091 3.153,24.461L3.153,18.373C2.293,18.151 1.512,17.692 0.899,17.049C0.287,16.405 -0.133,15.603 -0.312,14.733C-0.492,13.863 -0.423,12.959 -0.115,12.126C0.193,11.293 0.728,10.562 1.43,10.018C2.133,9.474 2.974,9.138 3.857,9.047C4.741,8.957 5.633,9.116 6.431,9.507C7.229,9.898 7.901,10.504 8.371,11.258C8.842,12.012 9.091,12.883 9.092,13.771L9.092,19.71C9.092,20.025 9.217,20.327 9.439,20.549C9.662,20.772 9.964,20.897 10.279,20.897C10.594,20.897 10.896,20.772 11.119,20.549C11.342,20.327 11.467,20.025 11.467,19.71L11.467,14.959L20.969,14.959L20.969,19.71C20.969,20.025 21.094,20.327 21.317,20.549C21.539,20.772 21.841,20.897 22.156,20.897C22.471,20.897 22.774,20.772 22.996,20.549C23.219,20.327 23.344,20.025 23.344,19.71L23.344,13.771C23.345,12.883 23.594,12.012 24.065,11.258C24.535,10.504 25.207,9.898 26.005,9.507C26.803,9.116 27.695,8.957 28.578,9.047C29.462,9.138 30.303,9.474 31.005,10.018C31.708,10.562 32.243,11.293 32.551,12.126C32.859,12.959 32.928,13.863 32.748,14.733C32.569,15.603 32.149,16.405 31.536,17.049C30.924,17.692 30.143,18.151 29.283,18.373ZM11.363,12.583L21.073,12.583C21.353,10.923 22.212,9.417 23.498,8.33C24.783,7.243 26.412,6.646 28.095,6.645L28.644,6.645C28.725,6.653 28.807,6.644 28.884,6.619C28.962,6.594 29.033,6.552 29.093,6.498C29.153,6.443 29.201,6.376 29.234,6.302C29.267,6.227 29.283,6.147 29.283,6.066L29.283,5.457C29.283,3.882 28.657,2.371 27.543,1.258C26.43,0.144 24.919,-0.482 23.344,-0.482L9.092,-0.482C7.517,-0.482 6.006,0.144 4.892,1.258C3.779,2.371 3.153,3.882 3.153,5.457L3.153,6.081C3.153,6.162 3.169,6.242 3.202,6.317C3.235,6.391 3.283,6.458 3.343,6.512C3.403,6.567 3.474,6.608 3.552,6.634C3.629,6.659 3.711,6.668 3.791,6.66L4.341,6.66C6.022,6.66 7.649,7.255 8.934,8.339C10.219,9.423 11.079,10.926 11.363,12.583Z" transform="rotate(0 16.218 13.177)" fill="#000000"/>
</svg>
