<svg width="34" height="28" viewBox="0 0 34 28" fill="none" xmlns="http://www.w3.org/2000/svg" xmlns:xlink="http://www.w3.org/1999/xlink">
<path d="M29.492,18.373L29.492,24.461C29.492,25.091 29.242,25.695 28.796,26.14C28.351,26.586 27.746,26.836 27.116,26.836L5.737,26.836C5.107,26.836 4.503,26.586 4.058,26.14C3.612,25.695 3.362,25.091 3.362,24.461L3.362,18.373C2.502,18.151 1.721,17.692 1.108,17.049C0.496,16.405 0.076,15.603 -0.103,14.733C-0.283,13.863 -0.215,12.959 0.094,12.126C0.402,11.293 0.937,10.562 1.639,10.018C2.342,9.474 3.183,9.138 4.066,9.047C4.95,8.957 5.842,9.116 6.64,9.507C7.438,9.898 8.11,10.504 8.58,11.258C9.051,12.012 9.3,12.883 9.301,13.771L9.301,19.71C9.301,20.025 9.426,20.327 9.648,20.549C9.871,20.772 10.173,20.897 10.488,20.897C10.803,20.897 11.105,20.772 11.328,20.549C11.551,20.327 11.676,20.025 11.676,19.71L11.676,14.959L21.178,14.959L21.178,19.71C21.178,20.025 21.303,20.327 21.526,20.549C21.748,20.772 22.05,20.897 22.365,20.897C22.68,20.897 22.983,20.772 23.205,20.549C23.428,20.327 23.553,20.025 23.553,19.71L23.553,13.771C23.554,12.883 23.803,12.012 24.274,11.258C24.744,10.504 25.416,9.898 26.214,9.507C27.012,9.116 27.904,8.957 28.787,9.047C29.671,9.138 30.512,9.474 31.214,10.018C31.917,10.562 32.452,11.293 32.76,12.126C33.068,12.959 33.137,13.863 32.957,14.733C32.778,15.603 32.358,16.405 31.745,17.049C31.133,17.692 30.352,18.151 29.492,18.373ZM11.572,12.583L21.282,12.583C21.562,10.923 22.421,9.417 23.707,8.33C24.992,7.243 26.621,6.646 28.304,6.645L28.853,6.645C28.934,6.653 29.016,6.644 29.093,6.619C29.171,6.594 29.242,6.552 29.302,6.498C29.362,6.443 29.41,6.376 29.443,6.302C29.476,6.227 29.492,6.147 29.492,6.066L29.492,5.457C29.492,3.882 28.866,2.371 27.752,1.258C26.639,0.144 25.128,-0.482 23.553,-0.482L9.301,-0.482C7.726,-0.482 6.215,0.144 5.101,1.258C3.988,2.371 3.362,3.882 3.362,5.457L3.362,6.081C3.362,6.162 3.378,6.242 3.411,6.317C3.444,6.391 3.492,6.458 3.552,6.512C3.612,6.567 3.683,6.608 3.761,6.634C3.838,6.659 3.92,6.668 4,6.66L4.55,6.66C6.231,6.66 7.858,7.255 9.143,8.339C10.428,9.423 11.288,10.926 11.572,12.583Z" transform="rotate(0 16.427 13.177)" fill="#8C8D89"/>
</svg>
