<svg width="34" height="28" viewBox="0 0 34 28" fill="none" xmlns="http://www.w3.org/2000/svg" xmlns:xlink="http://www.w3.org/1999/xlink">
<path d="M28.836,18.373L28.836,24.46C28.836,25.09 28.585,25.695 28.14,26.14C27.694,26.585 27.09,26.836 26.46,26.836L5.081,26.836C4.451,26.836 3.847,26.585 3.401,26.14C2.956,25.695 2.706,25.09 2.706,24.46L2.706,18.373C1.845,18.151 1.065,17.692 0.452,17.049C-0.16,16.405 -0.58,15.603 -0.76,14.733C-0.939,13.862 -0.871,12.959 -0.563,12.126C-0.255,11.293 0.281,10.562 0.983,10.018C1.685,9.474 2.526,9.137 3.41,9.047C4.294,8.957 5.185,9.116 5.983,9.507C6.781,9.898 7.454,10.504 7.924,11.258C8.394,12.012 8.644,12.882 8.644,13.771L8.644,19.709C8.644,20.024 8.769,20.327 8.992,20.549C9.215,20.772 9.517,20.897 9.832,20.897C10.147,20.897 10.449,20.772 10.672,20.549C10.895,20.327 11.02,20.024 11.02,19.709L11.02,14.959L20.522,14.959L20.522,19.709C20.522,20.024 20.647,20.327 20.869,20.549C21.092,20.772 21.394,20.897 21.709,20.897C22.024,20.897 22.326,20.772 22.549,20.549C22.772,20.327 22.897,20.024 22.897,19.709L22.897,13.771C22.897,12.882 23.147,12.012 23.617,11.258C24.088,10.504 24.76,9.898 25.558,9.507C26.356,9.116 27.247,8.957 28.131,9.047C29.015,9.137 29.856,9.474 30.558,10.018C31.26,10.562 31.796,11.293 32.104,12.126C32.412,12.959 32.48,13.862 32.301,14.733C32.122,15.603 31.702,16.405 31.089,17.049C30.477,17.692 29.696,18.151 28.836,18.373ZM10.916,12.583L20.625,12.583C20.906,10.923 21.765,9.416 23.05,8.329C24.336,7.242 25.965,6.646 27.648,6.645L28.197,6.645C28.278,6.653 28.36,6.644 28.437,6.619C28.514,6.593 28.585,6.552 28.646,6.498C28.706,6.443 28.754,6.376 28.787,6.302C28.819,6.227 28.836,6.147 28.836,6.066L28.836,5.457C28.836,3.882 28.21,2.371 27.096,1.258C25.983,0.144 24.472,-0.482 22.897,-0.482L8.644,-0.482C7.069,-0.482 5.559,0.144 4.445,1.258C3.331,2.371 2.706,3.882 2.706,5.457L2.706,6.08C2.705,6.162 2.722,6.242 2.755,6.317C2.787,6.391 2.836,6.458 2.896,6.512C2.956,6.567 3.027,6.608 3.104,6.634C3.182,6.659 3.263,6.668 3.344,6.659L3.893,6.659C5.575,6.66 7.202,7.255 8.487,8.339C9.772,9.423 10.632,10.926 10.916,12.583Z" transform="rotate(0 15.771 13.177)" fill="#8C8D89"/>
</svg>
