<svg width="34" height="28" viewBox="0 0 34 28" fill="none" xmlns="http://www.w3.org/2000/svg" xmlns:xlink="http://www.w3.org/1999/xlink">
<path d="M29.972,18.303L29.972,24.39C29.972,25.02 29.722,25.625 29.276,26.07C28.831,26.515 28.227,26.766 27.597,26.766L6.218,26.766C5.588,26.766 4.984,26.515 4.538,26.07C4.093,25.625 3.842,25.02 3.842,24.39L3.842,18.303C2.982,18.081 2.201,17.622 1.589,16.979C0.976,16.335 0.557,15.533 0.377,14.663C0.198,13.792 0.266,12.889 0.574,12.056C0.882,11.223 1.418,10.492 2.12,9.948C2.822,9.404 3.663,9.067 4.547,8.977C5.431,8.887 6.322,9.046 7.12,9.437C7.918,9.828 8.59,10.434 9.061,11.188C9.531,11.942 9.781,12.812 9.781,13.701L9.781,19.639C9.781,19.954 9.906,20.257 10.129,20.479C10.352,20.702 10.654,20.827 10.969,20.827C11.284,20.827 11.586,20.702 11.809,20.479C12.031,20.257 12.156,19.954 12.156,19.639L12.156,14.889L21.658,14.889L21.658,19.639C21.658,19.954 21.783,20.257 22.006,20.479C22.229,20.702 22.531,20.827 22.846,20.827C23.161,20.827 23.463,20.702 23.686,20.479C23.908,20.257 24.034,19.954 24.034,19.639L24.034,13.701C24.034,12.812 24.284,11.942 24.754,11.188C25.224,10.434 25.897,9.828 26.695,9.437C27.492,9.046 28.384,8.887 29.268,8.977C30.152,9.067 30.992,9.404 31.695,9.948C32.397,10.492 32.933,11.223 33.241,12.056C33.549,12.889 33.617,13.792 33.438,14.663C33.258,15.533 32.838,16.335 32.226,16.979C31.613,17.622 30.832,18.081 29.972,18.303ZM12.053,12.513L21.762,12.513C22.043,10.853 22.902,9.346 24.187,8.259C25.472,7.172 27.101,6.576 28.784,6.575L29.334,6.575C29.415,6.583 29.496,6.574 29.574,6.549C29.651,6.523 29.722,6.482 29.782,6.427C29.842,6.373 29.89,6.306 29.923,6.232C29.956,6.157 29.973,6.077 29.972,5.995L29.972,5.387C29.972,3.812 29.347,2.301 28.233,1.188C27.119,0.074 25.609,-0.552 24.034,-0.552L9.781,-0.552C8.206,-0.552 6.696,0.074 5.582,1.188C4.468,2.301 3.842,3.812 3.842,5.387L3.842,6.01C3.842,6.092 3.859,6.172 3.891,6.247C3.924,6.321 3.972,6.388 4.032,6.442C4.093,6.497 4.164,6.538 4.241,6.564C4.318,6.589 4.4,6.598 4.481,6.589L5.03,6.589C6.711,6.59 8.338,7.185 9.623,8.269C10.908,9.353 11.769,10.856 12.053,12.513Z" transform="rotate(0 16.907 13.107)" fill="#8C8D89"/>
</svg>
