<svg width="34" height="28" viewBox="0 0 34 28" fill="none" xmlns="http://www.w3.org/2000/svg" xmlns:xlink="http://www.w3.org/1999/xlink">
<path d="M29.494,18.353L29.494,24.44C29.494,25.07 29.244,25.674 28.798,26.119C28.353,26.565 27.748,26.815 27.118,26.815L5.739,26.815C5.109,26.815 4.505,26.565 4.06,26.119C3.614,25.674 3.364,25.07 3.364,24.44L3.364,18.353C2.504,18.131 1.723,17.672 1.11,17.028C0.498,16.385 0.078,15.582 -0.101,14.712C-0.281,13.842 -0.213,12.939 0.096,12.105C0.404,11.272 0.939,10.542 1.641,9.997C2.344,9.453 3.184,9.117 4.068,9.026C4.952,8.936 5.844,9.095 6.642,9.486C7.439,9.877 8.112,10.484 8.582,11.237C9.053,11.991 9.302,12.862 9.303,13.75L9.303,19.689C9.303,20.004 9.428,20.306 9.65,20.529C9.873,20.751 10.175,20.877 10.49,20.877C10.805,20.877 11.107,20.751 11.33,20.529C11.553,20.306 11.678,20.004 11.678,19.689L11.678,14.938L21.18,14.938L21.18,19.689C21.18,20.004 21.305,20.306 21.528,20.529C21.75,20.751 22.052,20.877 22.367,20.877C22.682,20.877 22.985,20.751 23.207,20.529C23.43,20.306 23.555,20.004 23.555,19.689L23.555,13.75C23.556,12.862 23.805,11.991 24.276,11.237C24.746,10.484 25.418,9.877 26.216,9.486C27.014,9.095 27.906,8.936 28.789,9.026C29.673,9.117 30.514,9.453 31.216,9.997C31.919,10.542 32.454,11.272 32.762,12.105C33.07,12.939 33.139,13.842 32.959,14.712C32.78,15.582 32.36,16.385 31.747,17.028C31.135,17.672 30.354,18.131 29.494,18.353ZM11.574,12.563L21.284,12.563C21.564,10.903 22.423,9.396 23.709,8.309C24.994,7.222 26.623,6.625 28.306,6.624L28.855,6.624C28.936,6.632 29.018,6.623 29.095,6.598C29.173,6.573 29.244,6.531 29.304,6.477C29.364,6.422 29.412,6.356 29.445,6.281C29.478,6.207 29.494,6.126 29.494,6.045L29.494,5.436C29.494,3.861 28.868,2.351 27.754,1.237C26.641,0.123 25.13,-0.502 23.555,-0.502L9.303,-0.502C7.728,-0.502 6.217,0.123 5.103,1.237C3.99,2.351 3.364,3.861 3.364,5.436L3.364,6.06C3.364,6.141 3.38,6.222 3.413,6.296C3.446,6.37 3.494,6.437 3.554,6.492C3.614,6.546 3.685,6.588 3.762,6.613C3.84,6.638 3.921,6.647 4.002,6.639L4.552,6.639C6.233,6.639 7.86,7.234 9.145,8.318C10.43,9.402 11.29,10.905 11.574,12.563Z" transform="rotate(0 16.429 13.156)" fill="#000000"/>
</svg>
