<svg width="34" height="28" viewBox="0 0 34 28" fill="none" xmlns="http://www.w3.org/2000/svg" xmlns:xlink="http://www.w3.org/1999/xlink">
<path d="M29.492,18.31L29.492,24.397C29.492,25.027 29.242,25.631 28.796,26.077C28.351,26.522 27.746,26.773 27.116,26.773L5.737,26.773C5.107,26.773 4.503,26.522 4.058,26.077C3.612,25.631 3.362,25.027 3.362,24.397L3.362,18.31C2.502,18.088 1.721,17.629 1.108,16.985C0.496,16.342 0.076,15.539 -0.103,14.669C-0.283,13.799 -0.215,12.896 0.094,12.063C0.402,11.229 0.937,10.499 1.639,9.955C2.342,9.411 3.183,9.074 4.066,8.984C4.95,8.893 5.842,9.053 6.64,9.444C7.438,9.834 8.11,10.441 8.58,11.195C9.051,11.949 9.3,12.819 9.301,13.708L9.301,19.646C9.301,19.961 9.426,20.263 9.648,20.486C9.871,20.709 10.173,20.834 10.488,20.834C10.803,20.834 11.105,20.709 11.328,20.486C11.551,20.263 11.676,19.961 11.676,19.646L11.676,14.895L21.178,14.895L21.178,19.646C21.178,19.961 21.303,20.263 21.526,20.486C21.748,20.709 22.05,20.834 22.365,20.834C22.68,20.834 22.983,20.709 23.205,20.486C23.428,20.263 23.553,19.961 23.553,19.646L23.553,13.708C23.554,12.819 23.803,11.949 24.274,11.195C24.744,10.441 25.416,9.834 26.214,9.444C27.012,9.053 27.904,8.893 28.787,8.984C29.671,9.074 30.512,9.411 31.214,9.955C31.917,10.499 32.452,11.229 32.76,12.063C33.068,12.896 33.137,13.799 32.957,14.669C32.778,15.539 32.358,16.342 31.745,16.985C31.133,17.629 30.352,18.088 29.492,18.31ZM11.572,12.52L21.282,12.52C21.562,10.86 22.421,9.353 23.707,8.266C24.992,7.179 26.621,6.582 28.304,6.581L28.853,6.581C28.934,6.59 29.016,6.581 29.093,6.556C29.171,6.53 29.242,6.489 29.302,6.434C29.362,6.38 29.41,6.313 29.443,6.239C29.476,6.164 29.492,6.084 29.492,6.002L29.492,5.394C29.492,3.819 28.866,2.308 27.752,1.194C26.639,0.081 25.128,-0.545 23.553,-0.545L9.301,-0.545C7.726,-0.545 6.215,0.081 5.101,1.194C3.988,2.308 3.362,3.819 3.362,5.394L3.362,6.017C3.362,6.098 3.378,6.179 3.411,6.253C3.444,6.328 3.492,6.394 3.552,6.449C3.612,6.504 3.683,6.545 3.761,6.57C3.838,6.596 3.92,6.604 4,6.596L4.55,6.596C6.231,6.597 7.858,7.191 9.143,8.275C10.428,9.359 11.288,10.863 11.572,12.52Z" transform="rotate(0 16.427 13.114)" fill="#8C8D89"/>
</svg>
