<svg width="34" height="28" viewBox="0 0 34 28" fill="none" xmlns="http://www.w3.org/2000/svg" xmlns:xlink="http://www.w3.org/1999/xlink">
<path d="M29.492,18.345L29.492,24.433C29.492,25.063 29.242,25.667 28.796,26.112C28.351,26.558 27.746,26.808 27.116,26.808L5.737,26.808C5.107,26.808 4.503,26.558 4.058,26.112C3.612,25.667 3.362,25.063 3.362,24.433L3.362,18.345C2.502,18.123 1.721,17.664 1.108,17.021C0.496,16.377 0.076,15.575 -0.103,14.705C-0.283,13.835 -0.215,12.931 0.094,12.098C0.402,11.265 0.937,10.534 1.639,9.99C2.342,9.446 3.183,9.11 4.066,9.019C4.95,8.929 5.842,9.088 6.64,9.479C7.438,9.87 8.11,10.476 8.58,11.23C9.051,11.984 9.3,12.855 9.301,13.743L9.301,19.682C9.301,19.997 9.426,20.299 9.648,20.521C9.871,20.744 10.173,20.869 10.488,20.869C10.803,20.869 11.105,20.744 11.328,20.521C11.551,20.299 11.676,19.997 11.676,19.682L11.676,14.931L21.178,14.931L21.178,19.682C21.178,19.997 21.303,20.299 21.526,20.521C21.748,20.744 22.05,20.869 22.365,20.869C22.68,20.869 22.983,20.744 23.205,20.521C23.428,20.299 23.553,19.997 23.553,19.682L23.553,13.743C23.554,12.855 23.803,11.984 24.274,11.23C24.744,10.476 25.416,9.87 26.214,9.479C27.012,9.088 27.904,8.929 28.787,9.019C29.671,9.11 30.512,9.446 31.214,9.99C31.917,10.534 32.452,11.265 32.76,12.098C33.068,12.931 33.137,13.835 32.957,14.705C32.778,15.575 32.358,16.377 31.745,17.021C31.133,17.664 30.352,18.123 29.492,18.345ZM11.572,12.555L21.282,12.555C21.562,10.895 22.421,9.389 23.707,8.302C24.992,7.215 26.621,6.618 28.304,6.617L28.853,6.617C28.934,6.625 29.016,6.616 29.093,6.591C29.171,6.566 29.242,6.524 29.302,6.47C29.362,6.415 29.41,6.348 29.443,6.274C29.476,6.199 29.492,6.119 29.492,6.038L29.492,5.429C29.492,3.854 28.866,2.343 27.752,1.23C26.639,0.116 25.128,-0.51 23.553,-0.51L9.301,-0.51C7.726,-0.51 6.215,0.116 5.101,1.23C3.988,2.343 3.362,3.854 3.362,5.429L3.362,6.053C3.362,6.134 3.378,6.214 3.411,6.289C3.444,6.363 3.492,6.43 3.552,6.484C3.612,6.539 3.683,6.58 3.761,6.606C3.838,6.631 3.92,6.64 4,6.632L4.55,6.632C6.231,6.632 7.858,7.227 9.143,8.311C10.428,9.395 11.288,10.898 11.572,12.555Z" transform="rotate(0 16.427 13.149)" fill="#000000"/>
</svg>
